<svg width="1440" height="862" viewBox="0 0 1440 862" fill="none" xmlns="http://www.w3.org/2000/svg">
<rect width="1442" height="862" transform="translate(-1)" fill="#D7F3F5"/>
<g clip-path="url(#clip0_12404_44077)">
<path opacity="0.5" d="M596.478 135.908C583.974 141.687 569.67 142.289 556.714 137.581C543.757 132.874 533.21 123.243 527.391 110.808C512.274 78.4989 484.871 53.4772 451.208 41.2472C417.546 29.0172 380.383 30.5807 347.895 45.5939C315.407 60.607 290.253 87.84 277.97 121.302C265.687 154.763 267.279 191.713 282.395 224.021C285.468 230.201 287.265 236.929 287.684 243.809C288.103 250.688 287.135 257.583 284.834 264.082C282.535 270.584 278.951 276.561 274.293 281.662C269.636 286.765 264 290.89 257.715 293.794C251.429 296.698 244.624 298.323 237.696 298.575C230.768 298.825 223.86 297.697 217.377 295.255C210.894 292.813 204.965 289.108 199.942 284.356C194.918 279.604 190.901 273.902 188.125 267.585C162.184 210.516 159.924 145.587 181.837 86.8956C203.749 28.204 248.066 -19.5139 305.166 -45.9001C362.264 -72.2862 427.539 -75.2108 486.819 -54.0389C546.1 -32.8667 594.599 10.6929 621.793 67.1844C624.678 73.3505 626.312 80.0213 626.6 86.8149C626.889 93.6082 625.829 100.391 623.476 106.775C621.124 113.158 617.53 119.017 612.897 124.016C608.264 129.016 602.685 133.057 596.478 135.908Z" fill="url(#paint0_linear_12404_44077)" fill-opacity="0.2"/>
<g opacity="0.5" filter="url(#filter0_d_12404_44077)">
<path d="M794.553 29.987C784.332 9.60781 758.243 3.52663 740.627 18.0866C675.721 71.732 537.747 196.636 496.412 319.831C376.191 279.684 190.758 313.399 107.494 332.222C85.001 337.306 73.9686 361.83 84.2592 382.348L277.054 766.75C375.07 962.178 554.925 983.406 774.64 874.572C994.355 765.737 1085.57 610.234 987.557 414.806L794.553 29.987Z" fill="url(#paint1_linear_12404_44077)" fill-opacity="0.2"/>
</g>
<path opacity="0.6" d="M1613.25 928.03C1597.62 927.906 1582.68 921.612 1571.72 910.534C1560.76 899.458 1554.67 884.502 1554.79 868.959C1555.12 828.58 1539.3 789.724 1510.82 760.942C1482.34 732.162 1443.53 715.81 1402.92 715.486C1362.32 715.163 1323.24 730.895 1294.3 759.22C1265.36 787.544 1248.92 826.142 1248.59 866.523C1248.71 874.334 1247.26 882.09 1244.33 889.336C1241.39 896.581 1237.03 903.171 1231.5 908.715C1225.96 914.26 1219.37 918.648 1212.11 921.621C1204.84 924.596 1197.05 926.096 1189.2 926.034C1181.34 925.972 1173.58 924.348 1166.37 921.258C1159.15 918.17 1152.63 913.677 1147.19 908.045C1141.74 902.413 1137.49 895.754 1134.67 888.464C1131.85 881.171 1130.52 873.393 1130.77 865.586C1132.13 794.626 1161.57 727.061 1212.71 677.557C1263.85 628.054 1332.56 600.607 1403.92 601.175C1475.29 601.743 1543.55 630.28 1593.88 680.59C1644.22 730.902 1672.57 798.927 1672.78 869.9C1672.71 877.605 1671.13 885.224 1668.1 892.319C1665.07 899.414 1660.67 905.844 1655.14 911.244C1649.61 916.645 1643.06 920.905 1635.87 923.787C1628.69 926.667 1621 928.108 1613.25 928.03Z" fill="url(#paint2_linear_12404_44077)" fill-opacity="0.2"/>
<path opacity="0.6" d="M1067.79 204.542V84.0258C1067.79 84.0258 1105.42 81.8826 1147.41 124.441C1147.41 124.441 1176.41 152.789 1190.92 204.542H1067.79Z" fill="url(#paint3_linear_12404_44077)" fill-opacity="0.2"/>
<path opacity="0.6" d="M1303.01 6.54659e-06H1379.36C1379.36 6.54659e-06 1435.18 -0.12626 1439.92 34.6929V288.545C1439.92 288.545 1364.11 266.349 1333.2 222.091C1302.29 177.841 1303.04 138.147 1303.04 138.147V6.54659e-06H1303.01Z" fill="url(#paint4_linear_12404_44077)" fill-opacity="0.2"/>
</g>
<defs>
<filter id="filter0_d_12404_44077" x="50.3828" y="-15.9199" width="1006.38" height="989.865" filterUnits="userSpaceOnUse" color-interpolation-filters="sRGB">
<feFlood flood-opacity="0" result="BackgroundImageFix"/>
<feColorMatrix in="SourceAlpha" type="matrix" values="0 0 0 0 0 0 0 0 0 0 0 0 0 0 0 0 0 0 127 0" result="hardAlpha"/>
<feOffset dy="4"/>
<feGaussianBlur stdDeviation="15"/>
<feComposite in2="hardAlpha" operator="out"/>
<feColorMatrix type="matrix" values="0 0 0 0 1 0 0 0 0 1 0 0 0 0 1 0 0 0 0.05 0"/>
<feBlend mode="normal" in2="BackgroundImageFix" result="effect1_dropShadow_12404_44077"/>
<feBlend mode="normal" in="SourceGraphic" in2="effect1_dropShadow_12404_44077" result="shape"/>
</filter>
<linearGradient id="paint0_linear_12404_44077" x1="391.532" y1="186.279" x2="266.702" y2="6.57678" gradientUnits="userSpaceOnUse">
<stop stop-color="#29BBD4"/>
<stop offset="1" stop-color="#009EA9" stop-opacity="0.3"/>
</linearGradient>
<linearGradient id="paint1_linear_12404_44077" x1="419.681" y1="166.838" x2="771.117" y2="876.317" gradientUnits="userSpaceOnUse">
<stop stop-color="#29BBD4"/>
<stop offset="1" stop-color="#009EA9" stop-opacity="0.3"/>
</linearGradient>
<linearGradient id="paint2_linear_12404_44077" x1="1403.91" y1="601.175" x2="1401.32" y2="927.721" gradientUnits="userSpaceOnUse">
<stop stop-color="#29BBD4"/>
<stop offset="1" stop-color="#009EA9" stop-opacity="0.3"/>
</linearGradient>
<linearGradient id="paint3_linear_12404_44077" x1="1129.35" y1="84.0079" x2="1129.35" y2="204.542" gradientUnits="userSpaceOnUse">
<stop stop-color="#29BBD4"/>
<stop offset="1" stop-color="#009EA9" stop-opacity="0.3"/>
</linearGradient>
<linearGradient id="paint4_linear_12404_44077" x1="1371.47" y1="4.33155e-08" x2="1371.47" y2="288.545" gradientUnits="userSpaceOnUse">
<stop stop-color="#29BBD4"/>
<stop offset="1" stop-color="#009EA9" stop-opacity="0.3"/>
</linearGradient>
<clipPath id="clip0_12404_44077">
<rect width="1415" height="862" fill="white" transform="translate(24)"/>
</clipPath>
</defs>
</svg>
