<svg width="409" height="305" viewBox="0 0 409 305" fill="none" xmlns="http://www.w3.org/2000/svg">
<g clip-path="url(#clip0_12534_20810)">
<path d="M396.009 187.691C392.514 193.852 388.196 199.793 382.929 205.446C343.278 247.995 368.568 243.29 366.766 266.969C364.963 290.644 266.258 304.744 232.375 302.34C198.492 299.939 160.527 304.957 141.785 304.615C123.039 304.272 70.4261 293.918 70.4261 293.918C70.4261 293.918 33.0859 285.338 39.2664 252.491C45.4468 219.64 38.7513 206.402 25.1028 184.338C24.9968 184.168 24.8908 183.995 24.7847 183.822C10.9545 161.661 -20.8188 122.296 20.3122 64.0719C61.7689 5.39365 112.951 5.05115 138.544 12.2579C164.136 19.4611 198.019 26.6679 217.844 23.9244C237.669 21.1772 298.584 5.73614 315.887 7.10972C333.186 8.4833 377.525 13.974 393.021 58.9237C406.461 97.9068 418.818 147.467 396.009 187.691Z" fill="url(#paint0_linear_12534_20810)"/>
<path d="M385.22 125.132C371.336 131.347 370.352 140.519 369.912 142.159V142.185C369.912 142.185 369.905 142.17 369.905 142.159C369.458 140.519 368.481 131.347 354.598 125.132C367.765 120.359 369.75 108.988 369.897 107.932C369.905 107.917 369.905 107.899 369.905 107.885C369.912 107.899 369.912 107.917 369.912 107.932C369.92 107.932 369.912 107.939 369.912 107.939C370.083 109.035 372.075 120.366 385.22 125.132Z" fill="white"/>
<path d="M405.174 116.577C396.539 120.445 395.926 126.149 395.653 127.169V127.184C395.653 127.184 395.65 127.173 395.65 127.169C395.369 126.149 394.763 120.445 386.129 116.577C394.32 113.606 395.551 106.537 395.646 105.88C395.65 105.87 395.65 105.862 395.65 105.852C395.653 105.862 395.653 105.87 395.653 105.88C395.657 105.88 395.653 105.884 395.653 105.884C395.759 106.565 396.998 113.614 405.174 116.577Z" fill="white"/>
<path d="M388.333 101.431C383.08 103.782 382.709 107.254 382.542 107.874C382.372 107.254 382.005 103.785 376.752 101.431C381.732 99.625 382.486 95.324 382.542 94.9238C382.607 95.3384 383.36 99.625 388.333 101.428V101.431Z" fill="white"/>
<path d="M27.5907 108.368C19.2138 113.56 19.4372 119.562 19.3085 120.658V120.673C19.3085 120.673 19.3047 120.662 19.3047 120.658C18.8616 119.638 17.3695 113.801 7.82617 110.968C15.8774 106.767 16.0933 99.2578 16.0895 98.5656C16.0895 98.5548 16.0895 98.544 16.0895 98.5332C16.0971 98.544 16.0971 98.5512 16.0971 98.5621C16.1008 98.5621 16.0971 98.5656 16.0971 98.5656C16.3091 99.2578 18.6571 106.403 27.5907 108.361V108.368Z" fill="white"/>
<path d="M39.6677 101.151C34.4568 104.381 34.5969 108.113 34.5136 108.794V108.805C34.5136 108.805 34.5136 108.798 34.5136 108.794C34.2371 108.16 33.3093 104.529 27.375 102.766C32.3815 100.153 32.5178 95.4838 32.514 95.0512C32.514 95.044 32.514 95.0368 32.514 95.0332C32.5178 95.0404 32.5178 95.044 32.5216 95.0512C32.6541 95.4802 34.1159 99.9255 39.6677 101.144V101.151Z" fill="white"/>
<path d="M27.3798 92.8049C24.21 94.7697 24.2934 97.041 24.2441 97.4556V97.4628C24.2441 97.4628 24.2441 97.4628 24.2441 97.4556C24.0775 97.0698 23.5132 94.8598 19.9004 93.7891C22.9452 92.1992 23.0285 89.3583 23.0247 89.0987C23.0247 89.0951 23.0247 89.0915 23.0247 89.0879V89.0987C23.1042 89.3619 23.9942 92.0622 27.3722 92.8049H27.3798Z" fill="white"/>
<path d="M211.304 174.027C211.304 174.027 201.435 225.935 201.473 240.136C201.511 254.337 183.314 258.104 208.96 285.954L240.627 222.355L232.265 189.948L211.304 174.031V174.027Z" fill="#455177"/>
<path d="M366.975 179.311L342.855 198.242C338.511 197.114 323.753 261.996 323.753 261.996L326.578 292.493C282.376 300.035 240.575 307 213.342 301.693L211.343 281.173L204.48 210.839L209.517 201.101L216.902 186.832C216.902 186.832 211.706 176.283 212.952 174.931C225.862 160.889 260.43 161.754 260.43 161.754L262.884 169.26L304.969 153.393C304.969 153.393 318.042 153.145 333.009 161.271C340.931 165.565 366.975 179.315 366.975 179.315V179.311Z" fill="#CF7184"/>
<path d="M200.846 212.703C201.588 213.096 202.364 213.511 203.194 213.951C202.94 213.814 202.054 213.345 200.846 212.703Z" fill="url(#paint1_linear_12534_20810)"/>
<path d="M342.854 198.238C342.854 198.238 234.155 230.397 203.268 213.989L213.341 301.69C213.341 301.69 318.174 296.963 326.577 292.489L325.604 229.986L342.854 198.238Z" fill="url(#paint2_linear_12534_20810)"/>
<path d="M230.482 150.373C230.482 150.373 238.314 181.183 251.856 182.686C265.403 184.19 286.47 173.262 286.47 173.262L230.479 150.373H230.482Z" fill="#844E39"/>
<path d="M317.929 135.692C317.929 135.692 288.337 164.267 284.573 176.298C280.805 188.328 275.65 258.111 275.65 258.111C275.65 258.111 284.311 258.338 288.284 258.111C292.26 257.884 294.885 260.14 296.93 260.515C298.975 260.89 310.427 260.515 310.427 260.515C310.427 260.515 315.562 199.984 317.929 186.825C320.296 173.666 334.565 165.345 337.303 159.544C340.041 153.744 328.987 120.479 328.987 120.479L317.929 135.696V135.692Z" fill="#844E39"/>
<path d="M270.81 44.8667C289.256 44.5747 311.899 62.835 318.322 79.2964C323.135 91.6298 331.807 120.172 328.986 136.442C323.824 166.182 311.153 160.828 293.494 170.396C275.835 179.964 249.538 173.05 243.838 168.136C238.139 163.222 220.647 139.882 221.809 130.054C222.972 120.226 225.812 110.233 225.051 95.8695C224.286 81.5064 233.242 49.1028 254.703 44.7044C257.385 44.1565 268.216 44.9099 270.81 44.8667Z" fill="#945D44"/>
<path d="M267.304 58.1778C278.184 59.7388 292.541 74.7185 296.93 84.3264C302.599 96.7391 307.216 116.474 301.194 128.061C293.95 141.999 276.314 151.859 267.304 153.362C258.295 154.866 254.576 150.366 254.576 150.366L225.84 107.385C225.84 107.385 225.711 60.7771 251.861 58.2427C257.64 57.6839 262.271 57.4531 267.304 58.1778Z" fill="#724736"/>
<path d="M226.904 91.7739C226.904 91.7739 228.843 102.481 229.362 112.331C229.881 122.177 230.786 132.394 240.095 140.271C249.403 148.148 250.698 150.117 254.576 150.366C258.454 150.611 274.488 145.935 281.472 138.058C288.455 130.18 292.719 118.117 292.981 117.133L296.934 96.4319L293.628 85.7424C293.628 85.7424 261.431 58.5376 251.993 62.4781C242.556 66.4186 229.108 78.7267 226.908 91.7739H226.904Z" fill="#F4A988"/>
<path d="M245.456 106.23C245.456 106.23 241.124 114.605 242.612 116.451C244.1 118.297 247.656 118.542 247.656 118.542C247.656 118.542 244.759 116.264 244.979 113.74C245.199 111.216 246.687 104.568 246.687 104.568L245.46 106.223L245.456 106.23Z" fill="#B65734"/>
<path d="M251.86 117.007C251.86 117.007 248.433 116.574 249.016 117.007C249.599 117.439 251.86 117.007 251.86 117.007Z" fill="#B65734"/>
<path d="M265.932 85.8039C265.932 85.8039 280.553 82.3465 286.295 90.2311L288.283 89.2505C288.283 89.2505 286.643 83.4028 278.251 81.9932C271.51 80.8612 268.06 82.2492 268.06 82.2492L265.935 85.8039H265.932Z" fill="#484C55"/>
<path d="M240.492 87.632C240.492 87.632 232.259 85.4617 227.764 94.0817L228.479 90.2277C228.479 90.2277 230.589 86.2692 233.357 85.2093C233.357 85.2093 237.428 83.3778 238.765 85.0074L240.492 87.632Z" fill="#484C55"/>
<path d="M244.979 126.742C244.979 126.742 261.846 126.583 267.303 122.805C267.303 122.805 260.441 129.597 253.109 131.317C252.341 131.497 251.538 131.515 250.754 131.414C248.701 131.147 246.895 129.983 245.88 128.263L244.982 126.742H244.979Z" fill="#B65734"/>
<path d="M282.603 97.0945C282.603 97.0945 278.449 100.166 274.412 101.796C272.909 102.401 271.424 102.809 270.174 102.787C267.398 102.737 265.369 102.409 264.191 102.16C263.411 101.994 263.009 101.864 263.009 101.864C263.009 101.864 262.525 94.1418 269.432 93.702C275.257 93.327 282.603 97.1017 282.603 97.1017V97.0945Z" fill="#F0F2F6"/>
<path d="M262.523 97.7014C262.523 97.7014 271.961 90.2062 281.531 97.2832L284.568 96.2377C284.568 96.2377 278.728 90.4874 270.169 92.117C261.118 93.8403 262.845 95.852 262.845 95.852L262.523 97.7014Z" fill="#484C55"/>
<path d="M242.809 103.249C242.574 103.379 242.078 103.505 241.419 103.606C239.2 103.949 235.148 104.028 233.224 103.253C232.433 102.932 231.755 102.424 231.209 101.879C230.036 100.722 229.426 99.3991 229.426 99.3991L232.569 96.2626C242.199 92.7259 243.54 100.877 243.54 100.877C243.54 100.877 243.589 102.806 242.805 103.249H242.809Z" fill="#F0F2F6"/>
<path d="M230.675 98.1508C230.675 98.1508 237.969 92.0508 243.581 101.013L242.343 96.5825C242.343 96.5825 238.867 93.2513 235.246 94.2969C231.626 95.3424 230.009 97.0044 230.009 97.0044L228.982 99.6722L230.675 98.1544V98.1508Z" fill="#484C55"/>
<path d="M241.758 101.844C241.758 102.464 241.637 103.063 241.421 103.607C239.202 103.949 235.149 104.029 233.226 103.254C232.434 102.933 231.756 102.424 231.211 101.88V101.84C231.211 99.0644 233.574 96.8184 236.486 96.8184C239.399 96.8184 241.758 99.068 241.758 101.84V101.844Z" fill="#484C55"/>
<path d="M274.529 100.603C274.529 101.011 274.488 101.411 274.408 101.797C272.905 102.402 271.42 102.81 270.17 102.788C267.394 102.738 265.365 102.41 264.187 102.161C264.05 101.667 263.979 101.148 263.979 100.607C263.979 97.5173 266.342 95.0117 269.254 95.0117C272.166 95.0117 274.525 97.5173 274.525 100.607L274.529 100.603Z" fill="#484C55"/>
<path d="M334.627 231.417L265.934 209.725L261.916 226.035L310.428 260.511L334.627 231.417Z" fill="#455177"/>
<path d="M359.231 184.811C359.231 184.811 364.798 259.99 356.13 265.607C341.11 275.341 325.458 265.682 310.424 260.513L337.74 205.591L342.091 196.982L359.227 184.811H359.231Z" fill="#455177"/>
<path d="M193.768 162.072L179.65 136.443C178.84 134.745 181.578 131.965 183.539 131.879L207.954 130.815C209.113 130.765 210.181 131.407 210.635 132.423L224.394 163.439C225.231 165.328 223.583 167.368 221.447 167.076L195.9 163.594C194.965 163.468 194.162 162.894 193.772 162.072H193.768Z" fill="url(#paint3_linear_12534_20810)"/>
<path d="M192.109 163.842L179.483 137.376C178.673 135.678 179.922 133.735 181.88 133.652L206.295 132.589C207.454 132.538 208.522 133.18 208.976 134.197L222.735 165.212C223.572 167.101 221.924 169.142 219.788 168.85L194.241 165.367C193.306 165.241 192.503 164.668 192.113 163.846L192.109 163.842Z" fill="url(#paint4_linear_12534_20810)"/>
<path d="M193.449 144.468L187.87 144.785C186.852 144.843 185.693 144.118 185.28 143.163L182.932 137.715C182.493 136.695 182.996 135.815 184.064 135.761L189.912 135.466C190.968 135.411 192.142 136.201 192.532 137.218L194.611 142.64C194.979 143.595 194.456 144.406 193.445 144.464L193.449 144.468Z" fill="#4772B2"/>
<path d="M193.052 144.872L187.47 145.189C186.451 145.247 185.288 144.522 184.875 143.567L182.512 138.119C182.069 137.099 182.573 136.22 183.641 136.165L189.496 135.87C190.552 135.816 191.73 136.605 192.124 137.622L194.218 143.048C194.585 144.003 194.067 144.814 193.055 144.872H193.052Z" fill="url(#paint5_linear_12534_20810)"/>
<path d="M187.938 138.494C188.287 139.348 187.847 140.076 186.961 140.123C186.071 140.17 185.056 139.521 184.693 138.663C184.326 137.798 184.761 137.055 185.666 137.008C186.567 136.961 187.586 137.628 187.938 138.494Z" fill="#243A68"/>
<path d="M190.616 140.319C190.767 140.701 190.567 141.029 190.165 141.051C189.764 141.072 189.309 140.78 189.154 140.394C188.999 140.009 189.199 139.677 189.605 139.655C190.01 139.634 190.461 139.929 190.616 140.315V140.319Z" fill="#DEE1EB"/>
<path d="M189.419 142.118C189.756 142.943 189.321 143.646 188.45 143.693C187.579 143.74 186.587 143.116 186.235 142.291C185.882 141.458 186.31 140.737 187.2 140.69C188.086 140.643 189.079 141.285 189.419 142.114V142.118Z" fill="#243A68"/>
<path d="M186.109 151.524C186.109 151.524 182.072 172.553 182.773 173.27C183.474 173.988 187.821 198.305 187.821 198.305H209.453L217.008 181.595L205.499 168.875L222.23 143.549C222.529 142.99 222.033 142.341 221.382 142.442C219.019 142.813 216.864 143.963 215.3 145.69L194.24 165.364L192.112 163.843L186.113 151.524H186.109Z" fill="#F5AA89"/>
<path d="M224.048 149.454L217.724 165.742L208.514 178.645L198.35 174.701L205.503 168.872L213.411 161.135C213.411 161.135 215.69 149.818 222.859 148.192C223.647 148.012 224.332 148.729 224.052 149.454H224.048Z" fill="#F5AA89"/>
<path d="M225.813 155.459L216.796 175.418L208.325 183.663L204.371 176.672L213.971 167.533C213.971 167.533 220.337 151.969 225.81 155.459H225.813Z" fill="#F5AA89"/>
<path d="M224.389 163.438L217.72 186.504L209.449 198.304L208.506 180.873L215.084 175.422C215.084 175.422 218.799 161.855 224.385 163.442L224.389 163.438Z" fill="#F5AA89"/>
<path d="M224.049 149.453C224.049 149.453 219.538 161.069 218.629 163.405C217.72 165.741 204.371 179.6 204.371 179.6C204.371 179.6 219.182 165.979 219.932 163.95C220.686 161.92 224.049 149.453 224.049 149.453Z" fill="#B65734"/>
<path d="M222.952 161.139C222.952 161.139 219.302 172.791 216.791 175.422C214.28 178.051 204.994 187.071 204.994 187.071C204.994 187.071 218.927 176.017 219.177 174.705C219.427 173.389 222.952 161.139 222.952 161.139Z" fill="#B65734"/>
<path d="M219.177 148.166L204.37 168.492L196.213 178.644L206.377 167.771L219.177 148.166Z" fill="#B65734"/>
<path d="M211.342 281.17C211.342 281.17 207.487 292.418 195.626 296.283C183.761 300.148 172.086 282.331 171.704 271.548C171.329 260.765 187.817 198.301 187.817 198.301H209.453L209.513 201.095L204.477 210.832L211.339 281.166L211.342 281.17Z" fill="#455177"/>
<path d="M256.938 204.653C256.938 204.653 244.089 179.413 243.059 176.576C242.029 173.739 228.066 166.258 228.066 166.258C228.066 166.258 226.51 169.874 230.414 173.699C234.318 177.524 238.177 182.712 238.177 182.712L243.578 204.653H256.938Z" fill="#DB947B"/>
<path d="M243.578 219.759C243.578 219.759 231.679 208.539 230.278 204.357C229.115 200.882 227.555 191.249 227.059 188.087C226.983 187.608 227.475 187.229 227.952 187.399C229.672 188.022 232.985 189.58 233.856 192.558C235.045 196.631 235.227 198.438 235.227 198.438C235.227 198.438 249.591 200.298 251.86 203.366C254.128 206.434 261.918 226.035 261.918 226.035L243.581 219.759H243.578Z" fill="#DB947B"/>
<path d="M260.145 204.423L245.603 184.811L233.465 190.128L231.061 205.861L238.173 210.411L243.19 209.29L238.173 200.544L243.19 190.128L240.252 200.991L243.19 213.551L249.946 216.778L246.182 203.46L253.143 199.123L249.253 205.861L249.946 216.778L254.775 220.964L260.145 204.423Z" fill="#F5AA89"/>
<path d="M265.932 209.725L260.145 204.422L254.775 220.963L261.914 226.035L265.932 209.725Z" fill="#F5AA89"/>
<path d="M243.191 190.127L237.34 200.135C236.995 200.726 237.075 201.458 237.537 201.97L241.506 206.35L238.544 201.188C238.309 200.78 238.29 200.29 238.495 199.868L243.187 190.127H243.191Z" fill="#B65734"/>
<path d="M253.142 199.123L246.182 203.46L248.874 212.989L249.946 216.778L247.208 203.821L253.142 199.123Z" fill="#B65734"/>
<path d="M256.343 204.422L253.707 209.725C253.707 209.725 255.203 216.863 254.779 218.147C254.351 219.434 253.707 220.032 253.707 220.032C253.707 220.032 256.025 219.246 255.832 217.718C255.638 216.189 254.415 209.725 254.415 209.725L256.347 204.422H256.343Z" fill="#B65734"/>
<path d="M204.684 105.78C204.684 111.966 202.026 117.59 197.743 121.671C193.46 125.749 187.552 128.28 181.049 128.28H53.9299C40.9328 128.28 30.2988 118.156 30.2988 105.783C30.2988 99.5967 32.9573 93.9726 37.2405 89.8915C39.7929 87.4616 42.9248 85.5833 46.4127 84.4585C48.7758 83.6978 51.3055 83.2832 53.9337 83.2832H181.057C194.054 83.2832 204.688 93.4066 204.688 105.78H204.684Z" fill="white"/>
<path d="M105.263 125.933L94.6028 127.688H53.9299C40.9328 127.688 30.2988 117.565 30.2988 105.192C30.2988 99.0054 32.9573 93.3813 37.2405 89.3002C39.7929 86.8703 42.9248 84.992 46.4127 83.8672L45.1024 85.9834C45.1024 85.9834 26.2353 132.184 105.267 125.933H105.263Z" fill="url(#paint6_linear_12534_20810)"/>
<path d="M181.05 130.446H53.9303C39.6418 130.446 28.0156 119.378 28.0156 105.776C28.0156 99.2108 30.7196 93.0243 35.6238 88.3519C38.4451 85.6661 41.9216 83.6075 45.6746 82.3961C48.3293 81.5417 51.1051 81.1055 53.9265 81.1055H181.05C195.338 81.1055 206.964 92.1734 206.964 105.776C206.964 112.341 204.26 118.527 199.356 123.2C194.448 127.872 187.946 130.443 181.05 130.443V130.446ZM53.9265 85.4497C51.605 85.4497 49.3177 85.8067 47.1364 86.5097C44.0424 87.5047 41.1756 89.2064 38.8465 91.4236C34.802 95.2775 32.5714 100.375 32.5714 105.779C32.5714 116.988 42.1488 126.106 53.9227 126.106H181.046C186.723 126.106 192.077 123.986 196.126 120.132C200.17 116.278 202.397 111.18 202.397 105.776C202.397 94.5673 192.82 85.4497 181.046 85.4497H53.9303H53.9265Z" fill="#5290A9"/>
<path d="M60.2422 94.8242L63.98 102.038L72.3417 103.192L66.2901 108.805L67.7216 116.733L60.2422 112.991L52.7666 116.733L54.1943 108.805L48.1426 103.192L56.5044 102.038L60.2422 94.8242Z" fill="#EFC22E"/>
<path d="M88.8653 94.8242L92.6031 102.038L100.965 103.192L94.917 108.805L96.3447 116.733L88.8653 112.991L81.3897 116.733L82.8174 108.805L76.7695 103.192L85.1275 102.038L88.8653 94.8242Z" fill="#EFC22E"/>
<path d="M117.488 94.8242L121.23 102.038L129.588 103.192L123.54 108.805L124.968 116.733L117.488 112.991L110.013 116.733L111.44 108.805L105.393 103.192L113.751 102.038L117.488 94.8242Z" fill="#EFC22E"/>
<path d="M146.113 94.8242L149.851 102.038L158.209 103.192L152.161 108.805L153.589 116.733L146.113 112.991L138.634 116.733L140.062 108.805L134.014 103.192L142.372 102.038L146.113 94.8242Z" fill="#EFC22E"/>
<path d="M174.736 94.8242L178.474 102.038L186.832 103.192L180.784 108.805L182.212 116.733L174.736 112.991L167.257 116.733L168.685 108.805L162.637 103.192L170.995 102.038L174.736 94.8242Z" fill="#EFC22E"/>
<path d="M60.8681 223.043H118.885C122.399 223.043 125.247 220.331 125.247 216.986V186.41C125.247 183.065 122.399 180.354 118.885 180.354H60.8681C57.3543 180.354 54.5059 183.065 54.5059 186.41V216.986C54.5059 220.331 57.3543 223.043 60.8681 223.043Z" fill="#232D57"/>
<path d="M72.1996 223.043L62.7812 233.696V223.043H72.1996Z" fill="#232D57"/>
<path d="M162.962 143.908H81.3627C76.4229 143.908 72.418 147.72 72.418 152.424V195.427C72.418 200.129 76.4229 203.942 81.3627 203.942H162.962C167.903 203.942 171.907 200.129 171.907 195.427V152.424C171.907 147.72 167.903 143.908 162.962 143.908Z" fill="#5290A9"/>
<path d="M107.996 170.988H105.376C104.393 170.988 103.596 171.747 103.596 172.683V175.178C103.596 176.113 104.393 176.872 105.376 176.872H107.996C108.979 176.872 109.776 176.113 109.776 175.178V172.683C109.776 171.747 108.979 170.988 107.996 170.988Z" fill="white"/>
<path d="M123.471 170.988H120.85C119.867 170.988 119.07 171.747 119.07 172.683V175.178C119.07 176.113 119.867 176.872 120.85 176.872H123.471C124.454 176.872 125.251 176.113 125.251 175.178V172.683C125.251 171.747 124.454 170.988 123.471 170.988Z" fill="white"/>
<path d="M138.945 170.988H136.325C135.342 170.988 134.545 171.747 134.545 172.683V175.178C134.545 176.113 135.342 176.872 136.325 176.872H138.945C139.929 176.872 140.725 176.113 140.725 175.178V172.683C140.725 171.747 139.929 170.988 138.945 170.988Z" fill="white"/>
<path d="M147.023 203.943L160.27 218.93V203.943H147.023Z" fill="#5290A9"/>
<path d="M344.944 103.548C355.971 103.548 364.909 95.0387 364.909 84.5418C364.909 74.0449 355.971 65.5352 344.944 65.5352C333.917 65.5352 324.979 74.0449 324.979 84.5418C324.979 95.0387 333.917 103.548 344.944 103.548Z" fill="#4A85D3"/>
<path d="M355.39 68.3181C357.378 71.2743 358.529 74.7859 358.529 78.5569C358.529 89.0552 349.592 97.5635 338.564 97.5635C334.735 97.5635 331.156 96.536 328.119 94.7551C331.668 100.029 337.878 103.523 344.945 103.523C355.973 103.523 364.91 95.0146 364.91 84.5163C364.91 77.6664 361.1 71.6601 355.39 68.3145V68.3181Z" fill="#407EC1"/>
<path d="M327.691 86.5462C327.691 76.8013 335.992 68.8987 346.228 68.8987C352.212 68.8987 357.533 71.599 360.922 75.7883C357.722 70.4994 351.723 66.9375 344.846 66.9375C334.61 66.9375 326.309 74.8401 326.309 84.585C326.309 88.6336 327.744 92.365 330.152 95.3429C328.585 92.7543 327.691 89.7512 327.691 86.5462Z" fill="#5B9ADD"/>
<path d="M356.449 80.046H349.519C349.344 80.046 349.208 79.8874 349.257 79.7251C349.537 78.7734 349.564 77.7387 349.564 76.7616C349.564 76.2209 349.59 75.6116 349.53 75.0203C349.465 74.4219 349.31 73.8414 348.939 73.3872C348.526 72.8825 347.913 72.5039 347.231 72.5039C345.648 72.5039 345.398 73.982 345.251 75.1754C345.08 76.5706 345.012 78.0163 344.361 79.3033C343.906 80.2046 343.262 80.9761 342.255 81.3583C341.479 81.6503 340.907 81.8774 340.089 82.0288C339.964 82.0541 339.869 82.155 339.869 82.2776V92.0333C339.869 92.1739 339.99 92.2893 340.138 92.2893H342.975C343.062 92.2893 343.141 92.3289 343.19 92.3974C343.751 93.1112 344.645 93.5727 345.652 93.5727H354.536C355.831 93.5727 356.896 92.5632 356.896 91.3267C356.896 91.0058 356.816 90.7066 356.672 90.4362C356.615 90.3316 356.646 90.2018 356.744 90.1261C357.225 89.762 357.536 88.9292 357.536 88.3019V88.0459C357.536 87.7251 357.456 87.4258 357.312 87.1554C357.255 87.0509 357.286 86.9211 357.384 86.8454C357.865 86.4813 358.176 85.9189 358.176 85.2916V85.0356C358.176 84.7147 358.096 84.4155 357.952 84.1451C357.895 84.0405 357.926 83.9108 358.024 83.8351C358.505 83.4709 358.816 82.9085 358.816 82.2812C358.816 81.0482 357.755 80.0352 356.456 80.0352L356.449 80.046Z" fill="white"/>
<path d="M338.208 80.9297H333.171C333.051 80.9297 332.955 81.0213 332.955 81.1352V93.0864C332.955 93.1996 333.051 93.2919 333.171 93.2919H338.208C338.327 93.2919 338.424 93.1996 338.424 93.0864V81.1352C338.424 81.0213 338.327 80.9297 338.208 80.9297Z" fill="white"/>
<path d="M361.442 58.376C367.939 58.376 373.205 53.3626 373.205 47.1782C373.205 40.9939 367.939 35.9805 361.442 35.9805C354.946 35.9805 349.68 40.9939 349.68 47.1782C349.68 53.3626 354.946 58.376 361.442 58.376Z" fill="#4A85D3"/>
<path d="M367.6 37.6211C368.77 39.3624 369.452 41.4318 369.452 43.6526C369.452 49.8355 364.184 54.8503 357.689 54.8503C355.432 54.8503 353.326 54.2447 351.535 53.1956C353.626 56.3032 357.284 58.3618 361.446 58.3618C367.941 58.3618 373.208 53.347 373.208 47.1641C373.208 43.1262 370.963 39.5895 367.6 37.6211Z" fill="#407EC1"/>
<path d="M351.281 48.3594C351.281 42.6163 356.17 37.962 362.203 37.962C365.729 37.962 368.864 39.5519 370.86 42.0214C368.974 38.9029 365.441 36.8047 361.389 36.8047C355.356 36.8047 350.467 41.459 350.467 47.2021C350.467 49.5887 351.311 51.7843 352.731 53.54C351.807 52.015 351.281 50.2449 351.281 48.3594Z" fill="#5B9ADD"/>
<path d="M368.22 44.5315H364.137C364.035 44.5315 363.956 44.4377 363.982 44.344C364.149 43.7816 364.164 43.1723 364.164 42.5991C364.164 42.2818 364.179 41.9213 364.145 41.5716C364.107 41.2183 364.016 40.8794 363.797 40.609C363.554 40.3098 363.191 40.0898 362.789 40.0898C361.858 40.0898 361.71 40.9587 361.623 41.6653C361.521 42.4873 361.483 43.3381 361.1 44.0952C360.831 44.6252 360.453 45.083 359.858 45.3066C359.4 45.4796 359.067 45.613 358.582 45.7031C358.506 45.7176 358.453 45.7789 358.453 45.851V51.5976C358.453 51.6806 358.525 51.7491 358.612 51.7491H360.282C360.331 51.7491 360.381 51.7743 360.411 51.8104C360.74 52.2322 361.267 52.5026 361.861 52.5026H367.095C367.86 52.5026 368.485 51.9077 368.485 51.1794C368.485 50.992 368.436 50.8117 368.352 50.6567C368.318 50.5954 368.337 50.5161 368.394 50.4728C368.678 50.2565 368.86 49.7662 368.86 49.3985V49.2471C368.86 49.0596 368.811 48.8793 368.727 48.7243C368.693 48.663 368.712 48.5837 368.769 48.5404C369.053 48.3241 369.235 47.996 369.235 47.6247V47.4733C369.235 47.2858 369.186 47.1056 369.102 46.9505C369.068 46.8893 369.087 46.8099 369.144 46.7667C369.428 46.5504 369.61 46.2223 369.61 45.851C369.61 45.1227 368.985 44.5278 368.22 44.5278V44.5315Z" fill="white"/>
<path d="M357.473 45.0508H354.508C354.436 45.0508 354.379 45.1057 354.379 45.1734V52.2107C354.379 52.2784 354.436 52.3333 354.508 52.3333H357.473C357.544 52.3333 357.602 52.2784 357.602 52.2107V45.1734C357.602 45.1057 357.544 45.0508 357.473 45.0508Z" fill="white"/>
<path d="M118.696 93.3462C145.48 93.3462 167.193 72.6762 167.193 47.178C167.193 21.68 145.48 1.00977 118.696 1.00977C91.9121 1.00977 70.1992 21.68 70.1992 47.178C70.1992 72.6762 91.9121 93.3462 118.696 93.3462Z" fill="white" stroke="#5290A9" stroke-width="2.795" stroke-miterlimit="10"/>
<mask id="mask0_12534_20810" style="mask-type:luminance" maskUnits="userSpaceOnUse" x="75" y="6" width="87" height="82">
<path d="M118.696 87.927C142.336 87.927 161.5 69.6827 161.5 47.1773C161.5 24.6719 142.336 6.42773 118.696 6.42773C95.0553 6.42773 75.8906 24.6719 75.8906 47.1773C75.8906 69.6827 95.0553 87.927 118.696 87.927Z" fill="white"/>
</mask>
<g mask="url(#mask0_12534_20810)">
<path d="M118.696 87.927C142.336 87.927 161.5 69.6827 161.5 47.1773C161.5 24.6719 142.336 6.42773 118.696 6.42773C95.0553 6.42773 75.8906 24.6719 75.8906 47.1773C75.8906 69.6827 95.0553 87.927 118.696 87.927Z" fill="#589CA6"/>
<path d="M96.3103 72.9723C96.3103 72.9723 90.3533 74.8146 88.7135 79.3607C87.0737 83.9033 103.381 91.431 103.381 91.431L98.2114 71.8906L96.3141 72.9723H96.3103Z" fill="#FCECBE"/>
<path d="M137.737 28.8203C137.737 28.8203 143.918 32.0181 144.228 37.2709C144.539 42.5237 142.634 52.5714 146.754 54.4966C150.874 56.4217 154.215 57.6799 157.479 56.0504L160.743 54.4208C160.743 54.4208 158.645 59.0824 153.98 59.2302C153.98 59.2302 156.388 60.5605 157.79 59.2302C157.79 59.2302 155.847 62.8101 151.882 62.5758C151.882 62.5758 153.544 62.9003 155.847 62.8137C156.877 62.7741 145.198 67.3924 140.536 64.3496C135.874 61.3068 131.133 56.7931 131.364 54.3487C131.598 51.908 137.737 28.8203 137.737 28.8203Z" fill="#263A69"/>
<path d="M103.695 67.2224C103.695 67.2224 113.049 75.4352 122.869 72.3275C132.689 69.2197 135.2 65.8164 135.2 65.8164C135.2 65.8164 144.421 67.8137 144.811 68.8484C145.201 69.8831 142.327 93.7784 142.327 93.7784H101.336L96.3105 72.9728L103.695 67.2224Z" fill="#FCECBE"/>
<path d="M139.058 31.6576C139.058 31.6576 136.517 48.1622 137.32 52.1784C138.123 56.1946 139.759 61.4077 144.11 62.5758C148.462 63.7439 154.415 63.5132 154.415 63.5132C154.415 63.5132 135.002 71.751 131.355 54.9833L137.737 28.8203L139.058 31.6576Z" fill="#253151"/>
<path d="M106.434 14.3911C106.434 14.3911 98.9542 18.6993 96.7766 29.1255C94.5991 39.5518 96.3298 48.4278 98.6891 51.5354C101.048 54.6431 105.04 56.7666 107.437 57.3326C109.834 57.8986 114.757 57.1127 116.246 57.1956C117.734 57.2785 131.295 56.2583 133.625 53.749C135.95 51.2398 140.301 37.9691 139.059 31.6564C137.817 25.3437 134.215 15.707 127.959 13.2086C119.711 9.91701 110.709 10.6417 106.437 14.3911H106.434Z" fill="#3D5079"/>
<path d="M133.625 42.6465C133.625 42.6465 133.451 48.8727 132.602 50.9421C131.754 53.015 126.85 56.0867 126.85 56.0867L126.115 53.7505L133.625 42.6465Z" fill="#303D66"/>
<path d="M99.5744 29.123C99.5744 29.123 97.9119 43.6989 100.105 47.8016C102.297 51.9043 109.178 57.0309 112.42 57.7231L117.502 42.6462L99.5744 29.123Z" fill="#253151"/>
<path d="M101.934 36.1202C101.934 36.1202 100.173 34.0977 98.8775 35.035C97.5824 35.9724 96.7 39.3757 97.7377 41.0521C98.7753 42.7285 101.574 43.7164 101.934 44.5059C102.293 45.2954 103.176 46.5789 104.058 45.5911C104.941 44.6032 101.934 36.1202 101.934 36.1202Z" fill="#E39875"/>
<path d="M132.602 33.2577C132.602 33.2577 136.029 31.7291 136.907 32.9116C137.79 34.0941 137.116 38.8314 136.233 39.7182C135.351 40.6051 135.158 41.2468 134.609 42.1842C134.056 43.1215 132.602 42.332 132.602 42.332V33.2541V33.2577Z" fill="#E39875"/>
<path d="M112.554 53.7313C112.554 53.7313 112.554 62.117 111.259 63.7934C109.964 65.4699 108.979 66.8038 107.476 67.3446C105.972 67.8854 104.219 68.0837 104.219 68.0837C104.219 68.0837 113.694 75.0886 122.866 72.327C132.038 69.5653 135.197 65.816 135.197 65.816C135.197 65.816 131.103 66.2594 129.395 63.9413C127.683 61.6231 126.184 54.2721 126.702 52.3506C126.702 52.3506 113.542 51.4636 112.558 53.7313H112.554Z" fill="#C17C61"/>
<path d="M126.453 52.9141C126.453 52.9141 122.507 59.3529 119.5 59.5981C116.493 59.8433 112.422 57.7234 112.422 57.7234L112.505 54.7167L126.453 52.9141Z" fill="#953919"/>
<path d="M100.896 31.8307C100.896 31.8307 102.347 44.6544 104.316 47.5169C106.285 50.3795 110.618 56.6886 117.737 57.2834C121.331 57.5863 131.166 51.2086 131.685 43.7351C132.204 36.2615 134.113 26.7005 134.113 26.7005C134.113 26.7005 122.093 14.8141 112.091 18.906C102.089 23.0016 100.9 31.8307 100.9 31.8307H100.896Z" fill="#F5AA89"/>
<path d="M100.897 37.9438C100.897 37.9438 99.4464 35.6761 98.8746 36.956C98.3028 38.2394 99.2381 40.3665 99.2381 40.3665C99.2381 40.3665 98.9276 37.0641 99.4957 37.5544C100.064 38.0447 99.0299 38.4882 99.5487 38.9821C100.068 39.476 100.533 39.476 100.897 39.9699C101.26 40.4638 101.518 41.4481 101.518 41.4481C101.518 41.4481 101.211 38.3872 100.897 37.9474V37.9438Z" fill="#953919"/>
<path d="M135.562 37.6888C135.562 37.6888 136.634 34.8407 135.198 34.592C133.763 34.3432 133.623 37.1156 133.623 37.1156V38.9831C133.623 38.9831 134.642 37.3067 134.608 36.5171C134.574 35.7276 133.926 36.1963 134.369 35.605C134.808 35.0138 135.589 35.2337 135.638 35.4572C135.687 35.6807 135.558 37.6924 135.558 37.6924L135.562 37.6888Z" fill="#953919"/>
<path d="M118.965 30.3941C118.965 30.3941 125.922 29.4424 129.428 31.1548L128.834 29.7416C128.834 29.7416 124.57 28.0904 120.794 29.2044L118.961 30.3941H118.965Z" fill="#484C55"/>
<path d="M106.434 38.9651C106.434 38.9651 108.907 39.5455 110.618 38.5938C110.618 38.5938 108.823 40.0503 106.434 38.9651Z" fill="#484C55"/>
<path d="M110.571 31.6096C110.571 31.6096 105.402 31.9089 102.293 35.0995L102.838 33.0553C102.838 33.0553 105.713 30.5028 108.708 30.4668L110.575 31.6132L110.571 31.6096Z" fill="#484C55"/>
<path d="M115.219 39.3691C115.219 39.3691 114.829 41.6224 115.219 41.9937C115.609 42.3651 116.696 42.6499 116.696 42.6499C116.696 42.6499 115.064 43.2519 114.56 42.2894C114.056 41.3268 115.219 39.3691 115.219 39.3691Z" fill="#953919"/>
<path d="M111.545 36.3622C111.545 36.3622 108.516 33.8566 105.407 35.5186C102.297 37.1806 102.657 36.8705 102.657 36.8705C102.657 36.8705 103.994 38.3559 106.437 38.9615C106.437 38.9615 109.538 39.6105 110.621 38.5902C110.621 38.5902 111.807 38.2008 111.549 36.3586L111.545 36.3622Z" fill="#DEE1EB"/>
<path d="M107.872 39.2815C109.16 39.2815 110.205 38.2872 110.205 37.0606C110.205 35.8342 109.16 34.8398 107.872 34.8398C106.584 34.8398 105.539 35.8342 105.539 37.0606C105.539 38.2872 106.584 39.2815 107.872 39.2815Z" fill="#484C55"/>
<path opacity="0.1" d="M103.229 37.0791C103.229 37.0791 108.27 35.6839 111.519 37.5261C111.519 37.5261 111.871 36.6104 111.019 35.774C110.167 34.9376 107.838 34.0543 106.623 34.7862C105.407 35.5181 103.01 36.5636 103.01 36.5636L103.229 37.0791Z" fill="black"/>
<path d="M111.545 36.3614C111.545 36.3614 108.856 31.8405 103.929 35.7738L102.297 37.1798L103.891 38.5101L103.463 36.776C103.463 36.776 106.883 34.2236 109.216 35.2907L111.549 36.3578L111.545 36.3614Z" fill="#484C55"/>
<path d="M113.023 19.9393C113.023 19.9393 114.439 25.0479 119.711 26.6738C123.79 27.932 123.388 27.6004 123.388 27.6004L119.249 24.6044C119.249 24.6044 129.89 29.3777 131.292 32.4674V30.4521C131.292 30.4521 133.628 35.2506 133.628 37.1181C133.628 38.9856 135.772 33.6535 135.204 28.1015C134.632 22.5495 131.682 21.2768 131.682 21.2768C131.682 21.2768 111.629 9.51306 113.027 19.9465L113.023 19.9393Z" fill="#3D5079"/>
<path d="M114.655 19.2734C114.655 19.2734 111.402 25.7122 109.494 27.486C107.581 29.2634 103.54 33.2904 103.54 33.2904L106.922 27.1904C106.922 27.1904 101.348 34.2061 100.897 35.7744L100.45 37.3426C100.45 37.3426 98.0227 35.3453 99.5754 29.1228C101.128 22.9002 109.929 14.8606 112.951 15.6249C115.973 16.3892 114.652 19.2734 114.652 19.2734H114.655Z" fill="#3D5079"/>
<path d="M154.416 60.4163C154.416 60.4163 153.363 62.1937 148.232 61.5267C143.1 60.8598 139.965 57.5213 139.279 53.7539C139.279 53.7539 147.387 62.2694 154.416 60.4199V60.4163Z" fill="#253151"/>
<path d="M109.833 19.4961C109.833 19.4961 103.46 26.5875 101.517 30.5893L99.5742 34.5911C99.5742 34.5911 108.201 24.529 109.833 19.4961Z" fill="#303D66"/>
<path d="M112.949 16.7598C112.949 16.7598 119.061 23.3789 120.868 24.8246L122.674 26.2703C122.674 26.2703 113.423 22.2325 112.949 16.7598Z" fill="#303D66"/>
<path d="M118.695 17.498C118.695 17.498 129.451 30.4119 129.693 30.6246C129.935 30.8373 124.444 21.7161 118.695 17.498Z" fill="#303D66"/>
<path d="M128.461 21.1211L131.286 30.4441L133.623 35.7726C133.623 35.7726 132.009 26.8209 128.461 21.1211Z" fill="#303D66"/>
<path d="M108.527 16.7598C108.527 16.7598 99.6726 29.7457 98.6918 32.464L97.7109 35.1823C97.7109 35.1823 99.915 21.4934 108.527 16.7598Z" fill="#303D66"/>
<path d="M101.362 68.0329C101.362 68.0329 105.172 77.3597 105.714 82.3168C105.714 82.3168 128.72 87.274 137.116 81.1343L135.95 65.3867L142.013 66.854C142.013 66.854 144.576 87.8688 144.345 90.1617C144.111 92.4546 142.327 93.7814 142.327 93.7814H101.336L100.427 90.5331L100.972 82.6882L97.8633 70.553L101.362 68.0329Z" fill="#52A96F"/>
<path d="M144.811 68.8478C144.811 68.8478 149.586 71.2993 150.631 74.5909C151.676 77.8825 144.042 88.7918 144.042 88.7918C144.042 88.7918 142.478 79.7716 142.478 78.4557C142.478 77.1398 142.02 72.3557 142.02 72.3557L142.099 67.5859L144.807 68.8478H144.811Z" fill="#FCECBE"/>
<path d="M136.25 69.4395C136.25 69.4395 136.496 79.188 135.197 80.695C133.898 82.2019 125.135 84.174 125.135 84.174C125.135 84.174 134.121 84.2966 137.113 81.1348L136.246 69.4395H136.25Z" fill="#D1C18F"/>
<path d="M98.4844 72.9727C98.4844 72.9727 100.117 81.0952 99.8856 82.7608C99.6508 84.4264 98.7987 89.3835 99.4955 91.1212C100.196 92.8589 101.336 93.7783 101.336 93.7783L100.427 90.53L100.972 82.6851L98.4844 72.9727Z" fill="#D1C18F"/>
<path d="M111.664 47.4945L122.12 46.2363C122.12 46.2363 120.473 49.4702 117.413 49.6937C114.353 49.9172 111.664 47.4909 111.664 47.4909V47.4945Z" fill="#953919"/>
<path d="M120.07 35.1008C120.07 35.1008 122.887 32.3789 126.121 33.8029C129.355 35.227 128.973 34.9458 128.973 34.9458C128.973 34.9458 127.761 36.5249 125.375 37.3144C125.375 37.3144 122.334 38.1941 121.175 37.2567C121.175 37.2567 119.96 36.9575 120.07 35.1008Z" fill="#DEE1EB"/>
<path d="M123.786 37.7424C125.075 37.7424 126.119 36.7481 126.119 35.5216C126.119 34.2951 125.075 33.3008 123.786 33.3008C122.498 33.3008 121.453 34.2951 121.453 35.5216C121.453 36.7481 122.498 37.7424 123.786 37.7424Z" fill="#484C55"/>
<path opacity="0.1" d="M128.421 35.1969C128.421 35.1969 123.281 34.1802 120.191 36.2568C120.191 36.2568 119.767 35.3699 120.547 34.4722C121.327 33.5781 123.577 32.5218 124.849 33.1599C126.122 33.798 128.598 34.6633 128.598 34.6633L128.424 35.1933L128.421 35.1969Z" fill="black"/>
<path d="M120.07 35.1005C120.07 35.1005 122.38 30.3921 127.614 33.9469L129.356 35.2267L127.875 36.6724L128.159 34.9131C128.159 34.9131 124.539 32.6238 122.305 33.8604L120.066 35.0969L120.07 35.1005Z" fill="#484C55"/>
</g>
<path d="M160.272 97.2319C171.543 97.2319 180.68 88.5332 180.68 77.8034C180.68 67.0733 171.543 58.375 160.272 58.375C149.001 58.375 139.863 67.0733 139.863 77.8034C139.863 88.5332 149.001 97.2319 160.272 97.2319Z" fill="#407EC1"/>
<path d="M154.594 76.2578H153.871V81.1753H154.594V76.2578Z" fill="white"/>
<path d="M166.674 76.2578H165.951V81.1753H166.674V76.2578Z" fill="white"/>
<path d="M172.31 75.0993H148.232L148.626 73.8664L150.436 68.1484H169.773L172.31 75.0993Z" fill="white"/>
<path d="M155.114 68.1484H151.676V75.0993H155.114V68.1484Z" fill="#7DC1FF"/>
<path d="M151.675 75.0996C151.675 76.0045 150.906 76.7364 149.956 76.7364C149.005 76.7364 148.236 76.0045 148.236 75.0996H151.675Z" fill="white"/>
<path d="M155.114 75.0996C155.114 76.0045 154.346 76.7364 153.395 76.7364C152.445 76.7364 151.676 76.0045 151.676 75.0996H155.114Z" fill="#7DC1FF"/>
<path d="M158.552 68.1484H155.113V75.0993H158.552V68.1484Z" fill="white"/>
<path d="M158.552 75.0996C158.552 76.0045 157.783 76.7364 156.833 76.7364C155.882 76.7364 155.113 76.0045 155.113 75.0996H158.552Z" fill="white"/>
<path d="M165.431 68.1484H161.992V75.0993H165.431V68.1484Z" fill="white"/>
<path d="M165.433 75.0996C165.433 76.0045 164.664 76.7364 163.713 76.7364C162.763 76.7364 161.994 76.0045 161.994 75.0996H165.433Z" fill="white"/>
<path d="M172.312 75.0996C172.312 76.0045 171.543 76.7364 170.592 76.7364C169.642 76.7364 168.873 76.0045 168.873 75.0996H172.312Z" fill="white"/>
<path d="M161.991 68.1484H158.553V75.0993H161.991V68.1484Z" fill="#7DC1FF"/>
<path d="M161.991 75.0996C161.991 76.0045 161.223 76.7364 160.272 76.7364C159.322 76.7364 158.553 76.0045 158.553 75.0996H161.991Z" fill="#7DC1FF"/>
<path d="M168.872 68.1484H165.434V75.0993H168.872V68.1484Z" fill="#7DC1FF"/>
<path d="M168.872 75.0996C168.872 76.0045 168.103 76.7364 167.153 76.7364C166.202 76.7364 165.434 76.0045 165.434 75.0996H168.872Z" fill="#7DC1FF"/>
<path d="M170.047 67.8633H150.188V68.4581H170.047V67.8633Z" fill="#7DC1FF"/>
<path d="M168.52 80.6191H152.027V87.743H168.52V80.6191Z" fill="white"/>
</g>
<defs>
<linearGradient id="paint0_linear_12534_20810" x1="204.34" y1="304.633" x2="204.34" y2="7.02319" gradientUnits="userSpaceOnUse">
<stop stop-color="#D9EAEF"/>
<stop offset="0.34" stop-color="#DCEBF0"/>
<stop offset="0.64" stop-color="#E7F1F4"/>
<stop offset="0.93" stop-color="#F8FBFC"/>
<stop offset="1" stop-color="white"/>
</linearGradient>
<linearGradient id="paint1_linear_12534_20810" x1="202.02" y1="294.575" x2="202.02" y2="200.55" gradientUnits="userSpaceOnUse">
<stop stop-color="#73A872" stop-opacity="0"/>
<stop offset="0.77" stop-color="#A471A5"/>
</linearGradient>
<linearGradient id="paint2_linear_12534_20810" x1="273.063" y1="301.69" x2="273.063" y2="198.238" gradientUnits="userSpaceOnUse">
<stop stop-color="#FF7FF1" stop-opacity="0"/>
<stop offset="0.77" stop-color="#A471A5"/>
</linearGradient>
<linearGradient id="paint3_linear_12534_20810" x1="178.101" y1="143.174" x2="226.927" y2="152.216" gradientUnits="userSpaceOnUse">
<stop stop-color="#6F91CE"/>
<stop offset="0.2" stop-color="#7193CE"/>
<stop offset="0.3" stop-color="#799AD2"/>
<stop offset="0.38" stop-color="#86A7D7"/>
<stop offset="0.45" stop-color="#99B9DF"/>
<stop offset="0.51" stop-color="#B1D0EA"/>
<stop offset="0.57" stop-color="#CFECF6"/>
<stop offset="0.6" stop-color="#E3FFFF"/>
<stop offset="0.63" stop-color="#D2EFF8"/>
<stop offset="0.72" stop-color="#A9C8E6"/>
<stop offset="0.8" stop-color="#8BACDA"/>
<stop offset="0.87" stop-color="#799BD2"/>
<stop offset="0.92" stop-color="#7395D0"/>
</linearGradient>
<linearGradient id="paint4_linear_12534_20810" x1="179.233" y1="150.726" x2="222.958" y2="150.726" gradientUnits="userSpaceOnUse">
<stop stop-color="#9AA8CC"/>
<stop offset="0.19" stop-color="#9EACCE"/>
<stop offset="0.42" stop-color="#A9BAD7"/>
<stop offset="0.66" stop-color="#BDD2E4"/>
<stop offset="0.91" stop-color="#D8F2F7"/>
<stop offset="0.99" stop-color="#E3FFFF"/>
</linearGradient>
<linearGradient id="paint5_linear_12534_20810" x1="182.662" y1="141.001" x2="193.981" y2="139.947" gradientUnits="userSpaceOnUse">
<stop stop-color="#6F91CE"/>
<stop offset="0.23" stop-color="#7395CF"/>
<stop offset="0.5" stop-color="#80A3D2"/>
<stop offset="0.78" stop-color="#95BAD7"/>
<stop offset="0.99" stop-color="#AAD1DC"/>
</linearGradient>
<linearGradient id="paint6_linear_12534_20810" x1="30.295" y1="105.78" x2="105.263" y2="105.78" gradientUnits="userSpaceOnUse">
<stop stop-color="#D9EAEF"/>
<stop offset="0.34" stop-color="#DCEBF0"/>
<stop offset="0.64" stop-color="#E7F1F4"/>
<stop offset="0.93" stop-color="#F8FBFC"/>
<stop offset="1" stop-color="white"/>
</linearGradient>
<clipPath id="clip0_12534_20810">
<rect width="409" height="305" fill="white"/>
</clipPath>
</defs>
</svg>
