<svg width="189" height="161" viewBox="0 0 189 161" fill="none" xmlns="http://www.w3.org/2000/svg">
<path d="M94.5 160.548C146.691 160.548 189 159.337 189 157.842C189 156.348 146.691 155.137 94.5 155.137C42.3091 155.137 0 156.348 0 157.842C0 159.337 42.3091 160.548 94.5 160.548Z" fill="#F0F0F0"/>
<path d="M148.966 137.133C149.863 139.806 150.053 142.665 149.517 145.433C148.982 148.2 147.739 150.782 145.91 152.927C144.081 155.072 141.728 156.707 139.079 157.673C136.431 158.64 133.578 158.904 130.797 158.44C129.529 158.223 128.29 157.859 127.106 157.357C126.745 157.201 126.388 157.036 126.041 156.858C124.501 156.069 123.097 155.04 121.882 153.809C121.641 153.568 121.409 153.318 121.186 153.064C119.78 151.448 118.704 149.572 118.022 147.541C117.959 147.35 117.897 147.158 117.843 146.962C117.103 144.447 116.978 141.792 117.48 139.219C117.982 136.646 119.096 134.232 120.727 132.18C122.358 130.128 124.459 128.499 126.853 127.43C129.246 126.361 131.862 125.884 134.479 126.038C134.876 126.065 135.263 126.101 135.656 126.154C137.346 126.381 138.99 126.871 140.528 127.607C140.862 127.768 141.196 127.942 141.522 128.124C144.851 130 147.413 132.987 148.761 136.563C148.832 136.75 148.899 136.941 148.966 137.133Z" fill="#DD9145"/>
<path d="M148.966 137.133C149.863 139.806 150.053 142.665 149.517 145.433C148.982 148.2 147.739 150.782 145.91 152.927C144.081 155.072 141.728 156.707 139.079 157.673C136.431 158.64 133.578 158.904 130.797 158.44C129.529 158.223 128.29 157.859 127.106 157.357C126.745 157.201 126.388 157.036 126.041 156.858C124.501 156.069 123.097 155.04 121.882 153.809C121.641 153.568 121.409 153.318 121.186 153.064C119.78 151.448 118.704 149.572 118.022 147.541C117.959 147.35 117.897 147.158 117.843 146.962C117.103 144.447 116.978 141.792 117.48 139.219C117.982 136.646 119.096 134.232 120.727 132.18C122.358 130.128 124.459 128.499 126.853 127.43C129.246 126.361 131.862 125.884 134.479 126.038C134.876 126.065 135.263 126.101 135.656 126.154C137.346 126.381 138.99 126.871 140.528 127.607C140.862 127.768 141.196 127.942 141.522 128.124C144.851 130 147.413 132.987 148.761 136.563C148.832 136.75 148.899 136.941 148.966 137.133Z" fill="#DD9145"/>
<path opacity="0.6" d="M146.042 138.746C145.922 138.438 145.793 138.139 145.65 137.854C144.387 135.217 142.274 133.08 139.65 131.787C139.316 131.622 138.977 131.471 138.63 131.342C137.012 130.708 135.284 130.405 133.548 130.45C133.114 130.459 132.681 130.49 132.251 130.544C131.389 130.652 130.541 130.848 129.719 131.128C126.539 132.201 123.895 134.456 122.333 137.426C120.771 140.396 120.412 143.853 121.33 147.081L121.129 146.52C120.563 144.891 120.326 143.166 120.43 141.445C120.535 139.724 120.98 138.041 121.739 136.493C122.498 134.945 123.556 133.562 124.853 132.426C126.149 131.289 127.658 130.421 129.292 129.871C130.926 129.321 132.653 129.1 134.373 129.222C136.093 129.343 137.772 129.805 139.312 130.579C140.853 131.353 142.225 132.425 143.349 133.733C144.472 135.04 145.326 136.558 145.86 138.197C145.927 138.367 145.989 138.558 146.042 138.746Z" fill="#474D66"/>
<g opacity="0.3">
<path d="M137.653 154.7C137.506 154.753 137.359 154.798 137.207 154.843L136.761 154.967L136.65 154.999L136.16 155.11H136.088C135.559 155.219 135.023 155.294 134.484 155.333C134.301 155.333 134.123 155.36 133.94 155.36C133.579 155.36 133.222 155.36 132.861 155.36L132.513 155.337H132.326L132.05 155.306C131.907 155.306 131.759 155.288 131.604 155.253C131.421 155.226 131.243 155.199 131.06 155.159C130.877 155.119 130.699 155.088 130.521 155.048C130.343 155.007 130.227 154.976 130.075 154.932L129.79 154.851L129.562 154.785L129.299 154.695L128.876 154.544C128.751 154.499 128.631 154.45 128.511 154.397L128.43 154.366C128.261 154.29 128.087 154.219 127.918 154.138C127.748 154.058 127.606 153.987 127.45 153.902H127.423L127.142 153.75L126.87 153.59L126.607 153.434L126.326 153.256L126.063 153.077L125.805 152.895C125.626 152.765 125.453 152.632 125.279 152.489L125.069 152.32C124.9 152.177 124.735 152.028 124.574 151.874L124.343 151.655C124.102 151.419 123.87 151.17 123.647 150.915L123.469 150.706C123.34 150.55 123.215 150.398 123.09 150.233V150.211C122.97 150.051 122.849 149.886 122.738 149.716L122.578 149.485L122.502 149.364C122.448 149.28 122.395 149.195 122.346 149.11L122.319 149.07C122.261 148.976 122.203 148.874 122.15 148.776C122.096 148.678 122.025 148.557 121.971 148.446C121.918 148.335 121.851 148.228 121.797 148.116C121.744 148.005 121.713 147.938 121.668 147.844C121.624 147.751 121.615 147.728 121.592 147.67C121.552 147.591 121.516 147.509 121.485 147.425L121.338 147.073C120.42 143.845 120.779 140.388 122.341 137.418C123.903 134.448 126.548 132.193 129.727 131.12C130.549 130.84 131.398 130.644 132.259 130.536C132.69 130.482 133.123 130.451 133.556 130.442C135.293 130.396 137.021 130.7 138.638 131.333C138.986 131.467 139.325 131.619 139.659 131.779C142.282 133.072 144.395 135.208 145.659 137.846C145.801 138.14 145.931 138.439 146.051 138.737C146.972 141.968 146.614 145.428 145.05 148.401C143.486 151.374 140.837 153.63 137.653 154.7Z" fill="#474D66"/>
</g>
<g opacity="0.6">
<path d="M137.573 148.771L138.264 150.826L135.656 151.717L134.997 149.756C133.312 150.253 131.535 150.358 129.804 150.064L130.138 146.404C131.693 146.717 133.302 146.629 134.814 146.15C136.053 145.735 136.41 145.325 136.263 144.879C135.714 143.252 128.992 146.975 127.37 142.147C126.665 140.056 127.588 137.788 130.49 136.352L129.812 134.333L132.42 133.441L133.089 135.425C134.434 135.08 135.836 135.015 137.208 135.233L136.958 138.839C135.646 138.61 134.298 138.697 133.026 139.094C131.747 139.539 131.466 140.03 131.613 140.471C132.139 142.027 138.866 138.322 140.47 143.096C141.135 145.098 140.274 147.327 137.573 148.771Z" fill="#474D66"/>
</g>
<path d="M137.27 148.116L137.961 150.171L135.349 151.062L134.689 149.101C133.004 149.597 131.228 149.7 129.496 149.404L129.835 145.749C131.389 146.058 132.996 145.97 134.507 145.495C135.75 145.076 136.107 144.666 135.955 144.225C135.407 142.593 128.685 146.32 127.063 141.488C126.358 139.397 127.285 137.128 130.183 135.693L129.496 133.651L132.109 132.76L132.773 134.739C134.119 134.397 135.52 134.332 136.892 134.547L136.642 138.158C135.33 137.93 133.983 138.015 132.71 138.407C131.431 138.853 131.15 139.344 131.302 139.789C131.823 141.345 138.55 137.636 140.154 142.415C140.828 144.425 139.972 146.649 137.27 148.116Z" fill="#DD9145"/>
<path d="M60.1985 69.6901C59.6429 72.0716 58.5598 74.298 57.029 76.2051C55.4981 78.1122 53.5587 79.6513 51.3538 80.7088C49.1488 81.7664 46.7345 82.3155 44.289 82.3155C41.8436 82.3156 39.4293 81.7666 37.2243 80.7091C35.9014 80.0761 34.6716 79.2647 33.5691 78.2976C32.6017 77.4489 31.737 76.49 30.9926 75.4403C30.7653 75.1194 30.5469 74.7895 30.3507 74.4552C29.4547 72.9765 28.7987 71.3652 28.4072 69.6812C28.3315 69.3468 28.2646 69.017 28.2066 68.6782C27.8551 66.5651 27.9248 64.4034 28.4117 62.3173C28.4563 62.1212 28.5053 61.925 28.5632 61.7333C29.2503 59.2028 30.5367 56.875 32.3136 54.9467C34.0906 53.0184 36.3058 51.5465 38.7719 50.6554C41.238 49.7643 43.8824 49.4802 46.4815 49.8272C49.0806 50.1742 51.5579 51.142 53.7038 52.6489C54.0248 52.8762 54.3368 53.0946 54.6399 53.3621C55.9615 54.4406 57.1048 55.7208 58.0276 57.1555C58.2282 57.4675 58.4244 57.7884 58.6027 58.1138C59.9296 60.5164 60.6302 63.2145 60.6398 65.9591C60.6381 67.0063 60.5381 68.0509 60.3411 69.0794C60.2832 69.2933 60.243 69.4939 60.1985 69.6901Z" fill="#DD9145"/>
<path d="M60.1985 69.6901C59.6429 72.0716 58.5598 74.298 57.029 76.2051C55.4981 78.1122 53.5587 79.6513 51.3538 80.7088C49.1488 81.7664 46.7345 82.3155 44.289 82.3155C41.8436 82.3156 39.4293 81.7666 37.2243 80.7091C35.9014 80.0761 34.6716 79.2647 33.5691 78.2976C32.6017 77.4489 31.737 76.49 30.9926 75.4403C30.7653 75.1194 30.5469 74.7895 30.3507 74.4552C29.4547 72.9765 28.7987 71.3652 28.4072 69.6812C28.3315 69.3468 28.2646 69.017 28.2066 68.6782C27.8551 66.5651 27.9248 64.4034 28.4117 62.3173C28.4563 62.1212 28.5053 61.925 28.5632 61.7333C29.2503 59.2028 30.5367 56.875 32.3136 54.9467C34.0906 53.0184 36.3058 51.5465 38.7719 50.6554C41.238 49.7643 43.8824 49.4802 46.4815 49.8272C49.0806 50.1742 51.5579 51.142 53.7038 52.6489C54.0248 52.8762 54.3368 53.0946 54.6399 53.3621C55.9615 54.4406 57.1048 55.7208 58.0276 57.1555C58.2282 57.4675 58.4244 57.7884 58.6027 58.1138C59.9296 60.5164 60.6302 63.2145 60.6398 65.9591C60.6381 67.0063 60.5381 68.0509 60.3411 69.0794C60.2832 69.2933 60.243 69.4939 60.1985 69.6901Z" fill="#DD9145"/>
<path opacity="0.6" d="M56.8603 69.5288C56.9182 69.2079 56.9673 68.8825 56.9985 68.5571C57.3006 65.6479 56.6161 62.7216 55.055 60.2482C54.8589 59.9303 54.6493 59.6227 54.4265 59.3255C53.3833 57.9355 52.0722 56.7684 50.5707 55.8932C50.1962 55.6748 49.8109 55.4754 49.4162 55.2959C47.703 54.5144 45.841 54.1131 43.958 54.1196C42.075 54.126 40.2158 54.5402 38.508 55.3335C36.8003 56.1268 35.2846 57.2804 34.0651 58.7152C32.8456 60.1499 31.9512 61.8317 31.4434 63.6449C31.4835 63.4488 31.5236 63.2526 31.5682 63.0565C32.4345 59.7773 34.5437 56.9643 37.4488 55.2138C40.3539 53.4633 43.8264 52.9129 47.1304 53.6792C50.4344 54.4455 53.3102 56.4683 55.1481 59.3188C56.9861 62.1694 57.6418 65.6236 56.9762 68.9494C56.9628 69.1455 56.9093 69.3416 56.8603 69.5288Z" fill="#474D66"/>
<g opacity="0.3">
<path d="M41.3473 78.7116C41.1957 78.6804 41.0486 78.6403 40.9015 78.6002L40.4558 78.4709L40.3443 78.4352L39.8674 78.2748L39.8005 78.248C39.2927 78.0621 38.7969 77.8448 38.3162 77.5972C38.1557 77.5125 37.9952 77.4278 37.8392 77.3342C37.5227 77.1559 37.2196 76.9687 36.9477 76.7637L36.6669 76.5631L36.5109 76.4472L36.2924 76.2778C36.181 76.1931 36.0696 76.1039 35.9581 76.0059C35.8467 75.9078 35.6773 75.7696 35.5436 75.6403C35.4098 75.5111 35.2717 75.3907 35.1424 75.2615C35.0131 75.1322 34.9329 75.0475 34.8304 74.9361C34.7278 74.8246 34.6922 74.7934 34.6298 74.7176C34.5674 74.6419 34.5228 74.5973 34.4693 74.5393L34.291 74.3254L34.0102 73.9732C33.9299 73.8707 33.8497 73.7682 33.7784 73.6612L33.7249 73.5899C33.6179 73.4383 33.5109 73.2823 33.4084 73.1441C33.3059 73.0059 33.2212 72.8499 33.132 72.6984V72.6761C33.0785 72.5869 33.025 72.4933 32.976 72.3997C32.927 72.3061 32.8735 72.2125 32.8245 72.1189L32.6818 71.847C32.6372 71.7489 32.5837 71.6508 32.5392 71.5528L32.4099 71.2586C32.3653 71.165 32.3252 71.0669 32.2851 70.9688C32.2004 70.7683 32.1246 70.5632 32.0488 70.3492L31.9597 70.0952C31.8884 69.8857 31.826 69.6717 31.7725 69.4622C31.7413 69.3552 31.7145 69.2527 31.6878 69.1502C31.6075 68.8203 31.5407 68.4904 31.4827 68.1561L31.4426 67.8887C31.4114 67.6881 31.3891 67.4875 31.3668 67.2869V67.2557C31.3668 67.0551 31.3312 66.8501 31.3223 66.6495V66.3687V66.1993C31.3223 66.1012 31.3223 65.9987 31.3223 65.9006V65.856C31.3223 65.7401 31.3223 65.6287 31.3223 65.5128C31.3223 65.3969 31.3223 65.2632 31.3223 65.1384C31.3223 65.0136 31.3223 64.8887 31.349 64.7684C31.3758 64.648 31.349 64.5678 31.3847 64.4697C31.4203 64.3717 31.3847 64.3405 31.3847 64.2781C31.3847 64.2157 31.407 64.1042 31.4203 64.0151C31.4337 63.9259 31.4604 63.7654 31.4827 63.6406C31.9905 61.8274 32.8849 60.1456 34.1045 58.7109C35.324 57.2762 36.8397 56.1225 38.5474 55.3292C40.2551 54.5359 42.1144 54.1218 43.9974 54.1153C45.8804 54.1088 47.7424 54.5101 49.4556 55.2917C49.8502 55.4712 50.2356 55.6705 50.6101 55.889C52.1116 56.7642 53.4226 57.9312 54.4658 59.3213C54.6887 59.6184 54.8982 59.926 55.0944 60.244C56.6493 62.7195 57.3274 65.6457 57.02 68.5529C56.9888 68.8783 56.9398 69.2037 56.8818 69.5246C55.9714 72.7602 53.849 75.5204 50.9558 77.2315C48.0626 78.9425 44.6213 79.4726 41.3473 78.7116Z" fill="#474D66"/>
</g>
<g opacity="0.6">
<path d="M44.393 73.627L43.9027 75.7354L41.2371 75.1158L41.6828 73.101C39.9923 72.6455 38.428 71.8101 37.1094 70.6583L39.3114 67.7208C40.4721 68.8 41.8877 69.5669 43.4257 69.9496C44.7006 70.2482 45.2087 70.0877 45.3246 69.6286C45.7124 67.957 38.0365 67.6004 39.1866 62.6347C39.6858 60.4862 41.665 59.0419 44.8833 59.3272L45.3648 57.25L48.0393 57.8741L47.5668 59.9112C48.8922 60.3244 50.1193 61.004 51.1729 61.9081L49.069 64.8457C48.0698 63.9654 46.877 63.3331 45.5876 63.0002C44.2771 62.6927 43.769 62.978 43.662 63.446C43.292 65.0463 50.9634 65.4207 49.8268 70.3284C49.3587 72.3522 47.4776 73.7786 44.393 73.627Z" fill="#474D66"/>
</g>
<path d="M44.4767 72.8856L43.9864 74.9985L41.3118 74.3745L41.7576 72.3597C40.0635 71.8982 38.4975 71.055 37.1797 69.8946L39.3817 66.9571C40.5424 68.0363 41.958 68.8032 43.496 69.1859C44.7709 69.4801 45.2791 69.3196 45.3949 68.8649C45.7828 67.1889 38.1069 66.8323 39.2569 61.8666C39.7561 59.718 41.7353 58.2738 44.9536 58.5591L45.4351 56.4863L48.1096 57.1059L47.6371 59.143C48.9625 59.5563 50.1897 60.2358 51.2432 61.14L49.1393 64.082C48.1417 63.1984 46.9485 62.5644 45.6579 62.2321C44.3474 61.929 43.8393 62.2321 43.7323 62.6779C43.3623 64.2737 51.0337 64.6481 49.8971 69.5559C49.4424 71.6286 47.5435 73.0729 44.4767 72.8856Z" fill="#DD9145"/>
<path d="M171.441 121.333L176.246 126.138L144.834 157.55H153.036L180.347 130.239L185.313 135.2L187.31 119.336L171.441 121.333Z" fill="#8EA6CE"/>
<g opacity="0.3">
<path d="M171.441 121.333L176.246 126.138L144.834 157.55H153.036L180.347 130.239L185.313 135.2L187.31 119.336L171.441 121.333Z" fill="#B7C5DC"/>
</g>
<path d="M50.8776 107.237L55.6829 112.047L10.1758 157.55H18.3732L59.7838 116.148L64.7495 121.109L66.7465 105.24L50.8776 107.237Z" fill="#8EA6CE"/>
<g opacity="0.3">
<path d="M50.8776 107.237L55.6829 112.047L10.1758 157.55H18.3732L59.7838 116.148L64.7495 121.109L66.7465 105.24L50.8776 107.237Z" fill="#B7C5DC"/>
</g>
<path d="M70.1223 22.3696L71.4195 21.9996L70.5904 19.12L69.0926 19.5658C68.6637 19.0803 68.1261 18.703 67.5236 18.4648V16.9492H64.5281V18.4648C64.0582 18.6511 63.6262 18.9215 63.2533 19.2627L61.916 18.6208L60.6055 21.2953L61.9204 21.9372C61.9204 22.0442 61.9204 22.1556 61.9204 22.2626C61.9206 22.9633 62.1002 23.6523 62.442 24.2641L61.4569 25.4988L63.7971 27.3665L64.7554 26.1674C65.1658 26.3004 65.5945 26.3681 66.0258 26.368C66.3412 26.3675 66.6553 26.3301 66.9619 26.2566L67.8267 27.4735L70.2694 25.7395L69.427 24.5538C69.8635 23.9075 70.1049 23.1493 70.1223 22.3696ZM63.329 22.2626C63.329 21.7346 63.4854 21.2184 63.7783 20.7791C64.0712 20.3397 64.4876 19.9969 64.975 19.7939C65.4624 19.5908 65.999 19.5366 66.5172 19.638C67.0354 19.7394 67.512 19.9919 67.8869 20.3637C68.2618 20.7355 68.5183 21.21 68.624 21.7273C68.7297 22.2446 68.6799 22.7817 68.4808 23.2708C68.2818 23.7598 67.9425 24.1791 67.5056 24.4756C67.0687 24.7722 66.5538 24.9327 66.0258 24.9371C65.3148 24.936 64.6329 24.6546 64.128 24.1539C63.6232 23.6532 63.3361 22.9736 63.329 22.2626Z" fill="#BADDE5"/>
<path opacity="0.6" d="M70.1223 22.3696L71.4195 21.9996L70.5904 19.12L69.0926 19.5658C68.6637 19.0803 68.1261 18.703 67.5236 18.4648V16.9492H64.5281V18.4648C64.0582 18.6511 63.6262 18.9215 63.2533 19.2627L61.916 18.6208L60.6055 21.2953L61.9204 21.9372C61.9204 22.0442 61.9204 22.1556 61.9204 22.2626C61.9206 22.9633 62.1002 23.6523 62.442 24.2641L61.4569 25.4988L63.7971 27.3665L64.7554 26.1674C65.1658 26.3004 65.5945 26.3681 66.0258 26.368C66.3412 26.3675 66.6553 26.3301 66.9619 26.2566L67.8267 27.4735L70.2694 25.7395L69.427 24.5538C69.8635 23.9075 70.1049 23.1493 70.1223 22.3696ZM63.329 22.2626C63.329 21.7346 63.4854 21.2184 63.7783 20.7791C64.0712 20.3397 64.4876 19.9969 64.975 19.7939C65.4624 19.5908 65.999 19.5366 66.5172 19.638C67.0354 19.7394 67.512 19.9919 67.8869 20.3637C68.2618 20.7355 68.5183 21.21 68.624 21.7273C68.7297 22.2446 68.6799 22.7817 68.4808 23.2708C68.2818 23.7598 67.9425 24.1791 67.5056 24.4756C67.0687 24.7722 66.5538 24.9327 66.0258 24.9371C65.3148 24.936 64.6329 24.6546 64.128 24.1539C63.6232 23.6532 63.3361 22.9736 63.329 22.2626Z" fill="#8DB88C"/>
<path d="M134.659 78.7881L135.952 78.4181L135.127 75.5608L133.629 76.0066C133.201 75.521 132.663 75.1437 132.06 74.9055V73.332H129.052V74.8476C128.581 75.0328 128.149 75.3033 127.777 75.6455L126.439 75.0036L125.129 77.6781L126.466 78.32C126.466 78.427 126.466 78.534 126.466 78.6454C126.464 79.3464 126.644 80.036 126.988 80.6469L125.998 81.8816L128.343 83.7493L129.301 82.5502C129.712 82.6832 130.14 82.7509 130.572 82.7508C130.887 82.75 131.201 82.7126 131.508 82.6394L132.372 83.8563L134.815 82.1223L133.955 80.9678C134.394 80.3238 134.638 79.5671 134.659 78.7881ZM127.866 78.6811C127.87 78.154 128.03 77.64 128.326 77.2037C128.621 76.7673 129.039 76.4279 129.527 76.2283C130.015 76.0286 130.551 75.9775 131.068 76.0814C131.584 76.1853 132.059 76.4396 132.431 76.8123C132.804 77.185 133.058 77.6595 133.162 78.1762C133.266 78.6929 133.215 79.2288 133.015 79.7166C132.816 80.2044 132.476 80.6223 132.04 80.9179C131.604 81.2135 131.09 81.3735 130.563 81.3779C130.208 81.3809 129.856 81.3132 129.527 81.1787C129.199 81.0442 128.9 80.8457 128.649 80.5946C128.398 80.3436 128.2 80.0451 128.065 79.7166C127.931 79.3881 127.863 79.0361 127.866 78.6811Z" fill="#BADDE5"/>
<path opacity="0.6" d="M134.659 78.7881L135.952 78.4181L135.127 75.5608L133.629 76.0066C133.201 75.521 132.663 75.1437 132.06 74.9055V73.332H129.052V74.8476C128.581 75.0328 128.149 75.3033 127.777 75.6455L126.439 75.0036L125.129 77.6781L126.466 78.32C126.466 78.427 126.466 78.534 126.466 78.6454C126.464 79.3464 126.644 80.036 126.988 80.6469L125.998 81.8816L128.343 83.7493L129.301 82.5502C129.712 82.6832 130.14 82.7509 130.572 82.7508C130.887 82.75 131.201 82.7126 131.508 82.6394L132.372 83.8563L134.815 82.1223L133.955 80.9678C134.394 80.3238 134.638 79.5671 134.659 78.7881ZM127.866 78.6811C127.87 78.154 128.03 77.64 128.326 77.2037C128.621 76.7673 129.039 76.4279 129.527 76.2283C130.015 76.0286 130.551 75.9775 131.068 76.0814C131.584 76.1853 132.059 76.4396 132.431 76.8123C132.804 77.185 133.058 77.6595 133.162 78.1762C133.266 78.6929 133.215 79.2288 133.015 79.7166C132.816 80.2044 132.476 80.6223 132.04 80.9179C131.604 81.2135 131.09 81.3735 130.563 81.3779C130.208 81.3809 129.856 81.3132 129.527 81.1787C129.199 81.0442 128.9 80.8457 128.649 80.5946C128.398 80.3436 128.2 80.0451 128.065 79.7166C127.931 79.3881 127.863 79.0361 127.866 78.6811Z" fill="#8DB88C"/>
<path d="M166.271 79.207L164.274 95.0714L159.571 90.3687L113.092 136.843H65.2719L44.5621 157.548H36.3691L62.8693 131.048H110.694L155.47 86.2678L150.407 81.204L166.271 79.207Z" fill="#303D66"/>
<path d="M101.174 121.264V127.892L103.848 128.106L105.159 121.901L101.174 121.264Z" fill="#F5AA89"/>
<path d="M103.071 127.483C103.071 127.483 103.914 125.865 104.408 126.038C104.903 126.212 105.108 128.174 105.108 128.174C105.108 128.174 107.783 129.065 108.558 129.123C109.334 129.181 109.922 129.596 110.02 131.071H100.807C100.807 131.071 100.869 127.746 100.887 127.175C100.905 126.605 101.716 127.318 101.716 127.318L103.071 127.483Z" fill="#263238"/>
<path d="M100.909 128.436C101.075 128.527 101.22 128.65 101.336 128.8C101.452 128.949 101.537 129.12 101.584 129.303C101.631 129.486 101.64 129.677 101.611 129.863C101.581 130.05 101.514 130.229 101.413 130.388C101.407 130.396 101.403 130.405 101.401 130.415C101.398 130.424 101.398 130.434 101.4 130.444C101.402 130.454 101.406 130.463 101.411 130.471C101.417 130.479 101.424 130.486 101.432 130.491C101.44 130.496 101.45 130.5 101.459 130.501C101.469 130.503 101.479 130.502 101.489 130.5C101.498 130.497 101.507 130.493 101.515 130.487C101.522 130.48 101.529 130.473 101.533 130.464C101.645 130.29 101.72 130.095 101.754 129.891C101.787 129.687 101.779 129.479 101.73 129.278C101.68 129.077 101.59 128.889 101.465 128.724C101.34 128.559 101.183 128.422 101.003 128.32C100.927 128.275 100.838 128.4 100.914 128.445L100.909 128.436Z" fill="#B7C5DC"/>
<path d="M100.897 130.54L108.123 130.615H109.803C109.897 130.615 109.919 130.468 109.826 130.468L102.595 130.393H100.915C100.821 130.393 100.803 130.54 100.915 130.54H100.897Z" fill="#B7C5DC"/>
<path d="M104.713 128.753C104.782 128.646 104.873 128.555 104.979 128.484C105.085 128.414 105.204 128.366 105.33 128.343C105.455 128.321 105.583 128.324 105.707 128.353C105.831 128.382 105.948 128.437 106.05 128.513C106.117 128.571 106.206 128.441 106.139 128.388C105.667 128 105.021 128.165 104.588 128.677C104.526 128.753 104.642 128.829 104.709 128.753H104.713Z" fill="#B7C5DC"/>
<path d="M105.475 128.989C105.545 128.883 105.636 128.793 105.742 128.723C105.848 128.653 105.967 128.606 106.093 128.584C106.218 128.562 106.346 128.565 106.47 128.594C106.593 128.623 106.71 128.677 106.812 128.753C106.883 128.811 106.972 128.681 106.901 128.628C106.429 128.236 105.782 128.405 105.35 128.918C105.287 128.994 105.403 129.065 105.47 128.989H105.475Z" fill="#B7C5DC"/>
<path d="M106.264 129.23C106.334 129.124 106.425 129.034 106.531 128.964C106.637 128.894 106.756 128.847 106.881 128.825C107.006 128.803 107.135 128.806 107.258 128.836C107.382 128.865 107.499 128.919 107.601 128.994C107.672 129.048 107.761 128.923 107.69 128.865C107.217 128.477 106.571 128.646 106.143 129.159C106.076 129.235 106.192 129.306 106.259 129.23H106.264Z" fill="#B7C5DC"/>
<path d="M99.5645 55.5734C99.6402 56.7546 99.4798 60.3875 99.6402 62.3355C99.9389 66.0531 100.345 70.8717 100.665 75.7081C101.04 81.2979 101.307 86.8921 101.174 90.7791C100.83 100.751 100.906 123.355 100.906 123.355H105.234C105.234 123.355 110.316 100.889 111.266 90.7791C112.059 82.3944 111.64 60.7976 111.506 55.5645L99.5645 55.5734Z" fill="#8EA6CE"/>
<path opacity="0.2" d="M99.6309 62.335C99.9295 66.0526 100.335 70.8712 100.656 75.7077C102.787 69.4047 100.808 59.8789 100.808 59.8789L99.6309 62.335Z" fill="#474D66"/>
<path d="M100.53 123.497H105.607L105.977 121.879L100.396 121.812L100.53 123.497Z" fill="#303D66"/>
<path d="M77.2853 120.029L76.2734 126.577L78.8856 127.197L81.1277 121.264L77.2853 120.029Z" fill="#F5AA89"/>
<path d="M78.2352 126.462C78.2352 126.462 79.3139 124.995 79.7775 125.241C80.2411 125.486 80.143 127.469 80.143 127.469C80.143 127.469 82.6704 128.771 83.4104 128.936C84.1504 129.101 84.6853 129.613 84.556 131.084L75.4492 129.676C75.4492 129.676 76.0198 126.399 76.1223 125.838C76.2248 125.276 76.9202 126.105 76.9202 126.105L78.2352 126.462Z" fill="#263238"/>
<path d="M75.9294 127.077C76.0777 127.192 76.201 127.336 76.2917 127.501C76.3824 127.665 76.4387 127.846 76.457 128.033C76.4754 128.22 76.4554 128.409 76.3984 128.588C76.3414 128.767 76.2486 128.932 76.1255 129.074C76.0676 129.15 76.1701 129.243 76.2325 129.163C76.3697 129.009 76.4739 128.828 76.5386 128.631C76.6033 128.435 76.6272 128.228 76.6089 128.022C76.5905 127.816 76.5302 127.616 76.4318 127.435C76.3333 127.253 76.1988 127.093 76.0364 126.965C75.9695 126.908 75.8625 127.019 75.9294 127.077Z" fill="#B7C5DC"/>
<path d="M75.5962 129.154L82.7283 130.331L84.3865 130.603C84.4801 130.603 84.5203 130.478 84.4266 130.465L77.2946 129.284L75.6364 129.012C75.5428 129.012 75.5026 129.137 75.5962 129.154Z" fill="#B7C5DC"/>
<path d="M79.6388 127.968C79.7242 127.872 79.8281 127.796 79.9443 127.742C80.0604 127.689 80.1862 127.66 80.314 127.657C80.4418 127.654 80.5689 127.677 80.6873 127.725C80.8058 127.773 80.9131 127.845 81.0028 127.936C81.0607 128.003 81.1677 127.892 81.1098 127.825C81.0039 127.723 80.8787 127.643 80.7414 127.59C80.6041 127.537 80.4575 127.512 80.3104 127.516C80.1633 127.521 80.0186 127.555 79.8849 127.616C79.7511 127.678 79.6311 127.765 79.5318 127.874C79.456 127.941 79.563 128.034 79.6388 127.968Z" fill="#B7C5DC"/>
<path d="M80.3556 128.321C80.441 128.226 80.5449 128.149 80.6611 128.096C80.7772 128.042 80.903 128.013 81.0308 128.01C81.1586 128.007 81.2857 128.031 81.4041 128.079C81.5226 128.127 81.6299 128.199 81.7196 128.29C81.7775 128.357 81.8845 128.245 81.8266 128.178C81.4165 127.733 80.7523 127.79 80.2486 128.232C80.1728 128.299 80.2798 128.388 80.3556 128.321Z" fill="#B7C5DC"/>
<path d="M81.0953 128.678C81.1814 128.583 81.286 128.507 81.4027 128.453C81.5193 128.4 81.6456 128.372 81.7738 128.369C81.9019 128.367 82.0293 128.39 82.1479 128.439C82.2666 128.487 82.3741 128.56 82.4638 128.651C82.5217 128.714 82.6287 128.602 82.5708 128.54C82.1607 128.094 81.4965 128.147 80.9928 128.589C80.917 128.656 81.024 128.745 81.0953 128.678Z" fill="#B7C5DC"/>
<path d="M92.5206 91.6441C89.846 101.451 80.8596 122.624 80.8596 122.624L76.5938 121.884C76.5938 121.884 81.0513 99.8371 83.0839 90.075C84.9294 81.2625 86.9575 61.0207 87.6128 54.9941L101.922 56.2824C101.159 61.4442 94.7404 83.518 92.5206 91.6441Z" fill="#8EA6CE"/>
<path d="M76.1973 121.969L81.2031 122.843L81.845 121.309L76.273 120.293L76.1973 121.969Z" fill="#303D66"/>
<path d="M86.7792 54.9947C86.7213 55.6232 88.0051 57.0362 88.6336 57.063L110.846 57.4508C111.514 57.482 112.299 57.005 112.276 56.3542C112.049 48.4778 110.213 21.3848 109.602 19.6775C108.84 17.578 104.614 16.8203 102.768 16.6553C99.8536 16.4586 96.9287 16.4586 94.0138 16.6553C92.5919 16.7222 91.2947 16.847 90.216 16.9807C89.8281 17.0285 89.4538 17.154 89.1155 17.3498C88.7772 17.5455 88.4819 17.8075 88.2472 18.12C88.0125 18.4325 87.8432 18.7892 87.7496 19.1686C87.6559 19.5481 87.6397 19.9425 87.702 20.3283C88.1813 23.3429 88.4938 26.3816 88.638 29.4307C88.638 29.5822 88.638 29.7249 88.638 29.8764C88.6871 30.9016 88.7361 31.9135 88.7406 32.9165C88.7406 33.1126 88.7406 33.3176 88.7406 33.5138C88.6603 43.6903 87.3364 48.6873 86.7792 54.9947Z" fill="#B7C5DC"/>
<path d="M95.6184 57.5519C92.6497 57.7346 84.791 57.5519 84.791 56.3127C84.791 54.2444 87.6171 39.9401 87.8845 37.0784C87.9247 36.6326 87.9648 36.0487 88.0094 35.3399C88.0851 34.0027 88.1609 32.3133 88.2322 30.4767C88.4507 24.7533 88.629 17.7995 88.629 17.7995C88.629 17.7995 88.8028 16.226 95.712 16.5603C95.712 16.5603 97.4326 24.9583 97.495 32.3489C97.5574 39.7395 96.6303 57.4895 95.6184 57.5519Z" fill="#303D66"/>
<path d="M102.75 16.6543C102.75 16.6543 105.794 24.7091 105.46 36.9094C105.126 49.1097 104.974 57.9936 104.974 57.9936C104.974 57.9936 112.267 58.4393 112.904 57.3562C113.248 56.7633 112.405 46.1231 111.924 39.887C111.375 32.7862 110.274 21.1252 109.86 19.7255C109.156 17.3051 102.75 16.6543 102.75 16.6543Z" fill="#303D66"/>
<path d="M138.892 14.6569C136.752 16.538 134.568 18.3433 132.308 20.0817C131.185 20.9732 130.035 21.8023 128.862 22.6448C128.274 23.0638 127.677 23.4694 127.057 23.8795C126.438 24.2896 125.814 24.6863 125.029 25.092C124.547 25.344 124.037 25.5385 123.509 25.6715C123.04 25.7831 122.563 25.8621 122.083 25.9077C121.262 25.9872 120.437 26.0125 119.613 25.9835C118.105 25.9172 116.602 25.7684 115.111 25.5377C113.849 25.355 112.615 25.1321 111.389 24.878L110.538 24.6953C109.2 24.4055 107.899 24.0712 106.57 23.6968L107.881 17.902C109.242 18.3866 110.641 18.7607 112.062 19.0208C113.399 19.3195 114.737 19.6003 116.052 19.8455C117.366 20.0906 118.686 20.2912 119.934 20.4205C120.516 20.482 121.101 20.5102 121.686 20.5052C121.908 20.5009 122.13 20.4845 122.35 20.4561C122.504 20.4374 122.654 20.3953 122.796 20.3313C123.291 20.1352 123.897 19.8321 124.481 19.529C125.065 19.2259 125.671 18.8826 126.264 18.5528C127.472 17.893 128.675 17.1843 129.888 16.4934C132.304 15.0893 134.751 13.6807 137.198 12.2988L138.892 14.6569Z" fill="#303D66"/>
<path opacity="0.2" d="M111.389 24.8964L110.538 24.7137L110.092 21.5488L111.389 24.8964Z" fill="#474D66"/>
<path d="M142.342 9.14258C142.342 9.14258 142.739 10.4531 142.445 11.1485C142.151 11.8439 140.76 12.1915 140.76 12.1915C140.76 12.1915 141.531 10.0341 142.342 9.14258Z" fill="#F5AA89"/>
<path opacity="0.2" d="M142.342 9.14258C142.342 9.14258 142.739 10.4531 142.445 11.1485C142.151 11.8439 140.76 12.1915 140.76 12.1915C140.76 12.1915 141.531 10.0341 142.342 9.14258Z" fill="#474D66"/>
<path d="M142.196 10.373C141.687 10.8433 141.266 11.4003 140.952 12.0178C141.612 12.2362 142.682 11.7013 142.923 11.9688C143.163 12.2362 142.477 12.6909 141.403 13.2258C140.837 13.4977 140.64 14.1441 139.887 14.4071C139.563 14.5204 139.231 14.6083 138.893 14.6701C138.064 14.358 137.168 12.3165 137.168 12.3165L139.147 10.8054C139.147 10.8054 140.97 9.41907 141.741 9.1427C142.513 8.86633 144.523 7.55582 144.661 7.89013C144.857 8.35818 143.489 9.41907 142.196 10.373Z" fill="#F5AA89"/>
<path opacity="0.2" d="M91.9586 25.5703L88.0137 35.3413C88.0895 34.004 88.1652 32.3146 88.2365 30.4781L91.9586 25.5703Z" fill="#474D66"/>
<path d="M103.014 1.40604C102.206 1.19964 101.365 1.16159 100.542 1.29426C99.7194 1.42692 98.9326 1.72747 98.2309 2.1772C97.3127 2.77897 96.546 3.63927 96.6841 4.79378C97.0617 7.1979 97.5736 9.57899 98.2175 11.9258L106.919 6.61691C106.919 6.61691 108.216 5.03003 106.197 2.91715C105.546 2.25297 104.222 1.7047 103.014 1.40604Z" fill="#263238"/>
<path d="M102.202 18.1916C102.076 17.6347 102.046 17.0604 102.113 16.4933L102.536 14.9376V14.9064L100.009 12.1428L98.2704 10.2305C98.3685 12.2408 97.7578 14.688 97.0312 16.7831C97.1605 17.7147 101.542 20.2109 102.202 18.1916Z" fill="#F5AA89"/>
<g opacity="0.2">
<path d="M102.537 14.9387L102.114 16.4944C101.155 16.0486 100.157 15.0947 99.9338 14.0695C99.7778 13.3295 100.117 12.6431 100.415 12.6074L102.537 14.9387Z" fill="#474D66"/>
</g>
<path d="M106.45 11.707C106.357 12.0458 106.25 12.3756 106.138 12.7055C105.149 15.6029 101.565 15.8258 99.3493 13.6817C99.1501 13.4858 98.9654 13.2757 98.7966 13.0532C97.3924 11.1765 97.758 9.74567 97.9987 6.49612C98.0497 5.74211 98.2917 5.01347 98.7017 4.37867C99.1118 3.74387 99.6766 3.22374 100.343 2.86717C101.009 2.51061 101.755 2.32931 102.511 2.34032C103.267 2.35132 104.007 2.55427 104.663 2.93008C107.364 4.47685 107.386 8.32371 106.45 11.707Z" fill="#F5AA89"/>
<path d="M100.428 4.39624C100.428 4.39624 103.575 6.75429 107.23 5.68002C109.084 5.1362 108.772 1.33391 107.314 0.598417C106.124 -0.00335214 105.157 1.45872 105.157 1.45872C103.964 0.806196 102.608 0.513553 101.252 0.616247C98.8006 0.723228 97.7842 2.13627 97.7842 2.13627C97.4154 2.1269 97.054 2.24116 96.7576 2.46086C96.4611 2.68056 96.2467 2.99309 96.1483 3.34872C95.8185 4.46757 97.0398 6.60273 97.0398 6.60273L100.428 4.39624Z" fill="#263238"/>
<path d="M103.196 8.21183C103.161 8.46591 103.268 8.68878 103.433 8.71107C103.597 8.73336 103.762 8.54614 103.798 8.29206C103.834 8.03798 103.727 7.8151 103.557 7.79282C103.388 7.77053 103.232 7.95775 103.196 8.21183Z" fill="#263238"/>
<path d="M104.395 12.2631H104.484C104.51 12.2597 104.533 12.2467 104.548 12.2267C104.564 12.2068 104.572 12.1814 104.569 12.1561C104.568 12.1434 104.564 12.131 104.558 12.1197C104.552 12.1085 104.544 12.0985 104.534 12.0906C104.524 12.0827 104.512 12.0769 104.5 12.0736C104.488 12.0703 104.475 12.0695 104.462 12.0714C104.274 12.0878 104.084 12.0659 103.904 12.0068C103.724 11.9478 103.558 11.8529 103.416 11.7279C103.274 11.6029 103.159 11.4504 103.077 11.2796C102.996 11.1088 102.95 10.9232 102.942 10.7341C102.941 10.7214 102.937 10.709 102.931 10.6978C102.925 10.6865 102.917 10.6766 102.907 10.6687C102.897 10.6607 102.885 10.6549 102.873 10.6516C102.861 10.6483 102.848 10.6476 102.835 10.6494C102.81 10.6528 102.787 10.6658 102.771 10.6858C102.755 10.7058 102.748 10.7311 102.75 10.7564C102.774 11.1726 102.959 11.5633 103.266 11.8449C103.573 12.1264 103.979 12.2765 104.395 12.2631Z" fill="#263238"/>
<path d="M97.951 6.79065C97.951 6.79065 98.9317 6.84414 98.9674 7.68216C99.003 8.52017 98.9183 8.63161 98.9183 8.63161L100.109 8.71631C100.109 8.71631 99.4399 6.20671 100.282 6.25128C101.125 6.29586 99.8945 4.44598 101.058 4.11612C102.302 3.76397 105.516 3.61687 106.768 5.58711C106.532 4.39534 105.868 3.33131 104.9 2.5961C103.358 1.54411 100.247 1.30786 98.9807 2.83234C97.7148 4.35683 97.951 6.79065 97.951 6.79065Z" fill="#263238"/>
<path d="M96.315 8.44721C96.4387 9.25909 96.8776 9.98944 97.5363 10.4799C98.4278 11.1173 99.2302 10.4219 99.3193 9.39221C99.3817 8.4695 99.0029 7.02526 97.9821 6.79346C97.7555 6.74742 97.5209 6.75863 97.2997 6.82605C97.0785 6.89348 96.8776 7.01501 96.7152 7.17964C96.5527 7.34427 96.4339 7.5468 96.3695 7.76891C96.3051 7.99102 96.2971 8.22568 96.3462 8.45167" fill="#F5AA89"/>
<path d="M105.814 8.51456C105.778 8.76864 105.885 8.99152 106.05 9.0138C106.215 9.03609 106.38 8.84887 106.415 8.59479C106.451 8.34071 106.339 8.11784 106.175 8.09555C106.01 8.07326 105.845 8.26048 105.814 8.51456Z" fill="#263238"/>
<path d="M106.763 7.8963C106.742 7.89136 106.722 7.88098 106.705 7.86615C106.689 7.85133 106.677 7.83255 106.669 7.81161C106.651 7.718 106.613 7.62955 106.556 7.55253C106.5 7.4755 106.428 7.41177 106.344 7.36585C106.176 7.29332 105.989 7.28227 105.814 7.33465C105.797 7.34027 105.78 7.34265 105.763 7.34165C105.746 7.34065 105.73 7.3363 105.714 7.32885C105.699 7.32139 105.685 7.31097 105.674 7.2982C105.663 7.28542 105.654 7.27054 105.649 7.25441C105.638 7.22187 105.641 7.18668 105.656 7.15602C105.671 7.12537 105.697 7.10157 105.729 7.08948C105.97 7.01467 106.23 7.03052 106.46 7.13406C106.569 7.19448 106.666 7.27665 106.742 7.37554C106.819 7.47442 106.874 7.58792 106.906 7.70908C106.911 7.72516 106.913 7.74219 106.912 7.75912C106.911 7.77606 106.906 7.79254 106.898 7.80757C106.89 7.82259 106.879 7.83584 106.866 7.84649C106.853 7.85715 106.837 7.865 106.821 7.86955C106.805 7.88372 106.784 7.89298 106.763 7.8963Z" fill="#263238"/>
<path d="M102.523 7.49072C102.505 7.49473 102.487 7.49473 102.469 7.49072C102.454 7.48443 102.439 7.47496 102.427 7.46288C102.415 7.45081 102.406 7.43638 102.399 7.42051C102.393 7.40463 102.39 7.38764 102.391 7.37058C102.391 7.35352 102.395 7.33676 102.403 7.32133C102.511 7.09425 102.698 6.91386 102.929 6.81317C103.048 6.77329 103.175 6.75825 103.301 6.76899C103.426 6.77972 103.548 6.81599 103.66 6.87558C103.675 6.88275 103.689 6.89298 103.701 6.90565C103.713 6.91832 103.722 6.93319 103.727 6.94938C103.733 6.96557 103.736 6.98276 103.735 6.99994C103.734 7.01712 103.73 7.03394 103.722 7.04942C103.714 7.06467 103.704 7.07827 103.691 7.08944C103.678 7.10061 103.663 7.10914 103.647 7.11452C103.631 7.11991 103.614 7.12205 103.597 7.12082C103.58 7.11959 103.563 7.11502 103.548 7.10737C103.468 7.06415 103.381 7.03752 103.29 7.02909C103.2 7.02066 103.109 7.03061 103.022 7.05834C102.853 7.1305 102.717 7.26217 102.639 7.42831C102.627 7.44783 102.609 7.46383 102.589 7.47476C102.569 7.4857 102.546 7.49119 102.523 7.49072Z" fill="#263238"/>
<path d="M104.65 8.55469C104.958 9.2585 105.223 9.98048 105.443 10.7166C105.483 11.0197 104.529 11.0108 104.529 11.0108L104.65 8.55469Z" fill="#FF5652"/>
<path d="M87.9299 18.5046C86.4277 21.1168 85.0147 23.7824 83.6373 26.4614C82.9419 27.7986 82.2688 29.1359 81.5868 30.4731L80.5839 32.479L80.0846 33.4597L79.835 33.9367L79.7191 34.1595C79.6894 34.2161 79.6626 34.2741 79.6389 34.3334L79.572 34.4938L79.523 34.6187L79.4428 34.8549L79.3804 35.0644C79.2288 35.5904 79.1486 36.005 79.0683 36.424C78.9881 36.843 78.9257 37.2352 78.8633 37.632C78.7429 38.4209 78.6404 39.1876 78.5557 39.9588C78.3819 41.4967 78.2303 43.0167 78.11 44.5412C77.8782 47.5857 77.7132 50.6168 77.6642 53.6747C77.6589 54.0935 77.8073 54.4997 78.0814 54.8164C78.3554 55.1331 78.7361 55.3384 79.1513 55.3933C79.5665 55.4482 79.9875 55.349 80.3344 55.1144C80.6814 54.8799 80.9303 54.5262 81.0341 54.1204C81.7607 51.1918 82.4204 48.2409 83.0846 45.3168C83.4278 43.8591 83.7487 42.3971 84.0964 40.9618C84.2747 40.2441 84.4441 39.5309 84.6269 38.8444C84.716 38.4967 84.8096 38.158 84.9077 37.8415C84.9881 37.5602 85.0833 37.2835 85.193 37.0124C85.2002 36.9923 85.2091 36.9729 85.2197 36.9544C85.2197 36.9544 85.2197 36.9232 85.2197 36.9277V36.9589V37.0034C85.2052 37.037 85.1888 37.0697 85.1707 37.1015L85.2153 37.0302L85.3044 36.892L85.4783 36.6201L86.0934 35.6261L87.2836 33.6781C88.0592 32.3721 88.8348 31.0705 89.5837 29.7599C91.0948 27.1389 92.5613 24.5 93.9342 21.8032C94.2802 21.0169 94.3191 20.1295 94.0433 19.3159C93.7675 18.5023 93.197 17.8214 92.4442 17.4076C91.6914 16.9937 90.8109 16.8768 89.9761 17.0798C89.1414 17.2829 88.413 17.7912 87.9344 18.5046H87.9299Z" fill="#303D66"/>
<path d="M73.8657 62.1879V59.393C73.8657 59.3469 73.884 59.3027 73.9166 59.2701C73.9492 59.2375 73.9934 59.2192 74.0395 59.2192H75.5595V58.7734H74.044C73.8785 58.7734 73.7197 58.8392 73.6027 58.9562C73.4857 59.0733 73.4199 59.232 73.4199 59.3975V62.1879H73.8657Z" fill="#263238"/>
<path d="M84.3462 59.3713V62.1885H84.792V59.3936C84.792 59.2281 84.7262 59.0693 84.6092 58.9523C84.4921 58.8353 84.3334 58.7695 84.1679 58.7695H82.6523V59.2153H84.1679C84.2116 59.2149 84.2539 59.2306 84.2867 59.2594C84.3196 59.2882 84.3408 59.328 84.3462 59.3713Z" fill="#263238"/>
<path d="M90.7374 63.3473V77.4331C90.7374 77.7476 90.6125 78.0492 90.3902 78.2715C90.1678 78.4939 89.8662 78.6188 89.5517 78.6188H69.2209C68.9068 78.6177 68.6059 78.4924 68.3837 78.2702C68.1616 78.0481 68.0363 77.7472 68.0352 77.4331V63.3473C68.0363 63.0336 68.1618 62.7331 68.384 62.5117C68.6062 62.2903 68.9072 62.166 69.2209 62.166H89.5517C89.7072 62.1654 89.8613 62.1956 90.0052 62.2547C90.149 62.3138 90.2797 62.4007 90.3899 62.5104C90.5 62.6202 90.5875 62.7506 90.6471 62.8942C90.7067 63.0378 90.7374 63.1918 90.7374 63.3473Z" fill="#263238"/>
<g opacity="0.5">
<path d="M90.7374 63.3473V77.4331C90.7374 77.7476 90.6125 78.0492 90.3902 78.2715C90.1678 78.4939 89.8662 78.6188 89.5517 78.6188H69.2209C68.9068 78.6177 68.6059 78.4924 68.3837 78.2702C68.1616 78.0481 68.0363 77.7472 68.0352 77.4331V63.3473C68.0363 63.0336 68.1618 62.7331 68.384 62.5117C68.6062 62.2903 68.9072 62.166 69.2209 62.166H89.5517C89.7072 62.1654 89.8613 62.1956 90.0052 62.2547C90.149 62.3138 90.2797 62.4007 90.3899 62.5104C90.5 62.6202 90.5875 62.7506 90.6471 62.8942C90.7067 63.0378 90.7374 63.1918 90.7374 63.3473Z" fill="#B7C5DC"/>
</g>
<path d="M87.7559 62.166H86.8555V78.6188H87.7559V62.166Z" fill="#263238"/>
<path d="M71.9219 62.166H71.0215V78.6188H71.9219V62.166Z" fill="#263238"/>
<path d="M80.748 54.709C80.748 54.709 82.2012 57.9897 82.0407 58.7208C81.8803 59.4518 80.8951 58.0923 80.8951 58.0923L80.748 54.709Z" fill="#F5AA89"/>
<path d="M83.1202 58.2207H74.9316V59.7229H83.1202V58.2207Z" fill="#263238"/>
<path opacity="0.3" d="M83.1202 58.2207H74.9316V59.7229H83.1202V58.2207Z" fill="#B7C5DC"/>
<path d="M77.7613 54.209L76.6291 57.5521C76.4018 58.5061 79.4864 59.9013 80.6766 59.0766C81.6171 58.4303 80.8058 54.5522 80.8058 54.5522C80.3641 54.2527 79.8563 54.0649 79.3259 54.0051C78.7956 53.9453 78.2586 54.0153 77.7613 54.209Z" fill="#F5AA89"/>
<path d="M76.6301 57.5527C76.3939 58.6181 76.5321 60.7042 78.2348 60.9226C78.6064 60.9827 78.9845 60.9902 79.3581 60.9449C79.6935 61.0858 80.0649 61.117 80.419 61.0341C81.2749 60.7622 80.9584 58.6092 80.9584 58.6092L76.6301 57.5527Z" fill="#F5AA89"/>
<path d="M97.5583 15.1571C97.5583 15.1571 95.1334 14.6401 94.6074 16.6549V23.31L96.0026 25.0529L94.9016 26.1494L94.8704 34.7035L97.4469 35.595C97.5004 33.2147 97.8926 28.9443 97.2953 22.628C97.0735 20.1364 97.1619 17.6269 97.5583 15.1571Z" fill="#303D66"/>
<path opacity="0.3" d="M97.5583 15.1571C97.5583 15.1571 95.1334 14.6401 94.6074 16.6549V23.31L96.0026 25.0529L94.9016 26.1494L94.8704 34.7035L97.4469 35.595C97.5004 33.2147 97.8926 28.9443 97.2953 22.628C97.0735 20.1364 97.1619 17.6269 97.5583 15.1571Z" fill="#474D66"/>
<path d="M102.113 16.4931C102.113 16.4931 103.25 17.6476 103.816 20.2865C104.382 22.9254 105.528 34.4659 105.492 35.9325L108.042 34.0202L107.008 24.8555L105.497 23.9194L106.767 22.2523C106.767 22.2523 105.599 18.0443 104.846 16.9701C104.092 15.8958 102.35 15.6328 102.35 15.6328L102.113 16.4931Z" fill="#303D66"/>
<path opacity="0.3" d="M102.113 16.4931C102.113 16.4931 103.25 17.6476 103.816 20.2865C104.382 22.9254 105.528 34.4659 105.492 35.9325L108.042 34.0202L107.008 24.8555L105.497 23.9194L106.767 22.2523C106.767 22.2523 105.599 18.0443 104.846 16.9701C104.092 15.8958 102.35 15.6328 102.35 15.6328L102.113 16.4931Z" fill="#474D66"/>
</svg>
