<svg width="206" height="159" viewBox="0 0 206 159" fill="none" xmlns="http://www.w3.org/2000/svg">
<path d="M194.42 91.5729C192.739 94.6849 190.663 97.6859 188.13 100.541C169.065 122.032 183.798 123.072 182.932 135.032C182.065 146.991 138.389 159.818 122.096 158.603C105.804 157.39 81.1916 150.804 72.1796 150.631C63.1657 150.458 37.8669 145.228 37.8669 145.228C37.8669 145.228 19.912 140.894 22.8839 124.303C25.8557 107.71 22.6362 101.024 16.0734 89.8793C16.0224 89.7938 15.9714 89.7064 15.9204 89.619C9.27021 78.4254 -6.0078 58.5421 13.7699 29.1334C33.7023 -0.504841 58.3128 -0.67784 70.619 2.9623C82.9252 6.60064 99.2175 10.2407 108.75 8.85494C118.283 7.46744 147.574 -0.33185 155.894 0.36194C164.212 1.05574 185.532 3.82908 192.983 26.533C199.446 46.2232 205.388 71.2562 194.42 91.5729Z" fill="url(#paint0_linear_12477_22071)"/>
<path d="M205.562 139.752H0V139.855H205.562V139.752Z" fill="#9B6630"/>
<path d="M61.3029 144.477H43.123V144.579H61.3029V144.477Z" fill="#9B6630"/>
<path d="M40.1084 144.525H33.0371V144.628H40.1084V144.525Z" fill="#9B6630"/>
<path d="M94.1884 143.836H85.5918V143.939H94.1884V143.836Z" fill="#9B6630"/>
<path d="M115.194 142.725H92.4668V142.827H115.194V142.725Z" fill="#9B6630"/>
<path d="M156.239 144.629H150.746V144.732H156.239V144.629Z" fill="#9B6630"/>
<path d="M148.464 144.629H146.672V144.732H148.464V144.629Z" fill="#9B6630"/>
<path d="M184.409 143.494H161.078V143.597H184.409V143.494Z" fill="#9B6630"/>
<path d="M171.298 14.5078H120.352V94.2494H171.298V14.5078Z" fill="#9B6630"/>
<path d="M173.539 14.5078H121.4V94.2494H173.539V14.5078Z" fill="#EBEBEB"/>
<path d="M171.298 94.2539H120.352V98.4104H171.298V94.2539Z" fill="#E6E6E6"/>
<path d="M177.264 94.2539H125.125V98.4104H177.264V94.2539Z" fill="#E2A059"/>
<path d="M170.406 17.6406H124.533V91.1208H170.406V17.6406Z" fill="#FAFAFA"/>
<path d="M141 91.1208L151.253 17.6406H159.932L149.679 91.1208H141Z" fill="white"/>
<path d="M126.626 85.3189C126.567 85.3179 126.511 85.2936 126.469 85.2513C126.428 85.209 126.404 85.1521 126.404 85.0928V19.6789C126.4 19.6495 126.402 19.6195 126.41 19.5908C126.417 19.5621 126.43 19.5351 126.448 19.5114C126.466 19.4877 126.489 19.4678 126.514 19.4528C126.54 19.4378 126.568 19.428 126.598 19.424C126.627 19.4199 126.657 19.4217 126.686 19.4292C126.715 19.4368 126.741 19.4499 126.765 19.4678C126.789 19.4858 126.809 19.5082 126.824 19.5338C126.839 19.5595 126.849 19.5878 126.853 19.6172C126.857 19.6376 126.857 19.6585 126.853 19.6789V85.0928C126.853 85.1528 126.829 85.2103 126.786 85.2527C126.744 85.2951 126.686 85.3189 126.626 85.3189Z" fill="#E6E6E6"/>
<path d="M151.541 91.1208L161.794 17.6406H165.178L154.925 91.1208H151.541Z" fill="white"/>
<path d="M170.407 17.6406H170.008V91.1208H170.407V17.6406Z" fill="#E6E6E6"/>
<path d="M174.275 20.0456H123.333L123.045 18.8574H173.987L174.275 20.0456Z" fill="#9B6630"/>
<path d="M174.275 20.9126H123.333L123.045 19.7285H173.987L174.275 20.9126Z" fill="#9B6630"/>
<path d="M174.275 21.9577H123.333L123.045 20.7695H173.987L174.275 21.9577Z" fill="#9B6630"/>
<path d="M174.275 23.1217H123.333L123.045 21.9336H173.987L174.275 23.1217Z" fill="#9B6630"/>
<path d="M174.275 24.5104H123.333L123.045 23.3223H173.987L174.275 24.5104Z" fill="#9B6630"/>
<path d="M174.275 26.0768H123.333L123.045 24.8887H173.987L174.275 26.0768Z" fill="#9B6630"/>
<path d="M37.9465 84.0874C37.9465 85.3207 38.814 86.2005 37.5683 86.2005C36.3226 86.2005 33.457 85.3331 33.457 84.0874C33.457 83.4877 33.6953 82.9125 34.1193 82.4885C34.5434 82.0644 35.1185 81.8262 35.7182 81.8262C36.3179 81.8262 36.8931 82.0644 37.3171 82.4885C37.7412 82.9125 37.9794 83.4877 37.9794 84.0874H37.9465Z" fill="#9B6630"/>
<path d="M41.8039 85.1674C41.8039 86.4008 42.6714 87.2765 41.4257 87.2765C40.18 87.2765 37.3145 86.409 37.3145 85.1674C37.3145 84.5677 37.5527 83.9926 37.9767 83.5685C38.4008 83.1445 38.9759 82.9063 39.5756 82.9062C40.1753 82.9063 40.7505 83.1445 41.1745 83.5685C41.5986 83.9926 41.8368 84.5677 41.8368 85.1674H41.8039Z" fill="#9B6630"/>
<path d="M45.4992 84.4975C45.4992 85.7309 46.3667 86.6066 45.121 86.6066C43.8753 86.6066 41.0098 85.7391 41.0098 84.4975C41.0098 83.8978 41.248 83.3227 41.6721 82.8986C42.0961 82.4746 42.6712 82.2363 43.2709 82.2363C43.8706 82.2363 44.4458 82.4746 44.8698 82.8986C45.2939 83.3227 45.5321 83.8978 45.5321 84.4975H45.4992Z" fill="#9B6630"/>
<path d="M32.0684 84.7969C32.0684 84.7969 32.2534 89.1918 39.3165 89.1918C46.3796 89.1918 46.5646 84.7969 46.5646 84.7969H32.0684Z" fill="#E2A059"/>
<path d="M115.234 89.1973H112.031V139.753H115.234V89.1973Z" fill="#9B6630"/>
<path d="M116.246 89.1973H114.021V139.753H116.246V89.1973Z" fill="#E2A059"/>
<path d="M116.937 89.1973H50.4375V93.1317H116.937V89.1973Z" fill="#E2A059"/>
<path d="M49.0015 93.1309H45.7988V139.752H49.0015V93.1309Z" fill="#9B6630"/>
<path d="M50.0132 93.1309H47.7891V139.752H50.0132V93.1309Z" fill="#E2A059"/>
<path d="M28.7339 93.1309H25.5312V139.752H28.7339V93.1309Z" fill="#9B6630"/>
<path d="M29.7457 93.1309H27.5215V139.752H29.7457V93.1309Z" fill="#E2A059"/>
<path d="M94.9663 93.1309H91.7637V139.752H94.9663V93.1309Z" fill="#9B6630"/>
<path d="M95.9761 93.1309H93.752V139.752H95.9761V93.1309Z" fill="#E2A059"/>
<path d="M50.4371 89.1973H25.5312V93.1317H50.4371V89.1973Z" fill="#9B6630"/>
<path d="M50.0137 72.5371H76.7449L80.6177 88.3202H53.8865L50.0137 72.5371Z" fill="#9B6630"/>
<path d="M53.8867 88.3203L53.9977 89.196H80.729L80.6221 88.3203H53.8867Z" fill="#9B6630"/>
<path d="M50.8359 72.5371H77.5672L81.44 88.3202H54.7128L50.8359 72.5371Z" fill="#E2A059"/>
<path d="M55.2751 87.6019L51.7559 73.2578H77.003L80.5222 87.6019H55.2751Z" fill="white"/>
<path d="M61.6777 88.3203L61.7846 89.196H91.2211L91.1142 88.3203H61.6777Z" fill="#EBEBEB"/>
<path d="M113.317 82.7621C113.24 82.7662 113.164 82.7744 113.087 82.7867V82.2687C113.087 82.0964 113.019 81.9312 112.897 81.8094C112.775 81.6876 112.61 81.6191 112.438 81.6191H107.364C107.192 81.6191 107.027 81.6876 106.905 81.8094C106.783 81.9312 106.715 82.0964 106.715 82.2687V89.192H113.087V88.0286C113.164 88.0395 113.24 88.0464 113.317 88.0491C113.569 88.0491 113.818 87.9996 114.051 87.9033C114.283 87.807 114.494 87.6659 114.672 87.488C114.85 87.3101 114.991 87.0989 115.087 86.8664C115.184 86.634 115.233 86.3849 115.233 86.1333V84.682C115.233 84.1735 115.032 83.6858 114.672 83.3259C114.313 82.9659 113.826 82.7632 113.317 82.7621ZM114.411 86.1333C114.411 86.4233 114.296 86.7015 114.091 86.9066C113.886 87.1117 113.608 87.2269 113.317 87.2269C113.24 87.227 113.163 87.2187 113.087 87.2022V83.609C113.163 83.5924 113.24 83.5842 113.317 83.5843C113.608 83.5854 113.886 83.7015 114.091 83.9073C114.296 84.113 114.411 84.3916 114.411 84.682V86.1333Z" fill="#E6E6E6"/>
<path d="M85.7555 139.752H84.8675L82.3227 127.221L81.8786 125.026L79.1036 111.372H68.4719L62.7162 139.74H61.8281L67.699 110.838C67.7138 110.74 67.7636 110.65 67.8392 110.586C67.9147 110.522 68.0109 110.487 68.1101 110.488H79.453C79.5522 110.487 79.6484 110.522 79.7239 110.586C79.7995 110.65 79.8493 110.74 79.8641 110.838L82.3021 122.83L82.7461 125.022L85.7555 139.752Z" fill="#9B6630"/>
<path d="M102.83 139.752H101.959L96.2031 111.384H85.5426L82.7675 125.046L82.3235 127.254L79.7787 139.785H78.8906L81.8795 125.058L82.3235 122.875L84.7574 110.883C84.7774 110.787 84.8286 110.701 84.9031 110.638C84.9775 110.574 85.0709 110.538 85.1685 110.533H96.5114C96.6105 110.532 96.7068 110.567 96.7823 110.631C96.8579 110.695 96.9077 110.785 96.9225 110.883L102.83 139.752Z" fill="#9B6630"/>
<path d="M76.6172 110.938H96.1579C97.9495 110.937 99.6696 110.235 100.95 108.982C102.23 107.728 102.969 106.024 103.007 104.232L103.735 74.537C103.749 73.8821 103.633 73.2308 103.395 72.6206C103.157 72.0103 102.801 71.4529 102.347 70.9803C101.894 70.5076 101.351 70.129 100.752 69.8659C100.152 69.6029 99.5057 69.4606 98.8508 69.4473H86.4965C85.2711 69.4474 84.0886 69.8983 83.1743 70.7141C82.2599 71.5299 81.6776 72.6535 81.5383 73.871L76.6172 110.938Z" fill="#E2A059"/>
<path d="M87.2741 110.937H66.4548C66.1964 110.937 65.9486 110.834 65.7659 110.651C65.5831 110.468 65.4805 110.221 65.4805 109.962V109.872C65.4799 109.52 65.5488 109.172 65.6831 108.847C65.8174 108.522 66.0145 108.227 66.2632 107.978C66.5118 107.729 66.8071 107.532 67.132 107.398C67.457 107.264 67.8053 107.195 68.1569 107.195H87.2741V110.937Z" fill="#E2A059"/>
<path d="M83.5074 16.9004H27.4219V60.9729H83.5074V16.9004Z" fill="#9B6630"/>
<path d="M84.1656 16.9004H28.0801V60.9729H84.1656V16.9004Z" fill="#9B6630"/>
<path d="M80.4732 20.5918H31.7715V57.2805H80.4732V20.5918Z" fill="white"/>
<path opacity="0.5" d="M31.7715 31.9805V57.281H74.0515C75.3424 52.0474 73.6773 46.7809 67.0624 43.9113C61.3519 41.4445 54.5478 44.1045 48.6111 42.8382C41.7577 41.3746 39.4883 35.7587 33.8559 32.8685C33.1829 32.5237 32.4864 32.227 31.7715 31.9805Z" fill="#E6E6E6"/>
<path opacity="0.7" d="M31.7715 20.5918V22.0307C36.5159 25.8871 42.3497 33.1763 48.5865 35.1456C58.4534 38.266 71.7163 29.8339 72.3165 20.5918H31.7715Z" fill="#73A872"/>
<path d="M72.0619 40.9628C73.9613 45.8469 76.9584 49.5552 80.4735 52.8648V22.5156C73.7146 24.5425 68.8551 32.7197 72.0619 40.9628Z" fill="#E6E6E6"/>
<path d="M102.781 158.318C146.805 158.318 182.494 156.234 182.494 153.664C182.494 151.093 146.805 149.01 102.781 149.01C58.757 149.01 23.0684 151.093 23.0684 153.664C23.0684 156.234 58.757 158.318 102.781 158.318Z" fill="#F5F5F5"/>
<path d="M30.4473 152.736V153.665H175.114V93.6699H165.39L148.686 104.589H132.755L114.892 116.265V120.964H107.545L87.2153 134.252H73.7098L56.8866 145.25H44.8695L30.4473 152.736Z" fill="#455177"/>
<path opacity="0.2" d="M30.4473 152.736V153.665H175.114V93.6699H165.39L148.686 104.589H132.755L114.892 116.265V120.964H107.545L87.2153 134.252H73.7098L56.8866 145.25H44.8695L30.4473 152.736Z" fill="#474D66"/>
<path d="M40.1699 153.666H175.113V94.5996L158.409 105.515H142.478L124.615 117.191V121.894H117.268L96.9379 135.182H83.4325L66.6134 146.179H54.5921L40.1699 153.666Z" fill="#455177"/>
<path opacity="0.1" d="M40.1699 153.666H175.113V94.5996L158.409 105.515H142.478L124.615 117.191V121.894H117.268L96.9379 135.182H83.4325L66.6134 146.179H54.5921L40.1699 153.666Z" fill="white"/>
<path d="M68.6569 42.8462C68.0813 43.5163 67.4235 44.2645 66.8603 45.0005C66.297 45.7364 65.6803 46.4846 65.1212 47.2452C64.0058 48.7201 63.0013 50.2757 62.1159 51.8991L61.8158 52.4953L61.7048 52.7214C61.6719 52.783 61.6472 52.8694 61.6143 52.9434C61.482 53.322 61.3762 53.7094 61.2978 54.1027C61.1251 54.9579 60.9935 55.887 60.8866 56.8285C60.6934 58.7114 60.5659 60.6807 60.4467 62.613L58.1897 62.8145C57.7536 60.8156 57.4786 58.785 57.3674 56.7422C57.3091 55.679 57.3229 54.6131 57.4085 53.5518C57.4508 52.964 57.5429 52.3809 57.684 51.8087C57.7292 51.6483 57.7621 51.4962 57.8238 51.3277C57.8854 51.1591 57.943 50.9741 57.9882 50.8672L58.2965 50.1107C58.7168 49.1236 59.1959 48.1626 59.7314 47.2329C60.2453 46.3119 60.8167 45.4404 61.3759 44.5852C61.935 43.7301 62.5722 42.8996 63.2177 42.1185C63.5384 41.7074 63.8673 41.2962 64.2003 40.9221C64.5333 40.548 64.8663 40.1574 65.2528 39.7422L68.6569 42.8462Z" fill="#F5AA89"/>
<path d="M69.4021 43.8822C68.9909 44.6428 68.5264 45.3787 68.0783 46.0653C67.3053 47.2534 66.5571 48.2812 66.0226 48.9884C65.5416 49.6256 65.2333 49.9997 65.2333 49.9997L59.1445 45.8515C59.1445 45.8515 62.8446 38.6486 65.6937 38.1881C68.6292 37.7236 71.3138 40.4699 69.4021 43.8822Z" fill="#455177"/>
<path opacity="0.3" d="M69.4021 43.8822C68.9909 44.6428 68.5264 45.3787 68.0783 46.0653C67.3053 47.2534 66.5571 48.2812 66.0226 48.9884C65.5416 49.6256 65.2333 49.9997 65.2333 49.9997L59.1445 45.8515C59.1445 45.8515 62.8446 38.6486 65.6937 38.1881C68.6292 37.7236 71.3138 40.4699 69.4021 43.8822Z" fill="#474D66"/>
<path d="M80.1289 131.724H83.1466L83.4467 124.73H80.429L80.1289 131.724Z" fill="#F5AA89"/>
<path d="M50.7578 118.695L53.2081 120.462L58.9885 116.01L56.5382 114.242L50.7578 118.695Z" fill="#F5AA89"/>
<path d="M83.4454 124.73L83.2932 128.336H80.2715L80.4236 124.73H83.4454Z" fill="#CE6F64"/>
<path d="M56.5373 114.242L58.9876 116.01L56.0028 118.304L53.5566 116.536L56.5373 114.242Z" fill="#CE6F64"/>
<path d="M77.0645 64.4512C77.0645 64.4512 77.4098 85.9447 74.7088 94.3728C70.4331 107.722 57.5156 118.535 57.5156 118.535L52.8945 115.2C52.8945 115.2 63.6454 106.065 65.6394 94.825C67.4113 84.7237 66.659 72.7024 66.659 64.4512H77.0645Z" fill="#455177"/>
<path opacity="0.7" d="M77.0645 64.4512C77.0645 64.4512 77.4098 85.9447 74.7088 94.3728C70.4331 107.722 57.5156 118.535 57.5156 118.535L52.8945 115.2C52.8945 115.2 63.6454 106.065 65.6394 94.825C67.4113 84.7237 66.659 72.7024 66.659 64.4512H77.0645Z" fill="white"/>
<path d="M60.5541 62.0576L61.6436 64.0146L57.8284 64.5819C57.8284 64.5819 57.4378 62.9374 58.3793 61.8027L60.5541 62.0576Z" fill="#F5AA89"/>
<path d="M62.2189 66.618L59.045 66.9387L57.8281 64.583L61.6434 64.0156L62.2189 66.618Z" fill="#F5AA89"/>
<path d="M79.8149 27.1255C79.8519 27.364 80.0081 27.5367 80.1684 27.5367C80.3288 27.5367 80.4192 27.2941 80.3822 27.0557C80.3452 26.8172 80.189 26.6445 80.0287 26.6445C79.8683 26.6445 79.7779 26.883 79.8149 27.1255Z" fill="#263238"/>
<path d="M79.9883 27.5449C80.3902 28.2347 80.8855 28.8655 81.4601 29.4196C81.3156 29.5653 81.141 29.6776 80.9486 29.7486C80.7561 29.8196 80.5504 29.8477 80.346 29.8308L79.9883 27.5449Z" fill="#DE5753"/>
<path d="M78.7298 25.9245C78.7115 25.925 78.6932 25.9219 78.676 25.9154C78.6589 25.9089 78.6431 25.899 78.6298 25.8864C78.6164 25.8738 78.6057 25.8587 78.5981 25.842C78.5906 25.8252 78.5865 25.8071 78.5859 25.7888C78.5859 25.7688 78.5899 25.7491 78.5976 25.7307C78.6054 25.7123 78.6168 25.6957 78.6312 25.6819C78.7891 25.52 78.9834 25.3982 79.198 25.3267C79.4125 25.2552 79.6411 25.236 79.8645 25.2708C79.8831 25.2742 79.9007 25.2813 79.9165 25.2917C79.9322 25.3021 79.9456 25.3156 79.956 25.3314C79.9664 25.3471 79.9734 25.3648 79.9768 25.3833C79.9802 25.4019 79.9797 25.4209 79.9755 25.4393C79.9721 25.4574 79.9651 25.4747 79.955 25.4901C79.9448 25.5055 79.9317 25.5187 79.9164 25.5291C79.9011 25.5394 79.884 25.5466 79.8659 25.5502C79.8478 25.5539 79.8292 25.5539 79.8111 25.5503C79.6333 25.5261 79.4522 25.5444 79.2829 25.6037C79.1135 25.663 78.9606 25.7617 78.8367 25.8916C78.8223 25.9043 78.8053 25.9139 78.7868 25.9195C78.7684 25.9252 78.749 25.9269 78.7298 25.9245Z" fill="#263238"/>
<path d="M71.7819 29.7754C72.2177 31.9831 72.6493 36.0327 71.1035 37.5045C71.1035 37.5045 71.7079 39.7493 75.8109 39.7493C80.3332 39.7493 77.9693 37.5045 77.9693 37.5045C75.5025 36.9166 75.5683 35.0912 76 33.3933L71.7819 29.7754Z" fill="#F5AA89"/>
<path d="M69.4268 39.0027C69.916 38.2381 69.0938 36.3962 69.0938 36.3962C69.0938 36.3962 76.3665 34.5667 79.3348 37.3747C79.9515 37.9544 79.2691 38.8095 79.2691 38.8095L69.4268 39.0027Z" fill="#455177"/>
<path d="M54.4983 121.91C54.116 121.91 53.5568 121.162 53.4006 120.895C53.3928 120.883 53.3887 120.869 53.3887 120.855C53.3887 120.842 53.3928 120.828 53.4006 120.816C53.4089 120.806 53.4196 120.798 53.4318 120.793C53.4441 120.788 53.4574 120.786 53.4705 120.788C53.5116 120.788 54.5024 121.001 54.7326 121.392C54.7589 121.433 54.7758 121.479 54.7822 121.528C54.7886 121.576 54.7843 121.625 54.7696 121.672C54.7121 121.848 54.6052 121.898 54.5271 121.906L54.4983 121.91ZM53.6144 120.969C53.8734 121.347 54.301 121.791 54.5148 121.766C54.5353 121.766 54.597 121.766 54.6381 121.626C54.6464 121.599 54.6485 121.571 54.6443 121.543C54.64 121.516 54.6294 121.489 54.6134 121.466C54.337 121.202 53.99 121.023 53.6144 120.952V120.969Z" fill="#455177"/>
<path d="M53.9513 120.972C53.7779 120.976 53.6049 120.955 53.4374 120.91C53.4272 120.903 53.4189 120.894 53.4131 120.883C53.4073 120.872 53.4043 120.86 53.4043 120.848C53.4043 120.836 53.4073 120.824 53.4131 120.813C53.4189 120.802 53.4272 120.793 53.4374 120.787C53.4662 120.762 54.1445 120.219 54.5926 120.264C54.6473 120.27 54.7002 120.287 54.7483 120.314C54.7963 120.341 54.8384 120.377 54.8722 120.421C54.91 120.46 54.9328 120.511 54.9365 120.565C54.9403 120.619 54.9248 120.673 54.8928 120.717C54.7448 120.898 54.3254 120.972 53.9513 120.972ZM53.6265 120.807C54.0089 120.865 54.6379 120.807 54.7571 120.634C54.7668 120.614 54.77 120.59 54.7664 120.568C54.7627 120.545 54.7523 120.524 54.7365 120.507C54.7151 120.479 54.6879 120.455 54.6567 120.438C54.6255 120.421 54.5911 120.411 54.5556 120.408C54.2127 120.444 53.8887 120.583 53.6265 120.807Z" fill="#455177"/>
<path d="M84.3586 131.878C84.0484 131.874 83.7391 131.846 83.4336 131.792C83.4192 131.79 83.4059 131.783 83.3955 131.773C83.3852 131.762 83.3784 131.749 83.376 131.735C83.3735 131.72 83.3757 131.705 83.3824 131.692C83.389 131.678 83.3998 131.667 83.413 131.661C83.4582 131.636 84.5107 131.032 85.0164 131.171C85.0633 131.182 85.1075 131.202 85.1464 131.23C85.1853 131.259 85.218 131.294 85.2425 131.336C85.2747 131.382 85.292 131.436 85.292 131.492C85.292 131.548 85.2747 131.603 85.2425 131.648C85.1233 131.825 84.7492 131.878 84.3586 131.878ZM83.6638 131.685C84.227 131.767 84.9917 131.759 85.1315 131.566C85.1519 131.515 85.1519 131.457 85.1315 131.406C85.116 131.38 85.0951 131.358 85.0703 131.341C85.0455 131.324 85.0173 131.312 84.9876 131.307C84.6669 131.225 84.0338 131.496 83.6638 131.685Z" fill="#455177"/>
<path d="M83.4591 131.776H83.418C83.4077 131.769 83.3996 131.759 83.3945 131.747C83.3895 131.735 83.3876 131.723 83.3892 131.71C83.4231 131.28 83.5914 130.872 83.8702 130.543C83.927 130.496 83.9927 130.46 84.0633 130.439C84.1339 130.418 84.2081 130.411 84.2814 130.419C84.3428 130.412 84.4046 130.429 84.4536 130.467C84.5027 130.504 84.5353 130.56 84.5445 130.621C84.602 130.962 83.8785 131.616 83.5167 131.78L83.4591 131.776ZM84.1991 130.543C84.1078 130.544 84.0196 130.576 83.9484 130.633C83.7201 130.895 83.5767 131.221 83.5372 131.566C83.9114 131.34 84.4006 130.826 84.3595 130.625C84.3595 130.625 84.3595 130.555 84.2197 130.543H84.1991Z" fill="#455177"/>
<path d="M53.5571 120.437L51.2096 117.97C51.1674 117.928 51.112 117.9 51.0523 117.893C50.9926 117.885 50.9322 117.898 50.8807 117.929L48.5332 119.36C48.4835 119.39 48.44 119.429 48.4055 119.475C48.3709 119.522 48.3458 119.574 48.3317 119.631C48.3175 119.687 48.3146 119.745 48.3231 119.802C48.3316 119.86 48.3513 119.915 48.3811 119.964C48.4011 119.996 48.4245 120.025 48.451 120.051C49.2732 120.873 49.7337 121.255 50.7656 122.332C51.4028 122.994 53.1337 125.321 54.0094 126.238C54.8851 127.155 55.9088 126.403 55.6292 125.95C54.3958 123.919 53.7956 121.905 53.7627 120.902C53.7545 120.727 53.6812 120.561 53.5571 120.437Z" fill="#263238"/>
<path d="M83.1259 131.365H79.8369C79.7772 131.365 79.7192 131.385 79.6728 131.423C79.6264 131.46 79.5943 131.512 79.582 131.571L78.9817 134.243C78.9559 134.356 78.9759 134.475 79.0376 134.574C79.0992 134.673 79.1974 134.743 79.3106 134.769C79.3461 134.773 79.382 134.773 79.4175 134.769C80.6098 134.769 82.3283 134.679 83.8248 134.679C85.572 134.679 87.0809 134.773 89.1324 134.773C90.3657 134.773 90.7152 133.52 90.1972 133.409C87.8332 132.891 85.905 132.833 83.8618 131.575C83.6403 131.439 83.3857 131.366 83.1259 131.365Z" fill="#263238"/>
<path opacity="0.3" d="M68.0771 46.0651C67.3042 47.2533 66.5559 48.2811 66.0215 48.9882C66.0832 47.5739 66.3751 45.2881 67.4728 43.5449C67.8715 43.9396 68.0319 44.9592 68.0771 46.0651Z" fill="#474D66"/>
<path d="M84.6912 41.168C84.8557 41.427 85.1558 41.8217 85.4313 42.1876C85.7067 42.5535 86.0233 42.9276 86.3357 43.2976C86.9648 44.0335 87.6061 44.7653 88.2762 45.4683C89.5667 46.8653 90.9813 48.1423 92.5026 49.2836C92.8561 49.5418 93.2224 49.782 93.6003 50.003L93.8511 50.1469C93.8799 50.1469 93.8922 50.1839 93.9456 50.2004L94.0114 50.2291L94.1019 50.2579C94.1693 50.2787 94.2379 50.2952 94.3074 50.3073C95.1266 50.4217 95.9584 50.4106 96.7742 50.2744C98.7006 49.9696 100.604 49.5356 102.472 48.9752L103.447 51.0308C101.615 52.2151 99.6302 53.1433 97.5471 53.7895C96.3691 54.1709 95.1338 54.3448 93.8963 54.3034C93.7104 54.2944 93.5251 54.2752 93.3413 54.2458L93.0576 54.1924L92.7534 54.1184C92.5402 54.0606 92.3314 53.9878 92.1285 53.9005L92.001 53.847L91.8982 53.7977L91.6927 53.699C91.1623 53.44 90.6484 53.1563 90.1469 52.848C88.2963 51.6428 86.5815 50.2409 85.0325 48.6669C84.2719 47.8981 83.5319 47.1169 82.8371 46.2865C82.4835 45.8753 82.1423 45.4642 81.801 45.0038C81.4282 44.5273 81.0862 44.0275 80.7773 43.5073L84.6912 41.168Z" fill="#F5AA89"/>
<path d="M101.988 49.5234L103.995 47.1348L105.359 50.6211C105.359 50.6211 103.629 51.4433 102.28 50.9706L101.988 49.5234Z" fill="#F5AA89"/>
<path d="M106.938 46.6152L107.497 49.4027L105.359 50.6196L103.998 47.1332L106.938 46.6152Z" fill="#F5AA89"/>
<path d="M71.7079 27.8678C72.3493 30.795 72.5795 32.5423 74.3103 33.825C76.9128 35.7572 80.3498 33.825 80.5923 30.7703C80.8102 28.0158 79.7207 23.6908 76.6455 22.959C75.9671 22.7958 75.2583 22.8091 74.5865 22.9975C73.9147 23.186 73.3023 23.5433 72.8077 24.0354C72.3131 24.5275 71.9527 25.1381 71.7609 25.8089C71.5691 26.4798 71.5523 27.1886 71.712 27.8678H71.7079Z" fill="#F5AA89"/>
<path d="M70.4699 22.1496C67.9003 22.2195 67.592 24.7479 68.8665 25.4921C68.8665 25.4921 67.3864 26.2033 68.147 27.9012C69.3064 30.479 71.5265 33.3116 73.7959 33.1554C76.6121 32.9622 77.4137 29.8952 77.3151 26.8693C78.7992 25.4674 77.903 24.7849 79.3707 23.9298C81.969 22.4168 83.2846 18.0795 78.9596 18.1453C74.5277 18.2152 77.0273 21.9728 70.4699 22.1496Z" fill="#263238"/>
<path d="M69.188 25.1222C69.188 25.1222 68.1971 25.6361 66.6719 24.748C67.2022 26.0472 68.8303 26.5817 69.188 25.1222Z" fill="#263238"/>
<path d="M75.7697 27.5977C75.8494 28.3386 76.1717 29.0324 76.6865 29.5711C77.369 30.2741 78.0391 29.7972 78.1255 28.9092C78.2036 28.1116 77.9405 26.7837 77.1223 26.4137C76.3042 26.0436 75.6834 26.7014 75.7697 27.5977Z" fill="#F5AA89"/>
<path d="M59.481 117.561L57.5857 118.691L52.5371 115.049L54.2186 113.762L59.481 117.561Z" fill="#455177"/>
<path d="M74.0479 68.1427C73.4764 72.0155 75.495 82.7992 76.1939 86.3308C76.9257 79.7282 77.0614 71.8962 77.0737 67.6205C75.5937 66.6174 74.311 66.3584 74.0479 68.1427Z" fill="#455177"/>
<path opacity="0.4" d="M74.0479 68.1427C73.4764 72.0155 75.495 82.7992 76.1939 86.3308C76.9257 79.7282 77.0614 71.8962 77.0737 67.6205C75.5937 66.6174 74.311 66.3584 74.0479 68.1427Z" fill="white"/>
<path d="M82.793 64.4512C82.793 64.4512 87.3441 83.7329 87.6648 92.9421C88.0224 103.274 84.4169 127.637 84.4169 127.637H79.3025C79.3025 127.637 78.6735 103.084 78.4433 93.6739C78.1966 83.4163 72.1777 64.4512 72.1777 64.4512H82.793Z" fill="#455177"/>
<path opacity="0.7" d="M82.793 64.4512C82.793 64.4512 87.3441 83.7329 87.6648 92.9421C88.0224 103.274 84.4169 127.637 84.4169 127.637H79.3025C79.3025 127.637 78.6735 103.084 78.4433 93.6739C78.1966 83.4163 72.1777 64.4512 72.1777 64.4512H82.793Z" fill="white"/>
<path d="M85.4034 125.609C85.4281 125.609 85.1156 127.731 85.1156 127.731H78.8912L78.7227 125.835L85.4034 125.609Z" fill="#455177"/>
<path d="M84.0994 48.19C84.0994 49.2178 84.0747 50.3484 84.0172 51.5941C83.8692 54.9818 83.4991 59.204 82.7838 64.45H66.6389C66.5279 61.9832 68.0861 49.8715 65.6934 38.1874C67.4871 37.843 69.3012 37.615 71.1243 37.5049C73.411 37.3734 75.7034 37.3734 77.9901 37.5049C79.5572 37.6615 81.1101 37.9364 82.6358 38.3272C82.6358 38.3272 84.1035 40.0251 84.0994 48.19Z" fill="#455177"/>
<path opacity="0.3" d="M84.0994 48.19C84.0994 49.2178 84.0747 50.3484 84.0172 51.5941C83.8692 54.9818 83.4991 59.204 82.7838 64.45H66.6389C66.5279 61.9832 68.0861 49.8715 65.6934 38.1874C67.4871 37.843 69.3012 37.615 71.1243 37.5049C73.411 37.3734 75.7034 37.3734 77.9901 37.5049C79.5572 37.6615 81.1101 37.9364 82.6358 38.3272C82.6358 38.3272 84.1035 40.0251 84.0994 48.19Z" fill="#474D66"/>
<path opacity="0.3" d="M84.0991 48.191C84.0991 49.2188 84.0744 50.3494 84.0169 51.5951C82.1216 49.745 81.9941 45.9668 81.9941 45.9668L84.0991 48.191Z" fill="#474D66"/>
<path d="M78.3109 41.8666C78.6686 44.7445 85.1973 50.8044 85.1973 50.8044L91.0763 46.1464C89.5991 43.959 87.8702 41.9527 85.925 40.1686C81.6739 36.4768 77.8793 38.4255 78.3109 41.8666Z" fill="#455177"/>
<path opacity="0.3" d="M78.3109 41.8666C78.6686 44.7445 85.1973 50.8044 85.1973 50.8044L91.0763 46.1464C89.5991 43.959 87.8702 41.9527 85.925 40.1686C81.6739 36.4768 77.8793 38.4255 78.3109 41.8666Z" fill="#474D66"/>
<path d="M147.194 101.966L144.172 102.262L141.027 95.0675L144.049 94.7715L147.194 101.966Z" fill="#F5AA89"/>
<path d="M167.306 92.9211L164.675 94.6149L159.906 89.0688L162.537 87.375L167.306 92.9211Z" fill="#F5AA89"/>
<path d="M141.031 95.0714L142.651 98.7797H145.804L144.053 94.7754L141.031 95.0714Z" fill="#CE6F64"/>
<path d="M162.542 87.375L159.906 89.0688L162.369 91.9261L165 90.2323L162.542 87.375Z" fill="#CE6F64"/>
<path d="M121.282 25.1545C121.216 26.2727 121.076 27.2923 120.916 28.353C120.755 29.4137 120.529 30.4415 120.274 31.4817C119.777 33.6003 119.008 35.6456 117.985 37.5663C117.715 38.0645 117.414 38.5452 117.084 39.0052C116.763 39.4616 116.422 39.8809 116.081 40.288C115.399 41.1102 114.691 41.8708 113.972 42.6231C112.521 44.1155 111.041 45.5421 109.45 46.9029L108.307 45.8011C109.569 44.2019 110.864 42.619 112.093 41.0156C113.322 39.4123 114.597 37.8171 115.382 36.2137C116.184 34.4653 116.788 32.6326 117.183 30.7499C117.401 29.7961 117.565 28.8217 117.721 27.872C117.878 26.9223 117.993 25.8945 118.079 24.9941L121.282 25.1545Z" fill="#F5AA89"/>
<path d="M120.024 4.77179C117.82 4.77179 115.321 7.13576 115.423 10.5275C115.526 13.9193 116.246 18.9556 111.004 23.6177C112.887 27.729 121.742 31.5812 127.654 28.6828C133.258 25.9365 130.943 10.7125 126.951 6.72463C124.715 4.49223 122.104 3.74398 120.024 4.77179Z" fill="#263238"/>
<path d="M123.683 25.541C123.519 26.5359 122.692 28.4189 122.039 29.8167C121.554 30.828 121.159 31.5886 121.159 31.5886L120.583 31.3337L115.818 29.2123C116.18 26.6428 116.768 23.8677 119.601 22.6056C121.369 21.8244 123.975 23.7649 123.683 25.541Z" fill="#455177"/>
<path opacity="0.6" d="M123.683 25.541C123.519 26.5359 122.692 28.4189 122.039 29.8167C121.554 30.828 121.159 31.5886 121.159 31.5886L120.583 31.3337L115.818 29.2123C116.18 26.6428 116.768 23.8677 119.601 22.6056C121.369 21.8244 123.975 23.7649 123.683 25.541Z" fill="white"/>
<path d="M122.026 29.8172C121.541 30.8285 121.146 31.5891 121.146 31.5891L120.57 31.3342C120.648 30.3187 120.85 28.7195 121.393 28C121.731 28.5537 121.947 29.1732 122.026 29.8172Z" fill="#455177"/>
<path opacity="0.5" d="M122.026 29.8465C121.541 30.8578 121.146 31.6184 121.146 31.6184L120.57 31.3635C120.648 30.348 120.85 28.7488 121.393 28.0293C121.731 28.583 121.947 29.2025 122.026 29.8465Z" fill="white"/>
<path d="M138.137 36.6825L126.009 40.5059C117.622 23.913 118.814 23.0332 118.814 23.0332C118.814 23.0332 120.751 21.9272 122.765 21.0063L123.682 20.5952C125.471 19.8829 127.31 19.3004 129.183 18.852C129.458 18.778 129.734 18.7123 130.005 18.6465C131.497 18.3103 133.007 18.0618 134.527 17.9023C134.708 20.2005 134.889 22.1451 135.087 23.8349C135.341 26.0385 135.617 27.8022 135.909 29.3275C136.455 31.8345 137.2 34.2939 138.137 36.6825Z" fill="#455177"/>
<path opacity="0.6" d="M138.137 36.6825L126.009 40.5059C117.622 23.913 118.814 23.0332 118.814 23.0332C118.814 23.0332 120.751 21.9272 122.765 21.0063L123.682 20.5952C125.471 19.8829 127.31 19.3004 129.183 18.852C129.458 18.778 129.734 18.7123 130.005 18.6465C131.497 18.3103 133.007 18.0618 134.527 17.9023C134.708 20.2005 134.889 22.1451 135.087 23.8349C135.341 26.0385 135.617 27.8022 135.909 29.3275C136.455 31.8345 137.2 34.2939 138.137 36.6825Z" fill="white"/>
<path d="M126.009 40.5062C126.009 40.5062 125.598 65.3381 128.842 74.3088C131.966 82.9095 141.286 97.6935 141.286 97.6935L146.689 97.5537C146.689 97.5537 138.108 78.8353 136.698 71.4309C134.367 59.1506 134.881 37.7188 134.881 37.7188L126.009 40.5062Z" fill="#455177"/>
<path opacity="0.4" d="M126.009 40.5062C126.009 40.5062 125.598 65.3381 128.842 74.3088C131.966 82.9095 141.286 97.6935 141.286 97.6935L146.689 97.5537C146.689 97.5537 138.108 78.8353 136.698 71.4309C134.367 59.1506 134.881 37.7188 134.881 37.7188L126.009 40.5062Z" fill="#474D66"/>
<path opacity="0.3" d="M130.861 42.6405L132.313 38.5293L134.882 37.707C134.882 37.707 134.648 47.463 135.211 57.5808C132.88 53.1118 130.861 44.8894 130.861 42.6405Z" fill="#474D66"/>
<path d="M128.682 39.7177C128.682 39.7177 137.11 58.9953 142.557 69.9682C146.956 78.8279 160.647 90.7217 160.647 90.7217L164.396 88.1193C164.396 88.1193 154.097 74.0342 151.059 68.0236C141.336 48.7912 143.733 40.8647 138.142 36.6836L128.682 39.7177Z" fill="#455177"/>
<path opacity="0.4" d="M128.682 39.7177C128.682 39.7177 137.11 58.9953 142.557 69.9682C146.956 78.8279 160.647 90.7217 160.647 90.7217L164.396 88.1193C164.396 88.1193 154.097 74.0342 151.059 68.0236C141.336 48.7912 143.733 40.8647 138.142 36.6836L128.682 39.7177Z" fill="#474D66"/>
<path d="M109.039 45.5098L106.293 46.0196L108.238 48.6508C108.238 48.6508 109.672 47.6517 109.973 46.3855L109.039 45.5098Z" fill="#F5AA89"/>
<path d="M104.492 48.0998L106.297 49.7854L108.233 48.6507L106.293 46.0195L104.492 48.0998Z" fill="#F5AA89"/>
<path d="M163.705 93.7851L166.562 91.7295C166.61 91.694 166.67 91.6773 166.73 91.6826C166.789 91.6879 166.845 91.7148 166.887 91.7583L168.835 93.7851C168.924 93.8839 168.97 94.0138 168.963 94.1464C168.956 94.2789 168.897 94.4033 168.798 94.4923L168.753 94.5293C167.742 95.2241 167.22 95.5119 165.966 96.4122C165.193 96.9673 163.565 98.3075 162.496 99.0722C161.427 99.8369 160.617 98.8214 160.991 98.4103C162.677 96.552 163.125 95.2858 163.392 94.2374C163.441 94.0553 163.552 93.8956 163.705 93.7851Z" fill="#263238"/>
<path d="M143.774 101.329H147.474C147.541 101.331 147.605 101.354 147.657 101.394C147.71 101.435 147.748 101.491 147.766 101.555L148.588 104.49C148.605 104.549 148.611 104.61 148.604 104.67C148.597 104.731 148.578 104.789 148.549 104.842C148.52 104.895 148.48 104.942 148.432 104.98C148.385 105.017 148.33 105.045 148.272 105.062C148.227 105.068 148.181 105.068 148.136 105.062H139.581C138.224 105.062 137.936 103.689 138.503 103.565C141.02 103.006 142.471 102.242 143.248 101.51C143.394 101.385 143.582 101.32 143.774 101.329Z" fill="#263238"/>
<path d="M130.013 18.6562V18.8741C130.013 19.0016 129.927 21.9452 126.918 24.2681L126.613 24.5024L126.243 24.4202C124.648 24.0749 123.587 23.413 123.082 22.455C122.847 22.0104 122.741 21.5095 122.773 21.0079L123.69 20.5968C125.48 19.8845 127.318 19.3019 129.191 18.8536C129.462 18.7878 129.738 18.7179 130.013 18.6562Z" fill="white"/>
<path d="M126.683 12.8379C126.897 14.7167 127.575 18.0715 129.187 18.8609C129.187 18.8609 129.146 21.5085 126.412 23.6176C122.79 22.8282 123.686 20.604 123.686 20.604C125.512 19.5063 124.998 18.0592 124.216 16.7929L126.683 12.8379Z" fill="#F5AA89"/>
<path d="M125.68 14.4492L124.221 16.7885C124.406 17.0824 124.566 17.3919 124.698 17.7135C125.417 17.3641 126.342 16.3281 126.169 15.514C126.071 15.1327 125.906 14.772 125.68 14.4492Z" fill="#CE6F64"/>
<path d="M125.828 8.64938C126.864 11.5807 127.361 12.7976 126.543 14.8738C125.31 17.9942 121.486 18.6233 119.595 16.0661C117.897 13.7597 116.491 9.36063 118.802 7.02133C119.593 6.22321 120.67 5.77224 121.794 5.76761C122.918 5.76299 123.998 6.20509 124.796 6.99667C125.265 7.45862 125.619 8.0249 125.828 8.64938Z" fill="#F5AA89"/>
<path d="M121.947 5.23242C120.952 6.31368 122.995 10.836 126.112 11.5308C129.228 12.2256 126.712 7.3086 126.712 7.3086L121.947 5.23242Z" fill="#263238"/>
<path d="M122.272 6.49792C122.387 7.7313 117.433 9.59369 117.01 10.5064C117.215 9.02223 117.285 7.28317 119.156 6.0498C121.026 4.81643 122.568 5.29744 122.568 5.29744L122.272 6.49792Z" fill="#263238"/>
<path d="M121.907 6.54883C121.907 6.54883 121.36 7.9672 119.275 9.70215C120.919 9.23287 122.327 8.16507 123.222 6.70917L121.907 6.54883Z" fill="#263238"/>
<path d="M127.6 11.0286C127.691 11.6227 127.543 12.2285 127.189 12.7142C126.716 13.3555 125.993 13.0513 125.717 12.3524C125.466 11.7192 125.409 10.6257 126.079 10.2351C126.195 10.1683 126.323 10.1251 126.456 10.108C126.588 10.0908 126.723 10.1001 126.852 10.1353C126.982 10.1704 127.102 10.2307 127.208 10.3128C127.314 10.3948 127.402 10.497 127.469 10.6133C127.542 10.7404 127.587 10.8822 127.6 11.0286Z" fill="#F5AA89"/>
<path d="M138.081 35.914L138.973 36.8267C139.043 36.8966 138.973 37.0158 138.829 37.0569L126.121 41.0777C126.079 41.0963 126.033 41.1007 125.988 41.0904C125.944 41.08 125.904 41.0553 125.874 41.0201L125.422 39.9718C125.393 39.8978 125.467 39.8073 125.587 39.7662L137.855 35.8852C137.891 35.8695 137.932 35.8639 137.972 35.869C138.011 35.8741 138.049 35.8896 138.081 35.914Z" fill="#263238"/>
<path d="M121.478 11.4151C121.577 11.6453 121.532 11.8879 121.38 11.9495C121.227 12.0112 121.026 11.8797 120.927 11.6453C120.829 11.411 120.874 11.1725 121.026 11.1109C121.178 11.0492 121.38 11.1807 121.478 11.4151Z" fill="#263238"/>
<path d="M118.851 12.5256C118.95 12.7599 118.905 12.9984 118.753 13.0642C118.601 13.13 118.399 12.9943 118.3 12.7599C118.202 12.5256 118.247 12.2872 118.399 12.2214C118.551 12.1556 118.753 12.2954 118.851 12.5256Z" fill="#263238"/>
<path d="M118.469 12.209L117.844 12.283C117.844 12.283 118.317 12.5996 118.469 12.209Z" fill="#263238"/>
<path d="M119.778 12.5742C119.795 13.1931 119.727 13.8115 119.576 14.4119C119.731 14.4459 119.891 14.4459 120.046 14.4118C120.201 14.3778 120.346 14.3105 120.472 14.2146L119.778 12.5742Z" fill="#DE5753"/>
<path d="M121.948 14.713C121.932 14.7119 121.917 14.7056 121.904 14.695C121.892 14.6843 121.884 14.6699 121.88 14.6541C121.877 14.6382 121.879 14.6217 121.886 14.6071C121.893 14.5925 121.905 14.5806 121.919 14.5732C122.211 14.4565 122.471 14.273 122.679 14.0373C122.887 13.8017 123.036 13.5205 123.116 13.2165C123.117 13.2073 123.12 13.1984 123.124 13.1903C123.129 13.1822 123.135 13.1751 123.142 13.1693C123.149 13.1636 123.157 13.1594 123.166 13.1569C123.175 13.1544 123.185 13.1537 123.194 13.1548C123.204 13.1563 123.213 13.1598 123.221 13.1649C123.23 13.1701 123.237 13.1769 123.243 13.185C123.249 13.193 123.253 13.2021 123.255 13.2118C123.257 13.2214 123.257 13.2314 123.255 13.2412C123.175 13.5708 123.017 13.8763 122.793 14.1318C122.57 14.3872 122.289 14.5852 121.973 14.7089L121.948 14.713Z" fill="#263238"/>
<path d="M121.853 10.2442C121.828 10.2483 121.803 10.2483 121.779 10.2442C121.619 10.1485 121.44 10.091 121.254 10.076C121.069 10.061 120.883 10.089 120.71 10.1579C120.675 10.1754 120.635 10.1787 120.599 10.1672C120.562 10.1557 120.531 10.1302 120.512 10.0962C120.495 10.0612 120.491 10.0206 120.503 9.98307C120.514 9.94553 120.54 9.91388 120.574 9.89475C120.79 9.80095 121.025 9.76056 121.26 9.77702C121.495 9.79348 121.722 9.8663 121.923 9.98931C121.956 10.0091 121.981 10.0413 121.991 10.079C122.001 10.1168 121.996 10.1569 121.976 10.1908C121.961 10.2085 121.942 10.2226 121.921 10.2318C121.899 10.2411 121.876 10.2453 121.853 10.2442Z" fill="#263238"/>
<path d="M117.088 11.834H117.059C117.04 11.8305 117.023 11.8234 117.007 11.813C116.991 11.8027 116.977 11.7893 116.966 11.7736C116.956 11.758 116.948 11.7403 116.944 11.7218C116.941 11.7032 116.94 11.684 116.944 11.6654C116.984 11.4318 117.079 11.2112 117.222 11.0222C117.366 10.8333 117.552 10.6816 117.766 10.58C117.803 10.5663 117.843 10.5671 117.879 10.5825C117.915 10.5978 117.944 10.6263 117.959 10.6623C117.975 10.6983 117.975 10.7388 117.96 10.775C117.946 10.8111 117.917 10.8401 117.881 10.8555C117.711 10.9383 117.564 11.0607 117.451 11.2123C117.338 11.364 117.263 11.5405 117.232 11.7271C117.224 11.7589 117.205 11.7871 117.179 11.8066C117.153 11.8262 117.121 11.8358 117.088 11.834Z" fill="#263238"/>
<path d="M136.39 20.8145C136.88 21.1804 137.291 21.5216 137.718 21.8916C138.146 22.2616 138.541 22.6316 138.952 23.014C139.753 23.7869 140.518 24.5968 141.254 25.4437C141.994 26.295 142.681 27.1916 143.31 28.1283C143.474 28.3586 143.618 28.6094 143.77 28.8478C143.922 29.0863 144.074 29.3288 144.21 29.5796C144.346 29.8304 144.489 30.0647 144.621 30.3484L144.839 30.8007L145.016 31.2652C145.393 32.4316 145.571 33.6534 145.542 34.879C145.517 36.0193 145.394 37.1554 145.176 38.2749C144.958 39.3641 144.683 40.4413 144.354 41.5022C144.022 42.5571 143.634 43.5933 143.19 44.6062L141.706 44.0553C141.961 43.0686 142.204 42.0326 142.385 41.0089C142.586 39.9952 142.733 38.9714 142.824 37.9419C142.924 36.9447 142.947 35.9414 142.894 34.9407C142.864 34.4661 142.805 33.9938 142.718 33.5264C142.632 33.0938 142.507 32.6699 142.343 32.2601L142.22 31.9765L142.08 31.7133C141.969 31.5242 141.817 31.3022 141.669 31.0967C141.521 30.8911 141.398 30.6855 141.258 30.4759C141.118 30.2662 140.978 30.0647 140.818 29.8633C140.222 29.041 139.544 28.2969 138.869 27.5363C138.195 26.7757 137.455 26.0563 136.703 25.3615C136.329 25.0079 135.95 24.6626 135.564 24.3255C135.178 23.9883 134.775 23.6512 134.438 23.3634L136.39 20.8145Z" fill="#F5AA89"/>
<path d="M142.183 43.0723L139.93 44.7168L142.808 46.2379C142.808 46.2379 143.667 44.7168 143.387 43.4464L142.183 43.0723Z" fill="#F5AA89"/>
<path d="M139.215 47.3805L141.575 48.1123L142.825 46.2458L139.93 44.7246L139.215 47.3805Z" fill="#F5AA89"/>
<path d="M162.623 95.0709H162.574C162.502 95.0623 162.434 95.0349 162.376 94.9916C162.319 94.9483 162.273 94.8906 162.245 94.8242C162.223 94.7855 162.211 94.7415 162.211 94.6968C162.211 94.652 162.223 94.6081 162.245 94.5693C162.447 94.224 163.577 94.1582 163.705 94.1582C163.718 94.1583 163.732 94.1622 163.743 94.1694C163.755 94.1767 163.764 94.187 163.77 94.1993C163.778 94.2115 163.783 94.2258 163.783 94.2404C163.783 94.2551 163.778 94.2694 163.77 94.2815C163.499 94.5817 163.01 95.0709 162.623 95.0709ZM163.528 94.3185C163.076 94.3514 162.475 94.4583 162.373 94.6392C162.36 94.6551 162.354 94.6746 162.354 94.6947C162.354 94.7148 162.36 94.7344 162.373 94.7502C162.39 94.795 162.419 94.8344 162.457 94.8646C162.494 94.8949 162.539 94.915 162.586 94.9229C162.804 94.9434 163.145 94.7214 163.528 94.3185Z" fill="#455177"/>
<path d="M163.627 94.3099C163.249 94.3099 162.505 94.1002 162.365 93.796C162.34 93.7424 162.335 93.682 162.35 93.625C162.365 93.5681 162.399 93.5181 162.447 93.4835C162.489 93.4458 162.539 93.4172 162.593 93.3995C162.646 93.3818 162.703 93.3754 162.76 93.3807C163.212 93.4259 163.742 94.1577 163.763 94.203C163.769 94.2143 163.772 94.2271 163.772 94.24C163.772 94.2529 163.769 94.2656 163.763 94.277C163.758 94.2886 163.75 94.2989 163.74 94.3067C163.73 94.3146 163.718 94.3199 163.705 94.3222L163.627 94.3099ZM162.714 93.5287C162.684 93.5281 162.654 93.5335 162.625 93.5448C162.597 93.5561 162.571 93.573 162.55 93.5945C162.48 93.6562 162.488 93.7014 162.501 93.7343C162.591 93.9357 163.175 94.1454 163.557 94.1454C163.368 93.9111 163.014 93.5411 162.735 93.5123L162.714 93.5287Z" fill="#455177"/>
<path d="M142.126 101.94C141.873 101.959 141.62 101.898 141.402 101.768C141.347 101.725 141.301 101.672 141.268 101.61C141.236 101.548 141.217 101.48 141.213 101.41C141.207 101.371 141.213 101.331 141.23 101.295C141.247 101.259 141.274 101.229 141.308 101.209C141.641 100.983 142.907 101.554 143.158 101.673C143.172 101.679 143.183 101.69 143.191 101.703C143.198 101.717 143.201 101.732 143.199 101.747C143.197 101.763 143.191 101.778 143.181 101.79C143.17 101.801 143.157 101.81 143.141 101.813C142.808 101.89 142.468 101.933 142.126 101.94ZM141.534 101.299C141.484 101.296 141.434 101.307 141.39 101.332C141.38 101.341 141.372 101.351 141.367 101.363C141.362 101.376 141.36 101.389 141.361 101.402C141.362 101.45 141.375 101.498 141.398 101.541C141.421 101.584 141.453 101.62 141.493 101.649C141.706 101.813 142.22 101.834 142.886 101.714C142.46 101.505 142.004 101.365 141.534 101.299Z" fill="#455177"/>
<path d="M143.125 101.814H143.096C142.685 101.641 141.834 100.963 141.883 100.614C141.883 100.535 141.945 100.441 142.134 100.416C142.874 100.33 143.186 101.65 143.199 101.728C143.201 101.741 143.2 101.755 143.196 101.768C143.191 101.781 143.184 101.792 143.174 101.802C143.16 101.812 143.142 101.816 143.125 101.814ZM142.204 100.56H142.154C142.076 100.56 142.031 100.593 142.027 100.63C142.002 100.831 142.586 101.37 143.009 101.604C142.915 101.28 142.66 100.56 142.204 100.56Z" fill="#455177"/>
<path d="M121.096 11.0957L120.471 11.1697C120.471 11.1697 120.939 11.4863 121.096 11.0957Z" fill="#263238"/>
<path d="M140.526 97.9818L147.195 97.8132L146.812 95.7617L139.527 96.1071L140.526 97.9818Z" fill="#455177"/>
<path opacity="0.5" d="M140.526 97.9818L147.195 97.8132L146.812 95.7617L139.527 96.1071L140.526 97.9818Z" fill="white"/>
<path d="M160.835 91.9633L165.242 88.8264L164.243 86.9023L159.4 90.5655L160.835 91.9633Z" fill="#455177"/>
<path opacity="0.5" d="M160.835 91.9633L165.242 88.8264L164.243 86.9023L159.4 90.5655L160.835 91.9633Z" fill="white"/>
<path d="M136.867 37.8099L137.196 37.703C137.262 37.6825 137.303 37.6331 137.282 37.5961L136.682 36.2353C136.682 36.1942 136.6 36.1777 136.534 36.1983L136.205 36.3052C136.139 36.3257 136.098 36.3751 136.119 36.4121L136.715 37.7729C136.732 37.7951 136.757 37.8108 136.784 37.8175C136.812 37.8242 136.841 37.8215 136.867 37.8099Z" fill="#455177"/>
<path d="M127.082 40.9173L127.411 40.8145C127.477 40.7899 127.514 40.7405 127.498 40.7035L126.897 39.3427C126.897 39.3016 126.811 39.2852 126.745 39.3057L126.416 39.4126C126.351 39.4126 126.314 39.4825 126.33 39.5195L126.93 40.8803C126.947 40.9173 127.037 40.9173 127.082 40.9173Z" fill="#455177"/>
<path d="M131.971 39.3547L132.3 39.252C132.313 39.2517 132.326 39.2484 132.338 39.2424C132.351 39.2363 132.361 39.2277 132.369 39.2171C132.378 39.2064 132.383 39.1941 132.386 39.1809C132.389 39.1677 132.389 39.1541 132.386 39.1409L131.786 37.7801C131.786 37.7431 131.699 37.7267 131.634 37.7472L131.309 37.85C131.243 37.8706 131.202 37.9199 131.218 37.961L131.819 39.3218C131.837 39.3428 131.862 39.3573 131.889 39.3632C131.917 39.3691 131.945 39.3661 131.971 39.3547Z" fill="#455177"/>
<path opacity="0.4" d="M136.867 37.8099L137.196 37.703C137.262 37.6825 137.303 37.6331 137.282 37.5961L136.682 36.2353C136.682 36.1942 136.6 36.1777 136.534 36.1983L136.205 36.3052C136.139 36.3257 136.098 36.3751 136.119 36.4121L136.715 37.7729C136.732 37.7951 136.757 37.8108 136.784 37.8175C136.812 37.8242 136.841 37.8215 136.867 37.8099Z" fill="#474D66"/>
<path opacity="0.4" d="M127.082 40.9173L127.411 40.8145C127.477 40.7899 127.514 40.7405 127.498 40.7035L126.897 39.3427C126.897 39.3016 126.811 39.2852 126.745 39.3057L126.416 39.4126C126.351 39.4126 126.314 39.4825 126.33 39.5195L126.93 40.8803C126.947 40.9173 127.037 40.9173 127.082 40.9173Z" fill="#474D66"/>
<path opacity="0.4" d="M131.971 39.3547L132.3 39.252C132.313 39.2517 132.326 39.2484 132.338 39.2424C132.351 39.2363 132.361 39.2277 132.369 39.2171C132.378 39.2064 132.383 39.1941 132.386 39.1809C132.389 39.1677 132.389 39.1541 132.386 39.1409L131.786 37.7801C131.786 37.7431 131.699 37.7267 131.634 37.7472L131.309 37.85C131.243 37.8706 131.202 37.9199 131.218 37.961L131.819 39.3218C131.837 39.3428 131.862 39.3573 131.889 39.3632C131.917 39.3691 131.945 39.3661 131.971 39.3547Z" fill="#474D66"/>
<path d="M135.946 29.3366C134.782 27.6921 133.668 23.8645 133.956 22.4297L135.107 23.844C135.362 26.0476 135.638 27.8113 135.946 29.3366Z" fill="#455177"/>
<path opacity="0.5" d="M135.946 29.3366C134.782 27.6921 133.668 23.8645 133.956 22.4297L135.107 23.844C135.362 26.0476 135.638 27.8113 135.946 29.3366Z" fill="white"/>
<path d="M134.548 17.8955C136.123 17.8256 139.219 21.6943 139.219 21.6943L136.004 26.2166C136.004 26.2166 132.394 23.3387 132.115 21.3366C131.876 19.6674 132.542 18.0024 134.548 17.8955Z" fill="#455177"/>
<path opacity="0.6" d="M134.548 17.8955C136.123 17.8256 139.219 21.6943 139.219 21.6943L136.004 26.2166C136.004 26.2166 132.394 23.3387 132.115 21.3366C131.876 19.6674 132.542 18.0024 134.548 17.8955Z" fill="white"/>
<path d="M154.262 128.899C147.507 126.843 143.322 119.48 143.322 119.48C143.322 119.48 141.18 119.361 141.077 121.293C140.9 124.689 142.746 127.139 143.881 128.311L140.633 128.13C139.476 128.065 138.315 128.187 137.196 128.492L136.119 128.788C135.223 129.035 134.459 129.623 133.992 130.426C133.524 131.229 133.389 132.183 133.615 133.084L135.161 139.399C135.626 141.298 136.782 142.956 138.404 144.049C140.025 145.142 141.995 145.592 143.93 145.311C147.24 144.83 152.391 144.077 153.284 143.917L155.635 143.72L156.457 129.552L154.262 128.899Z" fill="white"/>
<path d="M164.836 126.955H155.738C155.027 126.955 154.451 127.531 154.451 128.242V144.333C154.451 145.044 155.027 145.62 155.738 145.62H164.836C165.547 145.62 166.123 145.044 166.123 144.333V128.242C166.123 127.531 165.547 126.955 164.836 126.955Z" fill="#455177"/>
<path opacity="0.3" d="M164.836 126.955H155.738C155.027 126.955 154.451 127.531 154.451 128.242V144.333C154.451 145.044 155.027 145.62 155.738 145.62H164.836C165.547 145.62 166.123 145.044 166.123 144.333V128.242C166.123 127.531 165.547 126.955 164.836 126.955Z" fill="#474D66"/>
<defs>
<linearGradient id="paint0_linear_12477_22071" x1="102.257" y1="158.683" x2="102.257" y2="0.318237" gradientUnits="userSpaceOnUse">
<stop stop-color="white"/>
<stop offset="0.385457" stop-color="#DAEAEF"/>
<stop offset="1" stop-color="#80B5BA" stop-opacity="0.4"/>
</linearGradient>
</defs>
</svg>
