<svg width="410" height="205" viewBox="0 0 410 205" fill="none" xmlns="http://www.w3.org/2000/svg">
<g clip-path="url(#clip0_12517_34771)">
<rect width="410" height="205" rx="12" fill="#C8EEBE"/>
<path d="M319.188 228.16H142.239C140.853 228.157 139.524 227.605 138.545 226.624C137.566 225.643 137.016 224.313 137.016 222.927V-25.8131C137.028 -27.1914 137.583 -28.5092 138.561 -29.4804C139.539 -30.4516 140.861 -30.9976 142.239 -31H319.188C320.576 -31 321.907 -30.4487 322.888 -29.4674C323.87 -28.4861 324.421 -27.1551 324.421 -25.7673V222.927C324.421 224.315 323.87 225.646 322.888 226.627C321.907 227.608 320.576 228.16 319.188 228.16ZM142.239 -30.8167C140.914 -30.8143 139.643 -30.2861 138.707 -29.348C137.771 -28.4099 137.245 -27.1386 137.245 -25.8131V222.927C137.245 224.253 137.771 225.524 138.707 226.462C139.643 227.4 140.914 227.928 142.239 227.931H319.188C320.514 227.928 321.786 227.4 322.724 226.462C323.661 225.525 324.189 224.253 324.192 222.927V-25.8131C324.189 -27.1394 323.661 -28.4107 322.724 -29.3485C321.786 -30.2864 320.514 -30.8143 319.188 -30.8167H142.239Z" fill="#EBEBEB"/>
<path d="M517.416 228.16H340.458C339.071 228.157 337.742 227.605 336.761 226.624C335.78 225.644 335.228 224.314 335.226 222.927V-25.8131C335.24 -27.1922 335.797 -28.5101 336.777 -29.481C337.756 -30.4519 339.079 -30.9977 340.458 -31H517.416C518.793 -30.9952 520.112 -30.4481 521.089 -29.4772C522.065 -28.5063 522.619 -27.1898 522.631 -25.8131V222.927C522.631 224.312 522.082 225.64 521.105 226.621C520.127 227.601 518.801 228.155 517.416 228.16ZM340.458 -30.8167C339.132 -30.8143 337.861 -30.2864 336.923 -29.3485C335.985 -28.4107 335.457 -27.1394 335.455 -25.8131V222.927C335.457 224.253 335.985 225.525 336.923 226.462C337.861 227.4 339.132 227.928 340.458 227.931H517.416C518.743 227.928 520.014 227.4 520.952 226.462C521.89 225.525 522.418 224.253 522.42 222.927V-25.8131C522.418 -27.1394 521.89 -28.4107 520.952 -29.3485C520.014 -30.2864 518.743 -30.8143 517.416 -30.8167H340.458Z" fill="#EBEBEB"/>
<path d="M238.709 140.936H218.182V227.958H238.709V140.936Z" fill="#E6E6E6"/>
<path d="M272.928 111.264H252.4V227.959H272.928V111.264Z" fill="#E0E0E0"/>
<path d="M307.147 140.936H286.619V227.958H307.147V140.936Z" fill="#EBEBEB"/>
<path d="M170.273 170.6H149.745V227.948H170.273V170.6Z" fill="#F0F0F0"/>
<path d="M204.491 156.277H183.964V227.95H204.491V156.277Z" fill="#EBEBEB"/>
<path d="M341.365 170.6H320.838V227.948H341.365V170.6Z" fill="#F5F5F5"/>
<path d="M375.584 140.936H355.057V227.958H375.584V140.936Z" fill="#F0F0F0"/>
<path d="M409.803 156.277H389.275V227.95H409.803V156.277Z" fill="#F0F0F0"/>
<path d="M178.173 116.529C179.99 108.83 175.222 101.115 167.523 99.2981C159.824 97.4809 152.109 102.249 150.292 109.948C148.475 117.647 153.243 125.362 160.942 127.179C168.641 128.996 176.356 124.228 178.173 116.529Z" fill="#E0E0E0"/>
<path d="M176.083 123.37C181.676 117.777 181.676 108.708 176.083 103.114C170.489 97.5203 161.42 97.5203 155.826 103.114C150.233 108.708 150.233 117.777 155.826 123.37C161.42 128.964 170.489 128.964 176.083 123.37Z" fill="#E6E6E6"/>
<path d="M165.956 123.963C171.878 123.963 176.678 119.163 176.678 113.241C176.678 107.32 171.878 102.52 165.956 102.52C160.035 102.52 155.234 107.32 155.234 113.241C155.234 119.163 160.035 123.963 165.956 123.963Z" fill="#F0F0F0"/>
<path d="M170.666 115.525C171.079 117.898 169.448 119.484 166.515 119.731L166.469 121.692H164.682L164.737 119.731C163.203 119.615 161.716 119.145 160.394 118.357L161.2 116.148C162.276 116.865 163.507 117.315 164.792 117.459L164.875 114.453C163.124 113.949 161.209 113.289 160.815 111.135C160.403 108.762 162.061 107.158 165.058 106.947V104.986H166.882V106.966C168.093 107.07 169.271 107.416 170.346 107.983L169.594 110.127C168.734 109.621 167.774 109.308 166.781 109.211L166.708 112.345C168.43 112.877 170.3 113.481 170.666 115.525ZM164.921 111.859L164.994 109.293C164.013 109.486 163.537 110.036 163.638 110.714C163.738 111.392 164.233 111.584 164.921 111.859ZM167.853 115.992C167.771 115.47 167.303 115.149 166.634 114.92L166.579 117.358C167.514 117.165 167.981 116.671 167.853 115.992Z" fill="white"/>
<path d="M304.709 33.2311C312.964 33.2311 319.656 26.5393 319.656 18.2845C319.656 10.0297 312.964 3.33789 304.709 3.33789C296.455 3.33789 289.763 10.0297 289.763 18.2845C289.763 26.5393 296.455 33.2311 304.709 33.2311Z" fill="#E0E0E0"/>
<path opacity="0.8" d="M304.535 30.2806C311.16 30.2806 316.531 24.9099 316.531 18.2848C316.531 11.6597 311.16 6.28906 304.535 6.28906C297.91 6.28906 292.539 11.6597 292.539 18.2848C292.539 24.9099 297.91 30.2806 304.535 30.2806Z" fill="white"/>
<path d="M304.498 20.5021C305.171 20.5021 305.717 19.9564 305.717 19.2833C305.717 18.6101 305.171 18.0645 304.498 18.0645C303.825 18.0645 303.279 18.6101 303.279 19.2833C303.279 19.9564 303.825 20.5021 304.498 20.5021Z" fill="#E0E0E0"/>
<path d="M304.361 19.7322L299.201 14.8752L299.705 14.3437L304.379 18.7425L312.755 11.3379L313.241 11.8877L304.361 19.7322Z" fill="#E0E0E0"/>
<path d="M361.544 141.01H301.043V300.217H361.544V141.01Z" fill="#86C470"/>
<path opacity="0.5" d="M361.737 141.01H316.622V300.217H361.737V141.01Z" fill="black"/>
<path d="M440.584 195.289H380.083V300.208H440.584V195.289Z" fill="#86C470"/>
<path opacity="0.3" d="M440.584 195.041H395.47V300.217H440.584V195.041Z" fill="black"/>
<path d="M282.119 169.4H221.618V300.208H282.119V169.4Z" fill="#86C470"/>
<path opacity="0.4" d="M282.12 169.08H237.005V300.209H282.12V169.08Z" fill="black"/>
<path d="M223.818 64.3066V69.8051C227.281 70.0818 230.569 71.4448 233.212 73.6998L237.125 69.7867C233.429 66.5196 228.743 64.5896 223.818 64.3066Z" fill="#86C470"/>
<path d="M221.134 102.877C217.216 102.563 213.538 100.865 210.759 98.0856C207.98 95.3065 206.281 91.6286 205.967 87.7109H200.469C200.792 93.0895 203.072 98.1641 206.879 101.978C210.685 105.791 215.756 108.08 221.134 108.413V102.877Z" fill="#86C470"/>
<path d="M205.985 85.036C206.302 81.1226 207.999 77.449 210.774 74.671C213.549 71.893 217.22 70.1913 221.133 69.8695V64.3711C215.749 64.6971 210.671 66.9828 206.857 70.7967C203.043 74.6106 200.758 79.6889 200.432 85.0727L205.985 85.036Z" fill="#86C470"/>
<path opacity="0.2" d="M205.985 85.036C206.302 81.1226 207.999 77.449 210.774 74.671C213.549 71.893 217.22 70.1913 221.133 69.8695V64.3711C215.749 64.6971 210.671 66.9828 206.857 70.7967C203.043 74.6106 200.758 79.6889 200.432 85.0727L205.985 85.036Z" fill="black"/>
<path d="M239.012 71.739L235.099 75.6521C237.075 77.973 238.372 80.7946 238.846 83.8056C239.321 86.8166 238.954 89.9002 237.787 92.7162C236.621 95.5322 234.699 97.9713 232.234 99.7645C229.769 101.558 226.857 102.635 223.818 102.879V108.377C227.947 108.125 231.921 106.718 235.289 104.316C238.657 101.915 241.282 98.6159 242.866 94.795C244.45 90.9741 244.928 86.7851 244.247 82.7055C243.565 78.6258 241.752 74.8197 239.012 71.7207V71.739Z" fill="#86C470"/>
<g opacity="0.8">
<path d="M223.818 64.3066V69.8051C227.281 70.0818 230.569 71.4448 233.212 73.6998L237.125 69.7867C233.429 66.5196 228.743 64.5896 223.818 64.3066Z" fill="white"/>
</g>
<g opacity="0.6">
<path d="M221.134 102.877C217.216 102.563 213.538 100.865 210.759 98.0856C207.98 95.3065 206.281 91.6286 205.967 87.7109H200.469C200.792 93.0895 203.072 98.1641 206.879 101.978C210.685 105.791 215.756 108.08 221.134 108.413V102.877Z" fill="white"/>
</g>
<g opacity="0.7">
<path d="M205.985 85.036C206.302 81.1226 207.999 77.449 210.774 74.671C213.549 71.893 217.22 70.1913 221.133 69.8695V64.3711C215.749 64.6971 210.671 66.9828 206.857 70.7967C203.043 74.6106 200.758 79.6889 200.432 85.0727L205.985 85.036Z" fill="white"/>
</g>
<path opacity="0.5" d="M239.012 71.739L235.099 75.6521C237.075 77.973 238.372 80.7946 238.846 83.8056C239.321 86.8166 238.954 89.9002 237.787 92.7162C236.621 95.5322 234.699 97.9713 232.234 99.7645C229.769 101.558 226.857 102.635 223.818 102.879V108.377C227.947 108.125 231.921 106.718 235.289 104.316C238.657 101.915 241.282 98.6159 242.866 94.795C244.45 90.9741 244.928 86.7851 244.247 82.7055C243.565 78.6258 241.752 74.8197 239.012 71.7207V71.739Z" fill="white"/>
<path d="M262.646 58.4965L269.657 68.0088L310.052 51.2386L349.43 65.2413L385.106 42.1753L387.663 45.566L396.139 31.6916L377.142 30.207L380.057 34.0468L344.353 56.902L305.562 43.1375L262.646 58.4965Z" fill="#86C470"/>
<g opacity="0.5">
<path d="M262.646 58.4965L269.657 68.0088L310.052 51.2386L349.43 65.2413L385.106 42.1753L387.663 45.566L396.139 31.6916L377.142 30.207L380.057 34.0468L344.353 56.902L305.562 43.1375L262.646 58.4965Z" fill="white"/>
</g>
<path d="M326.52 68.3484C326.758 69.4848 326.987 70.4745 327.253 71.51C327.518 72.5456 327.802 73.5169 328.105 74.5616C328.701 76.5686 329.388 78.5663 330.149 80.5916C331.669 84.7984 333.749 88.7809 336.334 92.4316C337.096 93.4511 337.942 94.4045 338.864 95.2816C339.898 96.2732 341.075 97.1042 342.355 97.7467C344.811 98.9414 347.539 99.4692 350.264 99.2771C352.649 99.1124 354.992 98.5615 357.201 97.6459C358.242 97.2211 359.257 96.7377 360.243 96.198C360.736 95.919 361.214 95.6131 361.673 95.2816C362.131 94.9425 362.589 94.6584 363.103 94.2827L360.656 89.9664L359.373 90.3055L358.026 90.6263C357.109 90.8279 356.193 91.002 355.276 91.1211C353.623 91.3745 351.944 91.4084 350.282 91.2219C348.951 91.0867 347.674 90.6274 346.561 89.884C346.082 89.5398 345.64 89.1467 345.242 88.711C344.755 88.1307 344.308 87.5184 343.904 86.8782C342.974 85.4177 342.162 83.8855 341.475 82.2961C340.724 80.6374 340.064 78.8871 339.441 77.0909C338.818 75.2948 338.259 73.4253 337.7 71.5925L336.912 68.8433C336.664 67.9269 336.389 66.9555 336.197 66.1582L326.52 68.3484Z" fill="#FFBE9D"/>
<path d="M325.686 62.7949C329.846 57.5072 336.151 59.4408 339.698 67.8534C341.658 72.328 343.215 76.968 344.353 81.7187L329.562 86.9147C325.677 78.9694 321.415 68.2108 325.686 62.7949Z" fill="#86C470"/>
<path opacity="0.1" d="M325.686 62.7949C329.846 57.5072 336.151 59.4408 339.698 67.8534C341.658 72.328 343.215 76.968 344.353 81.7187L329.562 86.9147C325.677 78.9694 321.415 68.2108 325.686 62.7949Z" fill="black"/>
<path opacity="0.3" d="M331.862 71.6374C330.653 70.8126 328.151 75.6238 326.996 81.2872C327.812 83.2666 328.682 85.1636 329.553 86.9231L338.451 83.7981C336.994 78.4738 334.602 73.4702 331.862 71.6374Z" fill="black"/>
<path d="M361.408 87.7941L364.642 86.0254L365.779 93.2467C365.779 93.2467 360.372 96.5091 358.823 93.8148L358.988 91.982C359.075 91.1533 359.335 90.3521 359.752 89.6306C360.169 88.909 360.733 88.2833 361.408 87.7941Z" fill="#FFBE9D"/>
<path d="M368.701 85.668L371.533 91.478L365.751 93.2558L364.614 86.0254L368.701 85.668Z" fill="#FFBE9D"/>
<path d="M325.603 58.0651L318.052 56.9746L308.622 57.7994C307.191 57.9242 305.84 58.5155 304.777 59.4823C303.714 60.4491 302.998 61.738 302.739 63.1512C301.682 70.0366 301.054 76.9811 300.86 83.9444C300.53 91.7797 301.401 103.345 302.693 113.792L334.199 109.98C334.501 82.4874 336.582 73.974 336.838 66.6885C336.889 65.257 336.469 63.8483 335.641 62.6793C334.813 61.5103 333.624 60.6457 332.256 60.2187L325.603 58.0651Z" fill="#86C470"/>
<path d="M335.152 194.39L341.86 196.251L347.863 180.498L341.173 178.646L335.152 194.39Z" fill="#FFBE9D"/>
<path d="M344.847 194.162C344.317 193.473 343.55 193.006 342.694 192.852L335.793 191.514C335.639 191.479 335.478 191.503 335.34 191.581C335.203 191.659 335.1 191.785 335.051 191.935L332.934 198.231C332.816 198.576 332.838 198.954 332.996 199.283C333.154 199.612 333.434 199.866 333.777 199.991H333.851C336.398 200.999 338.121 200.65 342.098 201.42C344.545 201.897 349.695 203.528 353.095 203.391C356.495 203.253 356.532 199.844 355.084 199.587C349.952 198.79 346.02 195.711 344.847 194.162Z" fill="#263238"/>
<g opacity="0.2">
<path d="M347.863 180.507L344.665 188.883L338.066 186.766L341.164 178.646L347.863 180.507Z" fill="black"/>
</g>
<path d="M364.587 134.055C364.335 136.549 363.882 139.019 363.23 141.441C361.462 148.277 358.438 155.242 355.899 162.032C350.987 175.449 346.68 187.105 346.68 187.105L337.516 183.935C337.516 183.935 345.764 145.116 351.326 141.148H317.218C316.58 141.148 315.943 141.105 315.312 141.019C321.186 140.259 330.341 136.639 338.836 133.019C346.341 129.812 353.361 126.604 357.164 125.395C361.819 127.383 364.944 130.142 364.587 134.055Z" fill="#263238"/>
<path opacity="0.1" d="M364.587 134.055C364.335 136.549 363.882 139.019 363.23 141.441C361.462 148.277 358.438 155.242 355.899 162.032C350.987 175.449 346.68 187.105 346.68 187.105L337.516 183.935C337.516 183.935 345.764 145.116 351.326 141.148H317.218C316.58 141.148 315.943 141.105 315.312 141.019C321.186 140.259 330.341 136.639 338.836 133.019C346.341 129.812 353.361 126.604 357.164 125.395C361.819 127.383 364.944 130.142 364.587 134.055Z" fill="black"/>
<path opacity="0.6" d="M357.173 125.43C353.361 126.667 346.341 129.847 338.845 133.055C330.35 136.675 321.195 140.294 315.321 141.055C305.424 139.735 301.703 127.941 312.049 114.342C318.766 114.342 325.52 120.757 325.52 120.757C325.52 120.757 345.828 120.656 357.173 125.43Z" fill="black"/>
<path d="M381.862 180.854H389.358L381.504 162.031L376.409 170.673L381.862 180.854Z" fill="#FFBE9D"/>
<path d="M388.744 179.077L379.937 177.07C379.787 177.029 379.628 177.048 379.492 177.121C379.355 177.194 379.252 177.317 379.204 177.464L376.748 184.236C376.648 184.58 376.689 184.95 376.86 185.264C377.032 185.578 377.321 185.811 377.664 185.913H377.71C380.798 186.564 382.292 186.72 386.187 187.59C388.569 188.14 394.599 189.716 397.889 190.468C401.179 191.219 402.041 187.994 400.73 187.38C394.865 184.63 391.676 182.064 389.972 179.847C389.666 179.453 389.231 179.18 388.744 179.077Z" fill="#263238"/>
<g opacity="0.2">
<path d="M381.504 162.031L384.849 170.05L378.095 173.816L376.409 170.673L381.504 162.031Z" fill="black"/>
</g>
<path d="M384.95 167.201L376.702 172.195C376.702 172.195 369.82 157.743 363.24 141.441C363.892 139.019 364.345 136.549 364.597 134.054C364.954 130.141 361.847 127.383 357.192 125.44C353.38 126.677 346.36 129.857 338.864 133.065C330.369 136.684 321.214 140.304 315.34 141.065C314.665 141.155 313.986 141.204 313.305 141.211C302.015 141.211 298.12 131.314 302.675 114.526C309.392 114.526 320.893 113.802 320.893 113.802C320.893 113.802 343.089 108.468 359.062 110.283C362.852 110.729 366.403 112.368 369.202 114.962C372.002 117.555 373.906 120.971 374.64 124.716C378.755 145.097 384.95 167.201 384.95 167.201Z" fill="#263238"/>
<path d="M384.95 167.201L376.702 172.195C376.702 172.195 369.82 157.743 363.24 141.441C363.892 139.019 364.345 136.549 364.597 134.054C364.954 130.141 361.847 127.383 357.192 125.44C353.38 126.677 346.36 129.857 338.864 133.065C330.369 136.684 321.214 140.304 315.34 141.065C314.665 141.155 313.986 141.204 313.305 141.211C302.015 141.211 298.12 131.314 302.675 114.526C309.392 114.526 320.893 113.802 320.893 113.802C320.893 113.802 343.089 108.468 359.062 110.283C362.852 110.729 366.403 112.368 369.202 114.962C372.002 117.555 373.906 120.971 374.64 124.716C378.755 145.097 384.95 167.201 384.95 167.201Z" fill="#263238"/>
<path d="M325.603 58.0651L318.052 56.9746L308.622 57.7994C307.191 57.9242 305.84 58.5155 304.777 59.4823C303.714 60.4491 302.998 61.738 302.739 63.1512C301.682 70.0366 301.054 76.9811 300.86 83.9444C300.53 91.7797 301.401 103.345 302.693 113.792L334.199 109.98C334.501 82.4874 336.582 73.974 336.838 66.6885C336.889 65.257 336.469 63.8483 335.641 62.6793C334.813 61.5103 333.624 60.6457 332.256 60.2187L325.603 58.0651Z" fill="#86C470"/>
<path d="M302.62 112.051L301.804 114.608C301.703 114.8 301.923 115.011 302.262 115.02L333.713 113.142C333.97 113.142 334.19 113.022 334.208 112.858L334.547 110.292C334.547 110.108 334.346 109.953 334.071 109.943L303.124 111.84C303.028 111.828 302.932 111.84 302.843 111.877C302.754 111.914 302.677 111.974 302.62 112.051Z" fill="#263238"/>
<path opacity="0.1" d="M302.62 112.051L301.804 114.608C301.703 114.8 301.923 115.011 302.262 115.02L333.713 113.142C333.97 113.142 334.19 113.022 334.208 112.858L334.547 110.292C334.547 110.108 334.346 109.953 334.071 109.943L303.124 111.84C303.028 111.828 302.932 111.84 302.843 111.877C302.754 111.914 302.677 111.974 302.62 112.051Z" fill="black"/>
<path opacity="0.3" d="M305.809 60.5853C312.086 59.4856 311.774 73.7541 308.915 84.1919C308.09 87.2161 304.516 85.9514 303.307 85.1633C299.339 82.6341 298.001 65.149 305.809 60.5853Z" fill="black"/>
<path d="M305.049 81.7184C305.287 87.8859 303.326 91.1208 306.616 93.1827C309.905 95.2446 329.342 101.687 329.819 100.881C328.903 102.365 327.986 103.63 327.07 105.133C321.467 104.29 315.862 103.511 310.254 102.796C306.157 102.283 299.55 101.229 296.343 98.6261C293.428 96.2801 293.951 85.9797 294.446 78.5568C297.021 77.0264 305.049 81.7184 305.049 81.7184Z" fill="#FFBE9D"/>
<path d="M303.371 58.0741C309.786 56.1771 312.27 61.3457 310.308 70.2257C309.32 75.0148 307.9 79.7046 306.065 84.2375L292.558 79.9762C294.024 71.2612 296.755 60.0169 303.371 58.0741Z" fill="#86C470"/>
<path d="M312.774 58.0288C312.603 59.3982 312.953 60.7819 313.754 61.9052C314.544 63.0137 315.467 64.0202 316.504 64.9019C317.778 66.0657 319.299 67.3212 321.022 67.0921C322.607 66.8813 323.514 66.084 324.156 64.1962C325.512 66.3865 325.576 67.477 327.07 67.6144C327.554 67.5884 328.027 67.4578 328.455 67.2316C328.884 67.0054 329.259 66.6889 329.553 66.304C330.103 65.8511 330.559 65.2943 330.894 64.6653C331.229 64.0364 331.437 63.3476 331.505 62.6383C331.863 59.8891 329.617 57.3049 326.997 56.3243C324.328 55.431 321.556 54.8829 318.749 54.6931C316.302 54.4365 313.223 55.1971 312.774 58.0288Z" fill="#86C470"/>
<path opacity="0.3" d="M312.774 58.0288C312.603 59.3982 312.953 60.7819 313.754 61.9052C314.544 63.0137 315.467 64.0202 316.504 64.9019C317.778 66.0657 319.299 67.3212 321.022 67.0921C322.607 66.8813 323.514 66.084 324.156 64.1962C325.512 66.3865 325.576 67.477 327.07 67.6144C327.554 67.5884 328.027 67.4578 328.455 67.2316C328.884 67.0054 329.259 66.6889 329.553 66.304C330.103 65.8511 330.559 65.2943 330.894 64.6653C331.229 64.0364 331.437 63.3476 331.505 62.6383C331.863 59.8891 329.617 57.3049 326.997 56.3243C324.328 55.431 321.556 54.8829 318.749 54.6931C316.302 54.4365 313.223 55.1971 312.774 58.0288Z" fill="black"/>
<path d="M319.335 44.7324L322.753 48.6821L327.399 54.0523C326.983 54.6284 326.673 55.2738 326.483 55.9584C326.167 56.6849 326.123 57.5011 326.361 58.257C326.598 59.0129 327.1 59.6578 327.775 60.0731C328.481 60.403 328.847 64.1144 324.174 63.7387C322.841 63.7157 321.527 63.4182 320.315 62.8648C319.102 62.3113 318.017 61.5138 317.126 60.5221C316.274 59.3766 316.045 58.7626 316.925 57.5071C319.417 53.9606 319.619 48.8196 319.335 44.7324Z" fill="#FFBE9D"/>
<path opacity="0.2" d="M326.281 52.7241L323.348 48.8477C323.348 48.9576 323.275 49.0859 323.239 49.2142C323.095 49.7611 322.997 50.319 322.945 50.8821C322.771 52.8065 324.576 55.2717 326.336 56.3255L326.473 55.9406C326.691 55.2894 326.999 54.6723 327.39 54.1078C327.412 54.0759 327.44 54.048 327.472 54.0253L326.281 52.7241Z" fill="black"/>
<path d="M319.656 37.465C319.125 43.8341 318.538 47.5455 321.269 51.1561C325.402 56.6546 333.631 54.6935 336.032 48.5719C338.195 43.0734 338.644 33.5703 332.797 30.2437C330.739 29.107 328.313 28.8344 326.053 29.4857C323.793 30.1369 321.885 31.6589 320.747 33.7169C320.106 34.8684 319.733 36.1495 319.656 37.465Z" fill="#FFBE9D"/>
<path d="M318.721 43.1001L321.47 44.2822C322.387 43.8973 322.597 42.7885 322.533 41.7804C322.258 37.8949 329.269 33.1479 329.269 33.1479C329.269 33.1479 321.855 30.7103 319.628 30.3437C318.849 30.2154 316.045 32.2498 315.614 33.0929C315.038 34.33 314.819 35.7034 314.98 37.0586C315.142 38.4137 315.679 39.6967 316.531 40.7632C317.183 41.6114 317.917 42.394 318.721 43.1001Z" fill="#263238"/>
<path d="M316.375 41.9548C316.512 43.377 317.164 44.7003 318.208 45.6754C319.564 46.9217 321.223 45.5654 321.425 43.7509C321.59 42.138 320.774 39.7829 319.125 39.2422C317.475 38.7015 316.22 40.1769 316.375 41.9548Z" fill="#FFBE9D"/>
<path d="M329.214 41.2869C329.113 41.8092 329.306 42.2949 329.645 42.3682C329.984 42.4415 330.305 42.0841 330.442 41.5618C330.58 41.0394 330.341 40.5537 330.002 40.4804C329.663 40.4071 329.269 40.7554 329.214 41.2869Z" fill="#263238"/>
<path d="M335.088 42.5785C334.987 43.11 335.18 43.5957 335.528 43.669C335.876 43.7423 336.215 43.3758 336.316 42.8626C336.417 42.3494 336.215 41.8545 335.876 41.7812C335.537 41.7079 335.189 42.0561 335.088 42.5785Z" fill="#263238"/>
<path d="M333.127 42.5508C333.311 44.0468 333.687 45.5129 334.245 46.9129C333.89 47.0408 333.511 47.0882 333.135 47.0518C332.76 47.0153 332.397 46.8959 332.073 46.7021L333.127 42.5508Z" fill="#FF5652"/>
<path d="M330.589 49.6443C330.005 49.4417 329.469 49.1217 329.013 48.7041C328.558 48.2864 328.192 47.7799 327.94 47.2158C327.925 47.1781 327.925 47.1359 327.94 47.0982C327.956 47.0605 327.985 47.0304 328.023 47.0142C328.063 47.0013 328.107 47.0034 328.145 47.0203C328.184 47.0372 328.215 47.0676 328.233 47.1058C328.516 47.7141 328.935 48.2489 329.458 48.6685C329.981 49.0882 330.593 49.3813 331.248 49.5251C331.269 49.5274 331.289 49.5337 331.307 49.5438C331.325 49.5538 331.341 49.5673 331.354 49.5835C331.366 49.5997 331.376 49.6182 331.381 49.6381C331.387 49.658 331.388 49.6788 331.386 49.6993C331.379 49.7415 331.356 49.7794 331.322 49.805C331.288 49.8306 331.245 49.842 331.203 49.8367C330.992 49.7919 330.787 49.7275 330.589 49.6443Z" fill="#263238"/>
<path d="M328.408 39.1783C328.356 39.1678 328.31 39.1383 328.279 39.0958C328.221 39.0374 328.188 38.9583 328.188 38.8759C328.188 38.7934 328.221 38.7143 328.279 38.6559C328.647 38.3259 329.09 38.0921 329.57 37.9753C330.05 37.8586 330.551 37.8626 331.029 37.9869C331.107 38.0103 331.174 38.0639 331.213 38.136C331.253 38.2081 331.262 38.2929 331.239 38.3718C331.212 38.4494 331.156 38.5131 331.082 38.5491C331.008 38.5852 330.923 38.5906 330.845 38.5643C330.471 38.4782 330.081 38.4824 329.708 38.5764C329.335 38.6704 328.99 38.8515 328.701 39.105C328.664 39.1435 328.617 39.1709 328.565 39.1839C328.513 39.1968 328.458 39.1949 328.408 39.1783Z" fill="#263238"/>
<path d="M335.757 39.188C335.743 39.137 335.743 39.0832 335.757 39.0322C335.767 38.9924 335.786 38.955 335.811 38.9223C335.836 38.8897 335.867 38.8623 335.903 38.8418C335.939 38.8214 335.978 38.8082 336.019 38.8032C336.06 38.7981 336.102 38.8012 336.142 38.8123C336.615 38.9251 337.053 39.1507 337.42 39.4699C337.787 39.789 338.072 40.1922 338.249 40.6451C338.272 40.7253 338.263 40.8113 338.224 40.8849C338.184 40.9584 338.118 41.0138 338.038 41.0391C337.96 41.0619 337.875 41.0525 337.803 41.013C337.731 40.9735 337.677 40.9072 337.654 40.8284C337.512 40.4684 337.286 40.1479 336.994 39.8942C336.702 39.6405 336.353 39.4611 335.977 39.3713C335.928 39.3613 335.882 39.3393 335.844 39.3073C335.805 39.2753 335.775 39.2343 335.757 39.188Z" fill="#263238"/>
<path d="M337.699 111.392L377.911 111.511C378.612 111.499 379.285 111.232 379.803 110.76C380.321 110.287 380.649 109.642 380.725 108.945L382.557 88.5823C382.592 88.2538 382.557 87.9215 382.455 87.6075C382.352 87.2935 382.184 87.0048 381.961 86.7606C381.738 86.5164 381.467 86.3222 381.163 86.1907C380.86 86.0593 380.533 85.9936 380.202 85.998L339.99 85.8789C339.289 85.8926 338.616 86.1617 338.098 86.6357C337.58 87.1096 337.253 87.7561 337.177 88.454L335.344 108.807C335.309 109.136 335.344 109.468 335.447 109.782C335.55 110.096 335.718 110.385 335.941 110.629C336.163 110.873 336.435 111.068 336.738 111.199C337.041 111.33 337.369 111.396 337.699 111.392Z" fill="#86C470"/>
<path opacity="0.3" d="M337.699 111.392L377.911 111.511C378.612 111.499 379.285 111.232 379.803 110.76C380.321 110.287 380.649 109.642 380.725 108.945L382.557 88.5823C382.592 88.2538 382.557 87.9215 382.455 87.6075C382.352 87.2935 382.184 87.0048 381.961 86.7606C381.738 86.5164 381.467 86.3222 381.163 86.1907C380.86 86.0593 380.533 85.9936 380.202 85.998L339.99 85.8789C339.289 85.8926 338.616 86.1617 338.098 86.6357C337.58 87.1096 337.253 87.7561 337.177 88.454L335.344 108.807C335.309 109.136 335.344 109.468 335.447 109.782C335.55 110.096 335.718 110.385 335.941 110.629C336.163 110.873 336.435 111.068 336.738 111.199C337.041 111.33 337.369 111.396 337.699 111.392Z" fill="black"/>
<path d="M338.882 111.31L379.094 111.429C379.796 111.417 380.47 111.149 380.988 110.674C381.506 110.2 381.833 109.552 381.907 108.854L383.74 88.5003C383.776 88.1722 383.742 87.8401 383.641 87.5261C383.539 87.2121 383.372 86.9233 383.15 86.6789C382.928 86.4345 382.657 86.2401 382.354 86.1086C382.051 85.977 381.724 85.9114 381.394 85.916L341.182 85.7969C340.481 85.8126 339.809 86.0823 339.291 86.5559C338.774 87.0295 338.446 87.6748 338.369 88.372L336.536 108.725C336.499 109.053 336.533 109.386 336.635 109.7C336.737 110.014 336.904 110.302 337.126 110.547C337.348 110.791 337.619 110.986 337.922 111.117C338.224 111.249 338.552 111.314 338.882 111.31Z" fill="#86C470"/>
<path opacity="0.2" d="M338.882 111.31L379.094 111.429C379.796 111.417 380.47 111.149 380.988 110.674C381.506 110.2 381.833 109.552 381.907 108.854L383.74 88.5003C383.776 88.1722 383.742 87.8401 383.641 87.5261C383.539 87.2121 383.372 86.9233 383.15 86.6789C382.928 86.4345 382.657 86.2401 382.354 86.1086C382.051 85.977 381.724 85.9114 381.394 85.916L341.182 85.7969C340.481 85.8126 339.809 86.0823 339.291 86.5559C338.774 87.0295 338.446 87.6748 338.369 88.372L336.536 108.725C336.499 109.053 336.533 109.386 336.635 109.7C336.737 110.014 336.904 110.302 337.126 110.547C337.348 110.791 337.619 110.986 337.922 111.117C338.224 111.249 338.552 111.314 338.882 111.31Z" fill="white"/>
<path d="M362.965 98.9019C362.908 99.4607 362.686 99.9901 362.328 100.423C361.97 100.856 361.491 101.173 360.953 101.334C360.415 101.495 359.841 101.493 359.304 101.328C358.767 101.163 358.291 100.842 357.936 100.407C357.581 99.9712 357.364 99.4402 357.311 98.8809C357.257 98.3216 357.371 97.7592 357.638 97.2646C357.904 96.7701 358.312 96.3657 358.808 96.1025C359.304 95.8393 359.867 95.7292 360.426 95.7861C360.798 95.8239 361.158 95.9345 361.486 96.1115C361.815 96.2886 362.105 96.5286 362.341 96.818C362.577 97.1073 362.753 97.4403 362.86 97.7979C362.967 98.1554 363.003 98.5306 362.965 98.9019Z" fill="white"/>
<path d="M379.671 111.401C379.671 112.62 378.947 113.609 378.068 113.609L336.564 113.444C336.115 113.444 335.748 112.949 335.748 112.345C335.748 111.74 336.115 111.227 336.564 111.227L379.671 111.401Z" fill="#86C470"/>
<path opacity="0.3" d="M379.671 111.401C379.671 112.62 378.947 113.609 378.068 113.609L336.564 113.444C336.115 113.444 335.748 112.949 335.748 112.345C335.748 111.74 336.115 111.227 336.564 111.227L379.671 111.401Z" fill="black"/>
<path d="M336.307 113.453H316.329C315.819 113.453 315.329 113.251 314.968 112.89C314.607 112.529 314.404 112.039 314.404 111.529C314.403 111.49 314.41 111.451 314.424 111.414C314.438 111.377 314.46 111.344 314.487 111.316C314.514 111.287 314.547 111.265 314.583 111.25C314.62 111.234 314.658 111.227 314.698 111.227H336.307C336.453 111.227 336.598 111.256 336.733 111.312C336.868 111.368 336.991 111.451 337.094 111.555C337.197 111.659 337.278 111.782 337.334 111.917C337.389 112.053 337.417 112.198 337.415 112.345C337.415 112.639 337.299 112.921 337.091 113.129C336.883 113.337 336.601 113.453 336.307 113.453Z" fill="#86C470"/>
<path d="M325.512 98.03L328.829 97.0586L328.527 105.224C328.527 105.224 321.324 106.919 320.875 103.602L321.791 101.815C322.589 100.275 323.688 98.479 325.512 98.03Z" fill="#FFBE9D"/>
<path d="M333.796 99.3221L332.815 103.904L328.526 105.215L328.829 97.0586L333.796 99.3221Z" fill="#FFBE9D"/>
<path d="M335.106 183.267L348.853 187.931L351.666 182.249L336.463 177.42L335.106 183.267Z" fill="#86C470"/>
<path d="M374.594 173.323L387.268 166.248L384.941 160.355L371.167 168.402L374.594 173.323Z" fill="#86C470"/>
<path d="M338.149 37.4014C340.037 37.2914 340.807 35.0646 340.578 34.1115C340.298 32.8541 339.534 31.7576 338.452 31.0599C339.056 29.227 338.241 26.991 335.968 25.4423C335.142 24.9643 334.217 24.6797 333.265 24.6099C332.313 24.54 331.357 24.6868 330.47 25.0391C330.47 23.3804 327.418 22.2898 325.457 24.3609C324.649 23.8612 323.7 23.6366 322.754 23.7208C321.807 23.8051 320.913 24.1936 320.206 24.8283C319.959 25.0437 319.774 25.3215 319.671 25.6325C319.568 25.9436 319.55 26.2766 319.619 26.597C318.84 26.6065 318.077 26.8262 317.412 27.2328C316.747 27.6395 316.203 28.2181 315.839 28.9077C315.475 29.5972 315.304 30.3722 315.343 31.151C315.383 31.9297 315.632 32.6834 316.064 33.3325C316.678 34.2489 318.135 34.249 319.235 34.0107C319.539 34.5331 319.947 34.9873 320.434 35.3451C320.921 35.703 321.477 35.9569 322.066 36.0909C325.686 37.2914 330.662 36.1642 331.542 36.0909C332.421 35.9447 333.324 36.1239 334.08 36.5949C333.914 36.8259 333.699 37.0172 333.45 37.155C333.202 37.2929 332.925 37.3739 332.642 37.3922C332.097 37.4472 331.547 37.4194 331.01 37.3097C332.236 38.1183 333.726 38.4235 335.171 38.162C335.791 37.8501 336.427 37.5717 337.077 37.3281C337.517 37.2639 338.195 37.4655 338.149 37.4014Z" fill="#263238"/>
<path d="M26.848 57V40.08H34.192C35.44 40.08 36.496 40.288 37.36 40.704C38.224 41.12 38.88 41.72 39.328 42.504C39.776 43.288 40 44.24 40 45.36C40 46.464 39.776 47.416 39.328 48.216C38.88 49 38.224 49.608 37.36 50.04C36.496 50.456 35.44 50.664 34.192 50.664H29.92V57H26.848ZM29.92 48.24H33.712C34.8 48.24 35.624 48 36.184 47.52C36.744 47.024 37.024 46.304 37.024 45.36C37.024 44.416 36.744 43.704 36.184 43.224C35.624 42.744 34.8 42.504 33.712 42.504H29.92V48.24ZM47.4143 57.24C46.0863 57.24 44.9423 56.992 43.9823 56.496C43.0223 56 42.2783 55.296 41.7503 54.384C41.2383 53.472 40.9823 52.392 40.9823 51.144C40.9823 49.928 41.2303 48.864 41.7263 47.952C42.2383 47.04 42.9343 46.328 43.8143 45.816C44.7103 45.288 45.7263 45.024 46.8623 45.024C47.9823 45.024 48.9423 45.264 49.7423 45.744C50.5423 46.224 51.1583 46.904 51.5903 47.784C52.0383 48.664 52.2623 49.712 52.2623 50.928V51.816H43.4063V50.088H50.1503L49.7663 50.448C49.7663 49.36 49.5263 48.528 49.0463 47.952C48.5663 47.36 47.8783 47.064 46.9823 47.064C46.3103 47.064 45.7343 47.224 45.2543 47.544C44.7903 47.848 44.4303 48.288 44.1743 48.864C43.9343 49.424 43.8143 50.096 43.8143 50.88V51.048C43.8143 51.928 43.9503 52.656 44.2223 53.232C44.4943 53.808 44.9023 54.24 45.4463 54.528C45.9903 54.816 46.6623 54.96 47.4623 54.96C48.1183 54.96 48.7743 54.864 49.4303 54.672C50.0863 54.464 50.6863 54.144 51.2303 53.712L52.0703 55.728C51.5103 56.192 50.8063 56.56 49.9583 56.832C49.1103 57.104 48.2623 57.24 47.4143 57.24ZM54.6381 57V45.264H57.5661V47.616H57.3021C57.6541 46.768 58.1981 46.128 58.9341 45.696C59.6861 45.248 60.5341 45.024 61.4781 45.024C62.4221 45.024 63.1981 45.2 63.8061 45.552C64.4141 45.904 64.8701 46.44 65.1741 47.16C65.4781 47.864 65.6301 48.76 65.6301 49.848V57H62.6301V49.992C62.6301 49.384 62.5501 48.888 62.3901 48.504C62.2461 48.12 62.0141 47.84 61.6941 47.664C61.3901 47.472 60.9981 47.376 60.5181 47.376C59.9421 47.376 59.4381 47.504 59.0061 47.76C58.5741 48 58.2381 48.352 57.9981 48.816C57.7581 49.264 57.6381 49.792 57.6381 50.4V57H54.6381ZM73.1892 57.24C72.1652 57.24 71.2612 56.992 70.4772 56.496C69.7092 56 69.1092 55.296 68.6772 54.384C68.2452 53.456 68.0292 52.368 68.0292 51.12C68.0292 49.856 68.2452 48.776 68.6772 47.88C69.1092 46.968 69.7092 46.264 70.4772 45.768C71.2612 45.272 72.1652 45.024 73.1892 45.024C74.1652 45.024 75.0132 45.264 75.7332 45.744C76.4692 46.224 76.9652 46.856 77.2212 47.64H76.9572V40.08H79.9572V57H77.0292V54.504H77.2452C77.0052 55.336 76.5172 56 75.7812 56.496C75.0452 56.992 74.1812 57.24 73.1892 57.24ZM74.0292 54.96C74.9252 54.96 75.6452 54.64 76.1892 54C76.7332 53.344 77.0052 52.384 77.0052 51.12C77.0052 49.84 76.7332 48.888 76.1892 48.264C75.6452 47.624 74.9252 47.304 74.0292 47.304C73.1332 47.304 72.4132 47.624 71.8692 48.264C71.3252 48.888 71.0532 49.84 71.0532 51.12C71.0532 52.384 71.3252 53.344 71.8692 54C72.4132 54.64 73.1332 54.96 74.0292 54.96ZM86.9318 57.24C86.0838 57.24 85.3238 57.08 84.6518 56.76C83.9958 56.424 83.4758 55.976 83.0918 55.416C82.7238 54.856 82.5398 54.224 82.5398 53.52C82.5398 52.656 82.7638 51.976 83.2118 51.48C83.6598 50.968 84.3878 50.6 85.3958 50.376C86.4038 50.152 87.7558 50.04 89.4518 50.04H90.6518V51.768H89.4758C88.7238 51.768 88.0918 51.8 87.5798 51.864C87.0678 51.912 86.6518 52 86.3318 52.128C86.0278 52.24 85.8038 52.4 85.6598 52.608C85.5318 52.816 85.4678 53.072 85.4678 53.376C85.4678 53.904 85.6518 54.336 86.0198 54.672C86.3878 55.008 86.8998 55.176 87.5558 55.176C88.0838 55.176 88.5478 55.056 88.9478 54.816C89.3638 54.56 89.6918 54.216 89.9318 53.784C90.1718 53.352 90.2918 52.856 90.2918 52.296V49.536C90.2918 48.736 90.1158 48.16 89.7638 47.808C89.4118 47.456 88.8198 47.28 87.9878 47.28C87.3318 47.28 86.6598 47.384 85.9718 47.592C85.2838 47.784 84.5878 48.088 83.8838 48.504L83.0198 46.464C83.4358 46.176 83.9238 45.928 84.4838 45.72C85.0598 45.496 85.6598 45.328 86.2838 45.216C86.9238 45.088 87.5238 45.024 88.0838 45.024C89.2358 45.024 90.1798 45.2 90.9158 45.552C91.6678 45.904 92.2278 46.44 92.5958 47.16C92.9638 47.864 93.1478 48.776 93.1478 49.896V57H90.3398V54.504H90.5318C90.4198 55.064 90.1958 55.552 89.8598 55.968C89.5398 56.368 89.1318 56.68 88.6358 56.904C88.1398 57.128 87.5718 57.24 86.9318 57.24ZM96.1928 57V45.264H99.1208V47.616H98.8568C99.2088 46.768 99.7528 46.128 100.489 45.696C101.241 45.248 102.089 45.024 103.033 45.024C103.977 45.024 104.753 45.2 105.361 45.552C105.969 45.904 106.425 46.44 106.729 47.16C107.033 47.864 107.185 48.76 107.185 49.848V57H104.185V49.992C104.185 49.384 104.105 48.888 103.945 48.504C103.801 48.12 103.569 47.84 103.249 47.664C102.945 47.472 102.553 47.376 102.073 47.376C101.497 47.376 100.993 47.504 100.561 47.76C100.129 48 99.7928 48.352 99.5528 48.816C99.3128 49.264 99.1928 49.792 99.1928 50.4V57H96.1928ZM114.096 57.24C113.248 57.24 112.488 57.08 111.816 56.76C111.16 56.424 110.64 55.976 110.256 55.416C109.888 54.856 109.704 54.224 109.704 53.52C109.704 52.656 109.928 51.976 110.376 51.48C110.824 50.968 111.552 50.6 112.56 50.376C113.568 50.152 114.92 50.04 116.616 50.04H117.816V51.768H116.64C115.888 51.768 115.256 51.8 114.744 51.864C114.232 51.912 113.816 52 113.496 52.128C113.192 52.24 112.968 52.4 112.824 52.608C112.696 52.816 112.632 53.072 112.632 53.376C112.632 53.904 112.816 54.336 113.184 54.672C113.552 55.008 114.064 55.176 114.72 55.176C115.248 55.176 115.712 55.056 116.112 54.816C116.528 54.56 116.856 54.216 117.096 53.784C117.336 53.352 117.456 52.856 117.456 52.296V49.536C117.456 48.736 117.28 48.16 116.928 47.808C116.576 47.456 115.984 47.28 115.152 47.28C114.496 47.28 113.824 47.384 113.136 47.592C112.448 47.784 111.752 48.088 111.048 48.504L110.184 46.464C110.6 46.176 111.088 45.928 111.648 45.72C112.224 45.496 112.824 45.328 113.448 45.216C114.088 45.088 114.688 45.024 115.248 45.024C116.4 45.024 117.344 45.2 118.08 45.552C118.832 45.904 119.392 46.44 119.76 47.16C120.128 47.864 120.312 48.776 120.312 49.896V57H117.504V54.504H117.696C117.584 55.064 117.36 55.552 117.024 55.968C116.704 56.368 116.296 56.68 115.8 56.904C115.304 57.128 114.736 57.24 114.096 57.24ZM127.221 57.24C126.373 57.24 125.613 57.08 124.941 56.76C124.285 56.424 123.765 55.976 123.381 55.416C123.013 54.856 122.829 54.224 122.829 53.52C122.829 52.656 123.053 51.976 123.501 51.48C123.949 50.968 124.677 50.6 125.685 50.376C126.693 50.152 128.045 50.04 129.741 50.04H130.941V51.768H129.765C129.013 51.768 128.381 51.8 127.869 51.864C127.357 51.912 126.941 52 126.621 52.128C126.317 52.24 126.093 52.4 125.949 52.608C125.821 52.816 125.757 53.072 125.757 53.376C125.757 53.904 125.941 54.336 126.309 54.672C126.677 55.008 127.189 55.176 127.845 55.176C128.373 55.176 128.837 55.056 129.237 54.816C129.653 54.56 129.981 54.216 130.221 53.784C130.461 53.352 130.581 52.856 130.581 52.296V49.536C130.581 48.736 130.405 48.16 130.053 47.808C129.701 47.456 129.109 47.28 128.277 47.28C127.621 47.28 126.949 47.384 126.261 47.592C125.573 47.784 124.877 48.088 124.173 48.504L123.309 46.464C123.725 46.176 124.213 45.928 124.773 45.72C125.349 45.496 125.949 45.328 126.573 45.216C127.213 45.088 127.813 45.024 128.373 45.024C129.525 45.024 130.469 45.2 131.205 45.552C131.957 45.904 132.517 46.44 132.885 47.16C133.253 47.864 133.437 48.776 133.437 49.896V57H130.629V54.504H130.821C130.709 55.064 130.485 55.552 130.149 55.968C129.829 56.368 129.421 56.68 128.925 56.904C128.429 57.128 127.861 57.24 127.221 57.24ZM136.482 57V45.264H139.41V47.616H139.146C139.498 46.768 140.042 46.128 140.778 45.696C141.53 45.248 142.378 45.024 143.322 45.024C144.266 45.024 145.042 45.2 145.65 45.552C146.258 45.904 146.714 46.44 147.018 47.16C147.322 47.864 147.474 48.76 147.474 49.848V57H144.474V49.992C144.474 49.384 144.394 48.888 144.234 48.504C144.09 48.12 143.858 47.84 143.538 47.664C143.234 47.472 142.842 47.376 142.362 47.376C141.786 47.376 141.282 47.504 140.85 47.76C140.418 48 140.082 48.352 139.842 48.816C139.602 49.264 139.482 49.792 139.482 50.4V57H136.482ZM157.326 57V40.08H159.894L166.278 51.864H165.51L171.87 40.08H174.39V57H171.606V44.64H172.134L166.758 54.432H164.958L159.534 44.616H160.11V57H157.326ZM182.074 57.24C181.098 57.24 180.29 57.064 179.65 56.712C179.01 56.344 178.53 55.8 178.21 55.08C177.906 54.36 177.754 53.464 177.754 52.392V45.264H180.754V52.44C180.754 52.984 180.826 53.44 180.97 53.808C181.13 54.176 181.362 54.448 181.666 54.624C181.986 54.8 182.386 54.888 182.866 54.888C183.41 54.888 183.882 54.768 184.282 54.528C184.698 54.272 185.018 53.92 185.242 53.472C185.482 53.008 185.602 52.472 185.602 51.864V45.264H188.602V57H185.674V54.552H186.01C185.674 55.416 185.162 56.08 184.474 56.544C183.802 57.008 183.002 57.24 182.074 57.24ZM196.236 57.24C195.212 57.24 194.308 56.992 193.524 56.496C192.756 56 192.156 55.296 191.724 54.384C191.292 53.456 191.076 52.368 191.076 51.12C191.076 49.856 191.292 48.776 191.724 47.88C192.156 46.968 192.756 46.264 193.524 45.768C194.308 45.272 195.212 45.024 196.236 45.024C197.212 45.024 198.06 45.264 198.78 45.744C199.516 46.224 200.012 46.856 200.268 47.64H200.004V40.08H203.004V57H200.076V54.504H200.292C200.052 55.336 199.564 56 198.828 56.496C198.092 56.992 197.228 57.24 196.236 57.24ZM197.076 54.96C197.972 54.96 198.692 54.64 199.236 54C199.78 53.344 200.052 52.384 200.052 51.12C200.052 49.84 199.78 48.888 199.236 48.264C198.692 47.624 197.972 47.304 197.076 47.304C196.18 47.304 195.46 47.624 194.916 48.264C194.372 48.888 194.1 49.84 194.1 51.12C194.1 52.384 194.372 53.344 194.916 54C195.46 54.64 196.18 54.96 197.076 54.96ZM209.979 57.24C209.131 57.24 208.371 57.08 207.699 56.76C207.043 56.424 206.523 55.976 206.139 55.416C205.771 54.856 205.587 54.224 205.587 53.52C205.587 52.656 205.811 51.976 206.259 51.48C206.707 50.968 207.435 50.6 208.443 50.376C209.451 50.152 210.803 50.04 212.499 50.04H213.699V51.768H212.523C211.771 51.768 211.139 51.8 210.627 51.864C210.115 51.912 209.699 52 209.379 52.128C209.075 52.24 208.851 52.4 208.707 52.608C208.579 52.816 208.515 53.072 208.515 53.376C208.515 53.904 208.699 54.336 209.067 54.672C209.435 55.008 209.947 55.176 210.603 55.176C211.131 55.176 211.595 55.056 211.995 54.816C212.411 54.56 212.739 54.216 212.979 53.784C213.219 53.352 213.339 52.856 213.339 52.296V49.536C213.339 48.736 213.163 48.16 212.811 47.808C212.459 47.456 211.867 47.28 211.035 47.28C210.379 47.28 209.707 47.384 209.019 47.592C208.331 47.784 207.635 48.088 206.931 48.504L206.067 46.464C206.483 46.176 206.971 45.928 207.531 45.72C208.107 45.496 208.707 45.328 209.331 45.216C209.971 45.088 210.571 45.024 211.131 45.024C212.283 45.024 213.227 45.2 213.963 45.552C214.715 45.904 215.275 46.44 215.643 47.16C216.011 47.864 216.195 48.776 216.195 49.896V57H213.387V54.504H213.579C213.467 55.064 213.243 55.552 212.907 55.968C212.587 56.368 212.179 56.68 211.683 56.904C211.187 57.128 210.619 57.24 209.979 57.24ZM219.24 57V40.08H222.24V47.616H221.904C222.256 46.768 222.8 46.128 223.536 45.696C224.288 45.248 225.136 45.024 226.08 45.024C227.024 45.024 227.8 45.2 228.408 45.552C229.016 45.904 229.472 46.44 229.776 47.16C230.08 47.864 230.232 48.76 230.232 49.848V57H227.232V49.992C227.232 49.384 227.152 48.888 226.992 48.504C226.848 48.12 226.616 47.84 226.296 47.664C225.992 47.472 225.6 47.376 225.12 47.376C224.544 47.376 224.04 47.504 223.608 47.76C223.176 48 222.84 48.352 222.6 48.816C222.36 49.264 222.24 49.792 222.24 50.4V57H219.24ZM240.036 57V40.08H247.428C249.204 40.08 250.58 40.472 251.556 41.256C252.532 42.024 253.02 43.096 253.02 44.472C253.02 45.496 252.724 46.36 252.132 47.064C251.54 47.768 250.732 48.24 249.708 48.48V48.12C250.492 48.232 251.164 48.472 251.724 48.84C252.284 49.208 252.708 49.68 252.996 50.256C253.3 50.832 253.452 51.504 253.452 52.272C253.452 53.264 253.22 54.12 252.756 54.84C252.308 55.544 251.652 56.08 250.788 56.448C249.924 56.816 248.892 57 247.692 57H240.036ZM242.988 54.672H247.308C247.74 54.672 248.124 54.64 248.46 54.576C248.812 54.512 249.108 54.416 249.348 54.288C249.604 54.144 249.812 53.968 249.972 53.76C250.148 53.552 250.276 53.312 250.356 53.04C250.436 52.768 250.476 52.464 250.476 52.128C250.476 51.776 250.436 51.464 250.356 51.192C250.276 50.92 250.148 50.688 249.972 50.496C249.812 50.288 249.604 50.12 249.348 49.992C249.108 49.848 248.812 49.744 248.46 49.68C248.124 49.616 247.74 49.584 247.308 49.584H242.988V54.672ZM242.988 47.256H246.9C247.956 47.256 248.74 47.056 249.252 46.656C249.78 46.24 250.044 45.632 250.044 44.832C250.044 44.032 249.78 43.432 249.252 43.032C248.74 42.616 247.956 42.408 246.9 42.408H242.988V47.256ZM260.135 57.24C259.287 57.24 258.527 57.08 257.855 56.76C257.199 56.424 256.679 55.976 256.295 55.416C255.927 54.856 255.743 54.224 255.743 53.52C255.743 52.656 255.967 51.976 256.415 51.48C256.863 50.968 257.591 50.6 258.599 50.376C259.607 50.152 260.959 50.04 262.655 50.04H263.855V51.768H262.679C261.927 51.768 261.295 51.8 260.783 51.864C260.271 51.912 259.855 52 259.535 52.128C259.231 52.24 259.007 52.4 258.863 52.608C258.735 52.816 258.671 53.072 258.671 53.376C258.671 53.904 258.855 54.336 259.223 54.672C259.591 55.008 260.103 55.176 260.759 55.176C261.287 55.176 261.751 55.056 262.151 54.816C262.567 54.56 262.895 54.216 263.135 53.784C263.375 53.352 263.495 52.856 263.495 52.296V49.536C263.495 48.736 263.319 48.16 262.967 47.808C262.615 47.456 262.023 47.28 261.191 47.28C260.535 47.28 259.863 47.384 259.175 47.592C258.487 47.784 257.791 48.088 257.087 48.504L256.223 46.464C256.639 46.176 257.127 45.928 257.687 45.72C258.263 45.496 258.863 45.328 259.487 45.216C260.127 45.088 260.727 45.024 261.287 45.024C262.439 45.024 263.383 45.2 264.119 45.552C264.871 45.904 265.431 46.44 265.799 47.16C266.167 47.864 266.351 48.776 266.351 49.896V57H263.543V54.504H263.735C263.623 55.064 263.399 55.552 263.063 55.968C262.743 56.368 262.335 56.68 261.839 56.904C261.343 57.128 260.775 57.24 260.135 57.24ZM274.868 61.56C273.78 61.56 272.756 61.432 271.796 61.176C270.852 60.936 270.02 60.56 269.3 60.048L270.164 57.96C270.612 58.248 271.084 58.488 271.58 58.68C272.076 58.888 272.58 59.04 273.092 59.136C273.604 59.232 274.116 59.28 274.628 59.28C275.7 59.28 276.5 59.016 277.028 58.488C277.572 57.976 277.844 57.208 277.844 56.184V54.024H278.06C277.82 54.84 277.316 55.496 276.548 55.992C275.796 56.472 274.94 56.712 273.98 56.712C272.924 56.712 272.004 56.472 271.22 55.992C270.436 55.496 269.828 54.808 269.396 53.928C268.964 53.048 268.748 52.024 268.748 50.856C268.748 49.688 268.964 48.672 269.396 47.808C269.828 46.928 270.436 46.248 271.22 45.768C272.004 45.272 272.924 45.024 273.98 45.024C274.972 45.024 275.836 45.272 276.572 45.768C277.324 46.248 277.812 46.888 278.036 47.688H277.844V45.264H280.772V55.824C280.772 57.088 280.548 58.144 280.1 58.992C279.652 59.856 278.988 60.496 278.108 60.912C277.228 61.344 276.148 61.56 274.868 61.56ZM274.796 54.432C275.724 54.432 276.46 54.112 277.004 53.472C277.548 52.832 277.82 51.96 277.82 50.856C277.82 49.752 277.548 48.888 277.004 48.264C276.46 47.624 275.724 47.304 274.796 47.304C273.868 47.304 273.132 47.624 272.588 48.264C272.044 48.888 271.772 49.752 271.772 50.856C271.772 51.96 272.044 52.832 272.588 53.472C273.132 54.112 273.868 54.432 274.796 54.432ZM283.688 42.744V39.816H287.048V42.744H283.688ZM283.88 57V45.264H286.88V57H283.88ZM33.88 93.24C31.56 93.24 29.784 92.64 28.552 91.44C27.336 90.224 26.728 88.432 26.728 86.064V76.08H29.8V86.04C29.8 87.56 30.144 88.704 30.832 89.472C31.536 90.224 32.552 90.6 33.88 90.6C35.208 90.6 36.216 90.224 36.904 89.472C37.592 88.704 37.936 87.56 37.936 86.04V76.08H40.984V86.064C40.984 88.432 40.384 90.224 39.184 91.44C37.984 92.64 36.216 93.24 33.88 93.24ZM44.6148 93V76.08H47.1828L53.5668 87.864H52.7988L59.1588 76.08H61.6788V93H58.8948V80.64H59.4228L54.0468 90.432H52.2468L46.8228 80.616H47.3988V93H44.6148ZM65.4027 93V76.08H68.4747V83.568H68.5227L75.9867 76.08H79.7307L70.8027 84.912L70.8267 83.52L80.1387 93H76.3467L68.5227 85.176H68.4747V93H65.4027ZM81.3882 93V76.08H83.9562L90.3402 87.864H89.5722L95.9322 76.08H98.4522V93H95.6682V80.64H96.1962L90.8202 90.432H89.0202L83.5962 80.616H84.1722V93H81.3882ZM108.645 93V76.08H119.901V78.528H111.597V83.184H119.373V85.632H111.597V90.552H119.901V93H108.645ZM128.031 93.24C126.799 93.24 125.727 92.992 124.815 92.496C123.903 91.984 123.199 91.264 122.703 90.336C122.207 89.408 121.959 88.32 121.959 87.072C121.959 85.824 122.207 84.752 122.703 83.856C123.199 82.944 123.903 82.248 124.815 81.768C125.727 81.272 126.799 81.024 128.031 81.024C128.783 81.024 129.527 81.144 130.263 81.384C130.999 81.624 131.607 81.96 132.087 82.392L131.199 84.48C130.783 84.112 130.311 83.832 129.783 83.64C129.271 83.448 128.775 83.352 128.295 83.352C127.255 83.352 126.447 83.68 125.871 84.336C125.311 84.976 125.031 85.896 125.031 87.096C125.031 88.28 125.311 89.216 125.871 89.904C126.447 90.576 127.255 90.912 128.295 90.912C128.759 90.912 129.255 90.816 129.783 90.624C130.311 90.432 130.783 90.144 131.199 89.76L132.087 91.872C131.607 92.288 130.991 92.624 130.239 92.88C129.503 93.12 128.767 93.24 128.031 93.24ZM139.045 93.24C137.829 93.24 136.773 92.992 135.877 92.496C134.981 92 134.285 91.296 133.789 90.384C133.293 89.456 133.045 88.368 133.045 87.12C133.045 85.872 133.293 84.792 133.789 83.88C134.285 82.968 134.981 82.264 135.877 81.768C136.773 81.272 137.829 81.024 139.045 81.024C140.261 81.024 141.317 81.272 142.213 81.768C143.109 82.264 143.805 82.968 144.301 83.88C144.797 84.792 145.045 85.872 145.045 87.12C145.045 88.368 144.797 89.456 144.301 90.384C143.805 91.296 143.109 92 142.213 92.496C141.317 92.992 140.261 93.24 139.045 93.24ZM139.045 90.96C139.941 90.96 140.661 90.64 141.205 90C141.749 89.344 142.021 88.384 142.021 87.12C142.021 85.84 141.749 84.888 141.205 84.264C140.661 83.624 139.941 83.304 139.045 83.304C138.149 83.304 137.429 83.624 136.885 84.264C136.341 84.888 136.069 85.84 136.069 87.12C136.069 88.384 136.341 89.344 136.885 90C137.429 90.64 138.149 90.96 139.045 90.96ZM147.945 87.768V85.368H155.097V87.768H147.945ZM158.567 93V76.08H169.631V78.528H161.639V83.304H169.127V85.752H161.639V93H158.567ZM171.521 93V81.264H174.449V84.096H174.209C174.433 83.136 174.873 82.408 175.529 81.912C176.185 81.4 177.057 81.104 178.145 81.024L179.057 80.952L179.249 83.496L177.521 83.664C176.545 83.76 175.809 84.064 175.313 84.576C174.817 85.072 174.569 85.776 174.569 86.688V93H171.521ZM180.727 78.744V75.816H184.087V78.744H180.727ZM180.919 93V81.264H183.919V93H180.919ZM192.821 93.24C191.493 93.24 190.349 92.992 189.389 92.496C188.429 92 187.685 91.296 187.157 90.384C186.645 89.472 186.389 88.392 186.389 87.144C186.389 85.928 186.637 84.864 187.133 83.952C187.645 83.04 188.341 82.328 189.221 81.816C190.117 81.288 191.133 81.024 192.269 81.024C193.389 81.024 194.349 81.264 195.149 81.744C195.949 82.224 196.565 82.904 196.997 83.784C197.445 84.664 197.669 85.712 197.669 86.928V87.816H188.813V86.088H195.557L195.173 86.448C195.173 85.36 194.933 84.528 194.453 83.952C193.973 83.36 193.285 83.064 192.389 83.064C191.717 83.064 191.141 83.224 190.661 83.544C190.197 83.848 189.837 84.288 189.581 84.864C189.341 85.424 189.221 86.096 189.221 86.88V87.048C189.221 87.928 189.357 88.656 189.629 89.232C189.901 89.808 190.309 90.24 190.853 90.528C191.397 90.816 192.069 90.96 192.869 90.96C193.525 90.96 194.181 90.864 194.837 90.672C195.493 90.464 196.093 90.144 196.637 89.712L197.477 91.728C196.917 92.192 196.213 92.56 195.365 92.832C194.517 93.104 193.669 93.24 192.821 93.24ZM200.044 93V81.264H202.972V83.616H202.708C203.06 82.768 203.604 82.128 204.34 81.696C205.092 81.248 205.94 81.024 206.884 81.024C207.828 81.024 208.604 81.2 209.212 81.552C209.82 81.904 210.276 82.44 210.58 83.16C210.884 83.864 211.036 84.76 211.036 85.848V93H208.036V85.992C208.036 85.384 207.956 84.888 207.796 84.504C207.652 84.12 207.42 83.84 207.1 83.664C206.796 83.472 206.404 83.376 205.924 83.376C205.348 83.376 204.844 83.504 204.412 83.76C203.98 84 203.644 84.352 203.404 84.816C203.164 85.264 203.044 85.792 203.044 86.4V93H200.044ZM218.595 93.24C217.571 93.24 216.667 92.992 215.883 92.496C215.115 92 214.515 91.296 214.083 90.384C213.651 89.456 213.435 88.368 213.435 87.12C213.435 85.856 213.651 84.776 214.083 83.88C214.515 82.968 215.115 82.264 215.883 81.768C216.667 81.272 217.571 81.024 218.595 81.024C219.571 81.024 220.419 81.264 221.139 81.744C221.875 82.224 222.371 82.856 222.627 83.64H222.363V76.08H225.363V93H222.435V90.504H222.651C222.411 91.336 221.923 92 221.187 92.496C220.451 92.992 219.587 93.24 218.595 93.24ZM219.435 90.96C220.331 90.96 221.051 90.64 221.595 90C222.139 89.344 222.411 88.384 222.411 87.12C222.411 85.84 222.139 84.888 221.595 84.264C221.051 83.624 220.331 83.304 219.435 83.304C218.539 83.304 217.819 83.624 217.275 84.264C216.731 84.888 216.459 85.84 216.459 87.12C216.459 88.384 216.731 89.344 217.275 90C217.819 90.64 218.539 90.96 219.435 90.96ZM232.554 93.24C231.162 93.24 230.13 92.864 229.458 92.112C228.802 91.344 228.474 90.224 228.474 88.752V76.08H231.474V88.608C231.474 89.072 231.538 89.472 231.666 89.808C231.81 90.128 232.018 90.368 232.29 90.528C232.562 90.688 232.898 90.768 233.298 90.768C233.474 90.768 233.65 90.76 233.826 90.744C234.002 90.728 234.17 90.696 234.33 90.648L234.282 93.024C233.994 93.088 233.706 93.136 233.418 93.168C233.146 93.216 232.858 93.24 232.554 93.24ZM236.889 97.32L239.337 91.92V93.168L234.177 81.264H237.369L241.017 90.36H240.297L244.017 81.264H247.041L239.985 97.32H236.889ZM248.97 87.984L248.034 76.08H251.73L250.794 87.984H248.97ZM248.202 93V89.664H251.562V93H248.202Z" fill="#2E3032"/>
<path d="M26.312 123V111.72H30.296C31.5333 111.72 32.584 111.939 33.448 112.376C34.312 112.803 34.968 113.437 35.416 114.28C35.8747 115.112 36.104 116.136 36.104 117.352C36.104 118.568 35.8747 119.597 35.416 120.44C34.968 121.272 34.312 121.907 33.448 122.344C32.584 122.781 31.5333 123 30.296 123H26.312ZM27.976 121.608H30.2C31.5973 121.608 32.6427 121.256 33.336 120.552C34.0293 119.837 34.376 118.771 34.376 117.352C34.376 115.933 34.024 114.872 33.32 114.168C32.6267 113.464 31.5867 113.112 30.2 113.112H27.976V121.608ZM40.9356 123.144C40.3063 123.144 39.7783 123.027 39.3516 122.792C38.9356 122.557 38.621 122.211 38.4076 121.752C38.205 121.283 38.1036 120.696 38.1036 119.992V115.192H39.7196V120.008C39.7196 120.424 39.773 120.771 39.8796 121.048C39.997 121.325 40.173 121.528 40.4076 121.656C40.653 121.784 40.957 121.848 41.3196 121.848C41.725 121.848 42.0823 121.757 42.3916 121.576C42.701 121.395 42.941 121.133 43.1116 120.792C43.2823 120.451 43.3676 120.056 43.3676 119.608V115.192H44.9836V123H43.4156V121.288H43.6236C43.4103 121.885 43.069 122.344 42.5996 122.664C42.1303 122.984 41.5756 123.144 40.9356 123.144ZM47.261 123V111.72H48.877V118.6H48.909L52.301 115.192H54.301L50.189 119.32V118.568L54.589 123H52.573L48.909 119.432H48.877V123H47.261ZM58.295 123.144C57.6657 123.144 57.1377 123.027 56.711 122.792C56.295 122.557 55.9803 122.211 55.767 121.752C55.5643 121.283 55.463 120.696 55.463 119.992V115.192H57.079V120.008C57.079 120.424 57.1323 120.771 57.239 121.048C57.3563 121.325 57.5323 121.528 57.767 121.656C58.0123 121.784 58.3163 121.848 58.679 121.848C59.0843 121.848 59.4417 121.757 59.751 121.576C60.0603 121.395 60.3003 121.133 60.471 120.792C60.6417 120.451 60.727 120.056 60.727 119.608V115.192H62.343V123H60.775V121.288H60.983C60.7697 121.885 60.4283 122.344 59.959 122.664C59.4897 122.984 58.935 123.144 58.295 123.144ZM64.6204 123V115.192H66.1884V116.856H66.0124C66.247 116.259 66.615 115.811 67.1164 115.512C67.6177 115.203 68.1937 115.048 68.8444 115.048C69.463 115.048 69.975 115.165 70.3804 115.4C70.7964 115.624 71.1057 115.971 71.3084 116.44C71.511 116.899 71.6124 117.48 71.6124 118.184V123H69.9964V118.28C69.9964 117.832 69.9377 117.469 69.8204 117.192C69.703 116.904 69.527 116.691 69.2924 116.552C69.0577 116.413 68.7537 116.344 68.3804 116.344C67.9537 116.344 67.575 116.435 67.2444 116.616C66.9244 116.797 66.6737 117.059 66.4924 117.4C66.3217 117.741 66.2364 118.136 66.2364 118.584V123H64.6204ZM77.3751 126.024C76.6711 126.024 76.0151 125.939 75.4071 125.768C74.7991 125.597 74.2605 125.341 73.7911 125L74.2871 123.848C74.5965 124.051 74.9111 124.221 75.2311 124.36C75.5618 124.509 75.8925 124.616 76.2231 124.68C76.5645 124.744 76.9111 124.776 77.2631 124.776C78.0098 124.776 78.5698 124.584 78.9431 124.2C79.3165 123.827 79.5031 123.272 79.5031 122.536V120.904H79.6471C79.4871 121.491 79.1511 121.955 78.6391 122.296C78.1271 122.637 77.5351 122.808 76.8631 122.808C76.1591 122.808 75.5458 122.648 75.0231 122.328C74.5005 121.997 74.0951 121.544 73.8071 120.968C73.5191 120.381 73.3751 119.699 73.3751 118.92C73.3751 118.141 73.5191 117.464 73.8071 116.888C74.0951 116.312 74.5005 115.864 75.0231 115.544C75.5458 115.213 76.1591 115.048 76.8631 115.048C77.5458 115.048 78.1378 115.219 78.6391 115.56C79.1511 115.901 79.4818 116.365 79.6311 116.952H79.5031V115.192H81.0711V122.344C81.0711 123.155 80.9325 123.832 80.6551 124.376C80.3778 124.931 79.9618 125.341 79.4071 125.608C78.8631 125.885 78.1858 126.024 77.3751 126.024ZM77.2471 121.544C77.9405 121.544 78.4845 121.309 78.8791 120.84C79.2845 120.371 79.4871 119.731 79.4871 118.92C79.4871 118.12 79.2845 117.485 78.8791 117.016C78.4845 116.547 77.9405 116.312 77.2471 116.312C76.5645 116.312 76.0205 116.547 75.6151 117.016C75.2098 117.485 75.0071 118.12 75.0071 118.92C75.0071 119.731 75.2098 120.371 75.6151 120.84C76.0205 121.309 76.5645 121.544 77.2471 121.544ZM87.7183 123V111.72H92.4223C93.5956 111.72 94.5023 111.981 95.1423 112.504C95.7929 113.016 96.1183 113.736 96.1183 114.664C96.1183 115.347 95.9156 115.923 95.5103 116.392C95.1049 116.861 94.5556 117.176 93.8623 117.336V117.096C94.3849 117.171 94.8329 117.331 95.2063 117.576C95.5903 117.811 95.8836 118.125 96.0863 118.52C96.2889 118.904 96.3903 119.357 96.3903 119.88C96.3903 120.541 96.2409 121.107 95.9423 121.576C95.6436 122.045 95.2116 122.403 94.6463 122.648C94.0809 122.883 93.4036 123 92.6143 123H87.7183ZM89.3183 121.72H92.4223C92.7423 121.72 93.0249 121.699 93.2703 121.656C93.5263 121.603 93.7449 121.528 93.9263 121.432C94.1183 121.325 94.2783 121.197 94.4062 121.048C94.5343 120.888 94.6249 120.707 94.6783 120.504C94.7423 120.301 94.7743 120.072 94.7743 119.816C94.7743 119.56 94.7423 119.331 94.6783 119.128C94.6249 118.925 94.5343 118.749 94.4062 118.6C94.2783 118.451 94.1183 118.328 93.9263 118.232C93.7449 118.125 93.5263 118.051 93.2703 118.008C93.0249 117.955 92.7423 117.928 92.4223 117.928H89.3183V121.72ZM89.3183 116.648H92.1663C92.9343 116.648 93.5156 116.493 93.9103 116.184C94.3049 115.875 94.5023 115.421 94.5023 114.824C94.5023 114.227 94.3049 113.773 93.9103 113.464C93.5156 113.155 92.9343 113 92.1663 113H89.3183V116.648ZM98.3045 113.384V111.704H100.193V113.384H98.3045ZM98.4485 123V115.192H100.065V123H98.4485ZM105.075 123.144C104.659 123.144 104.254 123.107 103.859 123.032C103.464 122.957 103.102 122.851 102.771 122.712C102.44 122.573 102.147 122.403 101.891 122.2L102.355 121.112C102.622 121.293 102.904 121.453 103.203 121.592C103.502 121.72 103.811 121.816 104.131 121.88C104.462 121.944 104.782 121.976 105.091 121.976C105.656 121.976 106.083 121.875 106.371 121.672C106.659 121.469 106.803 121.197 106.803 120.856C106.803 120.579 106.707 120.365 106.515 120.216C106.323 120.056 106.035 119.933 105.651 119.848L104.131 119.544C103.47 119.405 102.968 119.16 102.627 118.808C102.286 118.456 102.115 118.008 102.115 117.464C102.115 116.973 102.248 116.547 102.515 116.184C102.782 115.821 103.155 115.544 103.635 115.352C104.115 115.149 104.67 115.048 105.299 115.048C105.662 115.048 106.014 115.085 106.355 115.16C106.696 115.235 107.016 115.341 107.315 115.48C107.624 115.619 107.886 115.795 108.099 116.008L107.635 117.096C107.432 116.915 107.198 116.76 106.931 116.632C106.675 116.504 106.408 116.408 106.131 116.344C105.854 116.269 105.576 116.232 105.299 116.232C104.734 116.232 104.307 116.339 104.019 116.552C103.742 116.755 103.603 117.032 103.603 117.384C103.603 117.651 103.688 117.869 103.859 118.04C104.03 118.211 104.296 118.333 104.659 118.408L106.179 118.712C106.872 118.851 107.395 119.085 107.747 119.416C108.11 119.747 108.291 120.195 108.291 120.76C108.291 121.251 108.158 121.677 107.891 122.04C107.624 122.403 107.246 122.68 106.755 122.872C106.275 123.053 105.715 123.144 105.075 123.144ZM110.089 123V115.192H111.657V116.856H111.481C111.716 116.259 112.084 115.811 112.585 115.512C113.086 115.203 113.662 115.048 114.313 115.048C114.932 115.048 115.444 115.165 115.849 115.4C116.265 115.624 116.574 115.971 116.777 116.44C116.98 116.899 117.081 117.48 117.081 118.184V123H115.465V118.28C115.465 117.832 115.406 117.469 115.289 117.192C115.172 116.904 114.996 116.691 114.761 116.552C114.526 116.413 114.222 116.344 113.849 116.344C113.422 116.344 113.044 116.435 112.713 116.616C112.393 116.797 112.142 117.059 111.961 117.4C111.79 117.741 111.705 118.136 111.705 118.584V123H110.089ZM119.164 113.384V111.704H121.052V113.384H119.164ZM119.308 123V115.192H120.924V123H119.308ZM125.935 123.144C125.519 123.144 125.113 123.107 124.719 123.032C124.324 122.957 123.961 122.851 123.631 122.712C123.3 122.573 123.007 122.403 122.751 122.2L123.215 121.112C123.481 121.293 123.764 121.453 124.062 121.592C124.361 121.72 124.671 121.816 124.991 121.88C125.321 121.944 125.641 121.976 125.951 121.976C126.516 121.976 126.943 121.875 127.231 121.672C127.519 121.469 127.663 121.197 127.663 120.856C127.663 120.579 127.567 120.365 127.375 120.216C127.183 120.056 126.895 119.933 126.511 119.848L124.991 119.544C124.329 119.405 123.828 119.16 123.487 118.808C123.145 118.456 122.975 118.008 122.975 117.464C122.975 116.973 123.108 116.547 123.375 116.184C123.641 115.821 124.015 115.544 124.495 115.352C124.975 115.149 125.529 115.048 126.159 115.048C126.521 115.048 126.873 115.085 127.215 115.16C127.556 115.235 127.876 115.341 128.175 115.48C128.484 115.619 128.745 115.795 128.959 116.008L128.495 117.096C128.292 116.915 128.057 116.76 127.791 116.632C127.535 116.504 127.268 116.408 126.991 116.344C126.713 116.269 126.436 116.232 126.159 116.232C125.593 116.232 125.167 116.339 124.879 116.552C124.601 116.755 124.463 117.032 124.463 117.384C124.463 117.651 124.548 117.869 124.719 118.04C124.889 118.211 125.156 118.333 125.519 118.408L127.039 118.712C127.732 118.851 128.255 119.085 128.607 119.416C128.969 119.747 129.151 120.195 129.151 120.76C129.151 121.251 129.017 121.677 128.751 122.04C128.484 122.403 128.105 122.68 127.615 122.872C127.135 123.053 126.575 123.144 125.935 123.144ZM135.328 123V111.72H136.992V116.584H143.312V111.72H144.96V123H143.312V117.976H136.992V123H135.328ZM147.273 113.384V111.704H149.161V113.384H147.273ZM147.417 123V115.192H149.033V123H147.417ZM151.228 113.384V111.704H153.116V113.384H151.228ZM149.404 126.088L149.292 124.872L149.996 124.808C150.455 124.755 150.796 124.595 151.02 124.328C151.244 124.072 151.356 123.688 151.356 123.176V115.192H152.972V123C152.972 123.491 152.913 123.917 152.796 124.28C152.689 124.643 152.519 124.947 152.284 125.192C152.06 125.448 151.767 125.645 151.404 125.784C151.041 125.923 150.604 126.008 150.092 126.04L149.404 126.088ZM157.741 123.144C157.197 123.144 156.707 123.037 156.269 122.824C155.843 122.611 155.507 122.323 155.261 121.96C155.016 121.597 154.893 121.187 154.893 120.728C154.893 120.152 155.037 119.699 155.325 119.368C155.624 119.027 156.109 118.787 156.781 118.648C157.464 118.499 158.381 118.424 159.533 118.424H160.285V119.416H159.549C158.973 119.416 158.488 119.437 158.093 119.48C157.699 119.523 157.384 119.592 157.149 119.688C156.915 119.773 156.744 119.896 156.637 120.056C156.541 120.216 156.493 120.408 156.493 120.632C156.493 121.037 156.632 121.368 156.909 121.624C157.187 121.869 157.571 121.992 158.061 121.992C158.456 121.992 158.803 121.901 159.101 121.72C159.4 121.528 159.635 121.272 159.805 120.952C159.987 120.632 160.077 120.264 160.077 119.848V118.008C160.077 117.4 159.949 116.963 159.693 116.696C159.437 116.429 159.016 116.296 158.429 116.296C157.981 116.296 157.533 116.365 157.085 116.504C156.637 116.632 156.179 116.84 155.709 117.128L155.213 115.992C155.491 115.8 155.811 115.635 156.173 115.496C156.536 115.357 156.915 115.251 157.309 115.176C157.715 115.091 158.104 115.048 158.477 115.048C159.192 115.048 159.779 115.16 160.237 115.384C160.707 115.608 161.053 115.949 161.277 116.408C161.501 116.867 161.613 117.459 161.613 118.184V123H160.093V121.256H160.237C160.152 121.651 159.992 121.992 159.757 122.28C159.533 122.557 159.251 122.771 158.909 122.92C158.568 123.069 158.179 123.144 157.741 123.144ZM166.623 123.144C165.994 123.144 165.466 123.027 165.039 122.792C164.623 122.557 164.308 122.211 164.095 121.752C163.892 121.283 163.791 120.696 163.791 119.992V115.192H165.407V120.008C165.407 120.424 165.46 120.771 165.567 121.048C165.684 121.325 165.86 121.528 166.095 121.656C166.34 121.784 166.644 121.848 167.007 121.848C167.412 121.848 167.77 121.757 168.079 121.576C168.388 121.395 168.628 121.133 168.799 120.792C168.97 120.451 169.055 120.056 169.055 119.608V115.192H170.671V123H169.103V121.288H169.311C169.098 121.885 168.756 122.344 168.287 122.664C167.818 122.984 167.263 123.144 166.623 123.144ZM173.573 124.968L172.868 124.424C173.082 124.2 173.242 123.992 173.349 123.8C173.466 123.608 173.546 123.416 173.589 123.224C173.642 123.032 173.669 122.84 173.669 122.648L174.021 123H172.757V121.096H174.661V122.392C174.661 122.712 174.623 123.016 174.549 123.304C174.485 123.592 174.373 123.869 174.213 124.136C174.063 124.413 173.85 124.691 173.573 124.968ZM181.125 123V111.72H185.797C187.013 111.72 187.951 112.008 188.613 112.584C189.274 113.16 189.605 113.976 189.605 115.032C189.605 115.715 189.455 116.301 189.157 116.792C188.858 117.283 188.421 117.656 187.845 117.912C187.279 118.168 186.597 118.296 185.797 118.296L185.941 118.072H186.357C186.783 118.072 187.151 118.179 187.461 118.392C187.781 118.605 188.069 118.947 188.325 119.416L190.277 123H188.453L186.501 119.4C186.351 119.123 186.186 118.909 186.005 118.76C185.834 118.6 185.631 118.493 185.397 118.44C185.173 118.376 184.906 118.344 184.597 118.344H182.789V123H181.125ZM182.789 117.096H185.525C186.335 117.096 186.949 116.925 187.365 116.584C187.781 116.243 187.989 115.736 187.989 115.064C187.989 114.403 187.781 113.901 187.365 113.56C186.949 113.219 186.335 113.048 185.525 113.048H182.789V117.096ZM194.226 123.144C193.682 123.144 193.191 123.037 192.754 122.824C192.327 122.611 191.991 122.323 191.746 121.96C191.5 121.597 191.378 121.187 191.378 120.728C191.378 120.152 191.522 119.699 191.81 119.368C192.108 119.027 192.594 118.787 193.266 118.648C193.948 118.499 194.866 118.424 196.018 118.424H196.77V119.416H196.034C195.458 119.416 194.972 119.437 194.578 119.48C194.183 119.523 193.868 119.592 193.634 119.688C193.399 119.773 193.228 119.896 193.122 120.056C193.026 120.216 192.978 120.408 192.978 120.632C192.978 121.037 193.116 121.368 193.394 121.624C193.671 121.869 194.055 121.992 194.546 121.992C194.94 121.992 195.287 121.901 195.586 121.72C195.884 121.528 196.119 121.272 196.29 120.952C196.471 120.632 196.562 120.264 196.562 119.848V118.008C196.562 117.4 196.434 116.963 196.178 116.696C195.922 116.429 195.5 116.296 194.914 116.296C194.466 116.296 194.018 116.365 193.57 116.504C193.122 116.632 192.663 116.84 192.194 117.128L191.698 115.992C191.975 115.8 192.295 115.635 192.658 115.496C193.02 115.357 193.399 115.251 193.794 115.176C194.199 115.091 194.588 115.048 194.962 115.048C195.676 115.048 196.263 115.16 196.722 115.384C197.191 115.608 197.538 115.949 197.762 116.408C197.986 116.867 198.098 117.459 198.098 118.184V123H196.578V121.256H196.722C196.636 121.651 196.476 121.992 196.242 122.28C196.018 122.557 195.735 122.771 195.394 122.92C195.052 123.069 194.663 123.144 194.226 123.144ZM200.18 113.384V111.704H202.068V113.384H200.18ZM200.324 123V115.192H201.94V123H200.324ZM204.214 123V111.72H205.83V116.856H205.606C205.841 116.259 206.209 115.811 206.71 115.512C207.211 115.203 207.787 115.048 208.438 115.048C209.057 115.048 209.569 115.165 209.974 115.4C210.39 115.624 210.699 115.971 210.902 116.44C211.105 116.899 211.206 117.48 211.206 118.184V123H209.59V118.28C209.59 117.832 209.531 117.469 209.414 117.192C209.297 116.904 209.121 116.691 208.886 116.552C208.651 116.413 208.347 116.344 207.974 116.344C207.547 116.344 207.169 116.435 206.838 116.616C206.518 116.797 206.267 117.059 206.086 117.4C205.915 117.741 205.83 118.136 205.83 118.584V123H204.214ZM217.844 123V111.72H219.236L223.668 119.976H223.172L227.572 111.72H228.932V123H227.444V114.072H227.796L223.908 121.272H222.9L218.964 114.056H219.348V123H217.844ZM233.913 123.144C233.369 123.144 232.879 123.037 232.441 122.824C232.015 122.611 231.679 122.323 231.433 121.96C231.188 121.597 231.065 121.187 231.065 120.728C231.065 120.152 231.209 119.699 231.497 119.368C231.796 119.027 232.281 118.787 232.953 118.648C233.636 118.499 234.553 118.424 235.705 118.424H236.457V119.416H235.721C235.145 119.416 234.66 119.437 234.265 119.48C233.871 119.523 233.556 119.592 233.321 119.688C233.087 119.773 232.916 119.896 232.809 120.056C232.713 120.216 232.665 120.408 232.665 120.632C232.665 121.037 232.804 121.368 233.081 121.624C233.359 121.869 233.743 121.992 234.233 121.992C234.628 121.992 234.975 121.901 235.273 121.72C235.572 121.528 235.807 121.272 235.977 120.952C236.159 120.632 236.249 120.264 236.249 119.848V118.008C236.249 117.4 236.121 116.963 235.865 116.696C235.609 116.429 235.188 116.296 234.601 116.296C234.153 116.296 233.705 116.365 233.257 116.504C232.809 116.632 232.351 116.84 231.881 117.128L231.385 115.992C231.663 115.8 231.983 115.635 232.345 115.496C232.708 115.357 233.087 115.251 233.481 115.176C233.887 115.091 234.276 115.048 234.649 115.048C235.364 115.048 235.951 115.16 236.409 115.384C236.879 115.608 237.225 115.949 237.449 116.408C237.673 116.867 237.785 117.459 237.785 118.184V123H236.265V121.256H236.409C236.324 121.651 236.164 121.992 235.929 122.28C235.705 122.557 235.423 122.771 235.081 122.92C234.74 123.069 234.351 123.144 233.913 123.144ZM242.747 123.144C242.331 123.144 241.926 123.107 241.531 123.032C241.136 122.957 240.774 122.851 240.443 122.712C240.112 122.573 239.819 122.403 239.563 122.2L240.027 121.112C240.294 121.293 240.576 121.453 240.875 121.592C241.174 121.72 241.483 121.816 241.803 121.88C242.134 121.944 242.454 121.976 242.763 121.976C243.328 121.976 243.755 121.875 244.043 121.672C244.331 121.469 244.475 121.197 244.475 120.856C244.475 120.579 244.379 120.365 244.187 120.216C243.995 120.056 243.707 119.933 243.323 119.848L241.803 119.544C241.142 119.405 240.64 119.16 240.299 118.808C239.958 118.456 239.787 118.008 239.787 117.464C239.787 116.973 239.92 116.547 240.187 116.184C240.454 115.821 240.827 115.544 241.307 115.352C241.787 115.149 242.342 115.048 242.971 115.048C243.334 115.048 243.686 115.085 244.027 115.16C244.368 115.235 244.688 115.341 244.987 115.48C245.296 115.619 245.558 115.795 245.771 116.008L245.307 117.096C245.104 116.915 244.87 116.76 244.603 116.632C244.347 116.504 244.08 116.408 243.803 116.344C243.526 116.269 243.248 116.232 242.971 116.232C242.406 116.232 241.979 116.339 241.691 116.552C241.414 116.755 241.275 117.032 241.275 117.384C241.275 117.651 241.36 117.869 241.531 118.04C241.702 118.211 241.968 118.333 242.331 118.408L243.851 118.712C244.544 118.851 245.067 119.085 245.419 119.416C245.782 119.747 245.963 120.195 245.963 120.76C245.963 121.251 245.83 121.677 245.563 122.04C245.296 122.403 244.918 122.68 244.427 122.872C243.947 123.053 243.387 123.144 242.747 123.144ZM250.257 123.144C249.713 123.144 249.222 123.037 248.785 122.824C248.358 122.611 248.022 122.323 247.777 121.96C247.532 121.597 247.409 121.187 247.409 120.728C247.409 120.152 247.553 119.699 247.841 119.368C248.14 119.027 248.625 118.787 249.297 118.648C249.98 118.499 250.897 118.424 252.049 118.424H252.801V119.416H252.065C251.489 119.416 251.004 119.437 250.609 119.48C250.214 119.523 249.9 119.592 249.665 119.688C249.43 119.773 249.26 119.896 249.153 120.056C249.057 120.216 249.009 120.408 249.009 120.632C249.009 121.037 249.148 121.368 249.425 121.624C249.702 121.869 250.086 121.992 250.577 121.992C250.972 121.992 251.318 121.901 251.617 121.72C251.916 121.528 252.15 121.272 252.321 120.952C252.502 120.632 252.593 120.264 252.593 119.848V118.008C252.593 117.4 252.465 116.963 252.209 116.696C251.953 116.429 251.532 116.296 250.945 116.296C250.497 116.296 250.049 116.365 249.601 116.504C249.153 116.632 248.694 116.84 248.225 117.128L247.729 115.992C248.006 115.8 248.326 115.635 248.689 115.496C249.052 115.357 249.43 115.251 249.825 115.176C250.23 115.091 250.62 115.048 250.993 115.048C251.708 115.048 252.294 115.16 252.753 115.384C253.222 115.608 253.569 115.949 253.793 116.408C254.017 116.867 254.129 117.459 254.129 118.184V123H252.609V121.256H252.753C252.668 121.651 252.508 121.992 252.273 122.28C252.049 122.557 251.766 122.771 251.425 122.92C251.084 123.069 250.694 123.144 250.257 123.144ZM26.312 147V135.72H30.296C31.5333 135.72 32.584 135.939 33.448 136.376C34.312 136.803 34.968 137.437 35.416 138.28C35.8747 139.112 36.104 140.136 36.104 141.352C36.104 142.568 35.8747 143.597 35.416 144.44C34.968 145.272 34.312 145.907 33.448 146.344C32.584 146.781 31.5333 147 30.296 147H26.312ZM27.976 145.608H30.2C31.5973 145.608 32.6427 145.256 33.336 144.552C34.0293 143.837 34.376 142.771 34.376 141.352C34.376 139.933 34.024 138.872 33.32 138.168C32.6267 137.464 31.5867 137.112 30.2 137.112H27.976V145.608ZM41.8156 147.144C40.9623 147.144 40.2263 146.984 39.6076 146.664C38.9996 146.333 38.525 145.869 38.1836 145.272C37.853 144.664 37.6876 143.944 37.6876 143.112C37.6876 142.301 37.853 141.592 38.1836 140.984C38.5143 140.376 38.9676 139.901 39.5436 139.56C40.1196 139.219 40.7756 139.048 41.5116 139.048C42.237 139.048 42.8556 139.208 43.3676 139.528C43.8903 139.837 44.2903 140.28 44.5676 140.856C44.845 141.432 44.9836 142.12 44.9836 142.92V143.464H38.9676V142.472H43.8956L43.6236 142.696C43.6236 141.896 43.4476 141.277 43.0956 140.84C42.7436 140.403 42.237 140.184 41.5756 140.184C41.0743 140.184 40.6476 140.301 40.2956 140.536C39.9543 140.771 39.693 141.096 39.5116 141.512C39.3303 141.928 39.2396 142.413 39.2396 142.968V143.064C39.2396 143.683 39.3356 144.205 39.5276 144.632C39.7303 145.048 40.0236 145.363 40.4076 145.576C40.7916 145.789 41.2663 145.896 41.8316 145.896C42.2796 145.896 42.717 145.827 43.1436 145.688C43.581 145.539 43.9916 145.309 44.3756 145L44.8556 146.12C44.5036 146.44 44.0503 146.691 43.4956 146.872C42.941 147.053 42.381 147.144 41.8156 147.144ZM46.7454 149.88V139.192H48.3294V140.952H48.1534C48.324 140.376 48.66 139.917 49.1614 139.576C49.6627 139.224 50.2547 139.048 50.9374 139.048C51.6307 139.048 52.2334 139.213 52.7454 139.544C53.268 139.875 53.668 140.339 53.9454 140.936C54.2334 141.533 54.3774 142.253 54.3774 143.096C54.3774 143.917 54.2334 144.637 53.9454 145.256C53.668 145.864 53.2734 146.333 52.7614 146.664C52.2494 146.984 51.6414 147.144 50.9374 147.144C50.2654 147.144 49.6787 146.973 49.1774 146.632C48.676 146.291 48.34 145.837 48.1694 145.272H48.3614V149.88H46.7454ZM50.5374 145.896C51.2094 145.896 51.7427 145.656 52.1374 145.176C52.5427 144.696 52.7454 144.003 52.7454 143.096C52.7454 142.179 52.5427 141.485 52.1374 141.016C51.7427 140.547 51.2094 140.312 50.5374 140.312C49.876 140.312 49.3427 140.547 48.9374 141.016C48.532 141.485 48.3294 142.179 48.3294 143.096C48.3294 144.003 48.532 144.696 48.9374 145.176C49.3427 145.656 49.876 145.896 50.5374 145.896ZM58.6945 147.144C58.1505 147.144 57.6598 147.037 57.2225 146.824C56.7958 146.611 56.4598 146.323 56.2145 145.96C55.9692 145.597 55.8465 145.187 55.8465 144.728C55.8465 144.152 55.9905 143.699 56.2785 143.368C56.5772 143.027 57.0625 142.787 57.7345 142.648C58.4172 142.499 59.3345 142.424 60.4865 142.424H61.2385V143.416H60.5025C59.9265 143.416 59.4412 143.437 59.0465 143.48C58.6518 143.523 58.3372 143.592 58.1025 143.688C57.8678 143.773 57.6972 143.896 57.5905 144.056C57.4945 144.216 57.4465 144.408 57.4465 144.632C57.4465 145.037 57.5852 145.368 57.8625 145.624C58.1398 145.869 58.5238 145.992 59.0145 145.992C59.4092 145.992 59.7558 145.901 60.0545 145.72C60.3532 145.528 60.5878 145.272 60.7585 144.952C60.9398 144.632 61.0305 144.264 61.0305 143.848V142.008C61.0305 141.4 60.9025 140.963 60.6465 140.696C60.3905 140.429 59.9692 140.296 59.3825 140.296C58.9345 140.296 58.4865 140.365 58.0385 140.504C57.5905 140.632 57.1318 140.84 56.6625 141.128L56.1665 139.992C56.4438 139.8 56.7638 139.635 57.1265 139.496C57.4892 139.357 57.8678 139.251 58.2625 139.176C58.6678 139.091 59.0572 139.048 59.4305 139.048C60.1452 139.048 60.7318 139.16 61.1905 139.384C61.6598 139.608 62.0065 139.949 62.2305 140.408C62.4545 140.867 62.5665 141.459 62.5665 142.184V147H61.0465V145.256H61.1905C61.1052 145.651 60.9452 145.992 60.7105 146.28C60.4865 146.557 60.2038 146.771 59.8625 146.92C59.5212 147.069 59.1318 147.144 58.6945 147.144ZM64.7923 147V139.192H66.3603V140.856H66.1843C66.4189 140.259 66.7869 139.811 67.2883 139.512C67.7896 139.203 68.3656 139.048 69.0163 139.048C69.6349 139.048 70.1469 139.165 70.5523 139.4C70.9683 139.624 71.2776 139.971 71.4803 140.44C71.6829 140.899 71.7843 141.48 71.7843 142.184V147H70.1683V142.28C70.1683 141.832 70.1096 141.469 69.9923 141.192C69.8749 140.904 69.6989 140.691 69.4643 140.552C69.2296 140.413 68.9256 140.344 68.5523 140.344C68.1256 140.344 67.7469 140.435 67.4163 140.616C67.0963 140.797 66.8456 141.059 66.6643 141.4C66.4936 141.741 66.4083 142.136 66.4083 142.584V147H64.7923ZM78.3901 147V135.72H83.0941C84.2675 135.72 85.1741 135.981 85.8141 136.504C86.4648 137.016 86.7901 137.736 86.7901 138.664C86.7901 139.347 86.5875 139.923 86.1821 140.392C85.7768 140.861 85.2275 141.176 84.5341 141.336V141.096C85.0568 141.171 85.5048 141.331 85.8781 141.576C86.2621 141.811 86.5555 142.125 86.7581 142.52C86.9608 142.904 87.0621 143.357 87.0621 143.88C87.0621 144.541 86.9128 145.107 86.6141 145.576C86.3155 146.045 85.8835 146.403 85.3181 146.648C84.7528 146.883 84.0755 147 83.2861 147H78.3901ZM79.9901 145.72H83.0941C83.4141 145.72 83.6968 145.699 83.9421 145.656C84.1981 145.603 84.4168 145.528 84.5981 145.432C84.7901 145.325 84.9501 145.197 85.0781 145.048C85.2061 144.888 85.2968 144.707 85.3501 144.504C85.4141 144.301 85.4461 144.072 85.4461 143.816C85.4461 143.56 85.4141 143.331 85.3501 143.128C85.2968 142.925 85.2061 142.749 85.0781 142.6C84.9501 142.451 84.7901 142.328 84.5981 142.232C84.4168 142.125 84.1981 142.051 83.9421 142.008C83.6968 141.955 83.4141 141.928 83.0941 141.928H79.9901V145.72ZM79.9901 140.648H82.8381C83.6061 140.648 84.1875 140.493 84.5821 140.184C84.9768 139.875 85.1741 139.421 85.1741 138.824C85.1741 138.227 84.9768 137.773 84.5821 137.464C84.1875 137.155 83.6061 137 82.8381 137H79.9901V140.648ZM92.7844 147.144C91.931 147.144 91.195 146.984 90.5764 146.664C89.9684 146.333 89.4937 145.869 89.1524 145.272C88.8217 144.664 88.6564 143.944 88.6564 143.112C88.6564 142.301 88.8217 141.592 89.1524 140.984C89.483 140.376 89.9364 139.901 90.5124 139.56C91.0884 139.219 91.7444 139.048 92.4804 139.048C93.2057 139.048 93.8244 139.208 94.3364 139.528C94.859 139.837 95.259 140.28 95.5364 140.856C95.8137 141.432 95.9524 142.12 95.9524 142.92V143.464H89.9364V142.472H94.8644L94.5924 142.696C94.5924 141.896 94.4164 141.277 94.0644 140.84C93.7124 140.403 93.2057 140.184 92.5444 140.184C92.043 140.184 91.6164 140.301 91.2644 140.536C90.923 140.771 90.6617 141.096 90.4804 141.512C90.299 141.928 90.2084 142.413 90.2084 142.968V143.064C90.2084 143.683 90.3044 144.205 90.4964 144.632C90.699 145.048 90.9924 145.363 91.3764 145.576C91.7604 145.789 92.235 145.896 92.8004 145.896C93.2484 145.896 93.6857 145.827 94.1124 145.688C94.5497 145.539 94.9604 145.309 95.3444 145L95.8244 146.12C95.4724 146.44 95.019 146.691 94.4644 146.872C93.9097 147.053 93.3497 147.144 92.7844 147.144ZM97.7141 147V139.192H99.2821V141.064H99.1221C99.2928 140.424 99.5968 139.939 100.034 139.608C100.482 139.277 101.074 139.085 101.81 139.032L102.338 139L102.45 140.376L101.474 140.472C100.781 140.536 100.253 140.755 99.8901 141.128C99.5275 141.501 99.3461 142.013 99.3461 142.664V147H97.7141ZM103.683 147V135.72H105.299V142.6H105.331L108.723 139.192H110.723L106.611 143.32V142.568L111.011 147H108.995L105.331 143.432H105.299V147H103.683ZM115.425 147.144C114.572 147.144 113.836 146.984 113.217 146.664C112.609 146.333 112.134 145.869 111.793 145.272C111.462 144.664 111.297 143.944 111.297 143.112C111.297 142.301 111.462 141.592 111.793 140.984C112.124 140.376 112.577 139.901 113.153 139.56C113.729 139.219 114.385 139.048 115.121 139.048C115.846 139.048 116.465 139.208 116.977 139.528C117.5 139.837 117.9 140.28 118.177 140.856C118.454 141.432 118.593 142.12 118.593 142.92V143.464H112.577V142.472H117.505L117.233 142.696C117.233 141.896 117.057 141.277 116.705 140.84C116.353 140.403 115.846 140.184 115.185 140.184C114.684 140.184 114.257 140.301 113.905 140.536C113.564 140.771 113.302 141.096 113.121 141.512C112.94 141.928 112.849 142.413 112.849 142.968V143.064C112.849 143.683 112.945 144.205 113.137 144.632C113.34 145.048 113.633 145.363 114.017 145.576C114.401 145.789 114.876 145.896 115.441 145.896C115.889 145.896 116.326 145.827 116.753 145.688C117.19 145.539 117.601 145.309 117.985 145L118.465 146.12C118.113 146.44 117.66 146.691 117.105 146.872C116.55 147.053 115.99 147.144 115.425 147.144ZM122.899 147.144C122.045 147.144 121.405 146.904 120.979 146.424C120.563 145.933 120.355 145.229 120.355 144.312V135.72H121.971V144.216C121.971 144.557 122.019 144.851 122.115 145.096C122.211 145.331 122.355 145.507 122.547 145.624C122.739 145.741 122.979 145.8 123.267 145.8C123.395 145.8 123.517 145.795 123.635 145.784C123.752 145.773 123.864 145.752 123.971 145.72L123.939 147.016C123.757 147.059 123.581 147.091 123.411 147.112C123.24 147.133 123.069 147.144 122.899 147.144ZM127.741 147.144C127.197 147.144 126.707 147.037 126.269 146.824C125.843 146.611 125.507 146.323 125.261 145.96C125.016 145.597 124.893 145.187 124.893 144.728C124.893 144.152 125.037 143.699 125.325 143.368C125.624 143.027 126.109 142.787 126.781 142.648C127.464 142.499 128.381 142.424 129.533 142.424H130.285V143.416H129.549C128.973 143.416 128.488 143.437 128.093 143.48C127.699 143.523 127.384 143.592 127.149 143.688C126.915 143.773 126.744 143.896 126.637 144.056C126.541 144.216 126.493 144.408 126.493 144.632C126.493 145.037 126.632 145.368 126.909 145.624C127.187 145.869 127.571 145.992 128.061 145.992C128.456 145.992 128.803 145.901 129.101 145.72C129.4 145.528 129.635 145.272 129.805 144.952C129.987 144.632 130.077 144.264 130.077 143.848V142.008C130.077 141.4 129.949 140.963 129.693 140.696C129.437 140.429 129.016 140.296 128.429 140.296C127.981 140.296 127.533 140.365 127.085 140.504C126.637 140.632 126.179 140.84 125.709 141.128L125.213 139.992C125.491 139.8 125.811 139.635 126.173 139.496C126.536 139.357 126.915 139.251 127.309 139.176C127.715 139.091 128.104 139.048 128.477 139.048C129.192 139.048 129.779 139.16 130.237 139.384C130.707 139.608 131.053 139.949 131.277 140.408C131.501 140.867 131.613 141.459 131.613 142.184V147H130.093V145.256H130.237C130.152 145.651 129.992 145.992 129.757 146.28C129.533 146.557 129.251 146.771 128.909 146.92C128.568 147.069 128.179 147.144 127.741 147.144ZM133.839 147V139.192H135.407V140.856H135.231C135.466 140.259 135.834 139.811 136.335 139.512C136.836 139.203 137.412 139.048 138.063 139.048C138.682 139.048 139.194 139.165 139.599 139.4C140.015 139.624 140.324 139.971 140.527 140.44C140.73 140.899 140.831 141.48 140.831 142.184V147H139.215V142.28C139.215 141.832 139.156 141.469 139.039 141.192C138.922 140.904 138.746 140.691 138.511 140.552C138.276 140.413 137.972 140.344 137.599 140.344C137.172 140.344 136.794 140.435 136.463 140.616C136.143 140.797 135.892 141.059 135.711 141.4C135.54 141.741 135.455 142.136 135.455 142.584V147H133.839ZM142.978 137.384V135.704H144.866V137.384H142.978ZM141.154 150.088L141.042 148.872L141.746 148.808C142.205 148.755 142.546 148.595 142.77 148.328C142.994 148.072 143.106 147.688 143.106 147.176V139.192H144.722V147C144.722 147.491 144.663 147.917 144.546 148.28C144.439 148.643 144.269 148.947 144.034 149.192C143.81 149.448 143.517 149.645 143.154 149.784C142.791 149.923 142.354 150.008 141.842 150.04L141.154 150.088ZM149.779 147.144C149.15 147.144 148.622 147.027 148.195 146.792C147.779 146.557 147.465 146.211 147.251 145.752C147.049 145.283 146.947 144.696 146.947 143.992V139.192H148.563V144.008C148.563 144.424 148.617 144.771 148.723 145.048C148.841 145.325 149.017 145.528 149.251 145.656C149.497 145.784 149.801 145.848 150.163 145.848C150.569 145.848 150.926 145.757 151.235 145.576C151.545 145.395 151.785 145.133 151.955 144.792C152.126 144.451 152.211 144.056 152.211 143.608V139.192H153.827V147H152.259V145.288H152.467C152.254 145.885 151.913 146.344 151.443 146.664C150.974 146.984 150.419 147.144 149.779 147.144ZM159.433 147.144C158.462 147.144 157.731 146.893 157.241 146.392C156.761 145.891 156.521 145.165 156.521 144.216V140.44H155.001V139.192H156.521V136.84H158.137V139.192H160.553V140.44H158.137V144.088C158.137 144.653 158.254 145.08 158.489 145.368C158.734 145.656 159.129 145.8 159.673 145.8C159.833 145.8 159.993 145.779 160.153 145.736C160.323 145.693 160.489 145.651 160.649 145.608L160.905 146.824C160.745 146.92 160.521 146.995 160.233 147.048C159.955 147.112 159.689 147.144 159.433 147.144ZM164.445 147.144C163.901 147.144 163.41 147.037 162.973 146.824C162.546 146.611 162.21 146.323 161.965 145.96C161.719 145.597 161.597 145.187 161.597 144.728C161.597 144.152 161.741 143.699 162.029 143.368C162.327 143.027 162.813 142.787 163.485 142.648C164.167 142.499 165.085 142.424 166.237 142.424H166.989V143.416H166.253C165.677 143.416 165.191 143.437 164.797 143.48C164.402 143.523 164.087 143.592 163.853 143.688C163.618 143.773 163.447 143.896 163.341 144.056C163.245 144.216 163.197 144.408 163.197 144.632C163.197 145.037 163.335 145.368 163.613 145.624C163.89 145.869 164.274 145.992 164.765 145.992C165.159 145.992 165.506 145.901 165.805 145.72C166.103 145.528 166.338 145.272 166.509 144.952C166.69 144.632 166.781 144.264 166.781 143.848V142.008C166.781 141.4 166.653 140.963 166.397 140.696C166.141 140.429 165.719 140.296 165.133 140.296C164.685 140.296 164.237 140.365 163.789 140.504C163.341 140.632 162.882 140.84 162.413 141.128L161.917 139.992C162.194 139.8 162.514 139.635 162.877 139.496C163.239 139.357 163.618 139.251 164.013 139.176C164.418 139.091 164.807 139.048 165.181 139.048C165.895 139.048 166.482 139.16 166.941 139.384C167.41 139.608 167.757 139.949 167.981 140.408C168.205 140.867 168.317 141.459 168.317 142.184V147H166.797V145.256H166.941C166.855 145.651 166.695 145.992 166.461 146.28C166.237 146.557 165.954 146.771 165.613 146.92C165.271 147.069 164.882 147.144 164.445 147.144ZM170.542 147V139.192H172.11V140.856H171.934C172.169 140.259 172.537 139.811 173.038 139.512C173.54 139.203 174.116 139.048 174.766 139.048C175.385 139.048 175.897 139.165 176.302 139.4C176.718 139.624 177.028 139.971 177.23 140.44C177.433 140.899 177.534 141.48 177.534 142.184V147H175.918V142.28C175.918 141.832 175.86 141.469 175.742 141.192C175.625 140.904 175.449 140.691 175.214 140.552C174.98 140.413 174.676 140.344 174.302 140.344C173.876 140.344 173.497 140.435 173.166 140.616C172.846 140.797 172.596 141.059 172.414 141.4C172.244 141.741 172.158 142.136 172.158 142.584V147H170.542ZM180.033 143.88L179.521 135.72H181.521L181.025 143.88H180.033ZM179.569 147V145.096H181.473V147H179.569Z" fill="#2E3032"/>
</g>
<defs>
<clipPath id="clip0_12517_34771">
<rect width="410" height="205" rx="12" fill="white"/>
</clipPath>
</defs>
</svg>
