<svg width="410" height="205" viewBox="0 0 410 205" fill="none" xmlns="http://www.w3.org/2000/svg">
<g clip-path="url(#clip0_12009_21916)">
<rect width="410" height="205" rx="12" fill="#FFFAF1"/>
<path d="M-46.0572 169.955H195.969V170.09H-46.0572V169.955Z" fill="#EBEBEB"/>
<path d="M112.121 173.415H123.342V173.55H112.121V173.415Z" fill="#EBEBEB"/>
<path d="M-26.0997 176.321H1.33154V176.456H-26.0997V176.321Z" fill="#EBEBEB"/>
<path d="M147.859 176.321H175.291V176.456H147.859V176.321Z" fill="#EBEBEB"/>
<path d="M148.193 33.3136H107.872C107.466 33.3129 107.064 33.4019 106.689 33.5755C106.314 33.7491 105.973 34.0039 105.686 34.3253C105.4 34.6467 105.172 35.0284 105.017 35.4484C104.862 35.8685 104.783 36.3187 104.783 36.7732V169.831H151.252V36.7678C151.251 35.8568 150.929 34.9831 150.357 34.3364C149.784 33.6897 149.006 33.3222 148.193 33.3136Z" fill="#F5F5F5"/>
<path d="M141.426 41.377H147.419V56.3214H141.426V41.377Z" fill="#EBEBEB"/>
<path d="M108.656 41.377H114.648V56.3214H108.656V41.377Z" fill="#EBEBEB"/>
<path d="M130.506 41.377H136.499V56.3214H130.506V41.377Z" fill="#EBEBEB"/>
<path d="M119.581 41.377H125.573V56.3214H119.581V41.377Z" fill="#EBEBEB"/>
<path d="M141.426 64.9702H147.419V79.9146H141.426V64.9702Z" fill="#EBEBEB"/>
<path d="M108.656 64.9702H114.648V79.9146H108.656V64.9702Z" fill="#EBEBEB"/>
<path d="M130.506 64.9702H136.499V79.9146H130.506V64.9702Z" fill="#EBEBEB"/>
<path d="M119.581 64.9702H125.573V79.9146H119.581V64.9702Z" fill="#EBEBEB"/>
<path d="M141.426 88.5582H147.419V103.503H141.426V88.5582Z" fill="#EBEBEB"/>
<path d="M108.656 88.5582H114.648V103.503H108.656V88.5582Z" fill="#EBEBEB"/>
<path d="M130.506 88.5582H136.499V103.503H130.506V88.5582Z" fill="#EBEBEB"/>
<path d="M119.581 88.5582H125.573V103.503H119.581V88.5582Z" fill="#EBEBEB"/>
<path d="M141.426 112.151H147.419V127.096H141.426V112.151Z" fill="#EBEBEB"/>
<path d="M108.656 112.151H114.648V127.096H108.656V112.151Z" fill="#EBEBEB"/>
<path d="M130.506 112.151H136.499V127.096H130.506V112.151Z" fill="#EBEBEB"/>
<path d="M119.581 112.151H125.573V127.096H119.581V112.151Z" fill="#EBEBEB"/>
<path d="M141.426 135.739H147.419V150.684H141.426V135.739Z" fill="#EBEBEB"/>
<path d="M108.656 135.739H114.648V150.684H108.656V135.739Z" fill="#EBEBEB"/>
<path d="M130.506 135.739H136.499V150.684H130.506V135.739Z" fill="#EBEBEB"/>
<path d="M119.581 135.739H125.573V150.684H119.581V135.739Z" fill="#EBEBEB"/>
<path d="M5.28138 45.7149H-23.5875C-24.2534 45.7163 -24.8917 46.0133 -25.3626 46.5407C-25.8334 47.0682 -26.0985 47.7832 -26.0998 48.5292V169.831H7.78394V48.5346C7.78395 47.7896 7.52075 47.0748 7.05184 46.5465C6.58294 46.0181 5.94643 45.7192 5.28138 45.7149Z" fill="#F5F5F5"/>
<path d="M-1.96952 53.0516H3.47607V66.635H-1.96952V53.0516Z" fill="#EBEBEB"/>
<path d="M-1.96952 74.4976H3.47607V88.0809H-1.96952V74.4976Z" fill="#EBEBEB"/>
<path d="M-1.96952 95.9491H3.47607V109.532H-1.96952V95.9491Z" fill="#EBEBEB"/>
<path d="M-1.96952 117.39H3.47607V130.973H-1.96952V117.39Z" fill="#EBEBEB"/>
<path d="M-1.96952 138.841H3.47607V152.424H-1.96952V138.841Z" fill="#EBEBEB"/>
<path d="M71.4176 11H24.5225C23.5699 11 22.6564 11.4239 21.9828 12.1785C21.3092 12.933 20.9308 13.9564 20.9308 15.0235V169.831H75.0044V15.0235C75.0044 13.9574 74.6266 12.9348 73.9541 12.1804C73.2816 11.426 72.3693 11.0015 71.4176 11Z" fill="#F5F5F5"/>
<path d="M63.547 20.3863H70.5173V37.7709H63.547V20.3863Z" fill="#EBEBEB"/>
<path d="M25.423 20.3863H32.3933V37.7709H25.423V20.3863Z" fill="#EBEBEB"/>
<path d="M50.8404 20.3863H57.8108V37.7709H50.8404V20.3863Z" fill="#EBEBEB"/>
<path d="M38.1293 20.3863H45.0996V37.7709H38.1293V20.3863Z" fill="#EBEBEB"/>
<path d="M63.547 47.8351H70.5173V65.2197H63.547V47.8351Z" fill="#EBEBEB"/>
<path d="M25.423 47.8351H32.3933V65.2197H25.423V47.8351Z" fill="#EBEBEB"/>
<path d="M50.8404 47.8351H57.8108V65.2197H50.8404V47.8351Z" fill="#EBEBEB"/>
<path d="M38.1293 47.8351H45.0996V65.2197H38.1293V47.8351Z" fill="#EBEBEB"/>
<path d="M63.547 75.2838H70.5173V92.6684H63.547V75.2838Z" fill="#EBEBEB"/>
<path d="M25.423 75.2838H32.3933V92.6684H25.423V75.2838Z" fill="#EBEBEB"/>
<path d="M50.8404 75.2838H57.8108V92.6684H50.8404V75.2838Z" fill="#EBEBEB"/>
<path d="M38.1293 75.2838H45.0996V92.6684H38.1293V75.2838Z" fill="#EBEBEB"/>
<path d="M63.547 102.727H70.5173V120.112H63.547V102.727Z" fill="#EBEBEB"/>
<path d="M25.423 102.727H32.3933V120.112H25.423V102.727Z" fill="#EBEBEB"/>
<path d="M50.8404 102.727H57.8108V120.112H50.8404V102.727Z" fill="#EBEBEB"/>
<path d="M38.1293 102.727H45.0996V120.112H38.1293V102.727Z" fill="#EBEBEB"/>
<path d="M63.547 130.17H70.5173V147.555H63.547V130.17Z" fill="#EBEBEB"/>
<path d="M25.423 130.17H32.3933V147.555H25.423V130.17Z" fill="#EBEBEB"/>
<path d="M50.8404 130.17H57.8108V147.555H50.8404V130.17Z" fill="#EBEBEB"/>
<path d="M38.1293 130.17H45.0996V147.555H38.1293V130.17Z" fill="#EBEBEB"/>
<path d="M75.0092 67.8876H104.798V169.836H75.0092V67.8876Z" fill="#E6E6E6"/>
<path d="M7.76463 78.8031H20.926V169.831H7.76463V78.8031Z" fill="#E6E6E6"/>
<path d="M151.281 169.831H177.353V127.269L151.281 117.39V169.831Z" fill="#E6E6E6"/>
<path d="M74.9561 194.443C23.1225 194.443 -18.8969 190.586 -18.8969 185.827C-18.8969 181.068 23.1225 177.211 74.9561 177.211C126.79 177.211 168.809 181.068 168.809 185.827C168.809 190.586 126.79 194.443 74.9561 194.443Z" fill="#F5F5F5"/>
<path d="M51.8764 151.801H60.1053C64.3891 151.801 67.8501 158.758 67.8501 167.342C67.8501 175.926 64.3794 182.877 60.1053 182.877H51.8764C47.5925 182.877 44.1315 175.92 44.1315 167.342C44.1315 158.763 47.5925 151.801 51.8764 151.801Z" fill="#263238"/>
<mask id="mask0_12009_21916" style="mask-type:luminance" maskUnits="userSpaceOnUse" x="44" y="151" width="24" height="32">
<path d="M51.8764 151.801H60.1053C64.3891 151.801 67.8501 158.758 67.8501 167.342C67.8501 175.926 64.3794 182.877 60.1053 182.877H51.8764C47.5925 182.877 44.1315 175.92 44.1315 167.342C44.1315 158.763 47.5925 151.801 51.8764 151.801Z" fill="white"/>
</mask>
<g mask="url(#mask0_12009_21916)">
<path opacity="0.05" d="M42.1954 151.801H50.4243C54.7082 151.801 58.1692 158.758 58.1692 167.342C58.1692 175.926 54.6985 182.877 50.4243 182.877H42.1954C37.9116 182.877 34.4506 175.92 34.4506 167.342C34.4506 158.763 37.9116 151.801 42.1954 151.801Z" fill="white"/>
</g>
<path d="M-14.7825 155.13L129.315 155.016V51.9074H-14.7825V155.13Z" fill="#FFFAF1"/>
<path opacity="0.3" d="M-14.7824 51.9074H82.8801V155.125H-14.7824V51.9074Z" fill="#263238"/>
<path opacity="0.2" d="M82.88 51.9074H129.315V157.164H82.88V51.9074Z" fill="white"/>
<path opacity="0.1" d="M128.967 56.7009H-14.7824" stroke="white" stroke-width="2" stroke-linecap="round" stroke-linejoin="round"/>
<path opacity="0.1" d="M128.967 61.1636H-14.7824" stroke="white" stroke-width="2" stroke-linecap="round" stroke-linejoin="round"/>
<path opacity="0.1" d="M128.967 65.621H-14.7824" stroke="white" stroke-width="2" stroke-linecap="round" stroke-linejoin="round"/>
<path opacity="0.1" d="M128.967 70.0782H-14.7824" stroke="white" stroke-width="2" stroke-linecap="round" stroke-linejoin="round"/>
<path opacity="0.1" d="M128.967 74.5409H-14.7824" stroke="white" stroke-width="2" stroke-linecap="round" stroke-linejoin="round"/>
<path opacity="0.1" d="M128.967 78.9983H-14.7824" stroke="white" stroke-width="2" stroke-linecap="round" stroke-linejoin="round"/>
<path opacity="0.1" d="M128.967 83.4556H-14.7824" stroke="white" stroke-width="2" stroke-linecap="round" stroke-linejoin="round"/>
<path opacity="0.1" d="M128.967 87.9129H-14.7824" stroke="white" stroke-width="2" stroke-linecap="round" stroke-linejoin="round"/>
<path opacity="0.1" d="M128.967 92.3756H-14.7824" stroke="white" stroke-width="2" stroke-linecap="round" stroke-linejoin="round"/>
<path opacity="0.1" d="M128.967 96.833H-14.7824" stroke="white" stroke-width="2" stroke-linecap="round" stroke-linejoin="round"/>
<path opacity="0.1" d="M128.967 101.29H-14.7824" stroke="white" stroke-width="2" stroke-linecap="round" stroke-linejoin="round"/>
<path opacity="0.1" d="M128.967 105.753H-14.7824" stroke="white" stroke-width="2" stroke-linecap="round" stroke-linejoin="round"/>
<path opacity="0.1" d="M128.967 110.21H-14.7824" stroke="white" stroke-width="2" stroke-linecap="round" stroke-linejoin="round"/>
<path opacity="0.1" d="M128.967 114.668H-14.7824" stroke="white" stroke-width="2" stroke-linecap="round" stroke-linejoin="round"/>
<path opacity="0.1" d="M128.967 119.125H-14.7824" stroke="white" stroke-width="2" stroke-linecap="round" stroke-linejoin="round"/>
<path opacity="0.1" d="M128.967 123.588H-14.7824" stroke="white" stroke-width="2" stroke-linecap="round" stroke-linejoin="round"/>
<path opacity="0.1" d="M128.967 128.045H-14.7824" stroke="white" stroke-width="2" stroke-linecap="round" stroke-linejoin="round"/>
<path opacity="0.1" d="M128.967 132.502H-14.7824" stroke="white" stroke-width="2" stroke-linecap="round" stroke-linejoin="round"/>
<path opacity="0.1" d="M128.967 136.965H-14.7824" stroke="white" stroke-width="2" stroke-linecap="round" stroke-linejoin="round"/>
<path opacity="0.1" d="M128.967 141.422H-14.7824" stroke="white" stroke-width="2" stroke-linecap="round" stroke-linejoin="round"/>
<path opacity="0.1" d="M128.967 145.88H-14.7824" stroke="white" stroke-width="2" stroke-linecap="round" stroke-linejoin="round"/>
<path opacity="0.1" d="M128.967 150.342H-14.7824" stroke="white" stroke-width="2" stroke-linecap="round" stroke-linejoin="round"/>
<path d="M155.759 153.829H163.373C167.342 153.829 170.556 160.271 170.556 168.22C170.556 176.17 167.342 182.606 163.373 182.606H155.759C151.79 182.606 148.576 176.164 148.576 168.22C148.576 160.276 151.79 153.829 155.759 153.829Z" fill="#263238"/>
<path opacity="0.05" d="M146.073 153.829H153.692C157.661 153.829 160.875 160.271 160.875 168.22C160.875 176.17 157.661 182.606 153.692 182.606H146.073C142.109 182.606 138.89 176.164 138.89 168.22C138.89 160.276 142.109 153.829 146.073 153.829Z" fill="white"/>
<path d="M159.995 125.724H163.596C164.303 125.751 164.884 124.905 164.898 123.832C164.908 123.72 164.908 123.607 164.898 123.495L163.93 111.311C163.809 110.058 163.117 109.142 162.284 109.082H158.649C157.947 109.082 157.366 109.912 157.352 110.986C157.352 111.094 157.352 111.202 157.352 111.311L158.32 123.495C158.465 124.732 159.181 125.691 159.995 125.724Z" fill="#263238"/>
<path d="M156.393 85.4782L163.339 127.443L87.7158 160.629L88.2434 77.9246L104.875 77.3824H150.435C153.174 77.3552 155.59 80.6521 156.393 85.4782Z" fill="#E0B464"/>
<path d="M100.127 92.2292C102.949 92.0882 105.48 94.6801 106.308 98.5464L112.03 125.399H123.042L123.642 160.824H87.4204" fill="#FFFAF1"/>
<path d="M155.309 123.143C156.417 123.143 157.313 121.549 157.313 119.586C157.313 119.244 157.284 118.902 157.226 118.566L153.068 93.9265C152.719 91.8822 151.654 90.4832 150.449 90.4886H110.669C110.239 90.4886 109.885 91.1068 109.885 91.8768C109.884 92.0133 109.896 92.1495 109.919 92.2835C110.79 97.3589 113.622 114.174 114.706 120.605C114.958 122.113 115.742 123.143 116.643 123.143H155.309Z" fill="#263238"/>
<path d="M118.705 134.064C118.706 134.496 118.733 134.927 118.787 135.354L118.995 136.943L119.116 137.881L120.007 144.735L121.459 155.879L121.861 158.975H178.151V155.879L178.113 144.735L178.059 138.071V135.36C178.543 131.781 176.999 128.311 174.647 127.589C174.371 127.505 174.086 127.463 173.8 127.465H123.042C120.646 127.443 118.705 130.415 118.705 134.064Z" fill="#E0B464"/>
<path d="M90.0924 93.8234V120.236C90.0924 121.836 90.8233 123.137 91.7285 123.143H105.485C106.39 123.143 107.121 121.841 107.121 120.236C107.122 119.975 107.102 119.714 107.063 119.456L102.823 92.4515C102.62 91.1555 101.942 90.2825 101.187 90.3313L91.6704 90.9169C90.7894 90.9766 90.0924 92.2617 90.0924 93.8234Z" fill="#263238"/>
<path opacity="0.1" d="M132.103 90.4886H139.703L148.43 123.143H140.826L132.103 90.4886Z" fill="white"/>
<path opacity="0.1" d="M126.188 90.4886H129.819L138.541 123.143H134.916L126.188 90.4886Z" fill="white"/>
<path d="M104.12 144.735V155.879H178.142L178.103 144.735H104.12Z" fill="black"/>
<path d="M114.431 144.735H121.275L133.584 152.837V155.879H104.12V144.735H114.431Z" fill="white"/>
<path d="M165.382 152.837V155.879H178.142L178.103 144.735H177.687L165.382 152.837Z" fill="white"/>
<path opacity="0.3" d="M87.6819 160.824L88.2434 77.9247L98.4086 77.3824C100.945 77.2414 103.874 80.5437 104.614 84.372L111.981 127.443H114.852C118.076 127.443 120.283 130.073 120.278 132.866L120.234 160.835H87.6819" fill="#263238"/>
<path d="M118.894 137.334C118.895 137.436 118.915 137.538 118.953 137.631C118.992 137.725 119.047 137.808 119.116 137.876C119.235 137.999 119.39 138.067 119.552 138.066H178.059V136.591H119.537C119.426 136.591 119.316 136.623 119.219 136.684C119.122 136.745 119.04 136.832 118.981 136.938C118.919 137.058 118.889 137.195 118.894 137.334Z" fill="white"/>
<path d="M167.739 136.596V138.071H178.079L178.074 136.596H167.739Z" fill="#263238"/>
<path d="M118.894 137.334C118.895 137.436 118.915 137.538 118.953 137.631C118.992 137.725 119.047 137.808 119.116 137.876C119.235 137.999 119.39 138.067 119.552 138.066H133.744V136.591H119.552C119.441 136.591 119.331 136.623 119.234 136.684C119.136 136.745 119.054 136.832 118.995 136.938C118.929 137.056 118.894 137.194 118.894 137.334Z" fill="#263238"/>
<path d="M-17.3673 157.809V158.102C-17.3673 158.821 -17.1123 159.511 -16.6584 160.019C-16.2045 160.528 -15.5889 160.813 -14.9471 160.813H177.319C177.961 160.813 178.576 160.528 179.03 160.019C179.484 159.511 179.739 158.821 179.739 158.102V157.809C179.739 157.09 179.484 156.4 179.03 155.892C178.576 155.383 177.961 155.098 177.319 155.098H-14.9471C-15.5889 155.098 -16.2045 155.383 -16.6584 155.892C-17.1123 156.4 -17.3673 157.09 -17.3673 157.809Z" fill="#263238"/>
<path d="M134.683 157.326H163.339V158.894H134.683V157.326Z" fill="black"/>
<path d="M170.963 158.107C170.963 158.284 171.01 158.457 171.097 158.604C171.185 158.751 171.309 158.865 171.455 158.933C171.601 159.001 171.761 159.019 171.916 158.985C172.071 158.951 172.213 158.866 172.325 158.742C172.437 158.617 172.513 158.458 172.545 158.285C172.576 158.112 172.561 157.932 172.501 157.769C172.441 157.605 172.34 157.465 172.209 157.366C172.078 157.267 171.924 157.214 171.767 157.212C171.661 157.212 171.557 157.234 171.46 157.279C171.362 157.324 171.273 157.389 171.199 157.473C171.124 157.556 171.065 157.655 171.024 157.764C170.984 157.872 170.963 157.989 170.963 158.107Z" fill="white"/>
<path d="M127.839 158.107C127.839 158.284 127.886 158.457 127.974 158.605C128.061 158.752 128.186 158.866 128.332 158.934C128.478 159.002 128.638 159.019 128.793 158.985C128.948 158.95 129.091 158.865 129.202 158.74C129.314 158.615 129.39 158.456 129.421 158.282C129.452 158.108 129.436 157.929 129.375 157.765C129.315 157.602 129.213 157.462 129.081 157.363C128.95 157.265 128.796 157.213 128.638 157.213C128.533 157.213 128.429 157.236 128.332 157.281C128.235 157.326 128.147 157.392 128.073 157.475C127.999 157.558 127.94 157.656 127.9 157.765C127.86 157.874 127.839 157.99 127.839 158.107Z" fill="white"/>
<path d="M104.682 166.989C104.682 158.362 101.192 151.367 96.8837 151.367H105.156C109.459 151.367 112.949 158.362 112.949 166.989C112.949 175.617 109.459 182.606 105.156 182.606H96.8837C101.192 182.622 104.682 175.633 104.682 166.989Z" fill="black"/>
<path opacity="0.7" d="M104.682 166.989C104.682 158.362 101.192 151.367 96.8837 151.367H105.156C109.459 151.367 112.949 158.362 112.949 166.989C112.949 175.617 109.459 182.606 105.156 182.606H96.8837C101.192 182.622 104.682 175.633 104.682 166.989Z" fill="#263238"/>
<path d="M96.8838 182.628C92.577 182.628 89.0857 175.634 89.0857 167.006C89.0857 158.378 92.577 151.383 96.8838 151.383C101.191 151.383 104.682 158.378 104.682 167.006C104.682 175.634 101.191 182.628 96.8838 182.628Z" fill="#263238"/>
<path d="M96.2592 179.185C93.2063 179.185 90.7313 173.732 90.7313 167.006C90.7313 160.279 93.2063 154.827 96.2592 154.827C99.3122 154.827 101.787 160.279 101.787 167.006C101.787 173.732 99.3122 179.185 96.2592 179.185Z" fill="white"/>
<path d="M96.7625 177.547C93.8406 177.547 91.4718 172.827 91.4718 167.005C91.4718 161.184 93.8406 156.464 96.7625 156.464C99.6845 156.464 102.053 161.184 102.053 167.005C102.053 172.827 99.6845 177.547 96.7625 177.547Z" fill="#263238"/>
<path d="M97.9244 174.7C95.791 174.7 94.0616 171.255 94.0616 167.006C94.0616 162.756 95.791 159.311 97.9244 159.311C100.058 159.311 101.787 162.756 101.787 167.006C101.787 171.255 100.058 174.7 97.9244 174.7Z" fill="black"/>
<path opacity="0.5" d="M-17.3672 157.809V158.102C-17.3672 158.821 -17.1122 159.511 -16.6583 160.019C-16.2044 160.528 -15.5888 160.813 -14.9469 160.813H82.8801V155.098H-14.9469C-15.5888 155.098 -16.2044 155.383 -16.6583 155.892C-17.1122 156.4 -17.3672 157.09 -17.3672 157.809Z" fill="black"/>
<path d="M13.0361 166.989C13.0361 158.362 9.54611 151.367 5.24287 151.367H13.5105C17.8186 151.367 21.3086 158.362 21.3086 166.989C21.3086 175.617 17.8186 182.606 13.5105 182.606H5.25255C9.5461 182.622 13.0361 175.633 13.0361 166.989Z" fill="black"/>
<path opacity="0.7" d="M13.0361 166.989C13.0361 158.362 9.54611 151.367 5.24287 151.367H13.5105C17.8186 151.367 21.3086 158.362 21.3086 166.989C21.3086 175.617 17.8186 182.606 13.5105 182.606H5.25255C9.5461 182.622 13.0361 175.633 13.0361 166.989Z" fill="#263238"/>
<path d="M5.24269 182.628C0.935922 182.628 -2.55541 175.634 -2.55541 167.006C-2.55541 158.378 0.935922 151.383 5.24269 151.383C9.54945 151.383 13.0408 158.378 13.0408 167.006C13.0408 175.634 9.54945 182.628 5.24269 182.628Z" fill="#263238"/>
<path d="M4.61347 179.185C1.5605 179.185 -0.91441 173.732 -0.91441 167.006C-0.91441 160.279 1.5605 154.827 4.61347 154.827C7.66643 154.827 10.1414 160.279 10.1414 167.006C10.1414 173.732 7.66643 179.185 4.61347 179.185Z" fill="white"/>
<path d="M5.12166 177.547C2.19969 177.547 -0.16905 172.827 -0.16905 167.005C-0.16905 161.184 2.19969 156.464 5.12166 156.464C8.04363 156.464 10.4124 161.184 10.4124 167.005C10.4124 172.827 8.04363 177.547 5.12166 177.547Z" fill="#263238"/>
<path d="M6.28351 174.7C4.15018 174.7 2.42076 171.255 2.42076 167.006C2.42076 162.756 4.15018 159.311 6.28351 159.311C8.41684 159.311 10.1462 162.756 10.1462 167.006C10.1462 171.255 8.41684 174.7 6.28351 174.7Z" fill="black"/>
<path d="M36.7835 90.5697C36.8803 92.6574 37.0497 94.6746 37.3256 96.7297C37.5641 98.8524 37.9789 100.946 38.5648 102.982C38.7497 103.575 38.9813 104.148 39.257 104.695C39.449 105.064 39.6833 105.403 39.954 105.704L40.0896 105.845L40.167 105.91L40.2058 105.948L40.3703 106.073L40.6946 106.328C41.5168 106.919 42.3814 107.432 43.2795 107.862C44.984 108.701 46.7554 109.359 48.5702 109.825L49.1995 107.895C47.6602 106.94 46.0822 105.964 44.6445 104.95C43.9418 104.467 43.2661 103.937 42.6212 103.361L42.4082 103.161L42.3017 103.058C42.3017 103.058 42.2581 102.976 42.2049 102.846C42.0635 102.496 41.947 102.133 41.8564 101.762C41.6376 100.87 41.4646 99.9647 41.3384 99.0505C41.1884 98.107 41.0674 97.1472 40.9657 96.1712C40.7673 94.2354 40.5978 92.2507 40.4817 90.3203L36.7835 90.5697Z" fill="#FFBE9D"/>
<path d="M48.0523 107.922L51.0244 106.892L50.4678 110.921C50.4678 110.921 48.5315 110.649 47.5634 109.435L48.0523 107.922Z" fill="#FFBE9D"/>
<path d="M54.6258 109.484L54.4612 110.026C54.3683 110.325 54.1911 110.583 53.9563 110.76C53.7215 110.937 53.4418 111.024 53.1591 111.007L51.644 110.931L52.2055 106.892L53.8707 107.624C54.1866 107.765 54.4416 108.037 54.5823 108.383C54.7231 108.73 54.7386 109.124 54.6258 109.484Z" fill="#FFBE9D"/>
<path d="M33.2693 86.6601C33.2693 87.9182 33.8114 90.4017 34.2761 92.267C34.6198 93.6064 34.9054 94.6258 34.9054 94.6258L35.5879 94.436L41.2126 92.8418C41.2997 89.5883 41.1884 86.0474 38.3083 83.9218C36.5076 82.5878 33.2838 84.4206 33.2693 86.6601Z" fill="#263238"/>
<path opacity="0.3" d="M33.2742 86.877C33.6421 86.4432 34.4746 86.3673 36.2898 87.0126C38.8892 87.9344 39.6153 91.1228 39.6492 93.2864L35.588 94.436L35.2395 94.539L34.9055 94.6258C34.9055 94.6258 34.7651 94.1161 34.5618 93.3407C34.4795 93.0261 34.3778 92.6574 34.281 92.2562C33.7965 90.5022 33.4595 88.7013 33.2742 86.877Z" fill="black"/>
<path d="M44.8139 187.888L48.2458 186.543L46.087 178.214L42.6599 179.564L44.8139 187.888Z" fill="#FFBE9D"/>
<path d="M-1.04041 178.018L1.75257 180.35L7.46924 173.859L4.67626 171.528L-1.04041 178.018Z" fill="#FFBE9D"/>
<path d="M2.89512 179.401L-0.120538 176.609C-0.171591 176.559 -0.236903 176.532 -0.304481 176.532C-0.372058 176.532 -0.437355 176.559 -0.488408 176.609L-2.8022 178.962C-2.85415 179.02 -2.89537 179.089 -2.9235 179.165C-2.95164 179.241 -2.96612 179.322 -2.96612 179.404C-2.96612 179.486 -2.95164 179.568 -2.9235 179.643C-2.89537 179.719 -2.85415 179.788 -2.8022 179.846L-2.75379 179.895C-1.68887 180.849 -1.12737 181.25 0.198938 182.476C1.01215 183.23 2.72086 185.035 3.8487 186.076C4.97654 187.118 5.95433 185.93 5.56708 185.382C3.83901 182.931 3.43725 181.316 3.23394 179.992C3.18516 179.758 3.06547 179.549 2.89512 179.401Z" fill="#263238"/>
<path d="M48.4783 185.339L44.664 187.123C44.596 187.156 44.5394 187.213 44.5027 187.286C44.4661 187.358 44.4513 187.442 44.4607 187.524L44.8915 191.293C44.9084 191.444 44.978 191.581 45.0851 191.675C45.1922 191.768 45.3279 191.81 45.4627 191.792C45.5128 191.786 45.5618 191.771 45.6079 191.748C46.9584 191.136 47.5925 190.832 49.2673 190.046L54.408 187.633C55.802 186.977 55.5019 185.263 54.892 185.388C52.07 185.963 50.25 185.773 49.1366 185.301C49.0301 185.258 48.9171 185.24 48.8041 185.246C48.6911 185.253 48.5804 185.284 48.4783 185.339Z" fill="#263238"/>
<path opacity="0.2" d="M46.0871 178.219L47.1956 182.508L43.8556 184.2L42.6551 179.564L46.0871 178.219Z" fill="black"/>
<path opacity="0.2" d="M4.67141 171.528L7.46924 173.859L4.52136 177.205L1.72838 174.873L4.67141 171.528Z" fill="black"/>
<path d="M22.7169 107.016L36.8512 107.244C38.7874 94.9837 39.2715 89.1328 39.2715 86.3185C39.2739 85.6166 39.0577 84.9357 38.6601 84.3933C38.2624 83.8508 37.7083 83.4808 37.0932 83.347C36.2316 83.1572 35.157 82.9403 34.0776 82.7722C33.7097 82.718 33.337 82.6638 32.9691 82.6204C30.8345 82.4153 28.6895 82.3808 26.5506 82.5174C26.2311 82.5174 25.9164 82.5499 25.5824 82.5716C24.1303 82.6746 22.804 82.8807 21.8601 83.0433C21.5206 83.1046 21.2167 83.3144 21.0152 83.6265C20.8137 83.9387 20.7311 84.3277 20.7855 84.7081C20.7831 84.7351 20.7831 84.7623 20.7855 84.7894C21.2018 86.9584 21.5406 88.8834 21.8117 90.5969C22.2425 93.3081 22.5135 95.5205 22.6733 97.4509C22.9153 100.633 22.9299 103.832 22.7169 107.016Z" fill="#263238"/>
<path opacity="0.1" d="M22.6783 97.4672C23.3898 95.0759 23.3511 90.1143 22.5863 88.5092L21.807 90.6078C22.2475 93.3353 22.5185 95.5368 22.6783 97.4672Z" fill="black"/>
<path d="M36.8513 107.244C36.8513 107.244 39.2715 130.295 41.4546 144.659C43.1827 155.906 47.5488 179.314 47.5488 179.314L41.8806 181.565C41.8806 181.565 35.3894 157.164 34.2519 146.741C29.6776 131.716 26.386 107.13 26.386 107.13L36.8513 107.244Z" fill="#FFFAF1"/>
<path d="M48.4688 180.887L41.9098 183.474L41.0337 181.115L48.1493 178.067L48.4688 180.887Z" fill="#263238"/>
<path opacity="0.1" d="M29.6872 114.093L31.8073 118.642C32.5818 122.069 32.3979 130.409 31.4153 135.68C29.6533 127.736 28.2447 119.374 27.3686 113.762L29.6872 114.093Z" fill="black"/>
<path d="M33.7825 107.244C33.7825 107.244 31.2509 133.044 26.5217 147.371C24.1498 154.555 6.55449 175.855 6.55449 175.855L2.58525 172.298C2.58525 172.298 13.7427 150.808 18.6219 145.185C20.6114 132.714 18.1088 114.017 22.7315 107.022L33.7825 107.244Z" fill="#FFFAF1"/>
<path d="M6.2204 177.379L1.56382 173.106L2.82236 170.79L7.91943 175.763L6.2204 177.379Z" fill="#263238"/>
<path d="M22.4942 106.089L21.8407 107.493C21.7923 107.602 21.9037 107.721 22.0682 107.721L36.8996 107.96C37.0303 107.96 37.132 107.889 37.1465 107.803L37.2869 106.387C37.2869 106.29 37.1852 106.203 37.0497 106.203L22.7314 105.97C22.6862 105.967 22.641 105.976 22.5997 105.997C22.5584 106.018 22.5222 106.049 22.4942 106.089Z" fill="#263238"/>
<path d="M24.4161 107.922H24.024C23.9514 107.922 23.8933 107.873 23.8981 107.824L24.1063 105.981C24.1063 105.926 24.1741 105.888 24.2515 105.888H24.6145C24.692 105.888 24.7501 105.937 24.7404 105.986L24.5371 107.824C24.5613 107.868 24.4887 107.922 24.4161 107.922Z" fill="#FFFAF1"/>
<path d="M35.8349 108.095H35.4476C35.3702 108.095 35.3169 108.047 35.3218 107.992L35.5202 106.154C35.5202 106.1 35.5977 106.057 35.6751 106.057H36.0624C36.1398 106.057 36.1979 106.105 36.1931 106.16L35.9898 107.998C35.9801 108.052 35.9123 108.095 35.8349 108.095Z" fill="#FFFAF1"/>
<path d="M30.123 107.992H29.7357C29.6583 107.992 29.6002 107.944 29.605 107.889L29.8083 106.051C29.8083 105.991 29.8809 105.948 29.9584 105.954H30.3456C30.4231 105.954 30.4763 106.002 30.4763 106.057L30.273 107.895C30.2779 107.96 30.2004 107.992 30.123 107.992Z" fill="#FFFAF1"/>
<path d="M55.7681 91.0144L34.7892 87.788L31.8849 110.861L52.4862 114.028L55.7681 91.0144Z" fill="#FFFAF1"/>
<path opacity="0.8" d="M55.7681 91.0144L34.7892 87.788L31.8849 110.861L52.4862 114.028L55.7681 91.0144Z" fill="white"/>
<path opacity="0.2" d="M34.5013 86.674L40.1033 87.5614L37.0985 111.364L31.4965 110.477L34.5013 86.674Z" fill="#FFFAF1"/>
<path d="M28.8403 107.954L31.7446 106.68L31.459 110.747C31.459 110.747 29.5228 110.638 28.4821 109.505L28.8403 107.954Z" fill="#FFBE9D"/>
<path d="M19.7061 87.7067C18.9268 90.1469 18.254 92.587 17.6828 95.0814C17.3924 96.334 17.1213 97.592 16.9035 98.8771C16.797 99.5278 16.705 100.189 16.6372 100.878C16.5594 101.598 16.5319 102.323 16.555 103.047C16.5685 103.519 16.6335 103.987 16.7486 104.441C16.9076 104.999 17.1736 105.512 17.5279 105.943C18.0456 106.564 18.6609 107.073 19.3431 107.445C20.4602 108.052 21.6362 108.512 22.8476 108.817C25.1125 109.405 27.4221 109.752 29.7454 109.852L29.9729 107.808C28.9128 107.526 27.8285 107.211 26.7733 106.881C25.7181 106.55 24.6677 106.181 23.6608 105.769C22.6992 105.399 21.7719 104.925 20.8921 104.354C20.5724 104.144 20.2875 103.875 20.0498 103.557C19.9869 103.448 19.9869 103.421 19.9966 103.421C19.9869 103.26 19.9869 103.099 19.9966 102.939C20.0149 102.413 20.065 101.889 20.1466 101.371C20.2241 100.829 20.3306 100.222 20.4467 99.6254C20.6888 98.465 20.9598 97.2775 21.2648 96.0899C21.8698 93.7366 22.5524 91.3452 23.2349 89.0407L19.7061 87.7067Z" fill="#FFBE9D"/>
<path d="M34.4215 108.686L34.194 109.63C34.1257 109.933 33.971 110.203 33.7535 110.398C33.536 110.594 33.2675 110.705 32.9887 110.714L31.43 110.763L31.7156 106.702L33.3033 106.902C33.4718 106.921 33.6354 106.977 33.7846 107.067C33.9337 107.157 34.0656 107.279 34.1726 107.426C34.2797 107.573 34.3597 107.743 34.4082 107.924C34.4567 108.106 34.4727 108.297 34.4553 108.486C34.4482 108.553 34.4369 108.621 34.4215 108.686Z" fill="#FFBE9D"/>
<path d="M21.3569 83.1626C19.7304 83.9055 18.3993 89.8919 18.3993 89.8919L22.8913 93.8233C22.8913 93.8233 26.0764 88.2381 25.4277 85.8142C24.8759 83.7645 23.4286 82.2245 21.3569 83.1626Z" fill="#263238"/>
<path d="M3.99388 181.093H4.05197C4.13322 181.087 4.21175 181.058 4.28029 181.008C4.34882 180.959 4.40515 180.891 4.44405 180.811C4.47289 180.765 4.49034 180.711 4.49459 180.655C4.49884 180.599 4.48975 180.542 4.46826 180.491C4.2698 180.057 3.0161 179.884 2.88057 179.868C2.86452 179.864 2.84792 179.867 2.83314 179.874C2.81836 179.882 2.80615 179.895 2.79827 179.911C2.78912 179.926 2.78423 179.944 2.78423 179.963C2.78423 179.981 2.78912 179.999 2.79827 180.014C3.05966 180.41 3.56792 181.061 3.99388 181.093ZM3.04999 180.079C3.53404 180.16 4.21655 180.339 4.31336 180.578C4.32503 180.598 4.33124 180.622 4.33124 180.646C4.33124 180.67 4.32503 180.693 4.31336 180.714C4.29052 180.769 4.25455 180.817 4.20934 180.851C4.16412 180.886 4.11139 180.905 4.05681 180.909C3.81479 180.909 3.42754 180.616 3.0403 180.079H3.04999Z" fill="#263238"/>
<path d="M2.93856 180.041C3.35969 180.041 4.20194 179.873 4.39072 179.499C4.42078 179.434 4.43043 179.36 4.41814 179.288C4.40585 179.216 4.37231 179.151 4.32295 179.103C4.28028 179.05 4.22779 179.009 4.16921 178.982C4.11064 178.955 4.04745 178.942 3.98412 178.946C3.47586 178.946 2.83207 179.819 2.81271 179.868C2.8054 179.881 2.80152 179.896 2.80152 179.911C2.80152 179.926 2.8054 179.941 2.81271 179.954C2.81656 179.97 2.82464 179.985 2.83588 179.995C2.84712 180.006 2.86098 180.012 2.87563 180.014L2.93856 180.041ZM4.01316 179.141C4.08138 179.148 4.14495 179.183 4.19226 179.239C4.26487 179.325 4.25035 179.38 4.23099 179.423C4.11966 179.662 3.4565 179.857 3.03054 179.857C3.27325 179.515 3.6022 179.264 3.97443 179.136L4.01316 179.141Z" fill="#263238"/>
<path d="M50.4289 185.252C50.698 185.154 50.9331 184.964 51.1018 184.71C51.1401 184.635 51.1634 184.551 51.1701 184.465C51.1768 184.379 51.1667 184.292 51.1405 184.211C51.1272 184.164 51.1033 184.122 51.0711 184.089C51.0388 184.056 50.9993 184.032 50.9566 184.021C50.5112 183.929 49.4608 185.193 49.2575 185.447C49.248 185.463 49.2428 185.482 49.2428 185.502C49.2428 185.521 49.248 185.54 49.2575 185.556C49.2656 185.573 49.2786 185.587 49.2944 185.594C49.3102 185.602 49.3279 185.604 49.3447 185.599C49.7156 185.525 50.0789 185.409 50.4289 185.252ZM50.7629 184.233C50.8126 184.206 50.8678 184.195 50.9227 184.2C50.9227 184.2 50.9662 184.2 50.9856 184.265C51.0051 184.322 51.0126 184.382 51.0076 184.443C51.0025 184.503 50.9851 184.561 50.9566 184.612C50.8065 184.905 50.2886 185.182 49.5528 185.361C49.8981 184.917 50.3031 184.536 50.7532 184.233H50.7629Z" fill="#263238"/>
<path d="M49.3496 185.588H49.3787C49.732 185.192 50.3081 184.005 50.1096 183.625C50.066 183.544 49.974 183.457 49.7659 183.522C48.9866 183.777 49.2238 185.469 49.2383 185.539C49.2382 185.557 49.2442 185.574 49.255 185.587C49.2658 185.601 49.2805 185.609 49.2964 185.61C49.3062 185.612 49.3164 185.612 49.3258 185.608C49.3352 185.604 49.3435 185.597 49.3496 185.588ZM49.7369 183.696H49.7853C49.8627 183.669 49.9208 183.696 49.9402 183.696C50.0563 183.918 49.6836 184.813 49.3448 185.29C49.3496 184.872 49.3012 183.913 49.7369 183.696Z" fill="#263238"/>
<path d="M34.7408 66.2932C34.7408 66.2932 36.677 69.9209 35.2248 71.5097C33.7727 73.0985 33.3467 67.4645 33.3467 67.4645L34.7408 66.2932Z" fill="#263238"/>
<path d="M25.7471 74.8066C25.7471 74.8066 23.3269 70.5662 24.3337 66.3529C25.3405 62.1396 30.0455 64.8617 32.0302 63.7067C32.7573 63.2116 33.5318 62.8096 34.3391 62.5083C34.4688 62.4653 34.6057 62.456 34.7391 62.4814C34.8725 62.5068 34.9989 62.5661 35.1087 62.6547C35.5928 63.1319 34.7505 64.0266 34.4891 64.3628C34.6499 64.1545 34.8356 63.972 35.041 63.8206C35.2975 63.6308 35.6412 63.6145 35.525 64.0971C35.3259 64.6157 34.9692 65.0384 34.5182 65.2901C34.707 65.1708 35.8251 64.5363 35.9026 64.9322C35.9123 65.0282 35.8898 65.1248 35.8396 65.2033C35.1136 66.7216 33.6517 68.6303 31.9672 68.6683C29.939 68.7008 28.0028 75.094 25.7471 74.8066Z" fill="#263238"/>
<path d="M24.8903 74.9964C25.0162 76.4279 26.9136 76.4442 26.9136 76.4442C27.2242 77.2635 27.7405 77.9643 28.3997 78.4613C28.458 79.3259 28.4321 80.195 28.3222 81.0533C28.0028 82.4035 27.5961 82.8698 27.0879 83.1735L27.4945 83.6236C28.2728 84.1266 29.152 84.4008 30.0503 84.4207L30.5828 84.0736L31.2798 84.1984C33.216 83.488 32.7319 82.0294 32.7319 82.0294C32.3788 81.0388 32.3599 79.9381 32.6787 78.9331C34.5375 78.2824 35.2974 76.4713 35.5588 73.4238C35.8202 70.3764 34.2906 67.4591 34.2906 67.4591C32.1898 69.7311 28.027 68.2725 28.027 68.2725C28.2061 72.5454 26.4247 74.1233 26.4247 74.1233C25.839 73.5377 24.7693 73.5702 24.8903 74.9964Z" fill="#FFBE9D"/>
<path d="M31.6478 75.3868C31.1482 75.2302 30.7164 74.8757 30.4328 74.3891C30.4099 74.3507 30.4012 74.3038 30.4084 74.2583C30.4156 74.2129 30.4382 74.1723 30.4715 74.1451C30.488 74.1314 30.5068 74.1215 30.5267 74.116C30.5466 74.1105 30.5673 74.1095 30.5875 74.113C30.6078 74.1166 30.6272 74.1246 30.6447 74.1366C30.6622 74.1486 30.6774 74.1644 30.6894 74.183C30.8527 74.5119 31.1058 74.7736 31.4116 74.9297C31.7173 75.0858 32.0596 75.1282 32.3884 75.0506C32.4275 75.037 32.4699 75.0414 32.5062 75.0627C32.5425 75.0841 32.5698 75.1207 32.582 75.1645C32.5943 75.2091 32.5905 75.2573 32.5716 75.2988C32.5526 75.3403 32.5198 75.3719 32.4804 75.3868C32.2074 75.4667 31.9207 75.4667 31.6478 75.3868Z" fill="#263238"/>
<path d="M31.0959 71.6561C31.0959 71.9327 31.1927 72.1713 31.3573 72.1984C31.5219 72.2255 31.672 71.9977 31.6913 71.7212C31.7107 71.4446 31.5897 71.1789 31.4251 71.1789C31.2605 71.1789 31.1153 71.3741 31.0959 71.6561Z" fill="#263238"/>
<path d="M34.0582 71.5151C34.0582 71.7917 34.155 72.0303 34.3196 72.0574C34.4842 72.0845 34.6294 71.8567 34.6488 71.5802C34.6681 71.3037 34.552 71.0651 34.3874 71.0379C34.2228 71.0108 34.0727 71.2332 34.0582 71.5151Z" fill="#263238"/>
<path d="M33.2742 74.1993L33.3081 72.193L34.1987 73.8848C34.0756 74.0117 33.9286 74.1058 33.7685 74.1603C33.6084 74.2147 33.4395 74.2281 33.2742 74.1993Z" fill="#BA4D3C"/>
<path d="M29.7454 69.9642C29.7243 69.9578 29.7046 69.9468 29.6873 69.9317C29.6637 69.9161 29.6431 69.8954 29.6268 69.8707C29.6105 69.846 29.5989 69.8178 29.5925 69.7879C29.5862 69.7581 29.5853 69.727 29.59 69.6968C29.5946 69.6665 29.6047 69.6376 29.6196 69.6118C29.7808 69.3091 30.0146 69.0632 30.2945 68.9022C30.5743 68.7411 30.8889 68.6713 31.2024 68.7008C31.2297 68.7041 31.256 68.7136 31.2799 68.7286C31.3038 68.7436 31.3248 68.7639 31.3415 68.7882C31.3582 68.8125 31.3704 68.8403 31.3773 68.87C31.3842 68.8998 31.3856 68.9307 31.3815 68.9611C31.3743 69.0221 31.3458 69.0775 31.3023 69.115C31.2587 69.1526 31.2037 69.1694 31.1492 69.1617C30.9151 69.1454 30.6816 69.2015 30.4741 69.3239C30.2667 69.4463 30.0933 69.6303 29.9729 69.8558C29.9503 69.8987 29.9161 69.9324 29.8751 69.952C29.8342 69.9715 29.7887 69.9758 29.7454 69.9642Z" fill="#263238"/>
<path d="M34.9973 69.7419C34.9429 69.726 34.896 69.6872 34.8666 69.6335C34.7798 69.4864 34.6568 69.3707 34.5124 69.3005C34.3681 69.2302 34.2086 69.2084 34.0534 69.2376C34.0267 69.2439 33.9991 69.2441 33.9723 69.2381C33.9455 69.2322 33.92 69.2203 33.8974 69.203C33.8748 69.1858 33.8556 69.1637 33.8408 69.138C33.826 69.1122 33.816 69.0834 33.8114 69.0533C33.8014 68.9929 33.8131 68.9306 33.844 68.8798C33.8748 68.8291 33.9222 68.794 33.976 68.7821C34.2155 68.7324 34.4628 68.7648 34.6856 68.8751C34.9085 68.9854 35.0964 69.1684 35.2248 69.4003C35.2519 69.4538 35.2594 69.517 35.2459 69.5766C35.2323 69.6362 35.1988 69.6877 35.1522 69.7202C35.1047 69.7487 35.0496 69.7564 34.9973 69.7419Z" fill="#263238"/>
<path d="M26.2989 83.3633L27.3396 84.502L29.1935 86.5409L29.8906 85.2991L30.5828 84.0736L28.1625 80.8418L26.4006 83.2277L26.2989 83.3633Z" fill="white"/>
<path d="M30.5828 84.0737L31.1201 85.0769L31.9091 86.5409L33.7195 82.8807L32.5626 81.357L30.5828 84.0737Z" fill="white"/>
<path d="M205.984 49.24C204.112 49.24 202.528 48.888 201.232 48.184C199.952 47.48 198.976 46.48 198.304 45.184C197.632 43.888 197.296 42.352 197.296 40.576C197.296 38.784 197.64 37.24 198.328 35.944C199.016 34.632 200.008 33.624 201.304 32.92C202.6 32.2 204.152 31.84 205.96 31.84C206.76 31.84 207.52 31.92 208.24 32.08C208.976 32.224 209.656 32.44 210.28 32.728C210.904 33.016 211.44 33.368 211.888 33.784L210.856 36.184C210.104 35.592 209.336 35.168 208.552 34.912C207.768 34.656 206.904 34.528 205.96 34.528C204.168 34.528 202.808 35.048 201.88 36.088C200.968 37.128 200.512 38.624 200.512 40.576C200.512 42.544 200.984 44.04 201.928 45.064C202.872 46.088 204.272 46.6 206.128 46.6C206.768 46.6 207.416 46.536 208.072 46.408C208.728 46.28 209.368 46.104 209.992 45.88L209.392 47.248V42.136H205.504V39.856H211.96V47.992C211.448 48.248 210.856 48.472 210.184 48.664C209.528 48.84 208.84 48.976 208.12 49.072C207.4 49.184 206.688 49.24 205.984 49.24ZM219.312 49.24C217.92 49.24 216.888 48.864 216.216 48.112C215.56 47.344 215.232 46.224 215.232 44.752V32.08H218.232V44.608C218.232 45.072 218.296 45.472 218.424 45.808C218.568 46.128 218.776 46.368 219.048 46.528C219.32 46.688 219.656 46.768 220.056 46.768C220.232 46.768 220.408 46.76 220.584 46.744C220.76 46.728 220.928 46.696 221.088 46.648L221.04 49.024C220.752 49.088 220.464 49.136 220.176 49.168C219.904 49.216 219.616 49.24 219.312 49.24ZM222.704 34.744V31.816H226.064V34.744H222.704ZM222.896 49V37.264H225.896V49H222.896ZM233.525 49.24C232.501 49.24 231.597 48.992 230.813 48.496C230.045 48 229.445 47.296 229.013 46.384C228.581 45.456 228.365 44.368 228.365 43.12C228.365 41.856 228.581 40.776 229.013 39.88C229.445 38.968 230.045 38.264 230.813 37.768C231.597 37.272 232.501 37.024 233.525 37.024C234.501 37.024 235.349 37.264 236.069 37.744C236.805 38.224 237.301 38.856 237.557 39.64H237.293V32.08H240.293V49H237.365V46.504H237.581C237.341 47.336 236.853 48 236.117 48.496C235.381 48.992 234.517 49.24 233.525 49.24ZM234.365 46.96C235.261 46.96 235.981 46.64 236.525 46C237.069 45.344 237.341 44.384 237.341 43.12C237.341 41.84 237.069 40.888 236.525 40.264C235.981 39.624 235.261 39.304 234.365 39.304C233.469 39.304 232.749 39.624 232.205 40.264C231.661 40.888 231.389 41.84 231.389 43.12C231.389 44.384 231.661 45.344 232.205 46C232.749 46.64 233.469 46.96 234.365 46.96ZM250.161 49V32.08H253.233V46.384H261.345V49H250.161ZM268.584 49.24C267.368 49.24 266.312 48.992 265.416 48.496C264.52 48 263.824 47.296 263.328 46.384C262.832 45.456 262.584 44.368 262.584 43.12C262.584 41.872 262.832 40.792 263.328 39.88C263.824 38.968 264.52 38.264 265.416 37.768C266.312 37.272 267.368 37.024 268.584 37.024C269.8 37.024 270.856 37.272 271.752 37.768C272.648 38.264 273.344 38.968 273.84 39.88C274.336 40.792 274.584 41.872 274.584 43.12C274.584 44.368 274.336 45.456 273.84 46.384C273.344 47.296 272.648 48 271.752 48.496C270.856 48.992 269.8 49.24 268.584 49.24ZM268.584 46.96C269.48 46.96 270.2 46.64 270.744 46C271.288 45.344 271.56 44.384 271.56 43.12C271.56 41.84 271.288 40.888 270.744 40.264C270.2 39.624 269.48 39.304 268.584 39.304C267.688 39.304 266.968 39.624 266.424 40.264C265.88 40.888 265.608 41.84 265.608 43.12C265.608 44.384 265.88 45.344 266.424 46C266.968 46.64 267.688 46.96 268.584 46.96ZM282.532 53.56C281.444 53.56 280.42 53.432 279.46 53.176C278.516 52.936 277.684 52.56 276.964 52.048L277.828 49.96C278.276 50.248 278.748 50.488 279.244 50.68C279.74 50.888 280.244 51.04 280.756 51.136C281.268 51.232 281.78 51.28 282.292 51.28C283.364 51.28 284.164 51.016 284.692 50.488C285.236 49.976 285.508 49.208 285.508 48.184V46.024H285.724C285.484 46.84 284.98 47.496 284.212 47.992C283.46 48.472 282.604 48.712 281.644 48.712C280.588 48.712 279.668 48.472 278.884 47.992C278.1 47.496 277.492 46.808 277.06 45.928C276.628 45.048 276.412 44.024 276.412 42.856C276.412 41.688 276.628 40.672 277.06 39.808C277.492 38.928 278.1 38.248 278.884 37.768C279.668 37.272 280.588 37.024 281.644 37.024C282.636 37.024 283.5 37.272 284.236 37.768C284.988 38.248 285.476 38.888 285.7 39.688H285.508V37.264H288.436V47.824C288.436 49.088 288.212 50.144 287.764 50.992C287.316 51.856 286.652 52.496 285.772 52.912C284.892 53.344 283.812 53.56 282.532 53.56ZM282.46 46.432C283.388 46.432 284.124 46.112 284.668 45.472C285.212 44.832 285.484 43.96 285.484 42.856C285.484 41.752 285.212 40.888 284.668 40.264C284.124 39.624 283.388 39.304 282.46 39.304C281.532 39.304 280.796 39.624 280.252 40.264C279.708 40.888 279.436 41.752 279.436 42.856C279.436 43.96 279.708 44.832 280.252 45.472C280.796 46.112 281.532 46.432 282.46 46.432ZM291.352 34.744V31.816H294.712V34.744H291.352ZM291.544 49V37.264H294.544V49H291.544ZM301.958 49.24C301.302 49.24 300.662 49.184 300.038 49.072C299.43 48.96 298.87 48.808 298.358 48.616C297.846 48.408 297.398 48.152 297.014 47.848L297.782 45.88C298.182 46.136 298.614 46.36 299.078 46.552C299.542 46.744 300.022 46.888 300.518 46.984C301.014 47.08 301.502 47.128 301.982 47.128C302.75 47.128 303.318 47 303.686 46.744C304.07 46.472 304.262 46.12 304.262 45.688C304.262 45.32 304.134 45.04 303.878 44.848C303.638 44.64 303.27 44.488 302.774 44.392L300.374 43.936C299.382 43.744 298.622 43.384 298.094 42.856C297.582 42.312 297.326 41.616 297.326 40.768C297.326 40 297.534 39.336 297.95 38.776C298.382 38.216 298.974 37.784 299.726 37.48C300.478 37.176 301.342 37.024 302.318 37.024C302.878 37.024 303.422 37.08 303.95 37.192C304.478 37.288 304.974 37.44 305.438 37.648C305.918 37.84 306.334 38.096 306.686 38.416L305.87 40.384C305.566 40.128 305.214 39.912 304.814 39.736C304.414 39.544 303.998 39.4 303.566 39.304C303.15 39.192 302.742 39.136 302.342 39.136C301.558 39.136 300.974 39.272 300.59 39.544C300.222 39.816 300.038 40.176 300.038 40.624C300.038 40.96 300.15 41.24 300.374 41.464C300.598 41.688 300.942 41.84 301.406 41.92L303.806 42.376C304.846 42.568 305.63 42.92 306.158 43.432C306.702 43.944 306.974 44.632 306.974 45.496C306.974 46.28 306.766 46.952 306.35 47.512C305.934 48.072 305.35 48.504 304.598 48.808C303.846 49.096 302.966 49.24 301.958 49.24ZM314.639 49.24C313.071 49.24 311.903 48.848 311.135 48.064C310.367 47.28 309.983 46.136 309.983 44.632V39.52H307.727V37.264H309.983V33.76H312.983V37.264H316.535V39.52H312.983V44.464C312.983 45.232 313.151 45.808 313.487 46.192C313.823 46.576 314.367 46.768 315.119 46.768C315.343 46.768 315.575 46.744 315.815 46.696C316.055 46.632 316.303 46.568 316.559 46.504L317.015 48.712C316.727 48.872 316.359 49 315.911 49.096C315.479 49.192 315.055 49.24 314.639 49.24ZM318.282 34.744V31.816H321.642V34.744H318.282ZM318.474 49V37.264H321.474V49H318.474ZM324.591 49V32.08H327.591V42.256H327.639L332.367 37.264H335.991L330.087 43.504V42.256L336.327 49H332.655L327.639 43.768H327.591V49H324.591Z" fill="#2E3032"/>
<path d="M197.312 79V67.72H201.984C202.805 67.72 203.499 67.8587 204.064 68.136C204.629 68.4027 205.056 68.792 205.344 69.304C205.643 69.816 205.792 70.4347 205.792 71.16C205.792 71.8853 205.643 72.5093 205.344 73.032C205.056 73.544 204.629 73.9387 204.064 74.216C203.499 74.4827 202.805 74.616 201.984 74.616H198.976V79H197.312ZM198.976 73.288H201.744C202.544 73.288 203.147 73.112 203.552 72.76C203.968 72.3973 204.176 71.864 204.176 71.16C204.176 70.4667 203.968 69.944 203.552 69.592C203.147 69.2293 202.544 69.048 201.744 69.048H198.976V73.288ZM210.691 79.144C209.837 79.144 209.101 78.984 208.483 78.664C207.875 78.3333 207.4 77.8693 207.059 77.272C206.728 76.664 206.563 75.944 206.563 75.112C206.563 74.3013 206.728 73.592 207.059 72.984C207.389 72.376 207.843 71.9013 208.419 71.56C208.995 71.2187 209.651 71.048 210.387 71.048C211.112 71.048 211.731 71.208 212.243 71.528C212.765 71.8373 213.165 72.28 213.443 72.856C213.72 73.432 213.859 74.12 213.859 74.92V75.464H207.843V74.472H212.771L212.499 74.696C212.499 73.896 212.323 73.2773 211.971 72.84C211.619 72.4027 211.112 72.184 210.451 72.184C209.949 72.184 209.523 72.3013 209.171 72.536C208.829 72.7707 208.568 73.096 208.387 73.512C208.205 73.928 208.115 74.4133 208.115 74.968V75.064C208.115 75.6827 208.211 76.2053 208.403 76.632C208.605 77.048 208.899 77.3627 209.283 77.576C209.667 77.7893 210.141 77.896 210.707 77.896C211.155 77.896 211.592 77.8267 212.019 77.688C212.456 77.5387 212.867 77.3093 213.251 77L213.731 78.12C213.379 78.44 212.925 78.6907 212.371 78.872C211.816 79.0533 211.256 79.144 210.691 79.144ZM215.62 79V71.192H217.188V72.856H217.012C217.247 72.2587 217.615 71.8107 218.116 71.512C218.618 71.2027 219.194 71.048 219.844 71.048C220.463 71.048 220.975 71.1653 221.38 71.4C221.796 71.624 222.106 71.9707 222.308 72.44C222.511 72.8987 222.612 73.48 222.612 74.184V79H220.996V74.28C220.996 73.832 220.938 73.4693 220.82 73.192C220.703 72.904 220.527 72.6907 220.292 72.552C220.058 72.4133 219.754 72.344 219.38 72.344C218.954 72.344 218.575 72.4347 218.244 72.616C217.924 72.7973 217.674 73.0587 217.492 73.4C217.322 73.7413 217.236 74.136 217.236 74.584V79H215.62ZM228.375 82.024C227.671 82.024 227.015 81.9387 226.407 81.768C225.799 81.5973 225.26 81.3413 224.791 81L225.287 79.848C225.596 80.0507 225.911 80.2213 226.231 80.36C226.562 80.5093 226.892 80.616 227.223 80.68C227.564 80.744 227.911 80.776 228.263 80.776C229.01 80.776 229.57 80.584 229.943 80.2C230.316 79.8267 230.503 79.272 230.503 78.536V76.904H230.647C230.487 77.4907 230.151 77.9547 229.639 78.296C229.127 78.6373 228.535 78.808 227.863 78.808C227.159 78.808 226.546 78.648 226.023 78.328C225.5 77.9973 225.095 77.544 224.807 76.968C224.519 76.3813 224.375 75.6987 224.375 74.92C224.375 74.1413 224.519 73.464 224.807 72.888C225.095 72.312 225.5 71.864 226.023 71.544C226.546 71.2133 227.159 71.048 227.863 71.048C228.546 71.048 229.138 71.2187 229.639 71.56C230.151 71.9013 230.482 72.3653 230.631 72.952H230.503V71.192H232.071V78.344C232.071 79.1547 231.932 79.832 231.655 80.376C231.378 80.9307 230.962 81.3413 230.407 81.608C229.863 81.8853 229.186 82.024 228.375 82.024ZM228.247 77.544C228.94 77.544 229.484 77.3093 229.879 76.84C230.284 76.3707 230.487 75.7307 230.487 74.92C230.487 74.12 230.284 73.4853 229.879 73.016C229.484 72.5467 228.94 72.312 228.247 72.312C227.564 72.312 227.02 72.5467 226.615 73.016C226.21 73.4853 226.007 74.12 226.007 74.92C226.007 75.7307 226.21 76.3707 226.615 76.84C227.02 77.3093 227.564 77.544 228.247 77.544ZM234.195 69.384V67.704H236.083V69.384H234.195ZM234.339 79V71.192H235.955V79H234.339ZM238.23 79V71.192H239.798V73.064H239.638C239.808 72.424 240.112 71.9387 240.55 71.608C240.998 71.2773 241.59 71.0853 242.326 71.032L242.854 71L242.966 72.376L241.99 72.472C241.296 72.536 240.768 72.7547 240.406 73.128C240.043 73.5013 239.862 74.0133 239.862 74.664V79H238.23ZM244.055 69.384V67.704H245.943V69.384H244.055ZM244.199 79V71.192H245.815V79H244.199ZM248.121 79V71.192H249.689V72.856H249.513C249.652 72.472 249.844 72.1467 250.089 71.88C250.334 71.6133 250.628 71.4107 250.969 71.272C251.321 71.1227 251.705 71.048 252.121 71.048C252.772 71.048 253.3 71.2027 253.705 71.512C254.11 71.8213 254.388 72.296 254.537 72.936H254.313C254.516 72.3493 254.862 71.8907 255.353 71.56C255.844 71.2187 256.414 71.048 257.065 71.048C257.662 71.048 258.153 71.1653 258.537 71.4C258.921 71.624 259.209 71.9707 259.401 72.44C259.593 72.8987 259.689 73.48 259.689 74.184V79H258.073V74.264C258.073 73.6027 257.956 73.1173 257.721 72.808C257.497 72.4987 257.124 72.344 256.601 72.344C256.217 72.344 255.881 72.4347 255.593 72.616C255.305 72.7973 255.081 73.064 254.921 73.416C254.772 73.7573 254.697 74.1627 254.697 74.632V79H253.081V74.264C253.081 73.6027 252.969 73.1173 252.745 72.808C252.521 72.4987 252.148 72.344 251.625 72.344C251.23 72.344 250.889 72.4347 250.601 72.616C250.324 72.7973 250.11 73.064 249.961 73.416C249.812 73.7573 249.737 74.1627 249.737 74.632V79H248.121ZM264.445 79.144C263.901 79.144 263.41 79.0373 262.973 78.824C262.546 78.6107 262.21 78.3227 261.965 77.96C261.719 77.5973 261.597 77.1867 261.597 76.728C261.597 76.152 261.741 75.6987 262.029 75.368C262.327 75.0267 262.813 74.7867 263.485 74.648C264.167 74.4987 265.085 74.424 266.237 74.424H266.989V75.416H266.253C265.677 75.416 265.191 75.4373 264.797 75.48C264.402 75.5227 264.087 75.592 263.853 75.688C263.618 75.7733 263.447 75.896 263.341 76.056C263.245 76.216 263.197 76.408 263.197 76.632C263.197 77.0373 263.335 77.368 263.613 77.624C263.89 77.8693 264.274 77.992 264.765 77.992C265.159 77.992 265.506 77.9013 265.805 77.72C266.103 77.528 266.338 77.272 266.509 76.952C266.69 76.632 266.781 76.264 266.781 75.848V74.008C266.781 73.4 266.653 72.9627 266.397 72.696C266.141 72.4293 265.719 72.296 265.133 72.296C264.685 72.296 264.237 72.3653 263.789 72.504C263.341 72.632 262.882 72.84 262.413 73.128L261.917 71.992C262.194 71.8 262.514 71.6347 262.877 71.496C263.239 71.3573 263.618 71.2507 264.013 71.176C264.418 71.0907 264.807 71.048 265.181 71.048C265.895 71.048 266.482 71.16 266.941 71.384C267.41 71.608 267.757 71.9493 267.981 72.408C268.205 72.8667 268.317 73.4587 268.317 74.184V79H266.797V77.256H266.941C266.855 77.6507 266.695 77.992 266.461 78.28C266.237 78.5573 265.954 78.7707 265.613 78.92C265.271 79.0693 264.882 79.144 264.445 79.144ZM270.542 79V71.192H272.11V72.856H271.934C272.169 72.2587 272.537 71.8107 273.038 71.512C273.54 71.2027 274.116 71.048 274.766 71.048C275.385 71.048 275.897 71.1653 276.302 71.4C276.718 71.624 277.028 71.9707 277.23 72.44C277.433 72.8987 277.534 73.48 277.534 74.184V79H275.918V74.28C275.918 73.832 275.86 73.4693 275.742 73.192C275.625 72.904 275.449 72.6907 275.214 72.552C274.98 72.4133 274.676 72.344 274.302 72.344C273.876 72.344 273.497 72.4347 273.166 72.616C272.846 72.7973 272.596 73.0587 272.414 73.4C272.244 73.7413 272.158 74.136 272.158 74.584V79H270.542ZM289.196 79.144C288.055 79.144 287.079 78.9093 286.268 78.44C285.457 77.9707 284.833 77.304 284.396 76.44C283.969 75.5653 283.756 74.536 283.756 73.352C283.756 72.168 283.969 71.144 284.396 70.28C284.833 69.416 285.457 68.7493 286.268 68.28C287.079 67.8107 288.055 67.576 289.196 67.576C289.964 67.576 290.679 67.6987 291.34 67.944C292.012 68.1787 292.572 68.52 293.02 68.968L292.444 70.296C291.953 69.8587 291.447 69.544 290.924 69.352C290.412 69.1493 289.852 69.048 289.244 69.048C288.028 69.048 287.1 69.4213 286.46 70.168C285.82 70.9147 285.5 71.976 285.5 73.352C285.5 74.728 285.82 75.7947 286.46 76.552C287.1 77.2987 288.028 77.672 289.244 77.672C289.852 77.672 290.412 77.576 290.924 77.384C291.447 77.1813 291.953 76.8613 292.444 76.424L293.02 77.752C292.572 78.2 292.012 78.5467 291.34 78.792C290.679 79.0267 289.964 79.144 289.196 79.144ZM297.878 79.144C297.025 79.144 296.289 78.984 295.67 78.664C295.062 78.3333 294.587 77.8693 294.246 77.272C293.915 76.664 293.75 75.944 293.75 75.112C293.75 74.3013 293.915 73.592 294.246 72.984C294.577 72.376 295.03 71.9013 295.606 71.56C296.182 71.2187 296.838 71.048 297.574 71.048C298.299 71.048 298.918 71.208 299.43 71.528C299.953 71.8373 300.353 72.28 300.63 72.856C300.907 73.432 301.046 74.12 301.046 74.92V75.464H295.03V74.472H299.958L299.686 74.696C299.686 73.896 299.51 73.2773 299.158 72.84C298.806 72.4027 298.299 72.184 297.638 72.184C297.137 72.184 296.71 72.3013 296.358 72.536C296.017 72.7707 295.755 73.096 295.574 73.512C295.393 73.928 295.302 74.4133 295.302 74.968V75.064C295.302 75.6827 295.398 76.2053 295.59 76.632C295.793 77.048 296.086 77.3627 296.47 77.576C296.854 77.7893 297.329 77.896 297.894 77.896C298.342 77.896 298.779 77.8267 299.206 77.688C299.643 77.5387 300.054 77.3093 300.438 77L300.918 78.12C300.566 78.44 300.113 78.6907 299.558 78.872C299.003 79.0533 298.443 79.144 297.878 79.144ZM302.808 81.88V71.192H304.392V72.952H304.216C304.387 72.376 304.723 71.9173 305.224 71.576C305.725 71.224 306.317 71.048 307 71.048C307.693 71.048 308.296 71.2133 308.808 71.544C309.331 71.8747 309.731 72.3387 310.008 72.936C310.296 73.5333 310.44 74.2533 310.44 75.096C310.44 75.9173 310.296 76.6373 310.008 77.256C309.731 77.864 309.336 78.3333 308.824 78.664C308.312 78.984 307.704 79.144 307 79.144C306.328 79.144 305.741 78.9733 305.24 78.632C304.739 78.2907 304.403 77.8373 304.232 77.272H304.424V81.88H302.808ZM306.6 77.896C307.272 77.896 307.805 77.656 308.2 77.176C308.605 76.696 308.808 76.0027 308.808 75.096C308.808 74.1787 308.605 73.4853 308.2 73.016C307.805 72.5467 307.272 72.312 306.6 72.312C305.939 72.312 305.405 72.5467 305 73.016C304.595 73.4853 304.392 74.1787 304.392 75.096C304.392 76.0027 304.595 76.696 305 77.176C305.405 77.656 305.939 77.896 306.6 77.896ZM314.757 79.144C314.213 79.144 313.722 79.0373 313.285 78.824C312.858 78.6107 312.522 78.3227 312.277 77.96C312.032 77.5973 311.909 77.1867 311.909 76.728C311.909 76.152 312.053 75.6987 312.341 75.368C312.64 75.0267 313.125 74.7867 313.797 74.648C314.48 74.4987 315.397 74.424 316.549 74.424H317.301V75.416H316.565C315.989 75.416 315.504 75.4373 315.109 75.48C314.714 75.5227 314.4 75.592 314.165 75.688C313.93 75.7733 313.76 75.896 313.653 76.056C313.557 76.216 313.509 76.408 313.509 76.632C313.509 77.0373 313.648 77.368 313.925 77.624C314.202 77.8693 314.586 77.992 315.077 77.992C315.472 77.992 315.818 77.9013 316.117 77.72C316.416 77.528 316.65 77.272 316.821 76.952C317.002 76.632 317.093 76.264 317.093 75.848V74.008C317.093 73.4 316.965 72.9627 316.709 72.696C316.453 72.4293 316.032 72.296 315.445 72.296C314.997 72.296 314.549 72.3653 314.101 72.504C313.653 72.632 313.194 72.84 312.725 73.128L312.229 71.992C312.506 71.8 312.826 71.6347 313.189 71.496C313.552 71.3573 313.93 71.2507 314.325 71.176C314.73 71.0907 315.12 71.048 315.493 71.048C316.208 71.048 316.794 71.16 317.253 71.384C317.722 71.608 318.069 71.9493 318.293 72.408C318.517 72.8667 318.629 73.4587 318.629 74.184V79H317.109V77.256H317.253C317.168 77.6507 317.008 77.992 316.773 78.28C316.549 78.5573 316.266 78.7707 315.925 78.92C315.584 79.0693 315.194 79.144 314.757 79.144ZM324.183 79.144C323.212 79.144 322.481 78.8933 321.991 78.392C321.511 77.8907 321.271 77.1653 321.271 76.216V72.44H319.751V71.192H321.271V68.84H322.887V71.192H325.303V72.44H322.887V76.088C322.887 76.6533 323.004 77.08 323.239 77.368C323.484 77.656 323.879 77.8 324.423 77.8C324.583 77.8 324.743 77.7787 324.903 77.736C325.073 77.6933 325.239 77.6507 325.399 77.608L325.655 78.824C325.495 78.92 325.271 78.9947 324.983 79.048C324.705 79.112 324.439 79.144 324.183 79.144ZM327.573 80.968L326.868 80.424C327.082 80.2 327.242 79.992 327.349 79.8C327.466 79.608 327.546 79.416 327.589 79.224C327.642 79.032 327.669 78.84 327.669 78.648L328.021 79H326.757V77.096H328.661V78.392C328.661 78.712 328.623 79.016 328.549 79.304C328.485 79.592 328.373 79.8693 328.213 80.136C328.063 80.4133 327.85 80.6907 327.573 80.968ZM333.989 79L339.013 67.72H340.389L345.429 79H343.733L342.357 75.8L343.109 76.248H336.293L337.029 75.8L335.669 79H333.989ZM339.685 69.56L337.269 75.288L336.869 74.904H342.517L342.149 75.288L339.717 69.56H339.685ZM346.762 79V71.192H348.33V72.856H348.154C348.292 72.472 348.484 72.1467 348.73 71.88C348.975 71.6133 349.268 71.4107 349.61 71.272C349.962 71.1227 350.346 71.048 350.762 71.048C351.412 71.048 351.94 71.2027 352.346 71.512C352.751 71.8213 353.028 72.296 353.178 72.936H352.954C353.156 72.3493 353.503 71.8907 353.994 71.56C354.484 71.2187 355.055 71.048 355.706 71.048C356.303 71.048 356.794 71.1653 357.178 71.4C357.562 71.624 357.85 71.9707 358.042 72.44C358.234 72.8987 358.33 73.48 358.33 74.184V79H356.714V74.264C356.714 73.6027 356.596 73.1173 356.362 72.808C356.138 72.4987 355.764 72.344 355.242 72.344C354.858 72.344 354.522 72.4347 354.234 72.616C353.946 72.7973 353.722 73.064 353.562 73.416C353.412 73.7573 353.338 74.1627 353.338 74.632V79H351.722V74.264C351.722 73.6027 351.61 73.1173 351.386 72.808C351.162 72.4987 350.788 72.344 350.266 72.344C349.871 72.344 349.53 72.4347 349.242 72.616C348.964 72.7973 348.751 73.064 348.602 73.416C348.452 73.7573 348.378 74.1627 348.378 74.632V79H346.762ZM363.085 79.144C362.541 79.144 362.05 79.0373 361.613 78.824C361.186 78.6107 360.85 78.3227 360.605 77.96C360.36 77.5973 360.237 77.1867 360.237 76.728C360.237 76.152 360.381 75.6987 360.669 75.368C360.968 75.0267 361.453 74.7867 362.125 74.648C362.808 74.4987 363.725 74.424 364.877 74.424H365.629V75.416H364.893C364.317 75.416 363.832 75.4373 363.437 75.48C363.042 75.5227 362.728 75.592 362.493 75.688C362.258 75.7733 362.088 75.896 361.981 76.056C361.885 76.216 361.837 76.408 361.837 76.632C361.837 77.0373 361.976 77.368 362.253 77.624C362.53 77.8693 362.914 77.992 363.405 77.992C363.8 77.992 364.146 77.9013 364.445 77.72C364.744 77.528 364.978 77.272 365.149 76.952C365.33 76.632 365.421 76.264 365.421 75.848V74.008C365.421 73.4 365.293 72.9627 365.037 72.696C364.781 72.4293 364.36 72.296 363.773 72.296C363.325 72.296 362.877 72.3653 362.429 72.504C361.981 72.632 361.522 72.84 361.053 73.128L360.557 71.992C360.834 71.8 361.154 71.6347 361.517 71.496C361.88 71.3573 362.258 71.2507 362.653 71.176C363.058 71.0907 363.448 71.048 363.821 71.048C364.536 71.048 365.122 71.16 365.581 71.384C366.05 71.608 366.397 71.9493 366.621 72.408C366.845 72.8667 366.957 73.4587 366.957 74.184V79H365.437V77.256H365.581C365.496 77.6507 365.336 77.992 365.101 78.28C364.877 78.5573 364.594 78.7707 364.253 78.92C363.912 79.0693 363.522 79.144 363.085 79.144ZM369.183 79V71.192H370.751V72.856H370.575C370.81 72.2587 371.178 71.8107 371.679 71.512C372.18 71.2027 372.756 71.048 373.407 71.048C374.026 71.048 374.538 71.1653 374.943 71.4C375.359 71.624 375.668 71.9707 375.871 72.44C376.074 72.8987 376.175 73.48 376.175 74.184V79H374.559V74.28C374.559 73.832 374.5 73.4693 374.383 73.192C374.266 72.904 374.09 72.6907 373.855 72.552C373.62 72.4133 373.316 72.344 372.943 72.344C372.516 72.344 372.138 72.4347 371.807 72.616C371.487 72.7973 371.236 73.0587 371.055 73.4C370.884 73.7413 370.799 74.136 370.799 74.584V79H369.183ZM379.026 80.968L378.322 80.424C378.535 80.2 378.695 79.992 378.802 79.8C378.919 79.608 378.999 79.416 379.042 79.224C379.095 79.032 379.122 78.84 379.122 78.648L379.474 79H378.21V77.096H380.114V78.392C380.114 78.712 380.076 79.016 380.002 79.304C379.938 79.592 379.826 79.8693 379.666 80.136C379.516 80.4133 379.303 80.6907 379.026 80.968ZM200.112 103.144C199.429 103.144 198.827 102.984 198.304 102.664C197.792 102.333 197.392 101.864 197.104 101.256C196.816 100.637 196.672 99.9173 196.672 99.096C196.672 98.2533 196.816 97.5333 197.104 96.936C197.392 96.3387 197.792 95.8747 198.304 95.544C198.827 95.2133 199.429 95.048 200.112 95.048C200.795 95.048 201.381 95.2187 201.872 95.56C202.373 95.8907 202.709 96.3387 202.88 96.904H202.704V91.72H204.32V103H202.736V101.24H202.896C202.725 101.816 202.389 102.28 201.888 102.632C201.397 102.973 200.805 103.144 200.112 103.144ZM200.528 101.896C201.189 101.896 201.723 101.656 202.128 101.176C202.533 100.696 202.736 100.003 202.736 99.096C202.736 98.1787 202.533 97.4853 202.128 97.016C201.723 96.5467 201.189 96.312 200.528 96.312C199.856 96.312 199.317 96.5467 198.912 97.016C198.507 97.4853 198.304 98.1787 198.304 99.096C198.304 100.003 198.507 100.696 198.912 101.176C199.317 101.656 199.856 101.896 200.528 101.896ZM209.085 103.144C208.541 103.144 208.05 103.037 207.613 102.824C207.186 102.611 206.85 102.323 206.605 101.96C206.36 101.597 206.237 101.187 206.237 100.728C206.237 100.152 206.381 99.6987 206.669 99.368C206.968 99.0267 207.453 98.7867 208.125 98.648C208.808 98.4987 209.725 98.424 210.877 98.424H211.629V99.416H210.893C210.317 99.416 209.832 99.4373 209.437 99.48C209.042 99.5227 208.728 99.592 208.493 99.688C208.258 99.7733 208.088 99.896 207.981 100.056C207.885 100.216 207.837 100.408 207.837 100.632C207.837 101.037 207.976 101.368 208.253 101.624C208.53 101.869 208.914 101.992 209.405 101.992C209.8 101.992 210.146 101.901 210.445 101.72C210.744 101.528 210.978 101.272 211.149 100.952C211.33 100.632 211.421 100.264 211.421 99.848V98.008C211.421 97.4 211.293 96.9627 211.037 96.696C210.781 96.4293 210.36 96.296 209.773 96.296C209.325 96.296 208.877 96.3653 208.429 96.504C207.981 96.632 207.522 96.84 207.053 97.128L206.557 95.992C206.834 95.8 207.154 95.6347 207.517 95.496C207.88 95.3573 208.258 95.2507 208.653 95.176C209.058 95.0907 209.448 95.048 209.821 95.048C210.536 95.048 211.122 95.16 211.581 95.384C212.05 95.608 212.397 95.9493 212.621 96.408C212.845 96.8667 212.957 97.4587 212.957 98.184V103H211.437V101.256H211.581C211.496 101.651 211.336 101.992 211.101 102.28C210.877 102.557 210.594 102.771 210.253 102.92C209.912 103.069 209.522 103.144 209.085 103.144ZM215.183 103V95.192H216.751V96.856H216.575C216.81 96.2587 217.178 95.8107 217.679 95.512C218.18 95.2027 218.756 95.048 219.407 95.048C220.026 95.048 220.538 95.1653 220.943 95.4C221.359 95.624 221.668 95.9707 221.871 96.44C222.074 96.8987 222.175 97.48 222.175 98.184V103H220.559V98.28C220.559 97.832 220.5 97.4693 220.383 97.192C220.266 96.904 220.09 96.6907 219.855 96.552C219.62 96.4133 219.316 96.344 218.943 96.344C218.516 96.344 218.138 96.4347 217.807 96.616C217.487 96.7973 217.236 97.0587 217.055 97.4C216.884 97.7413 216.799 98.136 216.799 98.584V103H215.183ZM228.781 103V91.72H236.077V93.064H230.381V96.6H235.741V97.944H230.381V101.656H236.077V103H228.781ZM238.413 103V96.44H236.893V95.192H238.877L238.413 95.624V95.048C238.413 93.9813 238.685 93.176 239.229 92.632C239.783 92.0773 240.631 91.768 241.773 91.704L242.413 91.672L242.509 92.888L241.853 92.92C241.415 92.9413 241.063 93.0267 240.797 93.176C240.53 93.3253 240.333 93.5387 240.205 93.816C240.087 94.0827 240.029 94.4187 240.029 94.824V95.384V95.192H245.005V103H243.389V96.44H240.029V103H238.413ZM243.245 93.384V91.704H245.133V93.384H243.245ZM249.997 103.144C249.581 103.144 249.176 103.107 248.781 103.032C248.386 102.957 248.024 102.851 247.693 102.712C247.362 102.573 247.069 102.403 246.813 102.2L247.277 101.112C247.544 101.293 247.826 101.453 248.125 101.592C248.424 101.72 248.733 101.816 249.053 101.88C249.384 101.944 249.704 101.976 250.013 101.976C250.578 101.976 251.005 101.875 251.293 101.672C251.581 101.469 251.725 101.197 251.725 100.856C251.725 100.579 251.629 100.365 251.437 100.216C251.245 100.056 250.957 99.9333 250.573 99.848L249.053 99.544C248.392 99.4053 247.89 99.16 247.549 98.808C247.208 98.456 247.037 98.008 247.037 97.464C247.037 96.9733 247.17 96.5467 247.437 96.184C247.704 95.8213 248.077 95.544 248.557 95.352C249.037 95.1493 249.592 95.048 250.221 95.048C250.584 95.048 250.936 95.0853 251.277 95.16C251.618 95.2347 251.938 95.3413 252.237 95.48C252.546 95.6187 252.808 95.7947 253.021 96.008L252.557 97.096C252.354 96.9147 252.12 96.76 251.853 96.632C251.597 96.504 251.33 96.408 251.053 96.344C250.776 96.2693 250.498 96.232 250.221 96.232C249.656 96.232 249.229 96.3387 248.941 96.552C248.664 96.7547 248.525 97.032 248.525 97.384C248.525 97.6507 248.61 97.8693 248.781 98.04C248.952 98.2107 249.218 98.3333 249.581 98.408L251.101 98.712C251.794 98.8507 252.317 99.0853 252.669 99.416C253.032 99.7467 253.213 100.195 253.213 100.76C253.213 101.251 253.08 101.677 252.813 102.04C252.546 102.403 252.168 102.68 251.677 102.872C251.197 103.053 250.637 103.144 249.997 103.144ZM254.867 93.384V91.704H256.755V93.384H254.867ZM255.011 103V95.192H256.627V103H255.011ZM262.566 103.144C261.712 103.144 260.976 102.984 260.358 102.664C259.75 102.333 259.275 101.869 258.934 101.272C258.603 100.664 258.438 99.944 258.438 99.112C258.438 98.3013 258.603 97.592 258.934 96.984C259.264 96.376 259.718 95.9013 260.294 95.56C260.87 95.2187 261.526 95.048 262.262 95.048C262.987 95.048 263.606 95.208 264.118 95.528C264.64 95.8373 265.04 96.28 265.318 96.856C265.595 97.432 265.734 98.12 265.734 98.92V99.464H259.718V98.472H264.646L264.374 98.696C264.374 97.896 264.198 97.2773 263.846 96.84C263.494 96.4027 262.987 96.184 262.326 96.184C261.824 96.184 261.398 96.3013 261.046 96.536C260.704 96.7707 260.443 97.096 260.262 97.512C260.08 97.928 259.99 98.4133 259.99 98.968V99.064C259.99 99.6827 260.086 100.205 260.278 100.632C260.48 101.048 260.774 101.363 261.158 101.576C261.542 101.789 262.016 101.896 262.582 101.896C263.03 101.896 263.467 101.827 263.894 101.688C264.331 101.539 264.742 101.309 265.126 101L265.606 102.12C265.254 102.44 264.8 102.691 264.246 102.872C263.691 103.053 263.131 103.144 262.566 103.144ZM267.495 103V95.192H269.063V96.856H268.887C269.122 96.2587 269.49 95.8107 269.991 95.512C270.493 95.2027 271.069 95.048 271.719 95.048C272.338 95.048 272.85 95.1653 273.255 95.4C273.671 95.624 273.981 95.9707 274.183 96.44C274.386 96.8987 274.487 97.48 274.487 98.184V103H272.871V98.28C272.871 97.832 272.813 97.4693 272.695 97.192C272.578 96.904 272.402 96.6907 272.167 96.552C271.933 96.4133 271.629 96.344 271.255 96.344C270.829 96.344 270.45 96.4347 270.119 96.616C269.799 96.7973 269.549 97.0587 269.367 97.4C269.197 97.7413 269.111 98.136 269.111 98.584V103H267.495Z" fill="#2E3032"/>
</g>
<defs>
<clipPath id="clip0_12009_21916">
<rect width="410" height="205" rx="12" fill="white"/>
</clipPath>
</defs>
</svg>
