<svg width="410" height="205" viewBox="0 0 410 205" fill="none" xmlns="http://www.w3.org/2000/svg">
<g clip-path="url(#clip0_11978_11668)">
<rect width="410" height="205" rx="12" fill="#F5D9A8"/>
<path d="M-46.0572 169.955H195.969V170.09H-46.0572V169.955Z" fill="#EBEBEB"/>
<path d="M112.122 173.415H123.342V173.55H112.122V173.415Z" fill="#EBEBEB"/>
<path d="M-26.0997 176.321H1.33154V176.456H-26.0997V176.321Z" fill="#EBEBEB"/>
<path d="M147.859 176.321H175.291V176.456H147.859V176.321Z" fill="#EBEBEB"/>
<path d="M148.193 33.3136H107.872C107.466 33.3129 107.064 33.4019 106.689 33.5755C106.314 33.7491 105.973 34.0039 105.686 34.3253C105.4 34.6467 105.172 35.0283 105.017 35.4484C104.862 35.8685 104.783 36.3186 104.783 36.7732V169.831H151.252V36.7677C151.251 35.8568 150.929 34.9831 150.357 34.3364C149.784 33.6897 149.006 33.3222 148.193 33.3136Z" fill="#F5F5F5"/>
<path d="M141.426 41.377H147.419V56.3214H141.426V41.377Z" fill="#EBEBEB"/>
<path d="M108.656 41.377H114.648V56.3214H108.656V41.377Z" fill="#EBEBEB"/>
<path d="M130.506 41.377H136.498V56.3214H130.506V41.377Z" fill="#EBEBEB"/>
<path d="M119.581 41.377H125.573V56.3214H119.581V41.377Z" fill="#EBEBEB"/>
<path d="M141.426 64.9702H147.419V79.9147H141.426V64.9702Z" fill="#EBEBEB"/>
<path d="M108.656 64.9702H114.648V79.9147H108.656V64.9702Z" fill="#EBEBEB"/>
<path d="M130.506 64.9702H136.498V79.9147H130.506V64.9702Z" fill="#EBEBEB"/>
<path d="M119.581 64.9702H125.573V79.9147H119.581V64.9702Z" fill="#EBEBEB"/>
<path d="M141.426 88.5582H147.419V103.503H141.426V88.5582Z" fill="#EBEBEB"/>
<path d="M108.656 88.5582H114.648V103.503H108.656V88.5582Z" fill="#EBEBEB"/>
<path d="M130.506 88.5582H136.498V103.503H130.506V88.5582Z" fill="#EBEBEB"/>
<path d="M119.581 88.5582H125.573V103.503H119.581V88.5582Z" fill="#EBEBEB"/>
<path d="M141.426 112.151H147.419V127.096H141.426V112.151Z" fill="#EBEBEB"/>
<path d="M108.656 112.151H114.648V127.096H108.656V112.151Z" fill="#EBEBEB"/>
<path d="M130.506 112.151H136.498V127.096H130.506V112.151Z" fill="#EBEBEB"/>
<path d="M119.581 112.151H125.573V127.096H119.581V112.151Z" fill="#EBEBEB"/>
<path d="M141.426 135.739H147.419V150.684H141.426V135.739Z" fill="#EBEBEB"/>
<path d="M108.656 135.739H114.648V150.684H108.656V135.739Z" fill="#EBEBEB"/>
<path d="M130.506 135.739H136.498V150.684H130.506V135.739Z" fill="#EBEBEB"/>
<path d="M119.581 135.739H125.573V150.684H119.581V135.739Z" fill="#EBEBEB"/>
<path d="M5.28138 45.7148H-23.5875C-24.2534 45.7163 -24.8917 46.0132 -25.3626 46.5407C-25.8334 47.0682 -26.0985 47.7832 -26.0998 48.5291V169.831H7.78394V48.5345C7.78395 47.7895 7.52075 47.0748 7.05184 46.5464C6.58294 46.0181 5.94643 45.7191 5.28138 45.7148Z" fill="#F5F5F5"/>
<path d="M-1.96964 53.0516H3.47595V66.635H-1.96964V53.0516Z" fill="#EBEBEB"/>
<path d="M-1.96964 74.4976H3.47595V88.0809H-1.96964V74.4976Z" fill="#EBEBEB"/>
<path d="M-1.96964 95.9491H3.47595V109.532H-1.96964V95.9491Z" fill="#EBEBEB"/>
<path d="M-1.96964 117.39H3.47595V130.973H-1.96964V117.39Z" fill="#EBEBEB"/>
<path d="M-1.96964 138.841H3.47595V152.424H-1.96964V138.841Z" fill="#EBEBEB"/>
<path d="M71.4176 11H24.5225C23.5699 11 22.6564 11.4239 21.9828 12.1785C21.3092 12.933 20.9308 13.9564 20.9308 15.0235V169.831H75.0044V15.0235C75.0044 13.9573 74.6266 12.9348 73.9541 12.1804C73.2816 11.426 72.3693 11.0014 71.4176 11Z" fill="#F5F5F5"/>
<path d="M63.5469 20.3864H70.5172V37.7709H63.5469V20.3864Z" fill="#EBEBEB"/>
<path d="M25.423 20.3864H32.3933V37.7709H25.423V20.3864Z" fill="#EBEBEB"/>
<path d="M50.8406 20.3864H57.8109V37.7709H50.8406V20.3864Z" fill="#EBEBEB"/>
<path d="M38.1294 20.3864H45.0997V37.7709H38.1294V20.3864Z" fill="#EBEBEB"/>
<path d="M63.5469 47.8352H70.5172V65.2198H63.5469V47.8352Z" fill="#EBEBEB"/>
<path d="M25.423 47.8352H32.3933V65.2198H25.423V47.8352Z" fill="#EBEBEB"/>
<path d="M50.8406 47.8352H57.8109V65.2198H50.8406V47.8352Z" fill="#EBEBEB"/>
<path d="M38.1294 47.8352H45.0997V65.2198H38.1294V47.8352Z" fill="#EBEBEB"/>
<path d="M63.5469 75.2838H70.5172V92.6684H63.5469V75.2838Z" fill="#EBEBEB"/>
<path d="M25.423 75.2838H32.3933V92.6684H25.423V75.2838Z" fill="#EBEBEB"/>
<path d="M50.8406 75.2838H57.8109V92.6684H50.8406V75.2838Z" fill="#EBEBEB"/>
<path d="M38.1294 75.2838H45.0997V92.6684H38.1294V75.2838Z" fill="#EBEBEB"/>
<path d="M63.5469 102.727H70.5172V120.112H63.5469V102.727Z" fill="#EBEBEB"/>
<path d="M25.423 102.727H32.3933V120.112H25.423V102.727Z" fill="#EBEBEB"/>
<path d="M50.8406 102.727H57.8109V120.112H50.8406V102.727Z" fill="#EBEBEB"/>
<path d="M38.1294 102.727H45.0997V120.112H38.1294V102.727Z" fill="#EBEBEB"/>
<path d="M63.5469 130.171H70.5172V147.555H63.5469V130.171Z" fill="#EBEBEB"/>
<path d="M25.423 130.171H32.3933V147.555H25.423V130.171Z" fill="#EBEBEB"/>
<path d="M50.8406 130.171H57.8109V147.555H50.8406V130.171Z" fill="#EBEBEB"/>
<path d="M38.1294 130.171H45.0997V147.555H38.1294V130.171Z" fill="#EBEBEB"/>
<path d="M75.0092 67.8876H104.798V169.836H75.0092V67.8876Z" fill="#E6E6E6"/>
<path d="M7.76475 78.8031H20.9261V169.831H7.76475V78.8031Z" fill="#E6E6E6"/>
<path d="M151.281 169.831H177.353V127.269L151.281 117.39V169.831Z" fill="#E6E6E6"/>
<path d="M74.9561 194.443C23.1225 194.443 -18.8969 190.586 -18.8969 185.827C-18.8969 181.068 23.1225 177.211 74.9561 177.211C126.79 177.211 168.809 181.068 168.809 185.827C168.809 190.586 126.79 194.443 74.9561 194.443Z" fill="#F5F5F5"/>
<path d="M51.8764 151.801H60.1053C64.3891 151.801 67.8501 158.758 67.8501 167.342C67.8501 175.926 64.3794 182.877 60.1053 182.877H51.8764C47.5925 182.877 44.1315 175.92 44.1315 167.342C44.1315 158.763 47.5925 151.801 51.8764 151.801Z" fill="#263238"/>
<mask id="mask0_11978_11668" style="mask-type:luminance" maskUnits="userSpaceOnUse" x="44" y="151" width="24" height="32">
<path d="M51.8764 151.801H60.1053C64.3891 151.801 67.8501 158.758 67.8501 167.342C67.8501 175.926 64.3794 182.877 60.1053 182.877H51.8764C47.5925 182.877 44.1315 175.92 44.1315 167.342C44.1315 158.763 47.5925 151.801 51.8764 151.801Z" fill="white"/>
</mask>
<g mask="url(#mask0_11978_11668)">
<path opacity="0.05" d="M42.1953 151.801H50.4242C54.7081 151.801 58.1691 158.758 58.1691 167.342C58.1691 175.926 54.6984 182.877 50.4242 182.877H42.1953C37.9115 182.877 34.4505 175.92 34.4505 167.342C34.4505 158.763 37.9115 151.801 42.1953 151.801Z" fill="white"/>
</g>
<path d="M-14.7827 155.13L129.315 155.016V51.9073H-14.7827V155.13Z" fill="#FFFAF1"/>
<path opacity="0.3" d="M-14.7826 51.9073H82.8799V155.125H-14.7826V51.9073Z" fill="#263238"/>
<path opacity="0.2" d="M82.8799 51.9073H129.315V157.164H82.8799V51.9073Z" fill="white"/>
<path opacity="0.1" d="M128.967 56.7008H-14.7827" stroke="white" stroke-width="2" stroke-linecap="round" stroke-linejoin="round"/>
<path opacity="0.1" d="M128.967 61.1636H-14.7827" stroke="white" stroke-width="2" stroke-linecap="round" stroke-linejoin="round"/>
<path opacity="0.1" d="M128.967 65.621H-14.7827" stroke="white" stroke-width="2" stroke-linecap="round" stroke-linejoin="round"/>
<path opacity="0.1" d="M128.967 70.0782H-14.7827" stroke="white" stroke-width="2" stroke-linecap="round" stroke-linejoin="round"/>
<path opacity="0.1" d="M128.967 74.5409H-14.7827" stroke="white" stroke-width="2" stroke-linecap="round" stroke-linejoin="round"/>
<path opacity="0.1" d="M128.967 78.9983H-14.7827" stroke="white" stroke-width="2" stroke-linecap="round" stroke-linejoin="round"/>
<path opacity="0.1" d="M128.967 83.4556H-14.7827" stroke="white" stroke-width="2" stroke-linecap="round" stroke-linejoin="round"/>
<path opacity="0.1" d="M128.967 87.9128H-14.7827" stroke="white" stroke-width="2" stroke-linecap="round" stroke-linejoin="round"/>
<path opacity="0.1" d="M128.967 92.3756H-14.7827" stroke="white" stroke-width="2" stroke-linecap="round" stroke-linejoin="round"/>
<path opacity="0.1" d="M128.967 96.8329H-14.7827" stroke="white" stroke-width="2" stroke-linecap="round" stroke-linejoin="round"/>
<path opacity="0.1" d="M128.967 101.29H-14.7827" stroke="white" stroke-width="2" stroke-linecap="round" stroke-linejoin="round"/>
<path opacity="0.1" d="M128.967 105.753H-14.7827" stroke="white" stroke-width="2" stroke-linecap="round" stroke-linejoin="round"/>
<path opacity="0.1" d="M128.967 110.21H-14.7827" stroke="white" stroke-width="2" stroke-linecap="round" stroke-linejoin="round"/>
<path opacity="0.1" d="M128.967 114.667H-14.7827" stroke="white" stroke-width="2" stroke-linecap="round" stroke-linejoin="round"/>
<path opacity="0.1" d="M128.967 119.125H-14.7827" stroke="white" stroke-width="2" stroke-linecap="round" stroke-linejoin="round"/>
<path opacity="0.1" d="M128.967 123.588H-14.7827" stroke="white" stroke-width="2" stroke-linecap="round" stroke-linejoin="round"/>
<path opacity="0.1" d="M128.967 128.045H-14.7827" stroke="white" stroke-width="2" stroke-linecap="round" stroke-linejoin="round"/>
<path opacity="0.1" d="M128.967 132.502H-14.7827" stroke="white" stroke-width="2" stroke-linecap="round" stroke-linejoin="round"/>
<path opacity="0.1" d="M128.967 136.965H-14.7827" stroke="white" stroke-width="2" stroke-linecap="round" stroke-linejoin="round"/>
<path opacity="0.1" d="M128.967 141.422H-14.7827" stroke="white" stroke-width="2" stroke-linecap="round" stroke-linejoin="round"/>
<path opacity="0.1" d="M128.967 145.88H-14.7827" stroke="white" stroke-width="2" stroke-linecap="round" stroke-linejoin="round"/>
<path opacity="0.1" d="M128.967 150.342H-14.7827" stroke="white" stroke-width="2" stroke-linecap="round" stroke-linejoin="round"/>
<path d="M155.759 153.829H163.373C167.342 153.829 170.556 160.271 170.556 168.22C170.556 176.17 167.342 182.606 163.373 182.606H155.759C151.79 182.606 148.576 176.164 148.576 168.22C148.576 160.276 151.79 153.829 155.759 153.829Z" fill="#263238"/>
<path opacity="0.05" d="M146.073 153.829H153.692C157.661 153.829 160.875 160.271 160.875 168.22C160.875 176.17 157.661 182.606 153.692 182.606H146.073C142.109 182.606 138.89 176.164 138.89 168.22C138.89 160.276 142.109 153.829 146.073 153.829Z" fill="white"/>
<path d="M159.994 125.724H163.596C164.302 125.751 164.883 124.905 164.898 123.831C164.907 123.72 164.907 123.607 164.898 123.495L163.93 111.311C163.809 110.058 163.116 109.142 162.284 109.082H158.649C157.947 109.082 157.366 109.912 157.351 110.986C157.351 111.094 157.351 111.202 157.351 111.311L158.32 123.495C158.465 124.732 159.181 125.691 159.994 125.724Z" fill="#263238"/>
<path d="M156.393 85.4782L163.339 127.443L87.7155 160.629L88.2432 77.9246L104.875 77.3824H150.434C153.174 77.3553 155.589 80.6521 156.393 85.4782Z" fill="#E0B464"/>
<path d="M100.127 92.2291C102.949 92.0881 105.48 94.6801 106.308 98.5463L112.03 125.399H123.042L123.642 160.824H87.4203" fill="#FFFAF1"/>
<path d="M155.309 123.143C156.417 123.143 157.313 121.549 157.313 119.586C157.313 119.244 157.284 118.902 157.226 118.566L153.068 93.9264C152.719 91.8821 151.654 90.4831 150.449 90.4885H110.669C110.239 90.4885 109.885 91.1067 109.885 91.8767C109.884 92.0132 109.896 92.1495 109.919 92.2834C110.79 97.3589 113.622 114.174 114.706 120.605C114.958 122.113 115.742 123.143 116.643 123.143H155.309Z" fill="#263238"/>
<path d="M118.705 134.064C118.705 134.496 118.733 134.927 118.787 135.354L118.995 136.943L119.116 137.881L120.007 144.735L121.459 155.879L121.861 158.975H178.151V155.879L178.113 144.735L178.059 138.071V135.36C178.543 131.781 176.999 128.31 174.647 127.589C174.371 127.505 174.086 127.463 173.8 127.465H123.042C120.646 127.443 118.705 130.414 118.705 134.064Z" fill="#E0B464"/>
<path d="M90.0922 93.8234V120.236C90.0922 121.836 90.8232 123.137 91.7283 123.143H105.485C106.39 123.143 107.121 121.841 107.121 120.236C107.122 119.975 107.102 119.714 107.063 119.456L102.823 92.4515C102.62 91.1555 101.942 90.2825 101.187 90.3313L91.6702 90.9169C90.7893 90.9766 90.0922 92.2617 90.0922 93.8234Z" fill="#263238"/>
<path opacity="0.1" d="M132.103 90.4885H139.703L148.43 123.143H140.826L132.103 90.4885Z" fill="white"/>
<path opacity="0.1" d="M126.188 90.4885H129.819L138.541 123.143H134.916L126.188 90.4885Z" fill="white"/>
<path d="M104.12 144.735V155.879H178.141L178.103 144.735H104.12Z" fill="black"/>
<path d="M114.431 144.735H121.275L133.584 152.837V155.879H104.12V144.735H114.431Z" fill="white"/>
<path d="M165.382 152.837V155.879H178.141L178.103 144.735H177.686L165.382 152.837Z" fill="white"/>
<path opacity="0.3" d="M87.6817 160.824L88.2432 77.9247L98.4083 77.3824C100.945 77.2414 103.873 80.5437 104.614 84.372L111.981 127.443H114.852C118.075 127.443 120.283 130.073 120.278 132.866L120.234 160.835H87.6817" fill="#263238"/>
<path d="M118.893 137.334C118.894 137.436 118.915 137.538 118.953 137.631C118.992 137.725 119.047 137.808 119.116 137.876C119.234 137.999 119.39 138.067 119.552 138.066H178.059V136.591H119.537C119.426 136.591 119.316 136.623 119.219 136.684C119.122 136.744 119.04 136.832 118.981 136.938C118.919 137.058 118.889 137.195 118.893 137.334Z" fill="white"/>
<path d="M167.739 136.596V138.071H178.079L178.074 136.596H167.739Z" fill="#263238"/>
<path d="M118.893 137.334C118.894 137.436 118.915 137.538 118.953 137.631C118.992 137.725 119.047 137.808 119.116 137.876C119.234 137.999 119.39 138.067 119.552 138.066H133.744V136.591H119.552C119.44 136.591 119.331 136.623 119.233 136.684C119.136 136.744 119.054 136.832 118.995 136.938C118.929 137.056 118.894 137.194 118.893 137.334Z" fill="#263238"/>
<path d="M-17.3674 157.809V158.102C-17.3674 158.821 -17.1124 159.511 -16.6586 160.019C-16.2047 160.527 -15.5891 160.813 -14.9472 160.813H177.319C177.961 160.813 178.576 160.527 179.03 160.019C179.484 159.511 179.739 158.821 179.739 158.102V157.809C179.739 157.09 179.484 156.4 179.03 155.892C178.576 155.383 177.961 155.098 177.319 155.098H-14.9472C-15.5891 155.098 -16.2047 155.383 -16.6586 155.892C-17.1124 156.4 -17.3674 157.09 -17.3674 157.809Z" fill="#263238"/>
<path d="M134.683 157.326H163.339V158.894H134.683V157.326Z" fill="black"/>
<path d="M170.963 158.107C170.963 158.284 171.01 158.457 171.097 158.604C171.185 158.751 171.309 158.865 171.455 158.933C171.601 159.001 171.761 159.019 171.916 158.985C172.071 158.951 172.213 158.866 172.325 158.742C172.437 158.617 172.513 158.458 172.544 158.285C172.576 158.112 172.561 157.932 172.501 157.768C172.441 157.605 172.34 157.465 172.209 157.366C172.078 157.267 171.924 157.213 171.767 157.212C171.661 157.212 171.557 157.234 171.459 157.279C171.362 157.324 171.273 157.389 171.199 157.473C171.124 157.556 171.065 157.655 171.024 157.763C170.984 157.872 170.963 157.989 170.963 158.107Z" fill="white"/>
<path d="M127.839 158.107C127.839 158.284 127.886 158.457 127.973 158.604C128.061 158.752 128.186 158.866 128.332 158.934C128.478 159.002 128.638 159.019 128.793 158.985C128.948 158.95 129.091 158.865 129.202 158.74C129.314 158.615 129.39 158.455 129.421 158.282C129.452 158.108 129.436 157.928 129.375 157.765C129.315 157.601 129.213 157.462 129.081 157.363C128.95 157.265 128.795 157.213 128.637 157.213C128.533 157.213 128.429 157.236 128.332 157.281C128.235 157.326 128.147 157.392 128.073 157.475C127.999 157.558 127.94 157.656 127.9 157.765C127.859 157.874 127.839 157.99 127.839 158.107Z" fill="white"/>
<path d="M104.682 166.989C104.682 158.362 101.192 151.367 96.8835 151.367H105.156C109.459 151.367 112.949 158.362 112.949 166.989C112.949 175.617 109.459 182.606 105.156 182.606H96.8835C101.192 182.622 104.682 175.633 104.682 166.989Z" fill="black"/>
<path opacity="0.7" d="M104.682 166.989C104.682 158.362 101.192 151.367 96.8835 151.367H105.156C109.459 151.367 112.949 158.362 112.949 166.989C112.949 175.617 109.459 182.606 105.156 182.606H96.8835C101.192 182.622 104.682 175.633 104.682 166.989Z" fill="#263238"/>
<path d="M96.8836 182.628C92.5768 182.628 89.0855 175.634 89.0855 167.006C89.0855 158.378 92.5768 151.383 96.8836 151.383C101.19 151.383 104.682 158.378 104.682 167.006C104.682 175.634 101.19 182.628 96.8836 182.628Z" fill="#263238"/>
<path d="M96.2592 179.185C93.2063 179.185 90.7313 173.732 90.7313 167.006C90.7313 160.279 93.2063 154.827 96.2592 154.827C99.3122 154.827 101.787 160.279 101.787 167.006C101.787 173.732 99.3122 179.185 96.2592 179.185Z" fill="white"/>
<path d="M96.7625 177.547C93.8406 177.547 91.4718 172.827 91.4718 167.005C91.4718 161.184 93.8406 156.464 96.7625 156.464C99.6845 156.464 102.053 161.184 102.053 167.005C102.053 172.827 99.6845 177.547 96.7625 177.547Z" fill="#263238"/>
<path d="M97.9244 174.7C95.791 174.7 94.0616 171.255 94.0616 167.005C94.0616 162.756 95.791 159.311 97.9244 159.311C100.058 159.311 101.787 162.756 101.787 167.005C101.787 171.255 100.058 174.7 97.9244 174.7Z" fill="black"/>
<path opacity="0.5" d="M-17.3674 157.809V158.102C-17.3674 158.821 -17.1124 159.511 -16.6586 160.019C-16.2047 160.527 -15.5891 160.813 -14.9472 160.813H82.8799V155.098H-14.9472C-15.5891 155.098 -16.2047 155.383 -16.6586 155.892C-17.1124 156.4 -17.3674 157.09 -17.3674 157.809Z" fill="black"/>
<path d="M13.0359 166.989C13.0359 158.362 9.54586 151.367 5.24263 151.367H13.5102C17.8183 151.367 21.3083 158.362 21.3083 166.989C21.3083 175.617 17.8183 182.606 13.5102 182.606H5.25231C9.54586 182.622 13.0359 175.633 13.0359 166.989Z" fill="black"/>
<path opacity="0.7" d="M13.0359 166.989C13.0359 158.362 9.54586 151.367 5.24263 151.367H13.5102C17.8183 151.367 21.3083 158.362 21.3083 166.989C21.3083 175.617 17.8183 182.606 13.5102 182.606H5.25231C9.54586 182.622 13.0359 175.633 13.0359 166.989Z" fill="#263238"/>
<path d="M5.24269 182.628C0.935922 182.628 -2.55541 175.634 -2.55541 167.006C-2.55541 158.378 0.935922 151.383 5.24269 151.383C9.54945 151.383 13.0408 158.378 13.0408 167.006C13.0408 175.634 9.54945 182.628 5.24269 182.628Z" fill="#263238"/>
<path d="M4.61334 179.185C1.56038 179.185 -0.914532 173.732 -0.914532 167.006C-0.914532 160.279 1.56038 154.827 4.61334 154.827C7.66631 154.827 10.1412 160.279 10.1412 167.006C10.1412 173.732 7.66631 179.185 4.61334 179.185Z" fill="white"/>
<path d="M5.12166 177.547C2.19969 177.547 -0.16905 172.827 -0.16905 167.005C-0.16905 161.184 2.19969 156.464 5.12166 156.464C8.04363 156.464 10.4124 161.184 10.4124 167.005C10.4124 172.827 8.04363 177.547 5.12166 177.547Z" fill="#263238"/>
<path d="M6.28339 174.7C4.15005 174.7 2.42064 171.255 2.42064 167.005C2.42064 162.756 4.15005 159.311 6.28339 159.311C8.41672 159.311 10.1461 162.756 10.1461 167.005C10.1461 171.255 8.41672 174.7 6.28339 174.7Z" fill="black"/>
<path d="M36.7835 90.5698C36.8803 92.6574 37.0497 94.6746 37.3256 96.7297C37.5641 98.8524 37.9789 100.946 38.5648 102.982C38.7497 103.575 38.9813 104.148 39.257 104.695C39.449 105.064 39.6833 105.403 39.954 105.704L40.0896 105.845L40.167 105.91L40.2058 105.948L40.3703 106.073L40.6946 106.328C41.5168 106.919 42.3814 107.432 43.2795 107.862C44.984 108.701 46.7554 109.359 48.5702 109.825L49.1995 107.895C47.6602 106.94 46.0822 105.964 44.6445 104.95C43.9418 104.467 43.2661 103.937 42.6212 103.361L42.4082 103.161L42.3017 103.058C42.3017 103.058 42.2581 102.976 42.2049 102.846C42.0635 102.496 41.947 102.133 41.8564 101.762C41.6376 100.87 41.4646 99.9647 41.3384 99.0506C41.1884 98.107 41.0674 97.1473 40.9657 96.1712C40.7673 94.2354 40.5978 92.2507 40.4817 90.3203L36.7835 90.5698Z" fill="#FFBE9D"/>
<path d="M48.0523 107.922L51.0244 106.892L50.4678 110.921C50.4678 110.921 48.5315 110.649 47.5634 109.435L48.0523 107.922Z" fill="#FFBE9D"/>
<path d="M54.6257 109.484L54.4611 110.026C54.3682 110.325 54.191 110.583 53.9562 110.76C53.7214 110.937 53.4416 111.024 53.159 111.007L51.6439 110.931L52.2054 106.892L53.8706 107.624C54.1864 107.764 54.4414 108.037 54.5822 108.383C54.7229 108.73 54.7385 109.124 54.6257 109.484Z" fill="#FFBE9D"/>
<path d="M33.2693 86.6602C33.2693 87.9182 33.8114 90.4017 34.2761 92.2671C34.6198 93.6064 34.9054 94.6258 34.9054 94.6258L35.5879 94.4361L41.2126 92.8418C41.2997 89.5883 41.1884 86.0474 38.3083 83.9218C36.5076 82.5879 33.2838 84.4207 33.2693 86.6602Z" fill="#263238"/>
<path opacity="0.3" d="M33.2742 86.877C33.6421 86.4432 34.4746 86.3673 36.2898 87.0125C38.8892 87.9344 39.6153 91.1228 39.6492 93.2864L35.588 94.436L35.2395 94.539L34.9055 94.6257C34.9055 94.6257 34.7651 94.116 34.5618 93.3406C34.4795 93.0261 34.3778 92.6574 34.281 92.2561C33.7965 90.5021 33.4595 88.7012 33.2742 86.877Z" fill="black"/>
<path d="M44.814 187.888L48.246 186.543L46.0871 178.214L42.66 179.564L44.814 187.888Z" fill="#FFBE9D"/>
<path d="M-1.04041 178.018L1.75257 180.35L7.46924 173.859L4.67626 171.528L-1.04041 178.018Z" fill="#FFBE9D"/>
<path d="M2.89499 179.401L-0.12066 176.609C-0.171713 176.559 -0.237025 176.532 -0.304603 176.532C-0.37218 176.532 -0.437477 176.559 -0.48853 176.609L-2.80232 178.962C-2.85427 179.02 -2.89549 179.089 -2.92363 179.165C-2.95176 179.241 -2.96624 179.322 -2.96624 179.404C-2.96624 179.486 -2.95176 179.568 -2.92363 179.643C-2.89549 179.719 -2.85427 179.788 -2.80232 179.846L-2.75391 179.895C-1.68899 180.849 -1.12749 181.25 0.198816 182.476C1.01203 183.23 2.72074 185.035 3.84858 186.076C4.97642 187.118 5.9542 185.93 5.56696 185.382C3.83889 182.931 3.43712 181.316 3.23382 179.992C3.18504 179.758 3.06535 179.549 2.89499 179.401Z" fill="#263238"/>
<path d="M48.4783 185.339L44.664 187.123C44.596 187.156 44.5394 187.214 44.5027 187.286C44.4661 187.358 44.4513 187.442 44.4607 187.524L44.8915 191.293C44.9084 191.444 44.978 191.581 45.0851 191.675C45.1922 191.768 45.3279 191.81 45.4627 191.792C45.5128 191.786 45.5618 191.771 45.6079 191.749C46.9584 191.136 47.5925 190.832 49.2673 190.046L54.408 187.633C55.802 186.977 55.5019 185.263 54.892 185.388C52.07 185.963 50.25 185.773 49.1366 185.301C49.0301 185.258 48.9171 185.24 48.8041 185.246C48.6911 185.253 48.5804 185.284 48.4783 185.339Z" fill="#263238"/>
<path opacity="0.2" d="M46.0871 178.219L47.1956 182.508L43.8556 184.2L42.6551 179.564L46.0871 178.219Z" fill="black"/>
<path opacity="0.2" d="M4.67141 171.528L7.46924 173.859L4.52136 177.205L1.72838 174.873L4.67141 171.528Z" fill="black"/>
<path d="M22.717 107.016L36.8513 107.244C38.7875 94.9837 39.2716 89.1328 39.2716 86.3185C39.2741 85.6166 39.0578 84.9357 38.6602 84.3933C38.2626 83.8508 37.7084 83.4808 37.0933 83.347C36.2317 83.1572 35.1571 82.9403 34.0777 82.7722C33.7098 82.718 33.3371 82.6637 32.9692 82.6204C30.8346 82.4152 28.6897 82.3808 26.5507 82.5173C26.2312 82.5173 25.9166 82.5499 25.5826 82.5716C24.1304 82.6746 22.8041 82.8806 21.8602 83.0433C21.5207 83.1046 21.2168 83.3143 21.0153 83.6265C20.8138 83.9386 20.7312 84.3277 20.7856 84.708C20.7832 84.7351 20.7832 84.7623 20.7856 84.7894C21.2019 86.9584 21.5407 88.8834 21.8118 90.5969C22.2426 93.3081 22.5137 95.5205 22.6734 97.4509C22.9154 100.633 22.93 103.832 22.717 107.016Z" fill="#263238"/>
<path opacity="0.1" d="M22.6783 97.4673C23.3898 95.0759 23.3511 90.1143 22.5863 88.5093L21.807 90.6078C22.2475 93.3353 22.5185 95.5368 22.6783 97.4673Z" fill="black"/>
<path d="M36.8513 107.244C36.8513 107.244 39.2715 130.295 41.4546 144.659C43.1827 155.906 47.5488 179.315 47.5488 179.315L41.8806 181.565C41.8806 181.565 35.3894 157.164 34.2519 146.742C29.6776 131.716 26.386 107.13 26.386 107.13L36.8513 107.244Z" fill="#FFFAF1"/>
<path d="M48.4686 180.887L41.9097 183.474L41.0336 181.115L48.1492 178.067L48.4686 180.887Z" fill="#263238"/>
<path opacity="0.1" d="M29.6873 114.093L31.8075 118.642C32.582 122.069 32.398 130.409 31.4154 135.68C29.6534 127.736 28.2449 119.374 27.3687 113.762L29.6873 114.093Z" fill="black"/>
<path d="M33.7825 107.244C33.7825 107.244 31.2509 133.044 26.5217 147.37C24.1498 154.555 6.55449 175.855 6.55449 175.855L2.58525 172.298C2.58525 172.298 13.7427 150.808 18.6219 145.185C20.6114 132.713 18.1088 114.017 22.7315 107.022L33.7825 107.244Z" fill="#FFFAF1"/>
<path d="M6.2204 177.379L1.56382 173.106L2.82236 170.79L7.91943 175.763L6.2204 177.379Z" fill="#263238"/>
<path d="M22.4943 106.089L21.8409 107.494C21.7925 107.602 21.9038 107.721 22.0684 107.721L36.8998 107.96C37.0304 107.96 37.1321 107.889 37.1466 107.803L37.287 106.387C37.287 106.29 37.1853 106.203 37.0498 106.203L22.7315 105.97C22.6863 105.967 22.6412 105.976 22.5999 105.997C22.5586 106.018 22.5224 106.049 22.4943 106.089Z" fill="#263238"/>
<path d="M24.416 107.922H24.0239C23.9513 107.922 23.8932 107.873 23.898 107.824L24.1062 105.981C24.1062 105.926 24.1739 105.888 24.2514 105.888H24.6144C24.6919 105.888 24.75 105.937 24.7403 105.986L24.537 107.824C24.5612 107.868 24.4886 107.922 24.416 107.922Z" fill="#FFFAF1"/>
<path d="M35.8347 108.095H35.4475C35.3701 108.095 35.3168 108.047 35.3217 107.992L35.5201 106.154C35.5201 106.1 35.5976 106.057 35.675 106.057H36.0623C36.1397 106.057 36.1978 106.105 36.193 106.16L35.9896 107.998C35.98 108.052 35.9122 108.095 35.8347 108.095Z" fill="#FFFAF1"/>
<path d="M30.123 107.992H29.7357C29.6583 107.992 29.6002 107.944 29.605 107.889L29.8083 106.051C29.8083 105.992 29.8809 105.948 29.9584 105.954H30.3456C30.4231 105.954 30.4763 106.002 30.4763 106.057L30.273 107.895C30.2779 107.96 30.2004 107.992 30.123 107.992Z" fill="#FFFAF1"/>
<path d="M55.7681 91.0145L34.7892 87.7881L31.8849 110.861L52.4862 114.028L55.7681 91.0145Z" fill="#FFFAF1"/>
<path opacity="0.8" d="M55.7681 91.0145L34.7892 87.7881L31.8849 110.861L52.4862 114.028L55.7681 91.0145Z" fill="white"/>
<path opacity="0.2" d="M34.5013 86.674L40.1033 87.5614L37.0985 111.364L31.4965 110.477L34.5013 86.674Z" fill="#FFFAF1"/>
<path d="M28.8403 107.954L31.7446 106.68L31.459 110.747C31.459 110.747 29.5228 110.638 28.4821 109.505L28.8403 107.954Z" fill="#FFBE9D"/>
<path d="M19.7061 87.7068C18.9268 90.1469 18.254 92.587 17.6828 95.0814C17.3924 96.334 17.1213 97.592 16.9035 98.8772C16.797 99.5279 16.705 100.189 16.6372 100.878C16.5594 101.598 16.5319 102.323 16.555 103.047C16.5685 103.519 16.6335 103.987 16.7486 104.441C16.9076 104.999 17.1736 105.512 17.5279 105.943C18.0456 106.564 18.6609 107.073 19.3431 107.445C20.4602 108.052 21.6362 108.512 22.8476 108.817C25.1125 109.405 27.4221 109.752 29.7454 109.852L29.9729 107.808C28.9128 107.526 27.8285 107.212 26.7733 106.881C25.7181 106.55 24.6677 106.181 23.6608 105.769C22.6992 105.399 21.7719 104.925 20.8921 104.354C20.5724 104.145 20.2875 103.875 20.0498 103.557C19.9869 103.448 19.9869 103.421 19.9966 103.421C19.9869 103.261 19.9869 103.099 19.9966 102.939C20.0149 102.413 20.065 101.889 20.1466 101.372C20.2241 100.829 20.3306 100.222 20.4467 99.6255C20.6888 98.465 20.9598 97.2775 21.2648 96.09C21.8698 93.7366 22.5524 91.3453 23.2349 89.0407L19.7061 87.7068Z" fill="#FFBE9D"/>
<path d="M34.4213 108.686L34.1938 109.63C34.1255 109.933 33.9709 110.203 33.7534 110.398C33.5359 110.594 33.2674 110.705 32.9885 110.714L31.4299 110.763L31.7155 106.702L33.3032 106.902C33.4717 106.921 33.6353 106.977 33.7844 107.067C33.9336 107.157 34.0655 107.279 34.1725 107.426C34.2795 107.573 34.3596 107.743 34.4081 107.924C34.4566 108.106 34.4726 108.297 34.4552 108.486C34.4481 108.553 34.4368 108.621 34.4213 108.686Z" fill="#FFBE9D"/>
<path d="M21.3567 83.1626C19.7303 83.9055 18.3992 89.8919 18.3992 89.8919L22.8912 93.8232C22.8912 93.8232 26.0763 88.238 25.4276 85.8142C24.8758 83.7645 23.4285 82.2245 21.3567 83.1626Z" fill="#263238"/>
<path d="M3.99376 181.093H4.05185C4.1331 181.087 4.21163 181.058 4.28016 181.008C4.3487 180.959 4.40503 180.891 4.44393 180.811C4.47277 180.765 4.49021 180.711 4.49446 180.655C4.49871 180.599 4.48963 180.542 4.46814 180.491C4.26968 180.057 3.01598 179.884 2.88045 179.868C2.8644 179.864 2.84779 179.867 2.83301 179.874C2.81823 179.882 2.80603 179.895 2.79815 179.911C2.789 179.926 2.7841 179.944 2.7841 179.963C2.7841 179.981 2.789 179.999 2.79815 180.014C3.05954 180.41 3.5678 181.061 3.99376 181.093ZM3.04987 180.079C3.53392 180.16 4.21643 180.339 4.31324 180.578C4.32491 180.598 4.33111 180.622 4.33111 180.646C4.33111 180.67 4.32491 180.693 4.31324 180.714C4.2904 180.769 4.25443 180.817 4.20921 180.851C4.164 180.886 4.11127 180.905 4.05669 180.909C3.81467 180.909 3.42742 180.616 3.04018 180.079H3.04987Z" fill="#263238"/>
<path d="M2.93856 180.041C3.35969 180.041 4.20194 179.873 4.39072 179.499C4.42078 179.434 4.43043 179.36 4.41814 179.288C4.40585 179.216 4.37231 179.151 4.32295 179.103C4.28028 179.051 4.22779 179.009 4.16921 178.982C4.11064 178.955 4.04745 178.943 3.98412 178.946C3.47586 178.946 2.83207 179.819 2.81271 179.868C2.8054 179.881 2.80152 179.896 2.80152 179.911C2.80152 179.926 2.8054 179.941 2.81271 179.954C2.81656 179.97 2.82464 179.985 2.83588 179.995C2.84712 180.006 2.86098 180.012 2.87563 180.014L2.93856 180.041ZM4.01316 179.141C4.08138 179.148 4.14495 179.183 4.19226 179.239C4.26487 179.325 4.25035 179.38 4.23099 179.423C4.11966 179.662 3.4565 179.857 3.03054 179.857C3.27325 179.516 3.6022 179.264 3.97443 179.136L4.01316 179.141Z" fill="#263238"/>
<path d="M50.4289 185.252C50.698 185.154 50.9331 184.964 51.1018 184.71C51.1401 184.635 51.1634 184.551 51.1701 184.465C51.1768 184.379 51.1667 184.292 51.1405 184.211C51.1272 184.164 51.1033 184.122 51.0711 184.089C51.0388 184.055 50.9993 184.032 50.9566 184.021C50.5112 183.929 49.4608 185.193 49.2575 185.447C49.248 185.463 49.2428 185.482 49.2428 185.502C49.2428 185.521 49.248 185.54 49.2575 185.556C49.2656 185.573 49.2786 185.586 49.2944 185.594C49.3102 185.602 49.3279 185.604 49.3447 185.599C49.7156 185.525 50.0789 185.409 50.4289 185.252ZM50.7629 184.233C50.8126 184.206 50.8678 184.195 50.9227 184.2C50.9227 184.2 50.9662 184.2 50.9856 184.265C51.0051 184.322 51.0126 184.382 51.0076 184.443C51.0025 184.503 50.9851 184.561 50.9566 184.612C50.8065 184.905 50.2886 185.182 49.5528 185.361C49.8981 184.917 50.3031 184.536 50.7532 184.233H50.7629Z" fill="#263238"/>
<path d="M49.3496 185.588H49.3787C49.732 185.192 50.3081 184.005 50.1096 183.625C50.066 183.544 49.974 183.457 49.7659 183.522C48.9866 183.777 49.2238 185.469 49.2383 185.539C49.2382 185.557 49.2442 185.574 49.255 185.588C49.2658 185.601 49.2805 185.609 49.2964 185.61C49.3062 185.612 49.3164 185.612 49.3258 185.608C49.3352 185.604 49.3435 185.597 49.3496 185.588ZM49.7369 183.696H49.7853C49.8627 183.669 49.9208 183.696 49.9402 183.696C50.0563 183.918 49.6836 184.813 49.3448 185.29C49.3496 184.873 49.3012 183.913 49.7369 183.696Z" fill="#263238"/>
<path d="M34.7408 66.2932C34.7408 66.2932 36.677 69.9209 35.2248 71.5097C33.7727 73.0985 33.3467 67.4645 33.3467 67.4645L34.7408 66.2932Z" fill="#263238"/>
<path d="M25.747 74.8066C25.747 74.8066 23.3268 70.5662 24.3336 66.3529C25.3404 62.1396 30.0454 64.8617 32.03 63.7067C32.7572 63.2116 33.5317 62.8096 34.339 62.5083C34.4687 62.4652 34.6055 62.456 34.739 62.4814C34.8724 62.5068 34.9988 62.5661 35.1086 62.6547C35.5927 63.1319 34.7504 64.0266 34.489 64.3628C34.6498 64.1545 34.8355 63.972 35.0408 63.8206C35.2974 63.6308 35.6411 63.6145 35.5249 64.0971C35.3258 64.6157 34.9691 65.0383 34.5181 65.2901C34.7068 65.1708 35.825 64.5363 35.9025 64.9322C35.9121 65.0282 35.8897 65.1248 35.8395 65.2033C35.1134 66.7216 33.6516 68.6303 31.9671 68.6683C29.9389 68.7008 28.0027 75.0939 25.747 74.8066Z" fill="#263238"/>
<path d="M24.8904 74.9964C25.0163 76.4279 26.9138 76.4442 26.9138 76.4442C27.2244 77.2635 27.7406 77.9643 28.3998 78.4614C28.4581 79.3259 28.4322 80.1951 28.3224 81.0533C28.0029 82.4035 27.5963 82.8699 27.088 83.1735L27.4946 83.6236C28.2729 84.1266 29.1521 84.4008 30.0504 84.4207L30.5829 84.0737L31.2799 84.1984C33.2161 83.488 32.7321 82.0294 32.7321 82.0294C32.3789 81.0389 32.36 79.9381 32.6788 78.9331C34.5376 78.2824 35.2975 76.4713 35.5589 73.4239C35.8203 70.3764 34.2907 67.4591 34.2907 67.4591C32.1899 69.7311 28.0271 68.2725 28.0271 68.2725C28.2062 72.5454 26.4249 74.1234 26.4249 74.1234C25.8392 73.5377 24.7694 73.5703 24.8904 74.9964Z" fill="#FFBE9D"/>
<path d="M31.6478 75.3868C31.1482 75.2302 30.7164 74.8756 30.4328 74.389C30.4099 74.3506 30.4012 74.3038 30.4084 74.2583C30.4156 74.2128 30.4382 74.1722 30.4715 74.145C30.488 74.1314 30.5068 74.1215 30.5267 74.116C30.5466 74.1105 30.5673 74.1095 30.5875 74.113C30.6078 74.1166 30.6272 74.1246 30.6447 74.1366C30.6622 74.1486 30.6774 74.1644 30.6894 74.183C30.8527 74.5119 31.1058 74.7736 31.4116 74.9297C31.7173 75.0858 32.0596 75.1282 32.3884 75.0506C32.4275 75.037 32.4699 75.0414 32.5062 75.0627C32.5425 75.0841 32.5698 75.1206 32.582 75.1645C32.5943 75.2091 32.5905 75.2573 32.5716 75.2988C32.5526 75.3403 32.5198 75.3719 32.4804 75.3868C32.2074 75.4667 31.9207 75.4667 31.6478 75.3868Z" fill="#263238"/>
<path d="M31.0959 71.6561C31.0959 71.9327 31.1927 72.1713 31.3573 72.1984C31.5219 72.2255 31.672 71.9978 31.6913 71.7212C31.7107 71.4447 31.5897 71.179 31.4251 71.179C31.2605 71.179 31.1153 71.3742 31.0959 71.6561Z" fill="#263238"/>
<path d="M34.0583 71.5152C34.0583 71.7917 34.1551 72.0303 34.3197 72.0574C34.4843 72.0846 34.6295 71.8568 34.6489 71.5803C34.6683 71.3037 34.5521 71.0651 34.3875 71.038C34.2229 71.0109 34.0729 71.2332 34.0583 71.5152Z" fill="#263238"/>
<path d="M33.2741 74.1993L33.308 72.193L34.1986 73.8848C34.0755 74.0117 33.9284 74.1058 33.7684 74.1603C33.6083 74.2147 33.4394 74.2281 33.2741 74.1993Z" fill="#BA4D3C"/>
<path d="M29.7454 69.9642C29.7243 69.9578 29.7046 69.9468 29.6873 69.9317C29.6637 69.9161 29.6431 69.8954 29.6268 69.8707C29.6105 69.846 29.5989 69.8178 29.5925 69.7879C29.5862 69.7581 29.5853 69.727 29.59 69.6968C29.5946 69.6665 29.6047 69.6376 29.6196 69.6118C29.7808 69.3091 30.0146 69.0632 30.2945 68.9022C30.5743 68.7411 30.8889 68.6713 31.2024 68.7008C31.2297 68.7041 31.256 68.7136 31.2799 68.7286C31.3038 68.7436 31.3248 68.7639 31.3415 68.7882C31.3582 68.8125 31.3704 68.8403 31.3773 68.87C31.3842 68.8998 31.3856 68.9307 31.3815 68.9611C31.3743 69.0221 31.3458 69.0775 31.3023 69.115C31.2587 69.1526 31.2037 69.1694 31.1492 69.1617C30.9151 69.1454 30.6816 69.2015 30.4741 69.3239C30.2667 69.4463 30.0933 69.6303 29.9729 69.8558C29.9503 69.8987 29.9161 69.9324 29.8751 69.952C29.8342 69.9715 29.7887 69.9758 29.7454 69.9642Z" fill="#263238"/>
<path d="M34.9974 69.7419C34.943 69.726 34.8962 69.6871 34.8667 69.6334C34.7799 69.4864 34.6569 69.3707 34.5125 69.3004C34.3682 69.2302 34.2087 69.2084 34.0535 69.2376C34.0268 69.2439 33.9992 69.244 33.9724 69.2381C33.9456 69.2322 33.9201 69.2202 33.8976 69.203C33.875 69.1858 33.8557 69.1637 33.8409 69.1379C33.8261 69.1122 33.8161 69.0834 33.8115 69.0532C33.8016 68.9929 33.8133 68.9306 33.8441 68.8798C33.8749 68.829 33.9223 68.7939 33.9761 68.7821C34.2156 68.7324 34.4629 68.7648 34.6858 68.875C34.9086 68.9853 35.0965 69.1684 35.2249 69.4003C35.252 69.4538 35.2595 69.517 35.246 69.5766C35.2325 69.6362 35.1989 69.6876 35.1523 69.7202C35.1049 69.7486 35.0497 69.7563 34.9974 69.7419Z" fill="#263238"/>
<path d="M26.2989 83.3633L27.3396 84.502L29.1935 86.5409L29.8906 85.2991L30.5828 84.0736L28.1625 80.8418L26.4006 83.2277L26.2989 83.3633Z" fill="white"/>
<path d="M30.5828 84.0737L31.1201 85.0769L31.9091 86.541L33.7195 82.8808L32.5626 81.3571L30.5828 84.0737Z" fill="white"/>
<path d="M205.984 64.24C204.112 64.24 202.528 63.888 201.232 63.184C199.952 62.48 198.976 61.48 198.304 60.184C197.632 58.888 197.296 57.352 197.296 55.576C197.296 53.784 197.64 52.24 198.328 50.944C199.016 49.632 200.008 48.624 201.304 47.92C202.6 47.2 204.152 46.84 205.96 46.84C206.76 46.84 207.52 46.92 208.24 47.08C208.976 47.224 209.656 47.44 210.28 47.728C210.904 48.016 211.44 48.368 211.888 48.784L210.856 51.184C210.104 50.592 209.336 50.168 208.552 49.912C207.768 49.656 206.904 49.528 205.96 49.528C204.168 49.528 202.808 50.048 201.88 51.088C200.968 52.128 200.512 53.624 200.512 55.576C200.512 57.544 200.984 59.04 201.928 60.064C202.872 61.088 204.272 61.6 206.128 61.6C206.768 61.6 207.416 61.536 208.072 61.408C208.728 61.28 209.368 61.104 209.992 60.88L209.392 62.248V57.136H205.504V54.856H211.96V62.992C211.448 63.248 210.856 63.472 210.184 63.664C209.528 63.84 208.84 63.976 208.12 64.072C207.4 64.184 206.688 64.24 205.984 64.24ZM219.312 64.24C217.92 64.24 216.888 63.864 216.216 63.112C215.56 62.344 215.232 61.224 215.232 59.752V47.08H218.232V59.608C218.232 60.072 218.296 60.472 218.424 60.808C218.568 61.128 218.776 61.368 219.048 61.528C219.32 61.688 219.656 61.768 220.056 61.768C220.232 61.768 220.408 61.76 220.584 61.744C220.76 61.728 220.928 61.696 221.088 61.648L221.04 64.024C220.752 64.088 220.464 64.136 220.176 64.168C219.904 64.216 219.616 64.24 219.312 64.24ZM222.704 49.744V46.816H226.064V49.744H222.704ZM222.896 64V52.264H225.896V64H222.896ZM233.525 64.24C232.501 64.24 231.597 63.992 230.813 63.496C230.045 63 229.445 62.296 229.013 61.384C228.581 60.456 228.365 59.368 228.365 58.12C228.365 56.856 228.581 55.776 229.013 54.88C229.445 53.968 230.045 53.264 230.813 52.768C231.597 52.272 232.501 52.024 233.525 52.024C234.501 52.024 235.349 52.264 236.069 52.744C236.805 53.224 237.301 53.856 237.557 54.64H237.293V47.08H240.293V64H237.365V61.504H237.581C237.341 62.336 236.853 63 236.117 63.496C235.381 63.992 234.517 64.24 233.525 64.24ZM234.365 61.96C235.261 61.96 235.981 61.64 236.525 61C237.069 60.344 237.341 59.384 237.341 58.12C237.341 56.84 237.069 55.888 236.525 55.264C235.981 54.624 235.261 54.304 234.365 54.304C233.469 54.304 232.749 54.624 232.205 55.264C231.661 55.888 231.389 56.84 231.389 58.12C231.389 59.384 231.661 60.344 232.205 61C232.749 61.64 233.469 61.96 234.365 61.96ZM250.161 64V47.08H253.233V61.384H261.345V64H250.161ZM268.584 64.24C267.368 64.24 266.312 63.992 265.416 63.496C264.52 63 263.824 62.296 263.328 61.384C262.832 60.456 262.584 59.368 262.584 58.12C262.584 56.872 262.832 55.792 263.328 54.88C263.824 53.968 264.52 53.264 265.416 52.768C266.312 52.272 267.368 52.024 268.584 52.024C269.8 52.024 270.856 52.272 271.752 52.768C272.648 53.264 273.344 53.968 273.84 54.88C274.336 55.792 274.584 56.872 274.584 58.12C274.584 59.368 274.336 60.456 273.84 61.384C273.344 62.296 272.648 63 271.752 63.496C270.856 63.992 269.8 64.24 268.584 64.24ZM268.584 61.96C269.48 61.96 270.2 61.64 270.744 61C271.288 60.344 271.56 59.384 271.56 58.12C271.56 56.84 271.288 55.888 270.744 55.264C270.2 54.624 269.48 54.304 268.584 54.304C267.688 54.304 266.968 54.624 266.424 55.264C265.88 55.888 265.608 56.84 265.608 58.12C265.608 59.384 265.88 60.344 266.424 61C266.968 61.64 267.688 61.96 268.584 61.96ZM282.532 68.56C281.444 68.56 280.42 68.432 279.46 68.176C278.516 67.936 277.684 67.56 276.964 67.048L277.828 64.96C278.276 65.248 278.748 65.488 279.244 65.68C279.74 65.888 280.244 66.04 280.756 66.136C281.268 66.232 281.78 66.28 282.292 66.28C283.364 66.28 284.164 66.016 284.692 65.488C285.236 64.976 285.508 64.208 285.508 63.184V61.024H285.724C285.484 61.84 284.98 62.496 284.212 62.992C283.46 63.472 282.604 63.712 281.644 63.712C280.588 63.712 279.668 63.472 278.884 62.992C278.1 62.496 277.492 61.808 277.06 60.928C276.628 60.048 276.412 59.024 276.412 57.856C276.412 56.688 276.628 55.672 277.06 54.808C277.492 53.928 278.1 53.248 278.884 52.768C279.668 52.272 280.588 52.024 281.644 52.024C282.636 52.024 283.5 52.272 284.236 52.768C284.988 53.248 285.476 53.888 285.7 54.688H285.508V52.264H288.436V62.824C288.436 64.088 288.212 65.144 287.764 65.992C287.316 66.856 286.652 67.496 285.772 67.912C284.892 68.344 283.812 68.56 282.532 68.56ZM282.46 61.432C283.388 61.432 284.124 61.112 284.668 60.472C285.212 59.832 285.484 58.96 285.484 57.856C285.484 56.752 285.212 55.888 284.668 55.264C284.124 54.624 283.388 54.304 282.46 54.304C281.532 54.304 280.796 54.624 280.252 55.264C279.708 55.888 279.436 56.752 279.436 57.856C279.436 58.96 279.708 59.832 280.252 60.472C280.796 61.112 281.532 61.432 282.46 61.432ZM291.352 49.744V46.816H294.712V49.744H291.352ZM291.544 64V52.264H294.544V64H291.544ZM301.958 64.24C301.302 64.24 300.662 64.184 300.038 64.072C299.43 63.96 298.87 63.808 298.358 63.616C297.846 63.408 297.398 63.152 297.014 62.848L297.782 60.88C298.182 61.136 298.614 61.36 299.078 61.552C299.542 61.744 300.022 61.888 300.518 61.984C301.014 62.08 301.502 62.128 301.982 62.128C302.75 62.128 303.318 62 303.686 61.744C304.07 61.472 304.262 61.12 304.262 60.688C304.262 60.32 304.134 60.04 303.878 59.848C303.638 59.64 303.27 59.488 302.774 59.392L300.374 58.936C299.382 58.744 298.622 58.384 298.094 57.856C297.582 57.312 297.326 56.616 297.326 55.768C297.326 55 297.534 54.336 297.95 53.776C298.382 53.216 298.974 52.784 299.726 52.48C300.478 52.176 301.342 52.024 302.318 52.024C302.878 52.024 303.422 52.08 303.95 52.192C304.478 52.288 304.974 52.44 305.438 52.648C305.918 52.84 306.334 53.096 306.686 53.416L305.87 55.384C305.566 55.128 305.214 54.912 304.814 54.736C304.414 54.544 303.998 54.4 303.566 54.304C303.15 54.192 302.742 54.136 302.342 54.136C301.558 54.136 300.974 54.272 300.59 54.544C300.222 54.816 300.038 55.176 300.038 55.624C300.038 55.96 300.15 56.24 300.374 56.464C300.598 56.688 300.942 56.84 301.406 56.92L303.806 57.376C304.846 57.568 305.63 57.92 306.158 58.432C306.702 58.944 306.974 59.632 306.974 60.496C306.974 61.28 306.766 61.952 306.35 62.512C305.934 63.072 305.35 63.504 304.598 63.808C303.846 64.096 302.966 64.24 301.958 64.24ZM314.639 64.24C313.071 64.24 311.903 63.848 311.135 63.064C310.367 62.28 309.983 61.136 309.983 59.632V54.52H307.727V52.264H309.983V48.76H312.983V52.264H316.535V54.52H312.983V59.464C312.983 60.232 313.151 60.808 313.487 61.192C313.823 61.576 314.367 61.768 315.119 61.768C315.343 61.768 315.575 61.744 315.815 61.696C316.055 61.632 316.303 61.568 316.559 61.504L317.015 63.712C316.727 63.872 316.359 64 315.911 64.096C315.479 64.192 315.055 64.24 314.639 64.24ZM318.282 49.744V46.816H321.642V49.744H318.282ZM318.474 64V52.264H321.474V64H318.474ZM324.591 64V47.08H327.591V57.256H327.639L332.367 52.264H335.991L330.087 58.504V57.256L336.327 64H332.655L327.639 58.768H327.591V64H324.591Z" fill="#2E3032"/>
<path d="M197.312 94V82.72H201.984C202.805 82.72 203.499 82.8587 204.064 83.136C204.629 83.4027 205.056 83.792 205.344 84.304C205.643 84.816 205.792 85.4347 205.792 86.16C205.792 86.8853 205.643 87.5093 205.344 88.032C205.056 88.544 204.629 88.9387 204.064 89.216C203.499 89.4827 202.805 89.616 201.984 89.616H198.976V94H197.312ZM198.976 88.288H201.744C202.544 88.288 203.147 88.112 203.552 87.76C203.968 87.3973 204.176 86.864 204.176 86.16C204.176 85.4667 203.968 84.944 203.552 84.592C203.147 84.2293 202.544 84.048 201.744 84.048H198.976V88.288ZM210.691 94.144C209.837 94.144 209.101 93.984 208.483 93.664C207.875 93.3333 207.4 92.8693 207.059 92.272C206.728 91.664 206.563 90.944 206.563 90.112C206.563 89.3013 206.728 88.592 207.059 87.984C207.389 87.376 207.843 86.9013 208.419 86.56C208.995 86.2187 209.651 86.048 210.387 86.048C211.112 86.048 211.731 86.208 212.243 86.528C212.765 86.8373 213.165 87.28 213.443 87.856C213.72 88.432 213.859 89.12 213.859 89.92V90.464H207.843V89.472H212.771L212.499 89.696C212.499 88.896 212.323 88.2773 211.971 87.84C211.619 87.4027 211.112 87.184 210.451 87.184C209.949 87.184 209.523 87.3013 209.171 87.536C208.829 87.7707 208.568 88.096 208.387 88.512C208.205 88.928 208.115 89.4133 208.115 89.968V90.064C208.115 90.6827 208.211 91.2053 208.403 91.632C208.605 92.048 208.899 92.3627 209.283 92.576C209.667 92.7893 210.141 92.896 210.707 92.896C211.155 92.896 211.592 92.8267 212.019 92.688C212.456 92.5387 212.867 92.3093 213.251 92L213.731 93.12C213.379 93.44 212.925 93.6907 212.371 93.872C211.816 94.0533 211.256 94.144 210.691 94.144ZM215.62 94V86.192H217.188V87.856H217.012C217.247 87.2587 217.615 86.8107 218.116 86.512C218.618 86.2027 219.194 86.048 219.844 86.048C220.463 86.048 220.975 86.1653 221.38 86.4C221.796 86.624 222.106 86.9707 222.308 87.44C222.511 87.8987 222.612 88.48 222.612 89.184V94H220.996V89.28C220.996 88.832 220.938 88.4693 220.82 88.192C220.703 87.904 220.527 87.6907 220.292 87.552C220.058 87.4133 219.754 87.344 219.38 87.344C218.954 87.344 218.575 87.4347 218.244 87.616C217.924 87.7973 217.674 88.0587 217.492 88.4C217.322 88.7413 217.236 89.136 217.236 89.584V94H215.62ZM228.375 97.024C227.671 97.024 227.015 96.9387 226.407 96.768C225.799 96.5973 225.26 96.3413 224.791 96L225.287 94.848C225.596 95.0507 225.911 95.2213 226.231 95.36C226.562 95.5093 226.892 95.616 227.223 95.68C227.564 95.744 227.911 95.776 228.263 95.776C229.01 95.776 229.57 95.584 229.943 95.2C230.316 94.8267 230.503 94.272 230.503 93.536V91.904H230.647C230.487 92.4907 230.151 92.9547 229.639 93.296C229.127 93.6373 228.535 93.808 227.863 93.808C227.159 93.808 226.546 93.648 226.023 93.328C225.5 92.9973 225.095 92.544 224.807 91.968C224.519 91.3813 224.375 90.6987 224.375 89.92C224.375 89.1413 224.519 88.464 224.807 87.888C225.095 87.312 225.5 86.864 226.023 86.544C226.546 86.2133 227.159 86.048 227.863 86.048C228.546 86.048 229.138 86.2187 229.639 86.56C230.151 86.9013 230.482 87.3653 230.631 87.952H230.503V86.192H232.071V93.344C232.071 94.1547 231.932 94.832 231.655 95.376C231.378 95.9307 230.962 96.3413 230.407 96.608C229.863 96.8853 229.186 97.024 228.375 97.024ZM228.247 92.544C228.94 92.544 229.484 92.3093 229.879 91.84C230.284 91.3707 230.487 90.7307 230.487 89.92C230.487 89.12 230.284 88.4853 229.879 88.016C229.484 87.5467 228.94 87.312 228.247 87.312C227.564 87.312 227.02 87.5467 226.615 88.016C226.21 88.4853 226.007 89.12 226.007 89.92C226.007 90.7307 226.21 91.3707 226.615 91.84C227.02 92.3093 227.564 92.544 228.247 92.544ZM234.195 84.384V82.704H236.083V84.384H234.195ZM234.339 94V86.192H235.955V94H234.339ZM238.23 94V86.192H239.798V88.064H239.638C239.808 87.424 240.112 86.9387 240.55 86.608C240.998 86.2773 241.59 86.0853 242.326 86.032L242.854 86L242.966 87.376L241.99 87.472C241.296 87.536 240.768 87.7547 240.406 88.128C240.043 88.5013 239.862 89.0133 239.862 89.664V94H238.23ZM244.055 84.384V82.704H245.943V84.384H244.055ZM244.199 94V86.192H245.815V94H244.199ZM248.121 94V86.192H249.689V87.856H249.513C249.652 87.472 249.844 87.1467 250.089 86.88C250.334 86.6133 250.628 86.4107 250.969 86.272C251.321 86.1227 251.705 86.048 252.121 86.048C252.772 86.048 253.3 86.2027 253.705 86.512C254.11 86.8213 254.388 87.296 254.537 87.936H254.313C254.516 87.3493 254.862 86.8907 255.353 86.56C255.844 86.2187 256.414 86.048 257.065 86.048C257.662 86.048 258.153 86.1653 258.537 86.4C258.921 86.624 259.209 86.9707 259.401 87.44C259.593 87.8987 259.689 88.48 259.689 89.184V94H258.073V89.264C258.073 88.6027 257.956 88.1173 257.721 87.808C257.497 87.4987 257.124 87.344 256.601 87.344C256.217 87.344 255.881 87.4347 255.593 87.616C255.305 87.7973 255.081 88.064 254.921 88.416C254.772 88.7573 254.697 89.1627 254.697 89.632V94H253.081V89.264C253.081 88.6027 252.969 88.1173 252.745 87.808C252.521 87.4987 252.148 87.344 251.625 87.344C251.23 87.344 250.889 87.4347 250.601 87.616C250.324 87.7973 250.11 88.064 249.961 88.416C249.812 88.7573 249.737 89.1627 249.737 89.632V94H248.121ZM264.445 94.144C263.901 94.144 263.41 94.0373 262.973 93.824C262.546 93.6107 262.21 93.3227 261.965 92.96C261.719 92.5973 261.597 92.1867 261.597 91.728C261.597 91.152 261.741 90.6987 262.029 90.368C262.327 90.0267 262.813 89.7867 263.485 89.648C264.167 89.4987 265.085 89.424 266.237 89.424H266.989V90.416H266.253C265.677 90.416 265.191 90.4373 264.797 90.48C264.402 90.5227 264.087 90.592 263.853 90.688C263.618 90.7733 263.447 90.896 263.341 91.056C263.245 91.216 263.197 91.408 263.197 91.632C263.197 92.0373 263.335 92.368 263.613 92.624C263.89 92.8693 264.274 92.992 264.765 92.992C265.159 92.992 265.506 92.9013 265.805 92.72C266.103 92.528 266.338 92.272 266.509 91.952C266.69 91.632 266.781 91.264 266.781 90.848V89.008C266.781 88.4 266.653 87.9627 266.397 87.696C266.141 87.4293 265.719 87.296 265.133 87.296C264.685 87.296 264.237 87.3653 263.789 87.504C263.341 87.632 262.882 87.84 262.413 88.128L261.917 86.992C262.194 86.8 262.514 86.6347 262.877 86.496C263.239 86.3573 263.618 86.2507 264.013 86.176C264.418 86.0907 264.807 86.048 265.181 86.048C265.895 86.048 266.482 86.16 266.941 86.384C267.41 86.608 267.757 86.9493 267.981 87.408C268.205 87.8667 268.317 88.4587 268.317 89.184V94H266.797V92.256H266.941C266.855 92.6507 266.695 92.992 266.461 93.28C266.237 93.5573 265.954 93.7707 265.613 93.92C265.271 94.0693 264.882 94.144 264.445 94.144ZM270.542 94V86.192H272.11V87.856H271.934C272.169 87.2587 272.537 86.8107 273.038 86.512C273.54 86.2027 274.116 86.048 274.766 86.048C275.385 86.048 275.897 86.1653 276.302 86.4C276.718 86.624 277.028 86.9707 277.23 87.44C277.433 87.8987 277.534 88.48 277.534 89.184V94H275.918V89.28C275.918 88.832 275.86 88.4693 275.742 88.192C275.625 87.904 275.449 87.6907 275.214 87.552C274.98 87.4133 274.676 87.344 274.302 87.344C273.876 87.344 273.497 87.4347 273.166 87.616C272.846 87.7973 272.596 88.0587 272.414 88.4C272.244 88.7413 272.158 89.136 272.158 89.584V94H270.542ZM289.196 94.144C288.055 94.144 287.079 93.9093 286.268 93.44C285.457 92.9707 284.833 92.304 284.396 91.44C283.969 90.5653 283.756 89.536 283.756 88.352C283.756 87.168 283.969 86.144 284.396 85.28C284.833 84.416 285.457 83.7493 286.268 83.28C287.079 82.8107 288.055 82.576 289.196 82.576C289.964 82.576 290.679 82.6987 291.34 82.944C292.012 83.1787 292.572 83.52 293.02 83.968L292.444 85.296C291.953 84.8587 291.447 84.544 290.924 84.352C290.412 84.1493 289.852 84.048 289.244 84.048C288.028 84.048 287.1 84.4213 286.46 85.168C285.82 85.9147 285.5 86.976 285.5 88.352C285.5 89.728 285.82 90.7947 286.46 91.552C287.1 92.2987 288.028 92.672 289.244 92.672C289.852 92.672 290.412 92.576 290.924 92.384C291.447 92.1813 291.953 91.8613 292.444 91.424L293.02 92.752C292.572 93.2 292.012 93.5467 291.34 93.792C290.679 94.0267 289.964 94.144 289.196 94.144ZM297.878 94.144C297.025 94.144 296.289 93.984 295.67 93.664C295.062 93.3333 294.587 92.8693 294.246 92.272C293.915 91.664 293.75 90.944 293.75 90.112C293.75 89.3013 293.915 88.592 294.246 87.984C294.577 87.376 295.03 86.9013 295.606 86.56C296.182 86.2187 296.838 86.048 297.574 86.048C298.299 86.048 298.918 86.208 299.43 86.528C299.953 86.8373 300.353 87.28 300.63 87.856C300.907 88.432 301.046 89.12 301.046 89.92V90.464H295.03V89.472H299.958L299.686 89.696C299.686 88.896 299.51 88.2773 299.158 87.84C298.806 87.4027 298.299 87.184 297.638 87.184C297.137 87.184 296.71 87.3013 296.358 87.536C296.017 87.7707 295.755 88.096 295.574 88.512C295.393 88.928 295.302 89.4133 295.302 89.968V90.064C295.302 90.6827 295.398 91.2053 295.59 91.632C295.793 92.048 296.086 92.3627 296.47 92.576C296.854 92.7893 297.329 92.896 297.894 92.896C298.342 92.896 298.779 92.8267 299.206 92.688C299.643 92.5387 300.054 92.3093 300.438 92L300.918 93.12C300.566 93.44 300.113 93.6907 299.558 93.872C299.003 94.0533 298.443 94.144 297.878 94.144ZM302.808 96.88V86.192H304.392V87.952H304.216C304.387 87.376 304.723 86.9173 305.224 86.576C305.725 86.224 306.317 86.048 307 86.048C307.693 86.048 308.296 86.2133 308.808 86.544C309.331 86.8747 309.731 87.3387 310.008 87.936C310.296 88.5333 310.44 89.2533 310.44 90.096C310.44 90.9173 310.296 91.6373 310.008 92.256C309.731 92.864 309.336 93.3333 308.824 93.664C308.312 93.984 307.704 94.144 307 94.144C306.328 94.144 305.741 93.9733 305.24 93.632C304.739 93.2907 304.403 92.8373 304.232 92.272H304.424V96.88H302.808ZM306.6 92.896C307.272 92.896 307.805 92.656 308.2 92.176C308.605 91.696 308.808 91.0027 308.808 90.096C308.808 89.1787 308.605 88.4853 308.2 88.016C307.805 87.5467 307.272 87.312 306.6 87.312C305.939 87.312 305.405 87.5467 305 88.016C304.595 88.4853 304.392 89.1787 304.392 90.096C304.392 91.0027 304.595 91.696 305 92.176C305.405 92.656 305.939 92.896 306.6 92.896ZM314.757 94.144C314.213 94.144 313.722 94.0373 313.285 93.824C312.858 93.6107 312.522 93.3227 312.277 92.96C312.032 92.5973 311.909 92.1867 311.909 91.728C311.909 91.152 312.053 90.6987 312.341 90.368C312.64 90.0267 313.125 89.7867 313.797 89.648C314.48 89.4987 315.397 89.424 316.549 89.424H317.301V90.416H316.565C315.989 90.416 315.504 90.4373 315.109 90.48C314.714 90.5227 314.4 90.592 314.165 90.688C313.93 90.7733 313.76 90.896 313.653 91.056C313.557 91.216 313.509 91.408 313.509 91.632C313.509 92.0373 313.648 92.368 313.925 92.624C314.202 92.8693 314.586 92.992 315.077 92.992C315.472 92.992 315.818 92.9013 316.117 92.72C316.416 92.528 316.65 92.272 316.821 91.952C317.002 91.632 317.093 91.264 317.093 90.848V89.008C317.093 88.4 316.965 87.9627 316.709 87.696C316.453 87.4293 316.032 87.296 315.445 87.296C314.997 87.296 314.549 87.3653 314.101 87.504C313.653 87.632 313.194 87.84 312.725 88.128L312.229 86.992C312.506 86.8 312.826 86.6347 313.189 86.496C313.552 86.3573 313.93 86.2507 314.325 86.176C314.73 86.0907 315.12 86.048 315.493 86.048C316.208 86.048 316.794 86.16 317.253 86.384C317.722 86.608 318.069 86.9493 318.293 87.408C318.517 87.8667 318.629 88.4587 318.629 89.184V94H317.109V92.256H317.253C317.168 92.6507 317.008 92.992 316.773 93.28C316.549 93.5573 316.266 93.7707 315.925 93.92C315.584 94.0693 315.194 94.144 314.757 94.144ZM324.183 94.144C323.212 94.144 322.481 93.8933 321.991 93.392C321.511 92.8907 321.271 92.1653 321.271 91.216V87.44H319.751V86.192H321.271V83.84H322.887V86.192H325.303V87.44H322.887V91.088C322.887 91.6533 323.004 92.08 323.239 92.368C323.484 92.656 323.879 92.8 324.423 92.8C324.583 92.8 324.743 92.7787 324.903 92.736C325.073 92.6933 325.239 92.6507 325.399 92.608L325.655 93.824C325.495 93.92 325.271 93.9947 324.983 94.048C324.705 94.112 324.439 94.144 324.183 94.144ZM327.573 95.968L326.868 95.424C327.082 95.2 327.242 94.992 327.349 94.8C327.466 94.608 327.546 94.416 327.589 94.224C327.642 94.032 327.669 93.84 327.669 93.648L328.021 94H326.757V92.096H328.661V93.392C328.661 93.712 328.623 94.016 328.549 94.304C328.485 94.592 328.373 94.8693 328.213 95.136C328.063 95.4133 327.85 95.6907 327.573 95.968ZM333.989 94L339.013 82.72H340.389L345.429 94H343.733L342.357 90.8L343.109 91.248H336.293L337.029 90.8L335.669 94H333.989ZM339.685 84.56L337.269 90.288L336.869 89.904H342.517L342.149 90.288L339.717 84.56H339.685ZM346.762 94V86.192H348.33V87.856H348.154C348.292 87.472 348.484 87.1467 348.73 86.88C348.975 86.6133 349.268 86.4107 349.61 86.272C349.962 86.1227 350.346 86.048 350.762 86.048C351.412 86.048 351.94 86.2027 352.346 86.512C352.751 86.8213 353.028 87.296 353.178 87.936H352.954C353.156 87.3493 353.503 86.8907 353.994 86.56C354.484 86.2187 355.055 86.048 355.706 86.048C356.303 86.048 356.794 86.1653 357.178 86.4C357.562 86.624 357.85 86.9707 358.042 87.44C358.234 87.8987 358.33 88.48 358.33 89.184V94H356.714V89.264C356.714 88.6027 356.596 88.1173 356.362 87.808C356.138 87.4987 355.764 87.344 355.242 87.344C354.858 87.344 354.522 87.4347 354.234 87.616C353.946 87.7973 353.722 88.064 353.562 88.416C353.412 88.7573 353.338 89.1627 353.338 89.632V94H351.722V89.264C351.722 88.6027 351.61 88.1173 351.386 87.808C351.162 87.4987 350.788 87.344 350.266 87.344C349.871 87.344 349.53 87.4347 349.242 87.616C348.964 87.7973 348.751 88.064 348.602 88.416C348.452 88.7573 348.378 89.1627 348.378 89.632V94H346.762ZM363.085 94.144C362.541 94.144 362.05 94.0373 361.613 93.824C361.186 93.6107 360.85 93.3227 360.605 92.96C360.36 92.5973 360.237 92.1867 360.237 91.728C360.237 91.152 360.381 90.6987 360.669 90.368C360.968 90.0267 361.453 89.7867 362.125 89.648C362.808 89.4987 363.725 89.424 364.877 89.424H365.629V90.416H364.893C364.317 90.416 363.832 90.4373 363.437 90.48C363.042 90.5227 362.728 90.592 362.493 90.688C362.258 90.7733 362.088 90.896 361.981 91.056C361.885 91.216 361.837 91.408 361.837 91.632C361.837 92.0373 361.976 92.368 362.253 92.624C362.53 92.8693 362.914 92.992 363.405 92.992C363.8 92.992 364.146 92.9013 364.445 92.72C364.744 92.528 364.978 92.272 365.149 91.952C365.33 91.632 365.421 91.264 365.421 90.848V89.008C365.421 88.4 365.293 87.9627 365.037 87.696C364.781 87.4293 364.36 87.296 363.773 87.296C363.325 87.296 362.877 87.3653 362.429 87.504C361.981 87.632 361.522 87.84 361.053 88.128L360.557 86.992C360.834 86.8 361.154 86.6347 361.517 86.496C361.88 86.3573 362.258 86.2507 362.653 86.176C363.058 86.0907 363.448 86.048 363.821 86.048C364.536 86.048 365.122 86.16 365.581 86.384C366.05 86.608 366.397 86.9493 366.621 87.408C366.845 87.8667 366.957 88.4587 366.957 89.184V94H365.437V92.256H365.581C365.496 92.6507 365.336 92.992 365.101 93.28C364.877 93.5573 364.594 93.7707 364.253 93.92C363.912 94.0693 363.522 94.144 363.085 94.144ZM369.183 94V86.192H370.751V87.856H370.575C370.81 87.2587 371.178 86.8107 371.679 86.512C372.18 86.2027 372.756 86.048 373.407 86.048C374.026 86.048 374.538 86.1653 374.943 86.4C375.359 86.624 375.668 86.9707 375.871 87.44C376.074 87.8987 376.175 88.48 376.175 89.184V94H374.559V89.28C374.559 88.832 374.5 88.4693 374.383 88.192C374.266 87.904 374.09 87.6907 373.855 87.552C373.62 87.4133 373.316 87.344 372.943 87.344C372.516 87.344 372.138 87.4347 371.807 87.616C371.487 87.7973 371.236 88.0587 371.055 88.4C370.884 88.7413 370.799 89.136 370.799 89.584V94H369.183ZM379.026 95.968L378.322 95.424C378.535 95.2 378.695 94.992 378.802 94.8C378.919 94.608 378.999 94.416 379.042 94.224C379.095 94.032 379.122 93.84 379.122 93.648L379.474 94H378.21V92.096H380.114V93.392C380.114 93.712 380.076 94.016 380.002 94.304C379.938 94.592 379.826 94.8693 379.666 95.136C379.516 95.4133 379.303 95.6907 379.026 95.968ZM200.112 118.144C199.429 118.144 198.827 117.984 198.304 117.664C197.792 117.333 197.392 116.864 197.104 116.256C196.816 115.637 196.672 114.917 196.672 114.096C196.672 113.253 196.816 112.533 197.104 111.936C197.392 111.339 197.792 110.875 198.304 110.544C198.827 110.213 199.429 110.048 200.112 110.048C200.795 110.048 201.381 110.219 201.872 110.56C202.373 110.891 202.709 111.339 202.88 111.904H202.704V106.72H204.32V118H202.736V116.24H202.896C202.725 116.816 202.389 117.28 201.888 117.632C201.397 117.973 200.805 118.144 200.112 118.144ZM200.528 116.896C201.189 116.896 201.723 116.656 202.128 116.176C202.533 115.696 202.736 115.003 202.736 114.096C202.736 113.179 202.533 112.485 202.128 112.016C201.723 111.547 201.189 111.312 200.528 111.312C199.856 111.312 199.317 111.547 198.912 112.016C198.507 112.485 198.304 113.179 198.304 114.096C198.304 115.003 198.507 115.696 198.912 116.176C199.317 116.656 199.856 116.896 200.528 116.896ZM209.085 118.144C208.541 118.144 208.05 118.037 207.613 117.824C207.186 117.611 206.85 117.323 206.605 116.96C206.36 116.597 206.237 116.187 206.237 115.728C206.237 115.152 206.381 114.699 206.669 114.368C206.968 114.027 207.453 113.787 208.125 113.648C208.808 113.499 209.725 113.424 210.877 113.424H211.629V114.416H210.893C210.317 114.416 209.832 114.437 209.437 114.48C209.042 114.523 208.728 114.592 208.493 114.688C208.258 114.773 208.088 114.896 207.981 115.056C207.885 115.216 207.837 115.408 207.837 115.632C207.837 116.037 207.976 116.368 208.253 116.624C208.53 116.869 208.914 116.992 209.405 116.992C209.8 116.992 210.146 116.901 210.445 116.72C210.744 116.528 210.978 116.272 211.149 115.952C211.33 115.632 211.421 115.264 211.421 114.848V113.008C211.421 112.4 211.293 111.963 211.037 111.696C210.781 111.429 210.36 111.296 209.773 111.296C209.325 111.296 208.877 111.365 208.429 111.504C207.981 111.632 207.522 111.84 207.053 112.128L206.557 110.992C206.834 110.8 207.154 110.635 207.517 110.496C207.88 110.357 208.258 110.251 208.653 110.176C209.058 110.091 209.448 110.048 209.821 110.048C210.536 110.048 211.122 110.16 211.581 110.384C212.05 110.608 212.397 110.949 212.621 111.408C212.845 111.867 212.957 112.459 212.957 113.184V118H211.437V116.256H211.581C211.496 116.651 211.336 116.992 211.101 117.28C210.877 117.557 210.594 117.771 210.253 117.92C209.912 118.069 209.522 118.144 209.085 118.144ZM215.183 118V110.192H216.751V111.856H216.575C216.81 111.259 217.178 110.811 217.679 110.512C218.18 110.203 218.756 110.048 219.407 110.048C220.026 110.048 220.538 110.165 220.943 110.4C221.359 110.624 221.668 110.971 221.871 111.44C222.074 111.899 222.175 112.48 222.175 113.184V118H220.559V113.28C220.559 112.832 220.5 112.469 220.383 112.192C220.266 111.904 220.09 111.691 219.855 111.552C219.62 111.413 219.316 111.344 218.943 111.344C218.516 111.344 218.138 111.435 217.807 111.616C217.487 111.797 217.236 112.059 217.055 112.4C216.884 112.741 216.799 113.136 216.799 113.584V118H215.183ZM228.781 118V106.72H236.077V108.064H230.381V111.6H235.741V112.944H230.381V116.656H236.077V118H228.781ZM238.413 118V111.44H236.893V110.192H238.877L238.413 110.624V110.048C238.413 108.981 238.685 108.176 239.229 107.632C239.783 107.077 240.631 106.768 241.773 106.704L242.413 106.672L242.509 107.888L241.853 107.92C241.415 107.941 241.063 108.027 240.797 108.176C240.53 108.325 240.333 108.539 240.205 108.816C240.087 109.083 240.029 109.419 240.029 109.824V110.384V110.192H245.005V118H243.389V111.44H240.029V118H238.413ZM243.245 108.384V106.704H245.133V108.384H243.245ZM249.997 118.144C249.581 118.144 249.176 118.107 248.781 118.032C248.386 117.957 248.024 117.851 247.693 117.712C247.362 117.573 247.069 117.403 246.813 117.2L247.277 116.112C247.544 116.293 247.826 116.453 248.125 116.592C248.424 116.72 248.733 116.816 249.053 116.88C249.384 116.944 249.704 116.976 250.013 116.976C250.578 116.976 251.005 116.875 251.293 116.672C251.581 116.469 251.725 116.197 251.725 115.856C251.725 115.579 251.629 115.365 251.437 115.216C251.245 115.056 250.957 114.933 250.573 114.848L249.053 114.544C248.392 114.405 247.89 114.16 247.549 113.808C247.208 113.456 247.037 113.008 247.037 112.464C247.037 111.973 247.17 111.547 247.437 111.184C247.704 110.821 248.077 110.544 248.557 110.352C249.037 110.149 249.592 110.048 250.221 110.048C250.584 110.048 250.936 110.085 251.277 110.16C251.618 110.235 251.938 110.341 252.237 110.48C252.546 110.619 252.808 110.795 253.021 111.008L252.557 112.096C252.354 111.915 252.12 111.76 251.853 111.632C251.597 111.504 251.33 111.408 251.053 111.344C250.776 111.269 250.498 111.232 250.221 111.232C249.656 111.232 249.229 111.339 248.941 111.552C248.664 111.755 248.525 112.032 248.525 112.384C248.525 112.651 248.61 112.869 248.781 113.04C248.952 113.211 249.218 113.333 249.581 113.408L251.101 113.712C251.794 113.851 252.317 114.085 252.669 114.416C253.032 114.747 253.213 115.195 253.213 115.76C253.213 116.251 253.08 116.677 252.813 117.04C252.546 117.403 252.168 117.68 251.677 117.872C251.197 118.053 250.637 118.144 249.997 118.144ZM254.867 108.384V106.704H256.755V108.384H254.867ZM255.011 118V110.192H256.627V118H255.011ZM262.566 118.144C261.712 118.144 260.976 117.984 260.358 117.664C259.75 117.333 259.275 116.869 258.934 116.272C258.603 115.664 258.438 114.944 258.438 114.112C258.438 113.301 258.603 112.592 258.934 111.984C259.264 111.376 259.718 110.901 260.294 110.56C260.87 110.219 261.526 110.048 262.262 110.048C262.987 110.048 263.606 110.208 264.118 110.528C264.64 110.837 265.04 111.28 265.318 111.856C265.595 112.432 265.734 113.12 265.734 113.92V114.464H259.718V113.472H264.646L264.374 113.696C264.374 112.896 264.198 112.277 263.846 111.84C263.494 111.403 262.987 111.184 262.326 111.184C261.824 111.184 261.398 111.301 261.046 111.536C260.704 111.771 260.443 112.096 260.262 112.512C260.08 112.928 259.99 113.413 259.99 113.968V114.064C259.99 114.683 260.086 115.205 260.278 115.632C260.48 116.048 260.774 116.363 261.158 116.576C261.542 116.789 262.016 116.896 262.582 116.896C263.03 116.896 263.467 116.827 263.894 116.688C264.331 116.539 264.742 116.309 265.126 116L265.606 117.12C265.254 117.44 264.8 117.691 264.246 117.872C263.691 118.053 263.131 118.144 262.566 118.144ZM267.495 118V110.192H269.063V111.856H268.887C269.122 111.259 269.49 110.811 269.991 110.512C270.493 110.203 271.069 110.048 271.719 110.048C272.338 110.048 272.85 110.165 273.255 110.4C273.671 110.624 273.981 110.971 274.183 111.44C274.386 111.899 274.487 112.48 274.487 113.184V118H272.871V113.28C272.871 112.832 272.813 112.469 272.695 112.192C272.578 111.904 272.402 111.691 272.167 111.552C271.933 111.413 271.629 111.344 271.255 111.344C270.829 111.344 270.45 111.435 270.119 111.616C269.799 111.797 269.549 112.059 269.367 112.4C269.197 112.741 269.111 113.136 269.111 113.584V118H267.495Z" fill="#2E3032"/>
</g>
<defs>
<clipPath id="clip0_11978_11668">
<rect width="410" height="205" rx="12" fill="white"/>
</clipPath>
</defs>
</svg>
