<svg width="27" height="29" viewBox="0 0 27 29" fill="none" xmlns="http://www.w3.org/2000/svg">
<path d="M19.2999 7.44595C19.2999 4.26445 16.7209 1.68535 13.5394 1.68535C12.0074 1.67895 10.536 2.28295 9.45036 3.36395C8.36476 4.44495 7.75446 5.91385 7.75446 7.44595M19.1169 27.3148H7.98636C3.89786 27.3148 0.761356 25.838 1.65226 19.8945L2.68966 11.8395C3.23886 8.87385 5.13056 7.73885 6.79036 7.73885H20.3617C22.0459 7.73885 23.8278 8.95925 24.4624 11.8395L25.4998 19.8945C26.2564 25.1668 23.2053 27.3148 19.1169 27.3148Z" stroke="#0092AC" stroke-width="2" stroke-linecap="round" stroke-linejoin="round"/>
<path d="M17.4932 13.4504H17.4332" stroke="#0092AC" stroke-width="2" stroke-linecap="round" stroke-linejoin="round"/>
<path d="M9.72005 13.4504H9.65875" stroke="#0092AC" stroke-width="2" stroke-linecap="round" stroke-linejoin="round"/>
</svg>
