<svg width="81" height="26" viewBox="0 0 81 26" fill="none" xmlns="http://www.w3.org/2000/svg">
<g clip-path="url(#clip0_11946_2551)">
<path d="M43.135 12.3882C48.1437 10.0444 48.884 2.39502 41.7597 2.39502H33.5087L30.4606 8.56467H31.8952L28.2485 23.3067H37.8141C44.793 23.3678 47.9323 14.8895 43.1358 12.389L43.135 12.3882ZM37.8133 17.94H35.4233L36.3194 14.6089H38.5915C41.282 15.1641 39.607 18.0631 37.8133 17.94ZM39.2487 10.8458H37.2162L37.8133 7.94678H40.0855C42.2812 8.50196 40.3844 10.9697 39.2487 10.8458Z" fill="#005FAF" stroke="#005FAF" stroke-width="0.5"/>
<path d="M62.7209 10.2729L65.8528 4.56823L61.6149 2.28711L61.0615 2.99064C58.7753 1.7434 46.8026 3.46782 46.0533 15.6526C46.5014 25.8745 57.6032 24.0361 58.6922 23.3869L61.7454 16.8746C58.7545 18.9072 52.6317 19.883 52.3728 13.7776C52.9098 8.74429 58.6707 6.86464 62.7209 10.2737V10.2729ZM78.3507 2.39493H68.7228L65.6614 8.37876H67.234L59.977 23.3058H67.0019L68.4432 19.7056H72.7553L72.8628 23.3058H79.3284L78.3507 2.39493ZM70.3963 14.8581L72.7545 9.05093L72.8614 14.8581H70.3963Z" fill="#005FAF" stroke="#005FAF" stroke-width="0.5"/>
<path d="M18.2186 22.308L18.5925 22.1956L18.1823 21.6106L18.2186 22.308ZM12.0772 22.2086L12.0053 22.7309C12.1907 22.7125 12.4207 22.8777 12.5119 22.5068C12.5045 22.2178 12.2916 22.2017 12.0772 22.2086ZM15.057 22.1956C15.0266 22.0534 14.9109 21.9486 14.6231 22.0465L14.7195 22.5818C14.9569 22.5275 15.0778 22.3829 15.057 22.1956ZM8.32518 21.7582L8.21021 22.2331C8.39566 22.2407 8.61226 22.3959 8.73466 22.1145C8.74282 21.9387 8.7495 21.7628 8.32518 21.7582ZM14.8041 22.9802L14.8887 23.5277C15.086 23.5331 15.267 23.4107 15.2143 23.1545C15.1639 22.9083 14.9636 22.9473 14.8041 22.9802Z" fill="#005FAF"/>
<path d="M22.6501 2.67722C16.2617 -0.680606 8.63148 -0.587312 2.54425 2.53116C-0.595063 8.23204 -0.694464 16.2087 2.54425 23.2738C9.25014 26.7746 16.6682 26.5445 22.6975 23.4199C25.5312 17.4215 25.9986 10.2042 22.6501 2.67722ZM11.8598 19.7011L11.4815 19.7049C11.388 18.6252 11.1373 17.7182 10.601 17.0239C8.14041 13.8404 3.11024 16.237 4.4032 10.8267C5.07528 8.06075 12.7403 6.42963 11.8598 19.7011ZM4.41211 14.3573C4.94917 15.4853 8.31547 15.6703 9.48381 16.5337C11.3376 17.904 11.0713 19.7057 11.0713 19.7057H10.6336C9.77311 16.9841 7.35855 19.139 5.42392 18.4057C4.20885 17.9606 3.32759 16.0282 4.41211 14.3573ZM10.5446 23.2295L10.7256 21.7475L11.052 21.7727L10.9066 23.403C10.7605 24.1219 9.72267 24.0255 9.59211 23.3411L9.7605 21.648L10.1462 21.7107L9.97785 23.1293C9.99936 23.5988 10.4556 23.5713 10.5446 23.2287V23.2295ZM8.81174 23.634L8.44084 23.5415C8.48386 23.2249 8.84809 22.5802 8.12854 22.5802L7.92825 23.4222L7.51877 23.3434L7.95347 21.3223C9.01796 21.4416 9.11068 21.7467 9.13145 22.0747C9.08991 22.3294 9.02389 22.5068 8.81174 22.5504C9.06024 22.7829 8.8147 23.2707 8.81174 23.634ZM6.4528 21.3705C6.35118 21.5096 6.1457 21.999 6.11603 22.389C6.08487 22.802 6.46987 22.7156 6.56556 22.6674C6.64271 22.6292 6.70057 22.2965 6.70057 22.2965L6.43055 22.204L6.52031 21.9264L7.1271 22.1344L6.83483 23.1775L6.58781 23.1079L6.61007 22.9457C6.30815 23.088 5.75477 22.9809 5.69023 22.6215C5.62495 22.3317 5.82153 21.4553 6.13902 21.0462C6.44687 20.647 7.19832 21.0363 7.21686 21.2772C7.23541 21.5173 7.14268 21.7872 7.14268 21.7872L6.8608 21.7322C6.8608 21.7322 6.87786 21.6457 6.90234 21.5089C6.9283 21.3636 6.56259 21.219 6.45355 21.3697L6.4528 21.3705ZM11.9688 23.0673L11.8962 23.9636L11.595 23.9513L11.7033 21.8224C12.4562 21.8385 12.8879 21.9463 12.8738 22.4953C12.8293 23.2447 12.2403 23.0757 11.9688 23.0673ZM12.7196 19.7057H12.2151C12.1706 17.8627 12.5133 14.4904 11.575 12.0089C10.8636 10.1277 9.06321 9.28198 8.66486 7.76251C8.03284 5.35751 9.10772 2.75522 12.7196 2.55486C15.85 2.88598 16.8121 5.37969 16.278 7.70133C15.3596 10.023 14.4413 9.68957 13.2982 12.002C12.3642 14.4812 12.7196 17.7282 12.7196 19.7057ZM18.315 23.1163L17.9648 23.2417L17.8558 21.1005L18.266 20.9889L19.2801 22.7553L19.0026 22.9427L18.6644 22.4456L18.2786 22.594L18.315 23.1163ZM14.2328 19.7057H13.8293C14.1616 14.9714 19.9277 15.9999 20.4551 14.3573C21.366 15.9862 21.0389 17.3588 20.0871 18.0631C17.7223 19.8127 15.4546 16.7677 14.2328 19.7057ZM16.3722 22.0962L16.5532 23.0796C16.6659 23.3067 16.7423 23.2646 16.9152 23.2417C17.1155 23.0918 17.0739 22.9465 17.0361 22.7561L17.3862 22.7064C17.4767 23.4191 17.1489 23.4917 16.9033 23.5399C16.3766 23.5797 16.2735 23.4734 16.1318 22.7691C16.048 22.165 15.9049 21.528 16.3967 21.4117C17.2038 21.2848 17.1563 21.6595 17.229 21.9226L16.8788 21.9845C16.8232 21.7589 16.7431 21.6695 16.5651 21.6863C16.4041 21.7627 16.3373 21.8866 16.3722 22.0962ZM15.6363 23.117C15.6534 23.4267 15.551 23.6332 15.3589 23.702L14.5385 23.8764L14.2121 21.8224C14.3812 21.7941 15.2061 21.4821 15.4064 22.0465C15.5058 22.3913 15.4034 22.5152 15.2862 22.6689C15.5087 22.7423 15.5829 22.9213 15.6363 23.117ZM13.5296 12.8103C15.3574 7.50022 19.5397 8.43851 20.4677 10.8267C21.7384 15.6191 17.6459 14.3046 15.0251 16.2699C14.034 17.1585 13.5133 18.1786 13.5051 19.7248H13.0563C13.0289 16.6109 12.9799 14.4055 13.5296 12.8103Z" fill="#005FAF"/>
</g>
<defs>
<clipPath id="clip0_11946_2551">
<rect width="80.1147" height="26" fill="white" transform="translate(0.076416)"/>
</clipPath>
</defs>
</svg>
