<svg width="106" height="70" viewBox="0 0 106 70" fill="none" xmlns="http://www.w3.org/2000/svg">
<path d="M3.82307 61.7491H1.80957V61.0229H6.71186V61.7491H4.68838V67.6347H3.82307V61.7491Z" fill="#175882"/>
<path d="M9.42283 67.6351L9.35461 67.0369H9.32466C9.06007 67.4091 8.54921 67.7431 7.87027 67.7431C6.90679 67.7431 6.41589 67.0668 6.41589 66.3789C6.41589 65.2307 7.43762 64.6026 9.27473 64.6126V64.5145C9.27473 64.1224 9.16657 63.4162 8.19476 63.4162C7.75213 63.4162 7.29118 63.5541 6.95671 63.7684L6.76035 63.2001C7.15307 62.9442 7.72384 62.7781 8.3229 62.7781C9.77728 62.7781 10.1301 63.7684 10.1301 64.7206V66.4969C10.1301 66.909 10.15 67.3111 10.2083 67.6351H9.42283ZM9.2947 65.2124C8.35118 65.1925 7.2812 65.3603 7.2812 66.2809C7.2812 66.8409 7.65395 67.1051 8.09659 67.1051C8.71561 67.1051 9.10833 66.7129 9.24644 66.3108C9.2764 66.2227 9.2947 66.1247 9.2947 66.0366V65.2124Z" fill="#175882"/>
<path d="M11.5246 64.172C11.5246 63.6818 11.5146 63.2797 11.4846 62.8875H12.2501L12.3 63.6719H12.32C12.5563 63.2199 13.1054 62.7795 13.8925 62.7795C14.5515 62.7795 15.5732 63.1717 15.5732 64.8001V67.6349H14.7079V64.8982C14.7079 64.1321 14.4233 63.4957 13.6079 63.4957C13.0388 63.4957 12.5962 63.8978 12.4481 64.3781C12.4082 64.4861 12.3899 64.6323 12.3899 64.7802V67.6349H11.5246V64.172Z" fill="#175882"/>
<path d="M21.0827 60.6709V66.4103C21.0827 66.8324 21.0927 67.3126 21.1226 67.6366H20.3472L20.3072 66.8124H20.2873C20.0227 67.3425 19.4419 67.7446 18.6665 67.7446C17.5166 67.7446 16.633 66.7742 16.633 65.3319C16.623 63.7533 17.6048 62.7812 18.7647 62.7812C19.4918 62.7812 19.9827 63.1252 20.1991 63.5074H20.219V60.6726H21.0827V60.6709ZM20.219 64.8201C20.219 64.7121 20.2091 64.5642 20.1791 64.4578C20.051 63.9078 19.58 63.4575 18.9311 63.4575C18.0375 63.4575 17.5066 64.2418 17.5066 65.292C17.5066 66.2541 17.9776 67.0484 18.9111 67.0484C19.4902 67.0484 20.021 66.6662 20.1791 66.0182C20.2091 65.9002 20.219 65.7822 20.219 65.6459V64.8201Z" fill="#175882"/>
<path d="M25.1494 67.6351L25.0812 67.0369H25.0512C24.7866 67.4091 24.2758 67.7431 23.5968 67.7431C22.6333 67.7431 22.1425 67.0668 22.1425 66.3789C22.1425 65.2307 23.1642 64.6026 25.0013 64.6126V64.5145C25.0013 64.1224 24.8931 63.4162 23.9213 63.4162C23.4787 63.4162 23.0177 63.5541 22.6833 63.7684L22.4869 63.2001C22.8796 62.9442 23.4504 62.7781 24.0495 62.7781C25.5038 62.7781 25.8566 63.7684 25.8566 64.7206V66.4969C25.8566 66.909 25.8766 67.3111 25.9348 67.6351H25.1494ZM25.0229 65.2124C24.0794 65.1925 23.0094 65.3603 23.0094 66.2809C23.0094 66.8409 23.3822 67.1051 23.8248 67.1051C24.4438 67.1051 24.8366 66.7129 24.9747 66.3108C25.0046 66.2227 25.0229 66.1247 25.0229 66.0366V65.2124Z" fill="#175882"/>
<path d="M27.2531 64.172C27.2531 63.6818 27.2431 63.2797 27.2131 62.8875H27.9703L28.0102 63.6519H28.0402C28.3048 63.1999 28.7474 62.7795 29.5328 62.7795C30.1818 62.7795 30.6727 63.1717 30.879 63.7317H30.899C31.0471 63.4675 31.2335 63.2614 31.4298 63.1135C31.7144 62.8975 32.0289 62.7795 32.4815 62.7795C33.1105 62.7795 34.0441 63.1916 34.0441 64.84V67.6366H33.1987V64.948C33.1987 64.0358 32.8643 63.4857 32.167 63.4857C31.6761 63.4857 31.2934 63.848 31.1453 64.2701C31.1053 64.388 31.0771 64.5442 31.0771 64.7021V67.6349H30.2317V64.7902C30.2317 64.0341 29.8973 63.4857 29.24 63.4857C28.6991 63.4857 28.3064 63.9178 28.1683 64.3498C28.12 64.4778 28.1001 64.624 28.1001 64.7719V67.6366H27.2547V64.172H27.2531Z" fill="#175882"/>
<path d="M38.0775 67.6351L38.0093 67.0369H37.9793C37.7147 67.4091 37.2039 67.7431 36.5249 67.7431C35.5615 67.7431 35.0706 67.0668 35.0706 66.3789C35.0706 65.2307 36.0923 64.6026 37.9294 64.6126V64.5145C37.9294 64.1224 37.8212 63.4162 36.8494 63.4162C36.4068 63.4162 35.9458 63.5541 35.6114 63.7684L35.415 63.2001C35.8077 62.9442 36.3785 62.7781 36.9776 62.7781C38.4319 62.7781 38.7847 63.7684 38.7847 64.7206V66.4969C38.7847 66.909 38.8047 67.3111 38.8629 67.6351H38.0775ZM37.9494 65.2124C37.0059 65.1925 35.9359 65.3603 35.9359 66.2809C35.9359 66.8409 36.3086 67.1051 36.7512 67.1051C37.3703 67.1051 37.763 66.7129 37.9011 66.3108C37.9311 66.2227 37.9494 66.1247 37.9494 66.0366V65.2124Z" fill="#175882"/>
<path d="M41.1828 61.5232V62.8874H42.4208V63.5454H41.1828V66.1061C41.1828 66.6943 41.3492 67.0283 41.8318 67.0283C42.0581 67.0283 42.2245 66.9984 42.3326 66.9701L42.3726 67.6182C42.2062 67.6863 41.9399 67.7362 41.6071 67.7362C41.2044 67.7362 40.8799 67.6082 40.6736 67.3739C40.4273 67.118 40.3391 66.6976 40.3391 66.1376V63.5471H39.6019V62.8891H40.3391V61.7508L41.1828 61.5232Z" fill="#175882"/>
<path d="M46.0253 67.6351L45.957 67.0369H45.9271C45.6625 67.4091 45.1516 67.7431 44.4727 67.7431C43.5092 67.7431 43.0183 67.0668 43.0183 66.3789C43.0183 65.2307 44.04 64.6026 45.8771 64.6126V64.5145C45.8771 64.1224 45.769 63.4162 44.7972 63.4162C44.3545 63.4162 43.8936 63.5541 43.5591 63.7684L43.3628 63.2001C43.7555 62.9442 44.3263 62.7781 44.9253 62.7781C46.3797 62.7781 46.7325 63.7684 46.7325 64.7206V66.4969C46.7325 66.909 46.7524 67.3111 46.8107 67.6351H46.0253ZM45.8971 65.2124C44.9536 65.1925 43.8836 65.3603 43.8836 66.2809C43.8836 66.8409 44.2564 67.1051 44.699 67.1051C45.318 67.1051 45.7107 66.7129 45.8489 66.3108C45.8788 66.2227 45.8971 66.1247 45.8971 66.0366V65.2124Z" fill="#175882"/>
<path d="M51.0939 61.0229V64.9362C51.0939 66.4184 51.7528 67.0448 52.6364 67.0448C53.6182 67.0448 54.2472 66.3968 54.2472 64.9362V61.0229H55.1125V64.878C55.1125 66.9086 54.0409 67.7427 52.6082 67.7427C51.252 67.7427 50.2302 66.9684 50.2302 64.9179V61.0229H51.0939Z" fill="#175882"/>
<path d="M56.5653 64.172C56.5653 63.6818 56.5553 63.2797 56.5254 62.8875H57.2925L57.3408 63.6719H57.3607C57.597 63.2199 58.1462 62.7795 58.9333 62.7795C59.5922 62.7795 60.614 63.1717 60.614 64.8001V67.6349H59.7487V64.8982C59.7487 64.1321 59.4641 63.4957 58.6487 63.4957C58.0796 63.4957 57.637 63.8978 57.4889 64.3781C57.4489 64.4861 57.4306 64.6323 57.4306 64.7802V67.6349H56.5653V64.172Z" fill="#175882"/>
<path d="M63.0201 61.5232V62.8874H64.2581V63.5454H63.0201V66.1061C63.0201 66.6943 63.1865 67.0283 63.669 67.0283C63.8953 67.0283 64.0617 66.9984 64.1699 66.9701L64.2099 67.6182C64.0434 67.6863 63.7772 67.7362 63.4444 67.7362C63.0417 67.7362 62.7172 67.6082 62.5109 67.3739C62.2646 67.118 62.1764 66.6976 62.1764 66.1376V63.5471H61.4392V62.8891H62.1764V61.7508L63.0201 61.5232Z" fill="#175882"/>
<path d="M69.2086 66.3404C69.2086 66.8305 69.2186 67.2626 69.2485 67.6348H68.483L68.4348 66.8604H68.4148C68.1885 67.2426 67.6876 67.7428 66.8423 67.7428C66.0951 67.7428 65.2015 67.3307 65.2015 65.6624V62.8857H66.0668V65.5145C66.0668 66.4168 66.3414 67.025 67.1285 67.025C67.7076 67.025 68.1103 66.6228 68.2684 66.2407C68.3166 66.1127 68.3466 65.9565 68.3466 65.7986V62.8857H69.2119V66.3404H69.2086Z" fill="#175882"/>
<path d="M71.4968 65.066H71.5167C71.6349 64.8998 71.8013 64.6937 71.9394 64.5259L73.3339 62.8875H74.3756L72.5385 64.84L74.6302 67.6366H73.5785L71.9377 65.3601L71.4951 65.8503V67.6349H70.6398V60.6692H71.4951V65.066H71.4968Z" fill="#175882"/>
<path d="M77.3625 67.6347V61.0229H78.2961L80.4177 64.3679C80.9086 65.1422 81.2914 65.8401 81.6059 66.5164L81.6258 66.5065C81.5476 65.6241 81.5277 64.8199 81.5277 63.7896V61.0229H82.3331V67.6347H81.4678L79.3661 64.2798C78.9051 63.5437 78.4625 62.7893 78.128 62.0731L78.0981 62.0831C78.148 62.9172 78.1663 63.7115 78.1663 64.8099V67.6347H77.3625Z" fill="#175882"/>
<path d="M84.2783 65.4185C84.2983 66.5866 85.0454 67.0668 85.9091 67.0668C86.5281 67.0668 86.9008 66.9588 87.2253 66.8209L87.3734 67.4391C87.0689 67.577 86.5481 67.7332 85.7926 67.7332C84.3282 67.7332 83.4546 66.7711 83.4546 65.3387C83.4546 63.9063 84.2999 62.7781 85.6844 62.7781C87.237 62.7781 87.6497 64.1423 87.6497 65.0147C87.6497 65.1908 87.6297 65.3287 87.6197 65.4168H84.2783V65.4185ZM86.8126 64.8003C86.8226 64.2503 86.5863 63.3979 85.6145 63.3979C84.7409 63.3979 84.3565 64.2021 84.2883 64.8003H86.8126Z" fill="#175882"/>
<path d="M92.8149 62.8877C92.795 63.2317 92.775 63.6139 92.775 64.1922V66.9489C92.775 68.0373 92.5587 68.7052 92.0977 69.1173C91.6368 69.5494 90.9678 69.6856 90.3688 69.6856C89.7997 69.6856 89.1707 69.5477 88.7879 69.2935L89.0042 68.6355C89.3188 68.8315 89.8097 69.0077 90.3987 69.0077C91.2823 69.0077 91.9313 68.5474 91.9313 67.3493V66.8192H91.9114C91.6468 67.2613 91.1359 67.6135 90.3987 67.6135C89.2206 67.6135 88.3752 66.6132 88.3752 65.2988C88.3752 63.6903 89.4269 62.7781 90.5169 62.7781C91.3422 62.7781 91.7932 63.2101 91.9995 63.6023H92.0195L92.0595 62.8861H92.8149V62.8877ZM91.9213 64.7621C91.9213 64.6142 91.9114 64.4879 91.8731 64.37C91.715 63.8698 91.294 63.4577 90.665 63.4577C89.8396 63.4577 89.2505 64.1539 89.2505 65.2523C89.2505 66.1845 89.7215 66.9588 90.655 66.9588C91.1858 66.9588 91.6667 66.6248 91.8531 66.0765C91.9014 65.9286 91.9213 65.7624 91.9213 65.6162V64.7621Z" fill="#175882"/>
<path d="M94.6903 65.4185C94.7103 66.5866 95.4574 67.0668 96.3211 67.0668C96.9401 67.0668 97.3128 66.9588 97.6373 66.8209L97.7854 67.4391C97.4809 67.577 96.96 67.7332 96.2046 67.7332C94.7402 67.7332 93.8666 66.7711 93.8666 65.3387C93.8666 63.9063 94.7119 62.7781 96.0964 62.7781C97.649 62.7781 98.0616 64.1423 98.0616 65.0147C98.0616 65.1908 98.0417 65.3287 98.0317 65.4168H94.6903V65.4185ZM97.2246 64.8003C97.2346 64.2503 96.9983 63.3979 96.0265 63.3979C95.1529 63.3979 94.7685 64.2021 94.7003 64.8003H97.2246Z" fill="#175882"/>
<path d="M99.1299 64.3681C99.1299 63.8081 99.1199 63.3279 99.09 62.8875H99.8471L99.8771 63.8197H99.917C100.133 63.1817 100.654 62.7795 101.233 62.7795C101.331 62.7795 101.4 62.7895 101.48 62.8095V63.6237C101.391 63.6037 101.303 63.5938 101.185 63.5938C100.576 63.5938 100.143 64.0557 100.025 64.7021C100.005 64.8201 99.9852 64.9563 99.9852 65.1042V67.6349H99.1299V64.3681Z" fill="#175882"/>
<path d="M103.345 61.5532C103.355 61.8473 103.139 62.0833 102.794 62.0833C102.49 62.0833 102.273 61.8473 102.273 61.5532C102.273 61.2491 102.5 61.0132 102.814 61.0132C103.139 61.0132 103.345 61.2491 103.345 61.5532ZM102.382 67.6349V62.8875H103.247V67.6349H102.382Z" fill="#175882"/>
<mask id="mask0_11946_2514" style="mask-type:luminance" maskUnits="userSpaceOnUse" x="33" y="0" width="33" height="26">
<path d="M33.8977 21.9556L33.2072 25.3355C39.8168 25.2075 61.4644 17.4425 62.4595 12.7483L62.7873 11.1431C55.3423 16.3109 39.8933 21.9889 33.8977 21.9556ZM35.2972 16.2777L34.6532 19.39C41.2229 19.3767 62.9088 11.4954 63.9055 6.80121L64.1801 5.45692C54.5752 12.1003 41.123 16.1149 35.2972 16.2777ZM36.5968 10.4419L35.9062 13.8234C42.7222 13.7968 64.1635 5.92883 65.1586 1.23462C65.1586 1.23462 65.2235 0.927211 65.2884 0.618141C65.3533 0.30907 65.4148 0 65.4115 0C56.1228 6.24289 42.0899 10.4286 36.5968 10.4419Z" fill="white"/>
</mask>
<g mask="url(#mask0_11946_2514)">
<path d="M65.6262 0.00170898H33.2072V26.5751H65.6262V0.00170898Z" fill="url(#paint0_linear_11946_2514)"/>
</g>
<path d="M3.56351 47.1199C3.56351 47.4339 3.62009 47.7463 3.67833 48.0338C4.16424 49.7752 5.62194 50.9766 7.45406 50.9766C10.0866 50.9766 11.6591 48.833 11.6591 45.6626C11.6591 42.8926 10.228 40.5214 7.53893 40.5214C5.82163 40.5214 4.21915 41.6928 3.70496 43.6071C3.64838 43.8929 3.56351 44.2335 3.56351 44.6357V47.1199ZM1.07409 32.3809H3.56351V41.0647H3.62009C4.50703 39.5227 6.10951 38.5224 8.341 38.5224C11.7756 38.5224 14.2051 41.3771 14.1752 45.5795C14.1752 50.518 11.0584 52.9756 7.96825 52.9756C5.96474 52.9756 4.36226 52.2046 3.33387 50.3767H3.24734L3.13585 52.6615H0.960938C1.01918 51.7177 1.07576 50.3169 1.07576 49.0906V32.3809H1.07409Z" fill="#175882"/>
<path d="M24.3043 45.6045C21.557 45.5464 18.4402 46.0349 18.4402 48.7185C18.4402 50.3469 19.5268 51.1213 20.8131 51.1213C22.617 51.1213 23.7602 49.9764 24.1612 48.8066C24.2477 48.5474 24.306 48.2632 24.306 48.0073V45.6045H24.3043ZM26.7355 49.3483C26.7355 50.5497 26.7921 51.7195 26.9635 52.6633H24.6754L24.474 50.9202H24.3892C23.6154 52.0069 22.1277 52.9774 20.1558 52.9774C17.3519 52.9774 15.9225 51.0083 15.9225 49.0076C15.9225 45.6644 18.8961 43.8349 24.2444 43.8664V43.579C24.2444 42.4374 23.9299 40.3803 21.0993 40.3803C19.8097 40.3803 18.4668 40.7791 17.4933 41.4088L16.9209 39.7521C18.0658 39.011 19.7282 38.5242 21.4704 38.5242C25.7054 38.5242 26.7355 41.4088 26.7355 44.1788V49.3483Z" fill="#175882"/>
<path d="M30.5995 52.6599H33.1139V44.3499C33.1139 43.9195 33.1721 43.4891 33.2853 43.1767C33.7146 41.7776 35.0026 40.6045 36.6617 40.6045C39.0379 40.6045 39.8649 42.4622 39.8649 44.6905V52.6599H42.3827V44.4047C42.3827 39.664 39.4057 38.5208 37.492 38.5208C35.2023 38.5208 33.6015 39.8085 32.9142 41.1196H32.8576L32.7129 38.8348H30.483C30.5679 39.9797 30.5979 41.1478 30.5979 42.5752V52.6599H30.5995Z" fill="#175882"/>
<path d="M48.5629 32.3809H46.0735V52.6599H48.5629V47.4622L49.8509 46.0348L54.6284 52.6599H57.6869L51.5948 44.521L56.9447 38.8348H53.9128L49.8509 43.6054C49.4482 44.0906 48.9639 44.6905 48.6195 45.1774H48.5629V32.3809Z" fill="#175882"/>
<path d="M72.7416 49.8784C70.7231 49.8784 69.0856 47.7066 69.0856 45.0296C69.0856 42.351 70.7231 40.1809 72.7416 40.1809C74.7584 40.1809 76.3941 42.3527 76.3941 45.0296C76.3941 47.7049 74.7584 49.8784 72.7416 49.8784ZM78.4293 39.3251C78.3361 39.2138 78.2429 39.1008 78.1431 38.9994C77.9817 38.8299 77.8003 38.6721 77.6072 38.5242C76.5655 37.6734 75.3075 37.1732 73.9497 37.1732C72.4853 37.1732 71.1374 37.7598 70.0508 38.7369C70.0192 38.7568 69.9909 38.7784 69.9593 38.7967C69.921 38.8183 69.8661 38.8449 69.8012 38.8283C69.6231 38.7817 69.4318 38.5923 69.4318 38.3198V32.6668C69.4318 32.3112 69.1406 32.0254 68.7828 32.0254H66.0271C65.6677 32.0254 65.3781 32.3129 65.3781 32.6668V32.8629C65.3781 32.8712 65.3765 32.8778 65.3765 32.8845V33.5408L65.3815 51.766C65.3815 52.1283 65.6743 52.4207 66.0354 52.4207H68.5298C68.6879 52.4207 68.8327 52.3609 68.9459 52.2662C68.9508 52.2628 68.9558 52.2628 68.9575 52.2612C68.9625 52.2579 68.9625 52.2545 68.9658 52.2512C69.0191 52.2047 69.0607 52.1482 69.0956 52.0884H69.0973C69.1405 52.0086 69.1688 51.9239 69.1788 51.8291C69.2287 51.427 69.5033 51.2044 69.673 51.2609C69.7313 51.2791 69.7879 51.3074 69.8444 51.3489C69.9027 51.3855 69.9609 51.4237 70.0158 51.4603C70.1856 51.5849 70.9277 52.0917 71.5035 52.3493C71.7947 52.4772 72.7183 52.7913 73.7932 52.7913C74.8682 52.7913 75.6303 52.5536 75.8117 52.5054C75.9931 52.4573 76.1712 52.3974 76.3409 52.3177C77.1812 51.9571 77.8585 51.4603 78.371 50.8321C78.8786 50.2157 79.3012 49.4845 79.6424 48.6454C80.1499 47.542 80.4395 46.2742 80.4395 44.9249C80.4378 42.7199 79.6657 40.7359 78.4293 39.3251Z" fill="#175882"/>
<path d="M87.6097 38.7965C87.6064 38.7599 87.603 38.7233 87.5997 38.6884V38.2049C87.5997 37.841 87.3052 37.5469 86.9424 37.5469H84.1668C83.8024 37.5469 83.5078 37.841 83.5078 38.2049V53.1416C83.4928 53.5222 83.0302 54.0423 82.4944 54.1719C82.2481 54.2483 82.0019 54.2832 81.7523 54.2716C81.5043 54.2633 81.3329 54.363 81.2364 54.5723C81.1998 54.6654 81.1715 54.79 81.1499 54.9445C81.1332 55.0974 81.1549 56.6976 81.1665 56.8305C81.1765 56.9635 81.1998 57.0765 81.2364 57.1728C81.3512 57.344 81.5526 57.4587 81.8371 57.5168C81.932 57.5567 83.7774 57.56 85.0155 57.2609C85.503 57.1446 85.8941 56.9086 86.2202 56.6627C86.5414 56.4135 86.8293 56.0994 87.0789 55.7172C87.3651 55.2603 87.5232 54.6853 87.5515 53.9891C87.5598 53.7797 87.5997 53.2314 87.5997 53.1666V39.5957C87.603 39.5226 87.6047 39.4495 87.6097 39.3697C87.6197 39.1786 87.6197 38.9875 87.6097 38.7965Z" fill="#175882"/>
<path d="M98.2264 49.8784C96.2079 49.8784 94.5704 47.7066 94.5704 45.0296C94.5704 42.351 96.2062 40.1809 98.2264 40.1809C100.243 40.1809 101.879 42.3527 101.879 45.0296C101.879 47.7049 100.245 49.8784 98.2264 49.8784ZM103.914 39.3251C103.821 39.2138 103.729 39.1008 103.628 38.9994C103.466 38.8299 103.283 38.6721 103.092 38.5242C102.05 37.6734 100.792 37.1732 99.4328 37.1732C97.9701 37.1732 96.6222 37.7598 95.5356 38.7369C95.5023 38.7568 95.4757 38.7784 95.4424 38.7967C95.4041 38.8183 95.3509 38.8449 95.286 38.8283C95.1079 38.7817 94.9166 38.5923 94.9132 38.3198V32.6668C94.9132 32.3112 94.622 32.0254 94.2659 32.0254H91.5119C91.1525 32.0254 90.8613 32.3129 90.8613 32.6668V32.8629C90.8613 32.8712 90.8596 32.8778 90.8596 32.8845V33.5408L90.863 51.766C90.863 52.1283 91.1575 52.4207 91.5186 52.4207H94.0097C94.1711 52.4207 94.3159 52.3609 94.429 52.2662C94.4323 52.2628 94.4357 52.2628 94.439 52.2612C94.444 52.2579 94.444 52.2545 94.449 52.2512C94.4989 52.2047 94.5438 52.1482 94.5788 52.0884L94.5804 52.085C94.622 52.007 94.652 51.9239 94.6603 51.8291C94.7102 51.427 94.9831 51.2044 95.1545 51.2609C95.2128 51.2791 95.271 51.3074 95.3276 51.3489C95.3842 51.3855 95.4408 51.4237 95.499 51.4603C95.6671 51.5849 96.4109 52.0917 96.9867 52.3493C97.2779 52.4772 98.2014 52.7913 99.2764 52.7913C100.35 52.7913 101.112 52.5536 101.293 52.5054C101.475 52.4573 101.651 52.3974 101.822 52.3177C102.661 51.9571 103.34 51.4603 103.854 50.8321C104.362 50.2157 104.783 49.4845 105.124 48.6454C105.63 47.542 105.919 46.2742 105.919 44.9249C105.923 42.7199 105.149 40.7359 103.914 39.3251Z" fill="#175882"/>
<path d="M85.5064 32.1897C85.112 32.1947 84.7642 32.2844 84.4647 32.4589C84.1718 32.6383 83.9438 32.8776 83.7824 33.1701C83.6143 33.4692 83.5311 33.7965 83.5311 34.1621C83.5311 34.5144 83.6143 34.8318 83.7708 35.1259C83.9255 35.4167 84.1485 35.651 84.428 35.8304C84.7159 36.0032 85.0504 36.093 85.4348 36.0996C85.8658 36.0946 86.2302 36.0032 86.5297 35.8304C86.8293 35.651 87.0556 35.4183 87.212 35.1259C87.3684 34.8334 87.445 34.5144 87.445 34.1621C87.445 33.7982 87.3618 33.4692 87.2053 33.1701C87.0506 32.8776 86.8226 32.6383 86.5347 32.4589C86.2485 32.2844 85.9007 32.1947 85.5064 32.1897Z" fill="#175882"/>
<defs>
<linearGradient id="paint0_linear_11946_2514" x1="33.2075" y1="13.2878" x2="65.627" y2="13.2878" gradientUnits="userSpaceOnUse">
<stop stop-color="#30A6DE"/>
<stop offset="0.2252" stop-color="#195F89"/>
<stop offset="0.4519" stop-color="#195F89"/>
<stop offset="0.4712" stop-color="#316386"/>
<stop offset="0.5456" stop-color="#667779"/>
<stop offset="0.6213" stop-color="#8C8B6B"/>
<stop offset="0.6971" stop-color="#AC9E59"/>
<stop offset="0.7727" stop-color="#C6AF45"/>
<stop offset="0.8484" stop-color="#DABC32"/>
<stop offset="0.9241" stop-color="#E6C422"/>
<stop offset="1" stop-color="#EAC71C"/>
</linearGradient>
</defs>
</svg>
