<svg width="119" height="35" viewBox="0 0 119 35" fill="none" xmlns="http://www.w3.org/2000/svg">
<g clip-path="url(#clip0_11946_2625)">
<path fill-rule="evenodd" clip-rule="evenodd" d="M0.706421 13.9739L8.03782 23.2125L0.706421 29.2798V13.9739ZM3.65663 29.2805L9.17363 24.6712L12.9858 29.2805H3.65663ZM0.706421 9.03078L2.61972 11.4482L10.4859 21.2675L13.0345 19.2402C13.0345 19.2402 10.9188 16.7511 9.49771 13.9739C6.71943 8.54454 8.68675 5.1645 8.68675 5.1645H0.706421V9.03078ZM11.6073 22.7834L14.203 20.6418C14.203 20.6418 16.683 23.9014 19.5572 24.6712C23.3244 25.6795 24.9928 23.2125 24.9928 23.2125V29.2805H16.718L18.5834 27.6694C18.5834 27.6694 17.6096 28.3172 15.2292 26.6702C13.8241 25.6978 11.6073 22.7834 11.6073 22.7834ZM11.8454 5.14697C11.8454 5.14697 11.0177 6.2734 11.6073 9.03078C12.2372 11.9779 14.7431 15.0973 14.737 15.028C14.737 15.028 14.8983 11.9307 16.718 10.1122C20.5964 6.23834 24.9928 8.54454 24.9928 8.54454V5.1645L11.8454 5.14697Z" fill="#F15A23"/>
<path fill-rule="evenodd" clip-rule="evenodd" d="M24.9927 12.6286C24.9927 12.6286 22.5401 10.5312 20.4077 10.5312C17.6796 10.5312 16.1908 12.8832 16.1908 14.5903C16.1908 17.0749 17.3852 18.4566 18.5834 19.6539C20.3065 21.3748 22.4024 23.2313 24.9927 21.7376V12.6302V12.6286Z" fill="#F15A23"/>
<path fill-rule="evenodd" clip-rule="evenodd" d="M52.9262 5.39917H58.714C58.714 5.39917 63.8415 13.1546 66.3611 16.3586C68.1319 18.6227 69.8761 20.9075 71.5936 23.2124V7.13606C71.5936 6.44252 69.7678 5.39917 69.7678 5.39917H76.4427C76.4427 5.39917 74.2524 6.29848 74.2524 7.13682V30.522C74.2524 30.522 72.1512 29.3582 69.7685 26.5924C67.0907 23.4845 57.566 10.9383 57.566 10.9383V27.1884C57.566 28.0207 59.3918 29.2797 59.3918 29.2797H52.9254C52.9254 29.2797 54.6987 28.0107 54.6987 27.1884V7.13606C54.6987 6.39832 52.9262 5.39917 52.9262 5.39917ZM80.181 5.39917H87.609C87.609 5.39917 85.6143 6.34345 85.6143 7.13682V27.1892C85.6143 28.0557 87.609 29.2805 87.609 29.2805H80.181C80.181 29.2805 82.0372 28.0283 82.0372 27.1892V7.13606C82.0372 6.37393 80.181 5.39917 80.181 5.39917ZM31.0704 5.39917C31.0704 5.39917 32.9967 6.35945 32.9967 7.13682V27.1892C32.9967 28.042 31.0704 29.2805 31.0704 29.2805H42.0755C42.7632 29.2805 50.4667 28.0229 50.4667 22.0898C50.4667 16.1574 44.4833 15.6018 44.4833 15.6018C44.4833 15.6018 48.1289 14.5897 48.1289 10.5306C48.1289 6.15596 42.7632 5.39917 42.0755 5.39917H31.0704ZM36.9168 15.2085V7.74271H41.3878C42.0755 7.74271 44.4833 8.54447 44.4833 11.5213C44.4833 13.9739 42.0755 15.2085 41.3878 15.2085H36.9168ZM36.9168 17.1672H42.0755C42.7632 17.1672 46.8219 18.2189 46.8219 21.7369C46.8219 25.322 42.7632 26.5932 42.0755 26.5932H36.9176V17.1664L36.9168 17.1672Z" fill="#005E6A"/>
</g>
<defs>
<clipPath id="clip0_11946_2625">
<rect width="118.169" height="35" fill="white" transform="translate(0.706421)"/>
</clipPath>
</defs>
</svg>
