<svg width="29" height="29" viewBox="0 0 29 29" fill="none" xmlns="http://www.w3.org/2000/svg">
<path d="M19.6361 11.342L8.87891 5.13867" stroke="#0092AC" stroke-width="2" stroke-linecap="round" stroke-linejoin="round"/>
<path d="M25.0143 19.2309V9.66899C25.0139 9.24978 24.9032 8.83807 24.6934 8.47514C24.4836 8.1122 24.1821 7.81082 23.8191 7.60122L15.4524 2.82026C15.089 2.61045 14.6768 2.5 14.2572 2.5C13.8375 2.5 13.4253 2.61045 13.0619 2.82026L4.69524 7.60122C4.3322 7.81082 4.03066 8.1122 3.82088 8.47514C3.61109 8.83807 3.50043 9.24978 3.5 9.66899V19.2309C3.50043 19.6501 3.61109 20.0618 3.82088 20.4248C4.03066 20.7877 4.3322 21.0891 4.69524 21.2987L13.0619 26.0796C13.4253 26.2894 13.8375 26.3999 14.2572 26.3999C14.6768 26.3999 15.089 26.2894 15.4524 26.0796L23.8191 21.2987C24.1821 21.0891 24.4836 20.7877 24.6934 20.4248C24.9032 20.0618 25.0139 19.6501 25.0143 19.2309Z" stroke="#0092AC" stroke-width="2" stroke-linecap="round" stroke-linejoin="round"/>
<path d="M3.82227 8.42578L14.2567 14.4617L24.6911 8.42578" stroke="#0092AC" stroke-width="2" stroke-linecap="round" stroke-linejoin="round"/>
<path d="M14.2578 26.4972V14.4492" stroke="#0092AC" stroke-width="2" stroke-linecap="round" stroke-linejoin="round"/>
</svg>
