<svg width="115" height="58" viewBox="0 0 115 58" fill="none" xmlns="http://www.w3.org/2000/svg">
<g clip-path="url(#clip0_11946_2599)">
<path d="M47.0825 18.6006H47.042C47.0554 18.6034 47.0691 18.6034 47.0825 18.6006Z" fill="#168F8C"/>
<path d="M47.3536 18.2061V43.4415H53.1361V24.5258C53.1361 23.114 52.4014 18.8475 47.3536 18.2061Z" fill="#0CA49D"/>
<path d="M16.6015 39.0506C17.2143 39.0728 17.8257 38.9749 18.4028 38.762C18.8185 38.6033 19.1935 38.3499 19.4998 38.0208C19.7573 37.7229 19.9438 37.3674 20.0442 36.9827C20.1424 36.6027 20.1928 36.2113 20.194 35.818C20.1986 35.4051 20.1406 34.994 20.0219 34.5994C19.9093 34.2461 19.7049 33.9311 19.4309 33.6879C19.105 33.4151 18.7252 33.2182 18.3178 33.1107C17.7481 32.9609 17.1611 32.891 16.5731 32.9031H12.683V39.034L16.6015 39.0506ZM12.683 23.0207V29.0997H15.5814C16.1386 29.103 16.6953 29.0579 17.2451 28.9647C17.6912 28.893 18.1195 28.7329 18.506 28.4934C18.8515 28.2673 19.1267 27.9446 19.2994 27.5633C19.4948 27.0934 19.5867 26.5852 19.5686 26.0747C19.5858 25.5818 19.5172 25.0897 19.3662 24.6214C19.2362 24.252 19.0076 23.9275 18.7064 23.6851C18.3716 23.432 17.9856 23.2596 17.577 23.1806C17.0441 23.0711 16.5013 23.0197 15.9579 23.027H12.683V23.0207ZM15.9477 18.748C17.3728 18.7212 18.7955 18.8796 20.1818 19.2193C21.2086 19.4682 22.1775 19.9218 23.0336 20.5543C23.742 21.0928 24.2968 21.8162 24.6406 22.6491C24.9842 23.5243 25.1555 24.4607 25.1446 25.4041C25.1488 25.9441 25.0738 26.4816 24.922 26.9986C24.7609 27.5164 24.5137 28.0018 24.1913 28.4332C23.8351 28.9074 23.4074 29.3202 22.9243 29.656C22.3521 30.0598 21.7308 30.385 21.0765 30.6235C22.6592 31.018 23.829 31.6533 24.586 32.5294C25.345 33.4076 25.7235 34.5495 25.7235 35.9447C25.7297 36.9518 25.5254 37.9486 25.1243 38.8679C24.7235 39.7765 24.1286 40.5812 23.3838 41.2222C22.5497 41.933 21.5867 42.4671 20.5502 42.7938C19.3055 43.1895 18.0076 43.3801 16.7047 43.3585H7.13538V18.748H15.9477Z" fill="#0CA49D"/>
<path d="M42.4354 23.7432C42.3029 23.9761 42.1292 24.1817 41.9233 24.3494C41.7181 24.4948 41.4722 24.5678 41.2231 24.557C40.9373 24.5454 40.659 24.4605 40.4135 24.31C40.12 24.1439 39.7941 23.9633 39.4258 23.7619C39.0219 23.5424 38.5999 23.3597 38.1649 23.2159C37.6423 23.0414 37.0951 22.9572 36.5457 22.9667C35.5013 22.9667 34.7241 23.1972 34.2161 23.6498C33.9618 23.8794 33.7608 24.1645 33.6281 24.4843C33.4953 24.8041 33.4341 25.1503 33.449 25.4975C33.4416 25.7258 33.4782 25.9534 33.5567 26.1671C33.6351 26.3809 33.754 26.5767 33.9064 26.7432C34.258 27.0986 34.6694 27.3856 35.1208 27.5903C35.6764 27.8411 36.2478 28.0533 36.831 28.2255C37.4727 28.4332 38.1285 28.6408 38.7984 28.8858C39.4713 29.1264 40.1284 29.4115 40.7656 29.7391C41.3986 30.0582 41.9779 30.4787 42.4819 30.9847C42.998 31.5156 43.4101 32.1428 43.6963 32.8325C44.0225 33.6673 44.1768 34.5621 44.1497 35.4609C44.1587 36.5518 43.9636 37.6344 43.5749 38.6499C43.2007 39.6258 42.6303 40.51 41.9011 41.245C41.1278 42.0114 40.2077 42.6045 39.1991 42.9869C38.0335 43.4284 36.7983 43.6445 35.5559 43.6243C34.7876 43.6216 34.0214 43.5402 33.2688 43.3814C32.5025 43.225 31.7503 43.0028 31.0203 42.717C30.3095 42.4392 29.6236 42.0988 28.97 41.6997C28.3662 41.3298 27.8077 40.8872 27.3063 40.3813L28.97 37.7156C29.106 37.518 29.282 37.353 29.4861 37.2319C29.6981 37.1035 29.9402 37.0368 30.1864 37.0388C30.5423 37.047 30.8885 37.1594 31.1842 37.3626C31.5182 37.5703 31.8966 37.8153 32.3196 38.0747C32.7854 38.3529 33.2729 38.5911 33.7769 38.7868C34.4012 39.0126 35.0601 39.1216 35.7219 39.1087C36.7325 39.1087 37.5185 38.8817 38.0799 38.4277C38.6425 37.9689 38.9178 37.2506 38.9178 36.2561C38.9397 35.7466 38.7759 35.247 38.4583 34.8547C38.119 34.4725 37.7054 34.1676 37.2439 33.9599C36.6938 33.7041 36.1237 33.4957 35.5398 33.337C34.9043 33.1543 34.2505 32.9543 33.5786 32.737C32.9057 32.5179 32.25 32.2465 31.6173 31.9252C30.9832 31.6056 30.4069 31.1772 29.9132 30.6588C29.3849 30.0952 28.972 29.4288 28.6988 28.6989C28.367 27.7731 28.2111 26.7908 28.2394 25.8048C28.2433 24.8569 28.4357 23.9198 28.805 23.0509C29.1742 22.182 29.7125 21.3996 30.3868 20.7514C31.1362 20.0346 32.0148 19.4747 32.9734 19.103C34.0953 18.6706 35.2867 18.4593 36.485 18.4802C37.2055 18.4797 37.925 18.5387 38.6364 18.6566C39.3125 18.7695 39.977 18.9453 40.622 19.1819C41.2304 19.403 41.8179 19.6809 42.3767 20.0124C42.9003 20.3193 43.389 20.6848 43.8339 21.1024L42.4476 23.7619L42.4354 23.7432Z" fill="#0CA49D"/>
<path d="M53.7715 9.1251C53.7715 8.91754 53.7372 8.7099 53.7088 8.5127C54.3714 9.21515 55.1748 9.76165 56.0634 10.1144C56.952 10.4672 57.9048 10.6177 58.8558 10.5556C59.7813 10.4928 60.6838 10.2318 61.5051 9.78949C60.7913 11.0699 60.5065 12.5551 60.6939 14.0175C60.8814 15.4799 61.5311 16.8389 62.5434 17.8864C61.1646 17.6045 59.7341 17.7812 58.4599 18.391C57.1859 19.0008 56.1347 20.0118 55.4596 21.2768C55.2579 19.8741 54.6312 18.572 53.6683 17.5548C52.7054 16.5376 51.455 15.8569 50.094 15.6089C51.2651 15.0224 52.2403 14.0926 52.896 12.9373C53.5517 11.782 53.8585 10.4532 53.7776 9.11894L53.7715 9.1251Z" fill="#F9AD3C"/>
<path d="M63.6971 33.3724C63.928 33.3789 64.1584 33.3466 64.3792 33.2769C64.552 33.2253 64.7126 33.1377 64.8508 33.0194C64.9762 32.9081 65.0712 32.7649 65.126 32.6042C65.184 32.4384 65.2128 32.2634 65.2111 32.0873C65.2186 31.9235 65.1882 31.7602 65.1224 31.6109C65.0567 31.4615 64.9573 31.3302 64.8325 31.2277C64.5816 31.016 64.2031 30.9101 63.6971 30.9101H62.2115V33.3641L63.6971 33.3724ZM62.2115 27.8333V30.2354H63.4401C63.6704 30.24 63.9003 30.2099 64.1222 30.1461C64.2973 30.0979 64.4611 30.0139 64.6038 29.899C64.7275 29.8006 64.8243 29.6712 64.8852 29.5233C64.948 29.3666 64.9789 29.1985 64.9762 29.0291C64.9911 28.8581 64.9656 28.6861 64.9018 28.5274C64.838 28.3688 64.7379 28.2282 64.6099 28.1177C64.3691 27.9225 63.9906 27.8291 63.4785 27.8291H62.2115V27.8333ZM63.4785 27.0817C63.8461 27.074 64.2131 27.1173 64.5694 27.2104C64.8417 27.2776 65.0973 27.4021 65.3203 27.5758C65.5143 27.7258 65.6653 27.9266 65.7575 28.1571C65.8521 28.4007 65.8989 28.6611 65.8951 28.9232C65.8953 29.0935 65.8679 29.2625 65.8141 29.4236C65.7614 29.5831 65.682 29.7321 65.5794 29.8637C65.4662 30.0105 65.3292 30.1362 65.1746 30.2354C64.9982 30.3495 64.8076 30.4389 64.6079 30.5011C65.0329 30.5604 65.4295 30.7534 65.7433 31.0534C65.8737 31.1942 65.9749 31.3606 66.041 31.5425C66.1071 31.7244 66.1366 31.9182 66.1279 32.1122C66.1329 32.3935 66.0783 32.6726 65.968 32.9302C65.8623 33.1774 65.7006 33.3952 65.4964 33.5655C65.2722 33.752 65.0152 33.893 64.7395 33.9807C64.4061 34.0794 64.0603 34.127 63.7133 34.1219H61.2845V27.0754H63.4785V27.0817Z" fill="#0CA49D"/>
<path d="M71.0359 31.512L69.9571 28.6407C69.9227 28.5577 69.8924 28.458 69.8539 28.3459C69.8154 28.2339 69.7851 28.1113 69.7507 27.9805C69.6956 28.2065 69.628 28.429 69.5483 28.647L68.4695 31.5059H71.0399L71.0359 31.512ZM72.9688 34.1259H72.2503C72.1774 34.1286 72.106 34.1051 72.048 34.0594C71.9942 34.0182 71.9546 33.9609 71.9348 33.8955L71.2909 32.1951H68.2125L67.5688 33.8955C67.5478 33.9577 67.5108 34.0129 67.4616 34.0553C67.4046 34.1031 67.3327 34.1281 67.2592 34.1259H66.5427L69.2912 27.0815H70.2324L72.9787 34.1259H72.9688Z" fill="#0CA49D"/>
<path d="M79.4333 27.0878V34.13H78.9616C78.8965 34.1329 78.8307 34.1194 78.7713 34.0906C78.7148 34.0562 78.6652 34.0095 78.6278 33.9536L74.6671 28.6407C74.6671 28.7217 74.6791 28.8048 74.6834 28.8816C74.6869 28.9584 74.6834 29.0352 74.6834 29.1058V34.1238H73.8735V27.0878H74.3552C74.3898 27.0841 74.4245 27.0841 74.4584 27.0878C74.4846 27.0926 74.5094 27.101 74.5334 27.1127C74.5589 27.1239 74.5822 27.1393 74.602 27.1584C74.6246 27.1771 74.6466 27.2062 74.677 27.2352L78.6461 32.5377C78.6461 32.4483 78.6341 32.3736 78.6299 32.2906C78.6256 32.2076 78.6299 32.1307 78.6299 32.0601V27.0774H79.4397L79.4333 27.0878Z" fill="#0CA49D"/>
<path d="M82.1195 30.1708H82.4695C82.5686 30.1734 82.6676 30.1572 82.7609 30.1231C82.8402 30.0861 82.9095 30.0298 82.9632 29.9591L85.2463 27.3037C85.2979 27.2278 85.3672 27.1669 85.4485 27.1273C85.5306 27.0918 85.619 27.0762 85.7074 27.0816H86.4932L83.8763 30.1107C83.8204 30.1827 83.7575 30.2482 83.6882 30.3058C83.6287 30.354 83.5651 30.3957 83.4979 30.4304C83.5842 30.4574 83.6648 30.5035 83.732 30.5653C83.8098 30.6294 83.8777 30.7041 83.935 30.7874L86.6672 34.1259H85.8573C85.8043 34.1256 85.7505 34.1214 85.6975 34.1134C85.6593 34.1045 85.6232 34.0905 85.5886 34.0719C85.556 34.0557 85.5263 34.0339 85.5016 34.0075C85.4754 33.9803 85.4521 33.9504 85.4323 33.9183L83.0707 31.1321C83.0191 31.0575 82.9498 30.9986 82.8684 30.9619C82.7624 30.9203 82.6492 30.9018 82.536 30.9079H82.1173V34.1342H81.188V27.0816H82.111V30.1708H82.1195Z" fill="#0CA49D"/>
<path d="M93.5021 28.1882C93.476 28.2308 93.442 28.268 93.4024 28.2983C93.3677 28.3226 93.326 28.335 93.2836 28.3336C93.2136 28.3266 93.1471 28.2984 93.0933 28.2526C93.0042 28.1868 92.9123 28.1259 92.8175 28.0699C92.6923 27.994 92.5601 27.9307 92.4228 27.881C92.0607 27.766 91.6724 27.766 91.3096 27.881C91.1618 27.9301 91.0246 28.0084 90.9051 28.1114C90.8025 28.2091 90.7212 28.3271 90.6646 28.4581C90.6108 28.5947 90.584 28.7407 90.5854 28.8879C90.579 29.0634 90.6271 29.2364 90.7233 29.382C90.8251 29.5155 90.9517 29.6275 91.0953 29.7121C91.2636 29.8098 91.4405 29.8905 91.6236 29.9529C91.8259 30.0173 92.0282 30.0879 92.2312 30.1606C92.4377 30.2311 92.6407 30.3136 92.838 30.4077C93.0304 30.4915 93.2093 30.6065 93.3663 30.7481C93.5233 30.8883 93.6507 31.061 93.7384 31.2547C93.8409 31.4859 93.8897 31.738 93.8826 31.9917C93.884 32.2891 93.831 32.5842 93.7263 32.8616C93.6266 33.1258 93.4724 33.3646 93.273 33.5613C93.0686 33.77 92.8217 33.9308 92.5509 34.0326C92.2382 34.1503 91.908 34.208 91.5748 34.2028C91.1738 34.2112 90.7756 34.134 90.405 33.976C90.0351 33.8181 89.7006 33.5828 89.4233 33.2851L89.6949 32.8326C89.7197 32.7973 89.7501 32.767 89.7862 32.7433C89.8237 32.7193 89.8668 32.7057 89.9114 32.7038C89.9616 32.7067 90.009 32.7248 90.0493 32.7557C90.1016 32.791 90.1646 32.8326 90.2332 32.8845C90.3018 32.9364 90.3767 32.9966 90.4616 33.0567C90.555 33.1223 90.6526 33.1792 90.7551 33.227C90.8782 33.2821 91.0048 33.3272 91.1342 33.362C91.2898 33.3971 91.4496 33.4132 91.6095 33.4097C91.8103 33.4133 92.0105 33.381 92.2008 33.3142C92.3606 33.2576 92.5091 33.1702 92.6379 33.0567C92.7581 32.9407 92.8521 32.7989 92.913 32.6415C92.978 32.4751 93.0106 32.2975 93.0099 32.1184C93.0184 31.9321 92.9681 31.7479 92.8663 31.5931C92.7694 31.4539 92.6449 31.3378 92.4999 31.2527C92.3337 31.1538 92.1562 31.0764 91.9716 31.0222L91.3648 30.8291C91.1625 30.7585 90.9595 30.6817 90.7572 30.5945C90.5656 30.5085 90.3873 30.393 90.2289 30.2519C90.0719 30.1048 89.9453 29.9269 89.8569 29.7287C89.673 29.2419 89.673 28.7021 89.8569 28.2153C89.9495 27.9817 90.0868 27.7699 90.2614 27.5924C90.4531 27.4045 90.6787 27.2565 90.9256 27.1564C91.217 27.0438 91.5267 26.9882 91.8379 26.9924C92.1944 26.9881 92.5487 27.0514 92.8826 27.1792C93.2022 27.3027 93.4936 27.4937 93.7369 27.7398L93.512 28.1924L93.5021 28.1882Z" fill="#0CA49D"/>
<path d="M97.6326 31.3232V34.1301H96.7018V31.3232L94.184 27.0878H94.9938C95.0666 27.0829 95.1388 27.1058 95.1961 27.1522C95.2463 27.1968 95.2887 27.2502 95.3212 27.31L96.8942 30.0463C96.9508 30.1647 97.0031 30.2706 97.054 30.3703C97.1014 30.4682 97.1439 30.5687 97.1813 30.6713C97.216 30.5688 97.2556 30.4683 97.3009 30.3703C97.3476 30.2706 97.3921 30.1626 97.4508 30.0463L99.0174 27.31C99.0485 27.253 99.0888 27.2018 99.1369 27.1584C99.1645 27.1336 99.1963 27.1146 99.231 27.1025C99.2656 27.0904 99.3024 27.0854 99.3392 27.0878H100.159L97.6326 31.3232Z" fill="#0CA49D"/>
<path d="M104.006 31.512L102.928 28.6407C102.893 28.5577 102.865 28.458 102.825 28.3459C102.784 28.2339 102.755 28.1113 102.721 27.9805C102.666 28.2065 102.598 28.429 102.519 28.647L101.428 31.512H103.998H104.006ZM105.939 34.1259H105.223C105.15 34.1286 105.078 34.1051 105.021 34.0594C104.967 34.0182 104.927 33.9609 104.907 33.8955L104.261 32.1951H101.183L100.542 33.8955C100.519 33.9574 100.481 34.0125 100.432 34.0553C100.375 34.1032 100.303 34.1283 100.23 34.1259H99.5111L102.26 27.0815H103.201L105.949 34.1259H105.939Z" fill="#0CA49D"/>
<path d="M108.751 30.4949C108.99 30.4979 109.23 30.4643 109.461 30.3952C109.649 30.3346 109.824 30.2381 109.977 30.1108C110.115 29.9953 110.223 29.8472 110.293 29.679C110.363 29.4997 110.399 29.3077 110.396 29.1142C110.408 28.9344 110.377 28.7543 110.307 28.5891C110.236 28.424 110.128 28.2787 109.991 28.1654C109.721 27.9537 109.317 27.8478 108.777 27.8478H107.765V30.5094H108.74L108.751 30.4949ZM111.922 34.126H111.096C111.022 34.1301 110.947 34.1128 110.882 34.0762C110.816 34.0395 110.761 33.9849 110.724 33.9184L108.939 31.4C108.896 31.3301 108.835 31.2734 108.763 31.236C108.672 31.1943 108.574 31.1758 108.475 31.1821H107.769V34.1198H106.846V27.0817H108.785C109.164 27.075 109.541 27.1204 109.909 27.2166C110.192 27.287 110.459 27.4186 110.689 27.6028C110.89 27.7672 111.047 27.9817 111.143 28.2256C111.244 28.4814 111.294 28.7553 111.291 29.0312C111.292 29.2693 111.254 29.5059 111.177 29.7309C111.102 29.9451 110.989 30.143 110.844 30.3143C110.693 30.4915 110.513 30.6391 110.311 30.7502C110.088 30.8779 109.848 30.9709 109.599 31.0264C109.721 31.1002 109.825 31.2025 109.902 31.3254L111.906 34.1219L111.922 34.126Z" fill="#0CA49D"/>
<path d="M113.786 34.1302H112.851V27.0879H113.786V34.1302Z" fill="#0CA49D"/>
<path d="M62.2115 43.4166H61.2805V36.3723H62.2115V43.4166Z" fill="#0CA49D"/>
<path d="M69.5321 36.3723V43.4166H69.0666C69.0016 43.4203 68.9368 43.4066 68.8784 43.3772C68.8209 43.3434 68.7717 43.2965 68.7346 43.2402L64.7636 37.9336C64.7636 38.0145 64.7758 38.0976 64.7819 38.1744C64.7879 38.2512 64.7819 38.328 64.7819 38.3986V43.4166H63.9723V36.3723H64.454C64.4887 36.3726 64.5233 36.3768 64.5572 36.3848C64.5829 36.3893 64.6081 36.397 64.6321 36.4076C64.6576 36.4194 64.6808 36.4355 64.7009 36.4553C64.7274 36.4794 64.7524 36.5051 64.7758 36.5322L68.7468 41.8346L68.7286 41.5876C68.7286 41.5045 68.7286 41.4277 68.7286 41.3571V36.3744H69.5382L69.5321 36.3723Z" fill="#0CA49D"/>
<path d="M77.2436 39.8976C77.2499 40.3902 77.1665 40.8797 76.9967 41.3405C76.8426 41.7553 76.6084 42.1338 76.3086 42.4533C76.0016 42.765 75.636 43.0088 75.2335 43.1696C74.7922 43.3421 74.3233 43.428 73.8515 43.4229H71.2869V36.3785H73.8515C74.3233 36.3717 74.7929 36.4577 75.2335 36.6318C75.6381 36.7897 76.0052 37.035 76.3093 37.3508C76.6134 37.6668 76.8475 38.046 76.9967 38.463C77.1636 38.9238 77.2471 39.4121 77.2436 39.9038V39.8976ZM76.2902 39.8976C76.2965 39.5042 76.2386 39.1127 76.1183 38.7391C76.0158 38.419 75.8496 38.1242 75.6303 37.8734C75.4167 37.6358 75.1536 37.4506 74.8615 37.3315C74.539 37.2029 74.1953 37.1395 73.8494 37.1447H72.222V42.6464H73.8572C74.2038 42.6523 74.5475 42.5881 74.8693 42.4575C75.1607 42.3388 75.4231 42.1559 75.6381 41.9218C75.858 41.6721 76.0243 41.3778 76.1261 41.0581C76.2435 40.6833 76.2987 40.2911 76.2902 39.8976Z" fill="#0CA49D"/>
<path d="M84.9245 39.8975C84.9308 40.3934 84.8474 40.8863 84.6776 41.3508C84.527 41.7746 84.2929 42.162 83.9895 42.4885C83.6868 42.8103 83.3211 43.0628 82.9166 43.2297C82.4774 43.4083 82.007 43.4959 81.5346 43.4872C81.0614 43.4924 80.5925 43.4051 80.1519 43.2297C79.7501 43.0607 79.3859 42.8084 79.0832 42.4885C78.7805 42.1614 78.5464 41.7743 78.395 41.3508C78.2288 40.8853 78.1454 40.3931 78.1482 39.8975C78.1404 39.4015 78.2246 38.9084 78.395 38.4442C78.5457 38.0193 78.7798 37.6306 79.0832 37.3023C79.3838 36.9786 79.748 36.7239 80.1519 36.5549C81.0416 36.2034 82.0268 36.2034 82.9166 36.5549C83.3225 36.7219 83.6882 36.9769 83.9895 37.3023C84.2936 37.63 84.5277 38.0188 84.6776 38.4442C84.8446 38.9095 84.928 39.4018 84.9245 39.8975ZM83.9711 39.8975C83.9768 39.5022 83.9188 39.1086 83.7992 38.7328C83.6981 38.4109 83.5319 38.1145 83.3112 37.8629C83.1005 37.6199 82.8381 37.4302 82.5445 37.3086C81.8988 37.0511 81.1824 37.0511 80.5366 37.3086C80.2431 37.4317 79.98 37.6213 79.7671 37.8629C79.5465 38.114 79.3803 38.4106 79.2798 38.7328C79.1596 39.1085 79.1016 39.5021 79.108 39.8975C79.1023 40.2935 79.1603 40.6876 79.2798 41.0643C79.3852 41.3834 79.5521 41.6771 79.7714 41.928C79.9871 42.1645 80.2495 42.3514 80.5409 42.4761C81.188 42.7252 81.9009 42.7252 82.5481 42.4761C82.8388 42.3511 83.1005 42.1643 83.3155 41.928C83.5347 41.6755 83.7009 41.3794 83.8035 41.058C83.9216 40.6834 83.9782 40.2912 83.9711 39.8975Z" fill="#0CA49D"/>
<path d="M91.8203 36.3723V43.4166H91.3563C91.2913 43.4195 91.2255 43.406 91.1661 43.3772C91.1088 43.3434 91.06 43.2965 91.0225 43.2402L87.0576 37.9336C87.0576 38.0145 87.0576 38.0976 87.0739 38.1744C87.0901 38.2512 87.0739 38.328 87.0739 38.3986V43.4166H86.264V36.3723H86.7478C86.7825 36.3729 86.8171 36.3771 86.8511 36.3848C86.8765 36.3896 86.9006 36.3973 86.9239 36.4076C86.9494 36.4194 86.9727 36.4355 86.9932 36.4553C87.0194 36.4794 87.0441 36.5051 87.0675 36.5322L91.0388 41.8346L91.0204 41.5876C91.0204 41.5045 91.0204 41.4277 91.0204 41.3571V36.3744H91.8302L91.8203 36.3723Z" fill="#0CA49D"/>
<path d="M97.8086 42.6402L97.803 43.4166H93.575V36.3723H97.803V37.1509H94.5036V39.4866H97.177V40.234H94.5036V42.6402H97.8086Z" fill="#0CA49D"/>
<path d="M102.618 37.4726C102.593 37.5167 102.561 37.5549 102.52 37.5847C102.485 37.6095 102.442 37.6218 102.4 37.62C102.33 37.6127 102.264 37.5845 102.211 37.5391C102.136 37.4851 102.043 37.4207 101.933 37.3564C101.809 37.2792 101.677 37.2159 101.539 37.1674C101.357 37.1093 101.167 37.0813 100.977 37.0843C100.789 37.0818 100.603 37.112 100.426 37.1737C100.278 37.222 100.141 37.2996 100.021 37.402C99.9192 37.5009 99.8371 37.6194 99.7806 37.7508C99.7275 37.8876 99.7006 38.0334 99.7013 38.1805C99.695 38.3561 99.7431 38.5291 99.8393 38.6747C99.9411 38.808 100.068 38.9195 100.211 39.0027C100.379 39.1019 100.556 39.1834 100.74 39.2456C100.942 39.31 101.144 39.3806 101.346 39.4532C101.554 39.5234 101.757 39.6059 101.954 39.7003C102.147 39.7834 102.325 39.8984 102.482 40.0408C102.639 40.181 102.767 40.3536 102.854 40.5474C102.956 40.7779 103.006 41.0293 102.999 41.2823C103 41.5804 102.947 41.8762 102.842 42.1543C102.743 42.4189 102.588 42.6578 102.389 42.854C102.185 43.0626 101.938 43.2234 101.667 43.3252C101.354 43.443 101.024 43.5007 100.691 43.4954C100.29 43.5039 99.8916 43.4267 99.521 43.2687C99.1511 43.1108 98.8166 42.8754 98.5393 42.5778L98.8109 42.1252C98.8357 42.0899 98.8661 42.0596 98.9021 42.036C98.9396 42.0114 98.9828 41.9971 99.0273 41.9944C99.0775 41.9983 99.1249 42.017 99.1652 42.0484C99.2282 42.088 99.2897 42.131 99.3491 42.1771C99.4177 42.2311 99.4927 42.2893 99.5776 42.3494C99.6709 42.4149 99.7685 42.4719 99.8711 42.5197C99.9941 42.5747 100.12 42.6199 100.249 42.6547C100.406 42.6898 100.566 42.7058 100.725 42.7024C100.926 42.7059 101.126 42.6737 101.317 42.6069C101.477 42.5482 101.624 42.4586 101.752 42.3432C101.871 42.226 101.964 42.0845 102.027 41.928C102.092 41.7616 102.124 41.584 102.124 41.4048C102.132 41.2184 102.082 41.0344 101.98 40.8795C101.884 40.7398 101.759 40.6236 101.614 40.539C101.448 40.4402 101.27 40.3628 101.085 40.3086L100.479 40.1155C100.276 40.045 100.073 39.9681 99.8711 39.8789C99.6787 39.7944 99.5005 39.6795 99.3428 39.5383C99.1857 39.3912 99.0591 39.2133 98.9707 39.0152C98.7868 38.5283 98.7868 37.9886 98.9707 37.5017C99.0634 37.2681 99.2006 37.0563 99.3753 36.8788C99.5677 36.6905 99.794 36.5423 100.042 36.4429C100.332 36.3301 100.641 36.2745 100.952 36.2788C101.308 36.2745 101.663 36.3379 101.996 36.4657C102.307 36.5864 102.59 36.7708 102.828 37.0076L102.605 37.4601L102.618 37.4726Z" fill="#0CA49D"/>
<path d="M105.239 43.4166H104.31V36.3723H105.239V43.4166Z" fill="#0CA49D"/>
<path d="M110.643 40.7986L109.564 37.9335C109.529 37.8443 109.501 37.7508 109.461 37.6388C109.421 37.5267 109.392 37.4021 109.358 37.2734C109.303 37.4987 109.235 37.7205 109.155 37.9378L108.077 40.7986H110.647H110.643ZM112.578 43.4125H111.859C111.786 43.4152 111.715 43.3917 111.657 43.346C111.605 43.3013 111.566 43.2412 111.547 43.1737L110.906 41.4734H107.821L107.178 43.1737C107.157 43.2365 107.119 43.292 107.069 43.3336C107.012 43.3821 106.94 43.4072 106.866 43.4042H106.149L108.898 36.3599H109.837L112.586 43.4042L112.578 43.4125Z" fill="#0CA49D"/>
</g>
<defs>
<clipPath id="clip0_11946_2599">
<rect width="113.162" height="58" fill="white" transform="translate(0.865601)"/>
</clipPath>
</defs>
</svg>
