<svg width="55" height="31" viewBox="0 0 55 31" fill="none" xmlns="http://www.w3.org/2000/svg">
<g clip-path="url(#clip0_11946_2630)">
<path d="M11.0549 10.277C8.93694 10.277 6.97923 11.0083 5.38728 12.2501V3.37256H0.380371V30.6022H5.38728V29.028C6.97807 30.2698 8.93694 31.0011 11.0549 31.0011C16.3869 31.0011 20.7111 26.3629 20.7111 20.6384C20.7111 14.914 16.3869 10.277 11.0549 10.277ZM10.5753 25.9426C7.71076 25.9426 5.38728 23.5671 5.38728 20.6384C5.38728 17.7097 7.71076 15.3354 10.5753 15.3354C13.4399 15.3354 15.7622 17.7097 15.7622 20.6384C15.7622 23.5671 13.4399 25.9426 10.5753 25.9426Z" fill="#015BFD"/>
<path d="M54.4578 17.7704V30.6011H49.4497V18.3236C49.4497 17.7395 49.2779 17.1614 48.9574 16.677C48.3942 15.8259 47.4177 15.3949 46.44 15.313C45.5784 15.2406 44.6065 15.4032 43.8495 15.8472C43.5963 15.9956 43.3618 16.1749 43.1516 16.3814C42.4758 17.0462 42.0729 17.977 42.0729 18.9386V30.6023H37.0648V10.7864H42.0729V11.8537C42.0729 11.5462 43.4407 10.955 43.6869 10.8481C44.3244 10.5727 45.0025 10.403 45.6899 10.3258C50.1813 9.82007 54.4555 12.9221 54.4555 17.7716L54.4578 17.7704Z" fill="#015BFD"/>
<path d="M34.7634 15.7628V10.7851H29.1063V5.40137H27.4516L24.0982 7.79228V11.2932L20.71 13.9939V15.7628H24.0982V23.4793C24.0982 24.1999 24.1749 24.9205 24.3502 25.6173C25.437 29.948 29.2375 30.9987 31.3682 30.9987C33.7277 30.9987 34.7646 30.2211 34.7646 30.2211V25.355C34.7646 25.355 33.8903 26.0625 31.6527 26.0625C30.7575 26.0625 30.1711 25.7491 29.7902 25.3716C29.3432 24.93 29.1063 24.3103 29.1063 23.6751V15.7616H34.7634V15.7628Z" fill="#015BFD"/>
<path d="M53.4 0.0534706L37.7569 6.14829C37.3412 6.30974 37.0671 6.71812 37.0671 7.1728V8.24123C37.0671 8.42761 37.232 8.56888 37.4108 8.53564L52.0519 5.84675C53.4453 5.59033 54.4578 4.35213 54.4578 2.905V0.797812C54.4578 0.239853 53.9109 -0.14597 53.4011 0.0534706H53.4Z" fill="#FF0000"/>
</g>
<defs>
<clipPath id="clip0_11946_2630">
<rect width="54.0774" height="31" fill="white" transform="translate(0.380371)"/>
</clipPath>
</defs>
</svg>
