<svg width="24" height="25" viewBox="0 0 24 25" fill="none" xmlns="http://www.w3.org/2000/svg">
<path opacity="0.4" d="M7.24001 3.08813H5.34C3.15 3.08813 2 4.17049 2 6.22225V8.01049C2 10.0623 3.15 11.1446 5.33 11.1446H7.23001C9.41 11.1446 10.56 10.0623 10.56 8.01049V6.22225C10.57 4.17049 9.42 3.08813 7.24001 3.08813Z" fill="#686E76"/>
<path opacity="0.4" d="M16.77 3.79401H18.6701C19.6343 3.79401 20.2473 4.03203 20.6222 4.38491C20.9972 4.7378 21.2501 5.31476 21.2501 6.22224V8.01048C21.2501 8.91796 20.9972 9.49494 20.6222 9.84782C20.2473 10.2007 19.6343 10.4387 18.6701 10.4387H16.77C15.8058 10.4387 15.1928 10.2007 14.8179 9.84782C14.443 9.49494 14.1901 8.91796 14.1901 8.01048V6.22224C14.1901 5.31476 14.443 4.7378 14.8179 4.38491C15.1928 4.03203 15.8058 3.79401 16.77 3.79401Z" fill="#686E76" stroke="#686E76"/>
<path opacity="0.4" d="M18.6701 13.8459H16.77C14.5901 13.8459 13.4401 14.9282 13.4401 16.9801V18.7682C13.4401 20.8201 14.5901 21.9024 16.77 21.9024H18.6701C20.85 21.9024 22.0001 20.8201 22.0001 18.7682V16.9801C22.0001 14.9282 20.85 13.8459 18.6701 13.8459Z" fill="#686E76"/>
<path opacity="0.4" d="M7.24001 13.8459H5.34C3.15 13.8459 2 14.9282 2 16.9801V18.7682C2 20.8294 3.15 21.9118 5.33 21.9118H7.23001C9.41 21.9118 10.56 20.8294 10.56 18.7777V16.9894C10.57 14.9282 9.42 13.8459 7.24001 13.8459Z" fill="#686E76"/>
</svg>
