<svg width="61" height="52" viewBox="0 0 61 52" fill="none" xmlns="http://www.w3.org/2000/svg">
<path d="M28.0955 1.33847C21.8829 2.17235 16.5411 5.71314 13.4867 11.0115C12.6549 12.4483 11.9011 14.347 11.5111 15.9635L11.2122 17.195L10.6923 17.1437C10.1335 17.0796 6.49425 17.8365 5.50647 18.2214C4.34972 18.6704 3.10199 19.7608 2.56911 20.8128C2.02323 21.852 1.90625 22.6602 1.90625 25.3158C1.90625 27.9713 2.02323 28.7795 2.56911 29.8187C3.10199 30.8707 4.34972 31.9611 5.51947 32.4102C6.22131 32.6795 9.95148 33.5263 10.4454 33.5263C11.6281 33.5263 13.0578 32.6412 13.6427 31.5506C13.9286 31.0374 13.9286 30.8965 14.0066 24.8668C14.0846 18.17 14.1366 17.5799 14.8774 15.4375C15.4623 13.7826 15.8782 12.9358 16.775 11.5888C18.2307 9.44636 20.0113 7.77861 22.2078 6.50855C26.3669 4.09671 31.5528 3.62203 36.0887 5.23846C40.8068 6.91907 44.6148 10.8191 46.1357 15.5016C46.9023 17.8878 47.0063 19.0039 47.0063 25.4441C47.0063 30.7552 47.0063 30.7681 47.3183 31.4096C47.8642 32.5898 49.3069 33.5263 50.5546 33.5263C51.0096 33.5263 54.6358 32.7181 55.4285 32.4488C56.5464 32.0509 57.8851 30.8836 58.4308 29.8187C58.9767 28.7795 59.0938 27.9713 59.0938 25.3158C59.0938 22.6602 58.9767 21.852 58.4308 20.8128C57.8851 19.748 56.5464 18.5806 55.4285 18.1829C54.2847 17.7852 50.8405 17.0796 50.3078 17.1437L49.7879 17.195L49.4887 15.9378C49.3199 15.245 48.9431 14.0776 48.6442 13.3464C46.1745 7.26545 40.8068 2.86513 34.2823 1.56939C32.8136 1.27433 29.4602 1.14604 28.0955 1.33847Z" fill="#009EA9"/>
<path opacity="0.4" d="M28.4851 9.53601C26.4574 9.85671 24.2869 10.7034 22.5193 11.8709C21.4925 12.5508 19.6469 14.3853 18.9451 15.3988C15.6828 20.1969 15.6568 26.0853 18.8931 30.9219C19.6079 31.9994 21.4015 33.7827 22.5193 34.5526C23.819 35.4377 25.6776 36.2845 27.2113 36.7078L28.4851 37.0412L34.9835 37.0798L41.4822 37.131L42.067 36.8359C42.9379 36.3871 43.2756 35.8225 43.2107 34.8605C43.1589 33.9622 42.9379 33.616 41.9112 32.859C41.5341 32.5769 41.2352 32.2947 41.2482 32.2304C41.2743 32.1663 41.5601 31.7558 41.8851 31.3195C45.2254 26.8422 45.3812 20.4791 42.2749 15.758C40.3643 12.8587 37.3231 10.7034 33.9437 9.8439C32.488 9.47186 29.8756 9.33075 28.4851 9.53601ZM26.3925 22.2238C26.7304 22.5702 26.7954 22.7242 26.7954 23.263C26.7954 23.8146 26.7304 23.9557 26.3664 24.315C26.0025 24.6742 25.8596 24.7383 25.3007 24.7383C24.7418 24.7383 24.5988 24.6742 24.2349 24.315C23.871 23.9557 23.806 23.8146 23.806 23.2758C23.806 22.6087 24.1309 22.0955 24.7158 21.839C25.1967 21.6337 25.9635 21.8005 26.3925 22.2238ZM31.5913 22.2238C31.9293 22.5702 31.9942 22.7242 31.9942 23.263C31.9942 23.8146 31.9293 23.9557 31.5653 24.315C31.2015 24.6742 31.0584 24.7383 30.4994 24.7383C29.9407 24.7383 29.7977 24.6742 29.4339 24.315C29.0698 23.9557 29.0049 23.8146 29.0049 23.2758C29.0049 22.6087 29.3299 22.0955 29.9147 21.839C30.3955 21.6337 31.1624 21.8005 31.5913 22.2238ZM36.7902 22.2238C37.1282 22.5702 37.1931 22.7242 37.1931 23.263C37.1931 23.8146 37.1282 23.9557 36.7641 24.315C36.4004 24.6742 36.2573 24.7383 35.6983 24.7383C35.1396 24.7383 34.9965 24.6742 34.6327 24.315C34.2687 23.9557 34.2038 23.8146 34.2038 23.2758C34.2038 22.6087 34.5288 22.0955 35.1135 21.839C35.5943 21.6337 36.3613 21.8005 36.7902 22.2238Z" fill="#009EA9"/>
<path opacity="0.4" d="M13.2786 36.2074C12.8367 36.3998 12.4338 36.9258 12.3558 37.4003C12.2389 38.0676 12.5638 38.6319 13.8895 40.0047C16.9568 43.212 20.934 45.0849 25.561 45.5211L26.4188 45.598L26.4058 46.7784C26.4058 47.8047 26.4578 48.0612 26.7697 48.7413C28.4723 52.3588 33.5542 52.3462 35.2699 48.7284C35.5819 48.074 35.6337 47.7919 35.6337 46.8682C35.6337 45.9445 35.5819 45.6623 35.2699 45.0079C34.7889 44.0074 33.9182 43.122 32.9173 42.686C32.0206 42.2755 31.4228 42.2498 28.0825 42.4422C25.8989 42.5577 24.3132 42.3524 22.1817 41.6597C19.6083 40.8129 17.8666 39.684 15.8391 37.5416C14.7083 36.3483 14.5134 36.1945 14.0585 36.143C13.7725 36.1176 13.4216 36.143 13.2786 36.2074Z" fill="#009EA9"/>
</svg>
