<svg width="29" height="28" viewBox="0 0 29 28" fill="none" xmlns="http://www.w3.org/2000/svg">
<g clip-path="url(#clip0_11953_453)">
<path d="M14.5 28C22.232 28 28.5 21.732 28.5 14C28.5 6.26801 22.232 0 14.5 0C6.76801 0 0.5 6.26801 0.5 14C0.5 21.732 6.76801 28 14.5 28Z" fill="#3B5998"/>
<path d="M18.4998 14.548H16.0016V23.6999H12.2167V14.548H10.4166V11.3316H12.2167V9.25022C12.2167 7.76183 12.9238 5.43115 16.0353 5.43115L18.8389 5.44289V8.56492H16.8047C16.471 8.56492 16.0018 8.73163 16.0018 9.44164V11.3346H18.8304L18.4998 14.548Z" fill="white"/>
</g>
<defs>
<clipPath id="clip0_11953_453">
<rect width="28" height="28" fill="white" transform="translate(0.5)"/>
</clipPath>
</defs>
</svg>
