<svg width="25" height="25" viewBox="0 0 25 25" fill="none" xmlns="http://www.w3.org/2000/svg">
<g clip-path="url(#clip0_12404_44024)">
<path d="M8.22681 3.54325L8.84581 2.54325C9.23648 1.92741 9.77641 1.42025 10.4155 1.06885C11.0545 0.717454 11.772 0.533203 12.5013 0.533203C13.2306 0.533203 13.9481 0.717454 14.5872 1.06885C15.2262 1.42025 15.7661 1.92741 16.1568 2.54325L18.2878 5.93125L19.6458 5.00425C19.8907 4.8371 20.1796 4.74627 20.4761 4.74324C20.7726 4.74021 21.0633 4.82512 21.3116 4.98723C21.5598 5.14935 21.7545 5.3814 21.8709 5.65407C21.9874 5.92675 22.0204 6.22782 21.9658 6.51925L21.2298 10.4622C21.1444 10.9209 20.9018 11.3354 20.5436 11.6344C20.1855 11.9334 19.7343 12.0981 19.2678 12.1002C19.1378 12.1002 14.9678 11.2922 14.9678 11.2922C14.6779 11.235 14.4113 11.0934 14.2016 10.8853C13.9918 10.6771 13.8482 10.4116 13.7888 10.1221C13.7294 9.83261 13.7569 9.53202 13.8677 9.25807C13.9785 8.98411 14.1678 8.749 14.4118 8.58225L15.8068 7.62925L13.6068 4.13625C13.4909 3.94842 13.3292 3.79318 13.1367 3.68516C12.9443 3.57713 12.7275 3.51987 12.5069 3.51877C12.2862 3.51767 12.0688 3.57276 11.8753 3.67887C11.6818 3.78497 11.5185 3.93859 11.4008 4.12525L10.7798 5.12525C10.6759 5.29288 10.5401 5.43841 10.3799 5.55353C10.2198 5.66865 10.0386 5.75111 9.84661 5.79619C9.65462 5.84127 9.45564 5.8481 9.26101 5.81628C9.06639 5.78446 8.87994 5.71462 8.71231 5.61075C8.54468 5.50687 8.39915 5.371 8.28402 5.21088C8.1689 5.05076 8.08645 4.86953 8.04137 4.67755C7.99628 4.48556 7.98946 4.28658 8.02127 4.09195C8.05309 3.89733 8.12293 3.71088 8.22681 3.54325ZM23.8538 14.9622L23.2758 14.0312C23.1732 13.8615 23.0379 13.7137 22.8778 13.5966C22.7177 13.4795 22.536 13.3952 22.3431 13.3488C22.1502 13.3024 21.9501 13.2947 21.7542 13.3261C21.5583 13.3576 21.3707 13.4276 21.202 13.5321C21.0334 13.6366 20.8872 13.7735 20.7718 13.9348C20.6564 14.0962 20.5742 14.2789 20.5299 14.4723C20.4856 14.6656 20.4802 14.8659 20.5138 15.0614C20.5474 15.2569 20.6195 15.4438 20.7258 15.6112L21.3038 16.5432C21.4244 16.7392 21.4904 16.9638 21.4951 17.1938C21.4998 17.4238 21.443 17.651 21.3306 17.8517C21.2181 18.0524 21.0541 18.2195 20.8555 18.3356C20.6569 18.4517 20.4309 18.5127 20.2008 18.5122H15.5008V17.0002C15.5012 16.708 15.4162 16.422 15.2563 16.1773C15.0963 15.9327 14.8684 15.7401 14.6005 15.6233C14.3326 15.5064 14.0364 15.4704 13.7483 15.5196C13.4602 15.5688 13.1927 15.7011 12.9788 15.9002L10.2008 18.4922C9.98685 18.6771 9.81453 18.9053 9.69522 19.1616C9.5759 19.418 9.51231 19.6967 9.50862 19.9795C9.50494 20.2622 9.56125 20.5425 9.67384 20.8019C9.78643 21.0613 9.95275 21.2939 10.1618 21.4842L12.9798 24.1002C13.1938 24.2991 13.4611 24.4311 13.7491 24.4801C14.037 24.5291 14.333 24.493 14.6007 24.3762C14.8684 24.2594 15.0962 24.067 15.2561 23.8225C15.416 23.5781 15.501 23.2923 15.5008 23.0002V21.5122H20.2008C20.9659 21.5135 21.7174 21.3102 22.3775 20.9235C23.0376 20.5367 23.5823 19.9805 23.9553 19.3125C24.3282 18.6445 24.5158 17.889 24.4987 17.1241C24.4816 16.3593 24.2603 15.6129 23.8578 14.9622H23.8538ZM8.60081 8.88125C8.55085 8.62195 8.45024 8.37505 8.30473 8.15468C8.15922 7.93432 7.97168 7.74482 7.75283 7.59704C7.53399 7.44925 7.28815 7.34609 7.02938 7.29344C6.77061 7.2408 6.504 7.23971 6.24481 7.29025L2.33881 8.05925C2.04862 8.11628 1.78177 8.25782 1.57179 8.46608C1.36181 8.67434 1.21808 8.94002 1.15867 9.22973C1.09925 9.51944 1.1268 9.82024 1.23785 10.0943C1.3489 10.3684 1.5385 10.6036 1.78281 10.7702L3.16281 11.7122L1.14881 14.9622C0.741283 15.6094 0.516777 16.3549 0.499169 17.1194C0.48156 17.884 0.671508 18.639 1.04881 19.3042C1.41896 19.9793 1.96542 20.5413 2.6299 20.9301C3.29438 21.319 4.05195 21.5202 4.82181 21.5122L6.01581 21.5002C6.41363 21.4963 6.79358 21.3344 7.07208 21.0503C7.35057 20.7662 7.50479 20.3831 7.50081 19.9852C7.49683 19.5874 7.33498 19.2075 7.05086 18.929C6.76674 18.6505 6.38363 18.4963 5.98581 18.5002L4.80081 18.5122C4.57084 18.5123 4.34503 18.4509 4.14669 18.3345C3.94835 18.2181 3.78468 18.0509 3.67256 17.8501C3.56044 17.6493 3.50395 17.4223 3.50892 17.1923C3.51389 16.9624 3.58013 16.738 3.70081 16.5422L5.64481 13.4062L7.01681 14.3432C7.26163 14.5103 7.55044 14.6011 7.8468 14.6041C8.14316 14.6072 8.43378 14.5223 8.68199 14.3604C8.93019 14.1984 9.12484 13.9665 9.24138 13.694C9.35793 13.4215 9.39113 13.1206 9.33681 12.8292L8.60081 8.88125Z" fill="#0092AC"/>
</g>
<defs>
<clipPath id="clip0_12404_44024">
<rect width="24" height="24" fill="white" transform="translate(0.5 0.5)"/>
</clipPath>
</defs>
</svg>
