<svg width="25" height="25" viewBox="0 0 25 25" fill="none" xmlns="http://www.w3.org/2000/svg">
<g clip-path="url(#clip0_12404_44021)">
<path d="M22.8758 0.565C21.5378 0.62 9.67981 1.221 5.42081 5.479C3.74305 7.17 2.72276 9.40351 2.54298 11.7788C2.36319 14.1541 3.03569 16.5157 4.43981 18.44L0.507812 22.379L2.62881 24.5L6.56081 20.561C8.48515 21.9649 10.8467 22.6373 13.222 22.4575C15.5972 22.2777 17.8307 21.2576 19.5218 19.58C23.8638 15.238 24.3898 3.446 24.4358 2.116L24.4918 0.5L22.8758 0.565ZM17.4008 17.458C16.2752 18.5768 14.8028 19.2798 13.2251 19.4519C11.6475 19.624 10.0581 19.2548 8.71781 18.405L17.4378 9.686L15.3148 7.564L6.60081 16.284C5.7501 14.9441 5.37997 13.3549 5.55113 11.777C5.72229 10.1992 6.42458 8.72629 7.54281 7.6C10.0548 5.087 17.2808 4.005 21.3428 3.668C21.0238 7.706 19.9658 14.893 17.4008 17.458Z" fill="#0092AC"/>
</g>
<defs>
<clipPath id="clip0_12404_44021">
<rect width="24" height="24" fill="white" transform="translate(0.5 0.5)"/>
</clipPath>
</defs>
</svg>
