<svg width="46" height="46" viewBox="0 0 46 46" fill="none" xmlns="http://www.w3.org/2000/svg">
<g clip-path="url(#clip0_12477_13480)">
<path d="M36.125 38H9.875C7.38951 37.997 5.00667 37.0083 3.24916 35.2508C1.49165 33.4933 0.502977 31.1105 0.5 28.625L0.5 17.375C0.502977 14.8895 1.49165 12.5067 3.24916 10.7492C5.00667 8.99165 7.38951 8.00298 9.875 8H36.125C38.6105 8.00298 40.9933 8.99165 42.7508 10.7492C44.5083 12.5067 45.497 14.8895 45.5 17.375V28.625C45.497 31.1105 44.5083 33.4933 42.7508 35.2508C40.9933 37.0083 38.6105 37.997 36.125 38ZM9.875 11.75C8.38316 11.75 6.95242 12.3426 5.89752 13.3975C4.84263 14.4524 4.25 15.8832 4.25 17.375V28.625C4.25 30.1168 4.84263 31.5476 5.89752 32.6025C6.95242 33.6574 8.38316 34.25 9.875 34.25H36.125C37.6168 34.25 39.0476 33.6574 40.1025 32.6025C41.1574 31.5476 41.75 30.1168 41.75 28.625V17.375C41.75 15.8832 41.1574 14.4524 40.1025 13.3975C39.0476 12.3426 37.6168 11.75 36.125 11.75H9.875ZM23 30.5C21.5166 30.5 20.0666 30.0601 18.8332 29.236C17.5999 28.4119 16.6386 27.2406 16.0709 25.8701C15.5032 24.4997 15.3547 22.9917 15.6441 21.5368C15.9335 20.082 16.6478 18.7456 17.6967 17.6967C18.7456 16.6478 20.082 15.9335 21.5368 15.6441C22.9917 15.3547 24.4997 15.5032 25.8701 16.0709C27.2406 16.6386 28.4119 17.5999 29.236 18.8332C30.0601 20.0666 30.5 21.5166 30.5 23C30.5 24.9891 29.7098 26.8968 28.3033 28.3033C26.8968 29.7098 24.9891 30.5 23 30.5ZM23 19.25C22.2583 19.25 21.5333 19.4699 20.9166 19.882C20.2999 20.294 19.8193 20.8797 19.5355 21.5649C19.2516 22.2502 19.1774 23.0042 19.3221 23.7316C19.4667 24.459 19.8239 25.1272 20.3484 25.6516C20.8728 26.1761 21.541 26.5333 22.2684 26.6779C22.9958 26.8226 23.7498 26.7484 24.4351 26.4645C25.1203 26.1807 25.706 25.7001 26.118 25.0834C26.5301 24.4667 26.75 23.7417 26.75 23C26.75 22.0054 26.3549 21.0516 25.6516 20.3484C24.9484 19.6451 23.9946 19.25 23 19.25ZM9.875 15.5C9.50416 15.5 9.14165 15.61 8.83331 15.816C8.52496 16.022 8.28464 16.3149 8.14273 16.6575C8.00081 17.0001 7.96368 17.3771 8.03603 17.7408C8.10837 18.1045 8.28695 18.4386 8.54918 18.7008C8.8114 18.963 9.14549 19.1416 9.50921 19.214C9.87292 19.2863 10.2499 19.2492 10.5925 19.1073C10.9351 18.9654 11.228 18.725 11.434 18.4167C11.64 18.1084 11.75 17.7458 11.75 17.375C11.75 16.8777 11.5525 16.4008 11.2008 16.0492C10.8492 15.6975 10.3723 15.5 9.875 15.5ZM34.25 17.375C34.25 17.7458 34.36 18.1084 34.566 18.4167C34.772 18.725 35.0649 18.9654 35.4075 19.1073C35.7501 19.2492 36.1271 19.2863 36.4908 19.214C36.8545 19.1416 37.1886 18.963 37.4508 18.7008C37.7131 18.4386 37.8916 18.1045 37.964 17.7408C38.0363 17.3771 37.9992 17.0001 37.8573 16.6575C37.7154 16.3149 37.475 16.022 37.1667 15.816C36.8584 15.61 36.4958 15.5 36.125 15.5C35.6277 15.5 35.1508 15.6975 34.7992 16.0492C34.4475 16.4008 34.25 16.8777 34.25 17.375ZM9.875 26.75C9.50416 26.75 9.14165 26.86 8.83331 27.066C8.52496 27.272 8.28464 27.5649 8.14273 27.9075C8.00081 28.2501 7.96368 28.6271 8.03603 28.9908C8.10837 29.3545 8.28695 29.6886 8.54918 29.9508C8.8114 30.213 9.14549 30.3916 9.50921 30.464C9.87292 30.5363 10.2499 30.4992 10.5925 30.3573C10.9351 30.2154 11.228 29.975 11.434 29.6667C11.64 29.3584 11.75 28.9958 11.75 28.625C11.75 28.1277 11.5525 27.6508 11.2008 27.2992C10.8492 26.9475 10.3723 26.75 9.875 26.75ZM34.25 28.625C34.25 28.9958 34.36 29.3584 34.566 29.6667C34.772 29.975 35.0649 30.2154 35.4075 30.3573C35.7501 30.4992 36.1271 30.5363 36.4908 30.464C36.8545 30.3916 37.1886 30.213 37.4508 29.9508C37.7131 29.6886 37.8916 29.3545 37.964 28.9908C38.0363 28.6271 37.9992 28.2501 37.8573 27.9075C37.7154 27.5649 37.475 27.272 37.1667 27.066C36.8584 26.86 36.4958 26.75 36.125 26.75C35.6277 26.75 35.1508 26.9475 34.7992 27.2992C34.4475 27.6508 34.25 28.1277 34.25 28.625Z" fill="#0092AC"/>
</g>
<defs>
<clipPath id="clip0_12477_13480">
<rect width="45" height="45" fill="white" transform="translate(0.5 0.5)"/>
</clipPath>
</defs>
</svg>
