<svg width="46" height="46" viewBox="0 0 46 46" fill="none" xmlns="http://www.w3.org/2000/svg">
<g clip-path="url(#clip0_12477_22039)">
<path d="M23 23C25.225 23 27.4001 22.3402 29.2502 21.104C31.1002 19.8679 32.5422 18.1109 33.3936 16.0552C34.2451 13.9995 34.4679 11.7375 34.0338 9.55524C33.5998 7.37295 32.5283 5.36839 30.955 3.79505C29.3816 2.22171 27.3771 1.15025 25.1948 0.716171C23.0125 0.282087 20.7505 0.504874 18.6948 1.35636C16.6391 2.20785 14.8821 3.64979 13.646 5.49984C12.4098 7.34989 11.75 9.52497 11.75 11.75C11.753 14.7328 12.9392 17.5925 15.0483 19.7017C17.1575 21.8108 20.0172 22.997 23 23ZM23 4.25001C24.4834 4.25001 25.9334 4.68987 27.1668 5.51398C28.4001 6.33809 29.3614 7.50943 29.9291 8.87988C30.4968 10.2503 30.6453 11.7583 30.3559 13.2132C30.0665 14.668 29.3522 16.0044 28.3033 17.0533C27.2544 18.1022 25.918 18.8165 24.4632 19.1059C23.0083 19.3953 21.5003 19.2468 20.1299 18.6791C18.7594 18.1114 17.5881 17.1502 16.764 15.9168C15.9399 14.6834 15.5 13.2334 15.5 11.75C15.5 9.76088 16.2902 7.85323 17.6967 6.4467C19.1032 5.04018 21.0109 4.25001 23 4.25001Z" fill="#0092AC"/>
<path d="M23 26.752C18.526 26.7569 14.2367 28.5364 11.0731 31.7C7.90945 34.8636 6.12996 39.1529 6.125 43.627C6.125 44.1242 6.32254 44.6011 6.67417 44.9528C7.02581 45.3044 7.50272 45.502 8 45.502C8.49728 45.502 8.97419 45.3044 9.32582 44.9528C9.67746 44.6011 9.875 44.1242 9.875 43.627C9.875 40.146 11.2578 36.8076 13.7192 34.3462C16.1806 31.8848 19.519 30.502 23 30.502C26.481 30.502 29.8194 31.8848 32.2808 34.3462C34.7422 36.8076 36.125 40.146 36.125 43.627C36.125 44.1242 36.3225 44.6011 36.6742 44.9528C37.0258 45.3044 37.5027 45.502 38 45.502C38.4973 45.502 38.9742 45.3044 39.3258 44.9528C39.6775 44.6011 39.875 44.1242 39.875 43.627C39.87 39.1529 38.0905 34.8636 34.9269 31.7C31.7633 28.5364 27.474 26.7569 23 26.752Z" fill="#0092AC"/>
</g>
<defs>
<clipPath id="clip0_12477_22039">
<rect width="45" height="45" fill="white" transform="translate(0.5 0.5)"/>
</clipPath>
</defs>
</svg>
