<svg width="46" height="46" viewBox="0 0 46 46" fill="none" xmlns="http://www.w3.org/2000/svg">
<g clip-path="url(#clip0_12477_12402)">
<path d="M39.875 11.75H34.25C34.25 8.76631 33.0647 5.90483 30.955 3.79505C28.8452 1.68526 25.9837 0.5 23 0.5C20.0163 0.5 17.1548 1.68526 15.045 3.79505C12.9353 5.90483 11.75 8.76631 11.75 11.75H6.125C4.63316 11.75 3.20242 12.3426 2.14752 13.3975C1.09263 14.4524 0.5 15.8832 0.5 17.375L0.5 36.125C0.502977 38.6105 1.49165 40.9933 3.24916 42.7508C5.00667 44.5083 7.38951 45.497 9.875 45.5H36.125C38.6105 45.497 40.9933 44.5083 42.7508 42.7508C44.5083 40.9933 45.497 38.6105 45.5 36.125V17.375C45.5 15.8832 44.9074 14.4524 43.8525 13.3975C42.7976 12.3426 41.3668 11.75 39.875 11.75ZM23 4.25C24.9891 4.25 26.8968 5.04018 28.3033 6.4467C29.7098 7.85322 30.5 9.76088 30.5 11.75H15.5C15.5 9.76088 16.2902 7.85322 17.6967 6.4467C19.1032 5.04018 21.0109 4.25 23 4.25ZM41.75 36.125C41.75 37.6168 41.1574 39.0476 40.1025 40.1025C39.0476 41.1574 37.6168 41.75 36.125 41.75H9.875C8.38316 41.75 6.95242 41.1574 5.89752 40.1025C4.84263 39.0476 4.25 37.6168 4.25 36.125V17.375C4.25 16.8777 4.44754 16.4008 4.79917 16.0492C5.15081 15.6975 5.62772 15.5 6.125 15.5H11.75V19.25C11.75 19.7473 11.9475 20.2242 12.2992 20.5758C12.6508 20.9275 13.1277 21.125 13.625 21.125C14.1223 21.125 14.5992 20.9275 14.9508 20.5758C15.3025 20.2242 15.5 19.7473 15.5 19.25V15.5H30.5V19.25C30.5 19.7473 30.6975 20.2242 31.0492 20.5758C31.4008 20.9275 31.8777 21.125 32.375 21.125C32.8723 21.125 33.3492 20.9275 33.7008 20.5758C34.0525 20.2242 34.25 19.7473 34.25 19.25V15.5H39.875C40.3723 15.5 40.8492 15.6975 41.2008 16.0492C41.5525 16.4008 41.75 16.8777 41.75 17.375V36.125Z" fill="#0092AC"/>
</g>
<defs>
<clipPath id="clip0_12477_12402">
<rect width="45" height="45" fill="white" transform="translate(0.5 0.5)"/>
</clipPath>
</defs>
</svg>
