<svg width="46" height="46" viewBox="0 0 46 46" fill="none" xmlns="http://www.w3.org/2000/svg">
<g clip-path="url(#clip0_12477_15922)">
<path d="M13.625 26.75C13.625 27.2473 13.4275 27.7242 13.0758 28.0758C12.7242 28.4275 12.2473 28.625 11.75 28.625H9.875C9.37772 28.625 8.90081 28.4275 8.54918 28.0758C8.19754 27.7242 8 27.2473 8 26.75C8 26.2527 8.19754 25.7758 8.54918 25.4242C8.90081 25.0725 9.37772 24.875 9.875 24.875H11.75C12.2473 24.875 12.7242 25.0725 13.0758 25.4242C13.4275 25.7758 13.625 26.2527 13.625 26.75ZM21.125 24.875H19.25C18.7527 24.875 18.2758 25.0725 17.9242 25.4242C17.5725 25.7758 17.375 26.2527 17.375 26.75C17.375 27.2473 17.5725 27.7242 17.9242 28.0758C18.2758 28.4275 18.7527 28.625 19.25 28.625H21.125C21.6223 28.625 22.0992 28.4275 22.4508 28.0758C22.8025 27.7242 23 27.2473 23 26.75C23 26.2527 22.8025 25.7758 22.4508 25.4242C22.0992 25.0725 21.6223 24.875 21.125 24.875ZM11.75 32.375H9.875C9.37772 32.375 8.90081 32.5725 8.54918 32.9242C8.19754 33.2758 8 33.7527 8 34.25C8 34.7473 8.19754 35.2242 8.54918 35.5758C8.90081 35.9275 9.37772 36.125 9.875 36.125H11.75C12.2473 36.125 12.7242 35.9275 13.0758 35.5758C13.4275 35.2242 13.625 34.7473 13.625 34.25C13.625 33.7527 13.4275 33.2758 13.0758 32.9242C12.7242 32.5725 12.2473 32.375 11.75 32.375ZM21.125 32.375H19.25C18.7527 32.375 18.2758 32.5725 17.9242 32.9242C17.5725 33.2758 17.375 33.7527 17.375 34.25C17.375 34.7473 17.5725 35.2242 17.9242 35.5758C18.2758 35.9275 18.7527 36.125 19.25 36.125H21.125C21.6223 36.125 22.0992 35.9275 22.4508 35.5758C22.8025 35.2242 23 34.7473 23 34.25C23 33.7527 22.8025 33.2758 22.4508 32.9242C22.0992 32.5725 21.6223 32.375 21.125 32.375ZM11.75 9.875H9.875C9.37772 9.875 8.90081 10.0725 8.54918 10.4242C8.19754 10.7758 8 11.2527 8 11.75C8 12.2473 8.19754 12.7242 8.54918 13.0758C8.90081 13.4275 9.37772 13.625 9.875 13.625H11.75C12.2473 13.625 12.7242 13.4275 13.0758 13.0758C13.4275 12.7242 13.625 12.2473 13.625 11.75C13.625 11.2527 13.4275 10.7758 13.0758 10.4242C12.7242 10.0725 12.2473 9.875 11.75 9.875ZM21.125 9.875H19.25C18.7527 9.875 18.2758 10.0725 17.9242 10.4242C17.5725 10.7758 17.375 11.2527 17.375 11.75C17.375 12.2473 17.5725 12.7242 17.9242 13.0758C18.2758 13.4275 18.7527 13.625 19.25 13.625H21.125C21.6223 13.625 22.0992 13.4275 22.4508 13.0758C22.8025 12.7242 23 12.2473 23 11.75C23 11.2527 22.8025 10.7758 22.4508 10.4242C22.0992 10.0725 21.6223 9.875 21.125 9.875ZM11.75 17.375H9.875C9.37772 17.375 8.90081 17.5725 8.54918 17.9242C8.19754 18.2758 8 18.7527 8 19.25C8 19.7473 8.19754 20.2242 8.54918 20.5758C8.90081 20.9275 9.37772 21.125 9.875 21.125H11.75C12.2473 21.125 12.7242 20.9275 13.0758 20.5758C13.4275 20.2242 13.625 19.7473 13.625 19.25C13.625 18.7527 13.4275 18.2758 13.0758 17.9242C12.7242 17.5725 12.2473 17.375 11.75 17.375ZM21.125 17.375H19.25C18.7527 17.375 18.2758 17.5725 17.9242 17.9242C17.5725 18.2758 17.375 18.7527 17.375 19.25C17.375 19.7473 17.5725 20.2242 17.9242 20.5758C18.2758 20.9275 18.7527 21.125 19.25 21.125H21.125C21.6223 21.125 22.0992 20.9275 22.4508 20.5758C22.8025 20.2242 23 19.7473 23 19.25C23 18.7527 22.8025 18.2758 22.4508 17.9242C22.0992 17.5725 21.6223 17.375 21.125 17.375ZM45.5 19.25V36.125C45.497 38.6105 44.5083 40.9933 42.7508 42.7508C40.9933 44.5083 38.6105 45.497 36.125 45.5H9.875C7.38951 45.497 5.00667 44.5083 3.24916 42.7508C1.49165 40.9933 0.502977 38.6105 0.5 36.125L0.5 9.875C0.502977 7.38951 1.49165 5.00667 3.24916 3.24916C5.00667 1.49165 7.38951 0.502977 9.875 0.5L21.125 0.5C23.6105 0.502977 25.9933 1.49165 27.7508 3.24916C29.5083 5.00667 30.497 7.38951 30.5 9.875H36.125C38.6105 9.87798 40.9933 10.8667 42.7508 12.6242C44.5083 14.3817 45.497 16.7645 45.5 19.25ZM9.875 41.75H26.75V9.875C26.75 8.38316 26.1574 6.95242 25.1025 5.89752C24.0476 4.84263 22.6168 4.25 21.125 4.25H9.875C8.38316 4.25 6.95242 4.84263 5.89752 5.89752C4.84263 6.95242 4.25 8.38316 4.25 9.875V36.125C4.25 37.6168 4.84263 39.0476 5.89752 40.1025C6.95242 41.1574 8.38316 41.75 9.875 41.75ZM41.75 19.25C41.75 17.7582 41.1574 16.3274 40.1025 15.2725C39.0476 14.2176 37.6168 13.625 36.125 13.625H30.5V41.75H36.125C37.6168 41.75 39.0476 41.1574 40.1025 40.1025C41.1574 39.0476 41.75 37.6168 41.75 36.125V19.25ZM36.125 24.875C35.7542 24.875 35.3916 24.985 35.0833 25.191C34.775 25.397 34.5346 25.6899 34.3927 26.0325C34.2508 26.3751 34.2137 26.7521 34.286 27.1158C34.3584 27.4795 34.5369 27.8136 34.7992 28.0758C35.0614 28.338 35.3955 28.5166 35.7592 28.589C36.1229 28.6613 36.4999 28.6242 36.8425 28.4823C37.1851 28.3404 37.478 28.1 37.684 27.7917C37.89 27.4834 38 27.1208 38 26.75C38 26.2527 37.8025 25.7758 37.4508 25.4242C37.0992 25.0725 36.6223 24.875 36.125 24.875ZM36.125 32.375C35.7542 32.375 35.3916 32.485 35.0833 32.691C34.775 32.897 34.5346 33.1899 34.3927 33.5325C34.2508 33.8751 34.2137 34.2521 34.286 34.6158C34.3584 34.9795 34.5369 35.3136 34.7992 35.5758C35.0614 35.8381 35.3955 36.0166 35.7592 36.089C36.1229 36.1613 36.4999 36.1242 36.8425 35.9823C37.1851 35.8404 37.478 35.6 37.684 35.2917C37.89 34.9834 38 34.6208 38 34.25C38 33.7527 37.8025 33.2758 37.4508 32.9242C37.0992 32.5725 36.6223 32.375 36.125 32.375ZM36.125 17.375C35.7542 17.375 35.3916 17.485 35.0833 17.691C34.775 17.897 34.5346 18.1899 34.3927 18.5325C34.2508 18.8751 34.2137 19.2521 34.286 19.6158C34.3584 19.9795 34.5369 20.3136 34.7992 20.5758C35.0614 20.838 35.3955 21.0166 35.7592 21.089C36.1229 21.1613 36.4999 21.1242 36.8425 20.9823C37.1851 20.8404 37.478 20.6 37.684 20.2917C37.89 19.9834 38 19.6208 38 19.25C38 18.7527 37.8025 18.2758 37.4508 17.9242C37.0992 17.5725 36.6223 17.375 36.125 17.375Z" fill="#0092AC"/>
</g>
<defs>
<clipPath id="clip0_12477_15922">
<rect width="45" height="45" fill="white" transform="translate(0.5 0.5)"/>
</clipPath>
</defs>
</svg>
