<svg width="104" height="32" viewBox="0 0 104 32" fill="none" xmlns="http://www.w3.org/2000/svg">
<rect width="104" height="32" rx="4" fill="#EEF8F4"/>
<path d="M10.592 21.144C9.36533 21.144 8.33067 20.9147 7.488 20.456C6.64533 19.9867 6.00533 19.32 5.568 18.456C5.14133 17.592 4.928 16.5627 4.928 15.368C4.928 14.1733 5.14667 13.144 5.584 12.28C6.032 11.416 6.66667 10.7493 7.488 10.28C8.32 9.81067 9.31733 9.576 10.48 9.576C11.0133 9.576 11.52 9.62933 12 9.736C12.48 9.832 12.9227 9.98133 13.328 10.184C13.744 10.3867 14.1067 10.6373 14.416 10.936L13.824 12.232C13.3227 11.8053 12.8 11.5013 12.256 11.32C11.7227 11.128 11.1307 11.032 10.48 11.032C9.232 11.032 8.28267 11.4107 7.632 12.168C6.98133 12.9147 6.656 13.9813 6.656 15.368C6.656 16.7867 6.992 17.864 7.664 18.6C8.336 19.336 9.33333 19.704 10.656 19.704C11.136 19.704 11.6053 19.6613 12.064 19.576C12.5333 19.48 12.9813 19.3467 13.408 19.176L13.072 20.008V16.28H10.32V15.032H14.464V20.344C14.1547 20.504 13.7813 20.6427 13.344 20.76C12.9173 20.8773 12.464 20.968 11.984 21.032C11.5147 21.1067 11.0507 21.144 10.592 21.144ZM16.8391 21V13.192H18.4071V15.064H18.2471C18.4178 14.424 18.7218 13.9387 19.1591 13.608C19.6071 13.2773 20.1991 13.0853 20.9351 13.032L21.4631 13L21.5751 14.376L20.5991 14.472C19.9058 14.536 19.3778 14.7547 19.0151 15.128C18.6525 15.5013 18.4711 16.0133 18.4711 16.664V21H16.8391ZM26.3625 21.144C25.5092 21.144 24.7732 20.984 24.1545 20.664C23.5465 20.3333 23.0718 19.8693 22.7305 19.272C22.3998 18.664 22.2345 17.944 22.2345 17.112C22.2345 16.3013 22.3998 15.592 22.7305 14.984C23.0612 14.376 23.5145 13.9013 24.0905 13.56C24.6665 13.2187 25.3225 13.048 26.0585 13.048C26.7838 13.048 27.4025 13.208 27.9145 13.528C28.4372 13.8373 28.8372 14.28 29.1145 14.856C29.3918 15.432 29.5305 16.12 29.5305 16.92V17.464H23.5145V16.472H28.4425L28.1705 16.696C28.1705 15.896 27.9945 15.2773 27.6425 14.84C27.2905 14.4027 26.7838 14.184 26.1225 14.184C25.6212 14.184 25.1945 14.3013 24.8425 14.536C24.5012 14.7707 24.2398 15.096 24.0585 15.512C23.8772 15.928 23.7865 16.4133 23.7865 16.968V17.064C23.7865 17.6827 23.8825 18.2053 24.0745 18.632C24.2772 19.048 24.5705 19.3627 24.9545 19.576C25.3385 19.7893 25.8132 19.896 26.3785 19.896C26.8265 19.896 27.2638 19.8267 27.6905 19.688C28.1278 19.5387 28.5385 19.3093 28.9225 19L29.4025 20.12C29.0505 20.44 28.5972 20.6907 28.0425 20.872C27.4878 21.0533 26.9278 21.144 26.3625 21.144ZM34.9563 21.144C34.1029 21.144 33.3669 20.984 32.7483 20.664C32.1403 20.3333 31.6656 19.8693 31.3243 19.272C30.9936 18.664 30.8283 17.944 30.8283 17.112C30.8283 16.3013 30.9936 15.592 31.3243 14.984C31.6549 14.376 32.1083 13.9013 32.6843 13.56C33.2603 13.2187 33.9163 13.048 34.6523 13.048C35.3776 13.048 35.9963 13.208 36.5083 13.528C37.0309 13.8373 37.4309 14.28 37.7083 14.856C37.9856 15.432 38.1243 16.12 38.1243 16.92V17.464H32.1083V16.472H37.0363L36.7643 16.696C36.7643 15.896 36.5883 15.2773 36.2363 14.84C35.8843 14.4027 35.3776 14.184 34.7163 14.184C34.2149 14.184 33.7883 14.3013 33.4363 14.536C33.0949 14.7707 32.8336 15.096 32.6523 15.512C32.4709 15.928 32.3803 16.4133 32.3803 16.968V17.064C32.3803 17.6827 32.4763 18.2053 32.6683 18.632C32.8709 19.048 33.1643 19.3627 33.5483 19.576C33.9323 19.7893 34.4069 19.896 34.9723 19.896C35.4203 19.896 35.8576 19.8267 36.2843 19.688C36.7216 19.5387 37.1323 19.3093 37.5163 19L37.9963 20.12C37.6443 20.44 37.1909 20.6907 36.6363 20.872C36.0816 21.0533 35.5216 21.144 34.9563 21.144ZM39.886 21V13.192H41.454V14.856H41.278C41.5127 14.2587 41.8807 13.8107 42.382 13.512C42.8833 13.2027 43.4593 13.048 44.11 13.048C44.7287 13.048 45.2407 13.1653 45.646 13.4C46.062 13.624 46.3713 13.9707 46.574 14.44C46.7767 14.8987 46.878 15.48 46.878 16.184V21H45.262V16.28C45.262 15.832 45.2033 15.4693 45.086 15.192C44.9687 14.904 44.7927 14.6907 44.558 14.552C44.3233 14.4133 44.0193 14.344 43.646 14.344C43.2193 14.344 42.8407 14.4347 42.51 14.616C42.19 14.7973 41.9393 15.0587 41.758 15.4C41.5873 15.7413 41.502 16.136 41.502 16.584V21H39.886ZM58.7639 21.144C57.5372 21.144 56.5025 20.9147 55.6599 20.456C54.8172 19.9867 54.1772 19.32 53.7399 18.456C53.3132 17.592 53.0999 16.5627 53.0999 15.368C53.0999 14.1733 53.3185 13.144 53.7559 12.28C54.2039 11.416 54.8385 10.7493 55.6599 10.28C56.4919 9.81067 57.4892 9.576 58.6519 9.576C59.1852 9.576 59.6919 9.62933 60.1719 9.736C60.6519 9.832 61.0945 9.98133 61.4999 10.184C61.9159 10.3867 62.2785 10.6373 62.5879 10.936L61.9959 12.232C61.4945 11.8053 60.9719 11.5013 60.4279 11.32C59.8945 11.128 59.3025 11.032 58.6519 11.032C57.4039 11.032 56.4545 11.4107 55.8039 12.168C55.1532 12.9147 54.8279 13.9813 54.8279 15.368C54.8279 16.7867 55.1639 17.864 55.8359 18.6C56.5079 19.336 57.5052 19.704 58.8279 19.704C59.3079 19.704 59.7772 19.6613 60.2359 19.576C60.7052 19.48 61.1532 19.3467 61.5799 19.176L61.2439 20.008V16.28H58.4919V15.032H62.6359V20.344C62.3265 20.504 61.9532 20.6427 61.5159 20.76C61.0892 20.8773 60.6359 20.968 60.1559 21.032C59.6865 21.1067 59.2225 21.144 58.7639 21.144ZM68.403 21.144C67.6137 21.144 66.931 20.9787 66.355 20.648C65.7897 20.3173 65.347 19.848 65.027 19.24C64.707 18.632 64.547 17.9173 64.547 17.096C64.547 16.264 64.707 15.5493 65.027 14.952C65.347 14.344 65.7897 13.8747 66.355 13.544C66.931 13.2133 67.6137 13.048 68.403 13.048C69.1817 13.048 69.8537 13.2133 70.419 13.544C70.995 13.8747 71.443 14.344 71.763 14.952C72.083 15.56 72.243 16.2747 72.243 17.096C72.243 17.9173 72.083 18.632 71.763 19.24C71.443 19.848 70.995 20.3173 70.419 20.648C69.8537 20.9787 69.1817 21.144 68.403 21.144ZM68.387 19.896C69.059 19.896 69.5977 19.656 70.003 19.176C70.4083 18.696 70.611 18.0027 70.611 17.096C70.611 16.1787 70.4083 15.4853 70.003 15.016C69.5977 14.5467 69.059 14.312 68.387 14.312C67.7257 14.312 67.1923 14.5467 66.787 15.016C66.3817 15.4853 66.179 16.1787 66.179 17.096C66.179 18.0027 66.3817 18.696 66.787 19.176C67.1923 19.656 67.7257 19.896 68.387 19.896ZM77.4499 21.144C76.6605 21.144 75.9779 20.9787 75.4019 20.648C74.8365 20.3173 74.3939 19.848 74.0739 19.24C73.7539 18.632 73.5939 17.9173 73.5939 17.096C73.5939 16.264 73.7539 15.5493 74.0739 14.952C74.3939 14.344 74.8365 13.8747 75.4019 13.544C75.9779 13.2133 76.6605 13.048 77.4499 13.048C78.2285 13.048 78.9005 13.2133 79.4659 13.544C80.0419 13.8747 80.4899 14.344 80.8099 14.952C81.1299 15.56 81.2899 16.2747 81.2899 17.096C81.2899 17.9173 81.1299 18.632 80.8099 19.24C80.4899 19.848 80.0419 20.3173 79.4659 20.648C78.9005 20.9787 78.2285 21.144 77.4499 21.144ZM77.4339 19.896C78.1059 19.896 78.6445 19.656 79.0499 19.176C79.4552 18.696 79.6579 18.0027 79.6579 17.096C79.6579 16.1787 79.4552 15.4853 79.0499 15.016C78.6445 14.5467 78.1059 14.312 77.4339 14.312C76.7725 14.312 76.2392 14.5467 75.8339 15.016C75.4285 15.4853 75.2259 16.1787 75.2259 17.096C75.2259 18.0027 75.4285 18.696 75.8339 19.176C76.2392 19.656 76.7725 19.896 77.4339 19.896ZM86.0807 21.144C85.3981 21.144 84.7954 20.984 84.2728 20.664C83.7608 20.3333 83.3608 19.864 83.0728 19.256C82.7848 18.6373 82.6408 17.9173 82.6408 17.096C82.6408 16.2533 82.7848 15.5333 83.0728 14.936C83.3608 14.3387 83.7608 13.8747 84.2728 13.544C84.7954 13.2133 85.3981 13.048 86.0807 13.048C86.7634 13.048 87.3501 13.2187 87.8408 13.56C88.3421 13.8907 88.6781 14.3387 88.8488 14.904H88.6728V9.72H90.2888V21H88.7048V19.24H88.8648C88.6941 19.816 88.3581 20.28 87.8568 20.632C87.3661 20.9733 86.7741 21.144 86.0807 21.144ZM86.4968 19.896C87.1581 19.896 87.6914 19.656 88.0968 19.176C88.5021 18.696 88.7048 18.0027 88.7048 17.096C88.7048 16.1787 88.5021 15.4853 88.0968 15.016C87.6914 14.5467 87.1581 14.312 86.4968 14.312C85.8248 14.312 85.2861 14.5467 84.8808 15.016C84.4754 15.4853 84.2728 16.1787 84.2728 17.096C84.2728 18.0027 84.4754 18.696 84.8808 19.176C85.2861 19.656 85.8248 19.896 86.4968 19.896ZM95.2939 21.144C94.8779 21.144 94.4725 21.1067 94.0779 21.032C93.6832 20.9573 93.3205 20.8507 92.9899 20.712C92.6592 20.5733 92.3659 20.4027 92.1099 20.2L92.5739 19.112C92.8405 19.2933 93.1232 19.4533 93.4219 19.592C93.7205 19.72 94.0299 19.816 94.3499 19.88C94.6805 19.944 95.0005 19.976 95.3099 19.976C95.8752 19.976 96.3019 19.8747 96.5899 19.672C96.8779 19.4693 97.0219 19.1973 97.0219 18.856C97.0219 18.5787 96.9259 18.3653 96.7339 18.216C96.5419 18.056 96.2539 17.9333 95.8699 17.848L94.3499 17.544C93.6885 17.4053 93.1872 17.16 92.8459 16.808C92.5045 16.456 92.3339 16.008 92.3339 15.464C92.3339 14.9733 92.4672 14.5467 92.7339 14.184C93.0005 13.8213 93.3739 13.544 93.8539 13.352C94.3339 13.1493 94.8885 13.048 95.5179 13.048C95.8805 13.048 96.2325 13.0853 96.5739 13.16C96.9152 13.2347 97.2352 13.3413 97.5339 13.48C97.8432 13.6187 98.1045 13.7947 98.3179 14.008L97.8539 15.096C97.6512 14.9147 97.4165 14.76 97.1499 14.632C96.8939 14.504 96.6272 14.408 96.3499 14.344C96.0725 14.2693 95.7952 14.232 95.5179 14.232C94.9525 14.232 94.5259 14.3387 94.2379 14.552C93.9605 14.7547 93.8219 15.032 93.8219 15.384C93.8219 15.6507 93.9072 15.8693 94.0779 16.04C94.2485 16.2107 94.5152 16.3333 94.8779 16.408L96.3979 16.712C97.0912 16.8507 97.6139 17.0853 97.9659 17.416C98.3285 17.7467 98.5099 18.1947 98.5099 18.76C98.5099 19.2507 98.3765 19.6773 98.1099 20.04C97.8432 20.4027 97.4645 20.68 96.9739 20.872C96.4939 21.0533 95.9339 21.144 95.2939 21.144Z" fill="#429777"/>
</svg>
