<svg width="29" height="28" viewBox="0 0 29 28" fill="none" xmlns="http://www.w3.org/2000/svg">
<g clip-path="url(#clip0_11953_446)">
<path d="M17.1797 14C17.1797 15.48 15.98 16.6797 14.5 16.6797C13.02 16.6797 11.8203 15.48 11.8203 14C11.8203 12.52 13.02 11.3203 14.5 11.3203C15.98 11.3203 17.1797 12.52 17.1797 14Z" fill="url(#paint0_linear_11953_446)"/>
<path d="M20.7666 9.25901C20.6378 8.90994 20.4323 8.594 20.1653 8.33466C19.9059 8.06763 19.5902 7.86212 19.2409 7.73331C18.9576 7.6233 18.5322 7.49235 17.7483 7.45667C16.9005 7.41801 16.6462 7.40967 14.4998 7.40967C12.353 7.40967 12.0988 7.41779 11.2512 7.45645C10.4674 7.49235 10.0417 7.6233 9.7586 7.73331C9.40933 7.86212 9.09338 8.06763 8.83426 8.33466C8.56722 8.594 8.36172 8.90973 8.23269 9.25901C8.12267 9.54228 7.99173 9.96803 7.95605 10.7518C7.91739 11.5995 7.90906 11.8537 7.90906 14.0003C7.90906 16.1469 7.91739 16.4011 7.95605 17.2489C7.99173 18.0327 8.12267 18.4583 8.23269 18.7415C8.36172 19.0908 8.56701 19.4065 8.83404 19.6659C9.09338 19.9329 9.40911 20.1384 9.75839 20.2672C10.0417 20.3774 10.4674 20.5085 11.2512 20.544C12.0988 20.5828 12.3528 20.5908 14.4996 20.5908C16.6465 20.5908 16.9007 20.5828 17.7482 20.544C18.5319 20.5085 18.9576 20.3774 19.2409 20.2672C19.9421 19.9968 20.4961 19.4426 20.7666 18.7415C20.8766 18.4583 21.0076 18.0327 21.0434 17.2489C21.0821 16.4011 21.0902 16.1469 21.0902 14.0003C21.0902 11.8537 21.0821 11.5995 21.0434 10.7518C21.0078 9.96803 20.8768 9.54228 20.7666 9.25901ZM14.4998 18.1282C12.2198 18.1282 10.3715 16.2801 10.3715 14.0002C10.3715 11.7202 12.2198 9.8721 14.4998 9.8721C16.7796 9.8721 18.6278 11.7202 18.6278 14.0002C18.6278 16.2801 16.7796 18.1282 14.4998 18.1282ZM18.791 10.6736C18.2582 10.6736 17.8263 10.2417 17.8263 9.7089C17.8263 9.17612 18.2582 8.74417 18.791 8.74417C19.3237 8.74417 19.7558 9.17612 19.7558 9.7089C19.7555 10.2417 19.3237 10.6736 18.791 10.6736Z" fill="url(#paint1_linear_11953_446)"/>
<path d="M14.5 0C6.7692 0 0.5 6.2692 0.5 14C0.5 21.7308 6.7692 28 14.5 28C22.2308 28 28.5 21.7308 28.5 14C28.5 6.2692 22.2308 0 14.5 0ZM22.4906 17.3144C22.4516 18.1701 22.3156 18.7544 22.1169 19.2657C21.6993 20.3456 20.8456 21.1993 19.7657 21.6169C19.2546 21.8156 18.6701 21.9515 17.8146 21.9906C16.9573 22.0297 16.6834 22.039 14.5002 22.039C12.3168 22.039 12.0431 22.0297 11.1856 21.9906C10.3301 21.9515 9.7456 21.8156 9.2344 21.6169C8.69778 21.4151 8.212 21.0987 7.81039 20.6895C7.40152 20.2882 7.08514 19.8022 6.88327 19.2657C6.68461 18.7546 6.54852 18.1701 6.50964 17.3146C6.47013 16.4571 6.46094 16.1832 6.46094 14C6.46094 11.8168 6.47012 11.5429 6.50943 10.6856C6.54831 9.82987 6.68417 9.2456 6.88284 8.73419C7.08471 8.19778 7.40131 7.71179 7.81039 7.31039C8.21179 6.90131 8.69778 6.58493 9.23419 6.38305C9.7456 6.18438 10.3299 6.04852 11.1856 6.00943C12.0429 5.97033 12.3168 5.96094 14.5 5.96094C16.6832 5.96094 16.9571 5.97034 17.8144 6.00964C18.6701 6.04852 19.2544 6.18438 19.7657 6.38284C20.3022 6.58471 20.7882 6.90131 21.1898 7.31039C21.5987 7.712 21.9153 8.19778 22.1169 8.73419C22.3158 9.2456 22.4516 9.82987 22.4907 10.6856C22.5299 11.5429 22.539 11.8168 22.539 14C22.539 16.1832 22.5299 16.4571 22.4906 17.3144Z" fill="url(#paint2_linear_11953_446)"/>
</g>
<defs>
<linearGradient id="paint0_linear_11953_446" x1="16.8448" y1="11.8785" x2="12.2669" y2="16.0098" gradientUnits="userSpaceOnUse">
<stop stop-color="#7A1CC8"/>
<stop offset="0.515625" stop-color="#FF2770"/>
<stop offset="1" stop-color="#F8D20D"/>
</linearGradient>
<linearGradient id="paint1_linear_11953_446" x1="20.2664" y1="8.78272" x2="9.00749" y2="18.9433" gradientUnits="userSpaceOnUse">
<stop stop-color="#7A1CC8"/>
<stop offset="0.515625" stop-color="#FF2770"/>
<stop offset="1" stop-color="#F8D20D"/>
</linearGradient>
<linearGradient id="paint2_linear_11953_446" x1="26.75" y1="2.91667" x2="2.83333" y2="24.5" gradientUnits="userSpaceOnUse">
<stop stop-color="#7A1CC8"/>
<stop offset="0.515625" stop-color="#FF2770"/>
<stop offset="1" stop-color="#F8D20D"/>
</linearGradient>
<clipPath id="clip0_11953_446">
<rect width="28" height="28" fill="white" transform="translate(0.5)"/>
</clipPath>
</defs>
</svg>
