<svg width="103" height="30" viewBox="0 0 103 30" fill="none" xmlns="http://www.w3.org/2000/svg">
<g clip-path="url(#clip0_11946_544)">
<path d="M8.5106 7.49791C8.48251 7.42933 8.41514 7.38477 8.34075 7.38477H6.21548C6.16664 7.38477 6.12003 7.40372 6.08555 7.43786L2.7701 10.7258H2.11053V7.56618C2.11053 7.46599 2.02817 7.38477 1.92697 7.38477H0.429664C0.328141 7.38477 0.246094 7.46599 0.246094 7.56618V15.7426C0.246094 15.843 0.328141 15.9243 0.429664 15.9243H1.92697C2.02817 15.9243 2.11053 15.843 2.11053 15.7426V12.5829H2.7701L6.08555 15.8709C6.12003 15.9051 6.16664 15.9243 6.21548 15.9243H8.34075C8.41514 15.9243 8.48251 15.8794 8.5106 15.8108C8.53869 15.7426 8.52209 15.6638 8.46846 15.6124L4.35903 11.6544L8.46846 7.69639C8.52209 7.64488 8.53869 7.5665 8.5106 7.49791Z" fill="#CE3023"/>
<path d="M15.9262 12.0716H11.0289V11.6544C11.0289 11.2653 11.0838 10.9319 11.1917 10.6642C11.3 10.3955 11.4382 10.1695 11.6026 9.99287C11.7676 9.81556 11.9502 9.67491 12.1453 9.57504C12.3477 9.47106 12.5425 9.3933 12.7231 9.34369C12.9054 9.29343 13.067 9.26182 13.2034 9.2495C13.3802 9.2337 13.4501 9.23054 13.4776 9.23054H15.9262V12.0716ZM17.518 7.65468C17.4324 7.56965 17.331 7.50265 17.217 7.45556C17.1027 7.40847 16.9802 7.38477 16.8527 7.38477H13.4776C12.8617 7.38477 12.2843 7.49096 11.7616 7.70019C11.2383 7.90973 10.7783 8.20683 10.3942 8.58325C10.0095 8.95999 9.70497 9.41574 9.48915 9.93788C9.27398 10.4594 9.16479 11.0368 9.16479 11.6544V15.7426C9.16479 15.843 9.24684 15.9243 9.34804 15.9243H10.8457C10.9469 15.9243 11.0289 15.843 11.0289 15.7426V13.9173H15.9262V15.7426C15.9262 15.843 16.0083 15.9243 16.1099 15.9243H17.6071C17.7087 15.9243 17.7907 15.843 17.7907 15.7426V8.31334C17.7907 8.18724 17.7664 8.06587 17.7189 7.95241C17.6716 7.83989 17.6039 7.7397 17.518 7.65468Z" fill="#CE3023"/>
<path d="M25.5052 13.2146C25.563 13.2059 25.6215 13.1957 25.6801 13.1839C25.9024 13.1394 26.1252 13.0671 26.3426 12.9684C26.5597 12.8701 26.7707 12.7428 26.969 12.5905C27.1708 12.4356 27.3511 12.2465 27.505 12.0294C27.6589 11.8123 27.7824 11.5585 27.8724 11.2756C27.9622 10.9931 28.0075 10.6698 28.0075 10.3145V9.36824C28.0075 9.28164 27.9999 9.19188 27.9868 9.10022C27.9402 8.519 27.6436 7.94724 27.2235 7.5664C27.6257 7.73075 28.2154 8.33094 28.3213 9.15617C28.4009 8.72949 28.3042 8.32399 28.1746 7.93556C27.4948 5.89509 29.7995 4.71083 30.4074 5.20546C30.0805 4.44281 28.9864 4.60905 28.3942 5.09263C28.5608 4.89857 28.767 4.74718 28.995 4.64414C28.5352 3.70419 26.7378 5.25476 25.5005 5.05818C25.7472 5.33915 26.2586 5.52024 26.6918 5.64446C24.166 5.35179 20.3225 2.87106 21.8309 0C19.9349 1.46935 20.1351 3.29205 21.3629 4.82619C20.4859 4.21557 19.8197 3.41657 19.608 2.2971C18.7416 4.88592 20.6676 6.7219 24.4342 7.32683C22.5253 7.4444 20.2414 6.7633 19.2861 5.31481C19.365 6.3186 19.7906 6.96084 20.3895 7.38467H20.3253C20.1938 7.38467 20.0696 7.40868 19.9553 7.45578C19.8401 7.50319 19.7392 7.57083 19.6552 7.65648C19.5723 7.74086 19.5061 7.84074 19.4592 7.95263C19.4113 8.06546 19.3874 8.18682 19.3874 8.31324V15.7428C19.3874 15.8429 19.4694 15.9242 19.5707 15.9242H21.0682C21.1695 15.9242 21.2518 15.8429 21.2518 15.7428V9.23044H26.01C26.0348 9.23044 26.0623 9.23202 26.091 9.23518C26.0961 9.23549 26.1038 9.23707 26.1144 9.24372C26.116 9.24497 26.122 9.25193 26.1294 9.26647C26.1306 9.26963 26.1431 9.29776 26.1431 9.37961V10.3145C26.1431 10.4839 26.1167 10.6347 26.0646 10.7624C26.0131 10.8875 25.9397 10.9956 25.8462 11.0838C25.7501 11.1739 25.6336 11.2472 25.5001 11.3009C25.3644 11.3556 25.2119 11.3903 25.0462 11.4046H21.6672C21.5659 11.4046 21.4839 11.4859 21.4839 11.586V13.0687C21.4839 13.1688 21.5659 13.25 21.6672 13.25H22.676L25.746 15.88C25.7791 15.9088 25.8219 15.9242 25.8659 15.9242H28.1813C28.2579 15.9242 28.3264 15.8771 28.3533 15.806C28.3798 15.7348 28.3593 15.655 28.3012 15.6053L25.5052 13.2146Z" fill="#CE3023"/>
<path d="M36.9522 7.38477H28.8486C28.7473 7.38477 28.6653 7.466 28.6653 7.56651V9.04881C28.6653 9.14932 28.7473 9.23054 28.8486 9.23054H31.9712V15.7429C31.9712 15.8431 32.0532 15.9243 32.1544 15.9243H33.6521C33.7533 15.9243 33.8356 15.8431 33.8356 15.7429V9.23054H36.9522C37.0534 9.23054 37.1357 9.14932 37.1357 9.04881V7.56651C37.1357 7.466 37.0534 7.38477 36.9522 7.38477Z" fill="#CE3023"/>
<path d="M46.3686 7.38477H44.8711C44.7698 7.38477 44.6878 7.466 44.6878 7.56651V14.0789H42.2391C42.2162 14.0789 42.15 14.0763 41.9649 14.0596C41.8286 14.0472 41.6671 14.0156 41.4847 13.9658C41.3037 13.9161 41.1092 13.838 40.9065 13.7341C40.7114 13.6342 40.5289 13.4935 40.3638 13.3162C40.1997 13.1396 40.0612 12.9149 39.9529 12.6474C39.845 12.3819 39.7904 12.0479 39.7904 11.6547V7.56651C39.7904 7.466 39.7084 7.38477 39.6072 7.38477H38.1095C38.0084 7.38477 37.926 7.466 37.926 7.56651V11.6547C37.926 12.1487 37.9866 12.6042 38.1064 13.0083C38.2261 13.4135 38.3937 13.7792 38.6044 14.0953C38.8152 14.4114 39.0648 14.6886 39.3461 14.9189C39.6251 15.1481 39.9277 15.3396 40.2457 15.4879C40.5624 15.6358 40.8947 15.747 41.2335 15.8178C41.5709 15.8886 41.9094 15.9243 42.2391 15.9243H45.6142C45.7417 15.9243 45.8643 15.9006 45.9782 15.8535C46.0916 15.8068 46.1924 15.7413 46.2776 15.6591C46.3642 15.576 46.4325 15.4759 46.4804 15.362C46.528 15.2489 46.5523 15.1256 46.5523 14.9958V7.56651C46.5523 7.466 46.4699 7.38477 46.3686 7.38477Z" fill="#CE3023"/>
<path d="M61.2183 7.49791C61.1902 7.42933 61.1228 7.38477 61.0485 7.38477H58.9232C58.8744 7.38477 58.8277 7.40372 58.7933 7.43786L55.4779 10.7258H54.8183V7.56618C54.8183 7.46599 54.7359 7.38477 54.6347 7.38477H53.1374C53.0359 7.38477 52.9539 7.46599 52.9539 7.56618V15.7426C52.9539 15.843 53.0359 15.9243 53.1374 15.9243H54.6347C54.7359 15.9243 54.8183 15.843 54.8183 15.7426V12.5829H55.4779L58.7933 15.8709C58.8277 15.9051 58.8744 15.9243 58.9232 15.9243H61.0485C61.1228 15.9243 61.1902 15.8794 61.2183 15.8108C61.2464 15.7426 61.2299 15.6638 61.1762 15.6124L57.0667 11.6544L61.1762 7.69639C61.2299 7.64488 61.2464 7.5665 61.2183 7.49791Z" fill="#CE3023"/>
<path d="M68.1458 13.2147C68.2036 13.2059 68.2621 13.1958 68.3209 13.184C68.543 13.1395 68.7659 13.0672 68.9832 12.9685C69.2003 12.8702 69.4114 12.7429 69.6096 12.5906C69.8114 12.4357 69.9917 12.2466 70.1456 12.0295C70.2995 11.8123 70.4231 11.5586 70.5131 11.2757C70.6028 10.9932 70.6482 10.6699 70.6482 10.3146V9.36834C70.6482 9.1689 70.6137 8.95366 70.5454 8.72863C70.4758 8.49854 70.3603 8.28173 70.2028 8.08388C70.0435 7.88414 69.8347 7.7163 69.5825 7.58514C69.3268 7.45239 69.0129 7.38477 68.6506 7.38477H62.966C62.8345 7.38477 62.7103 7.40878 62.596 7.45588C62.4807 7.50328 62.3798 7.57092 62.2959 7.65657C62.2128 7.74096 62.1468 7.84083 62.0998 7.95272C62.0519 8.06555 62.0281 8.18691 62.0281 8.31334V15.7429C62.0281 15.843 62.11 15.9243 62.2113 15.9243H63.7088C63.8101 15.9243 63.8925 15.843 63.8925 15.7429V9.23053H68.6506C68.6755 9.23053 68.703 9.23211 68.7317 9.23527C68.7368 9.23559 68.7444 9.23717 68.755 9.24381C68.7566 9.24507 68.7627 9.25202 68.77 9.26656C68.7713 9.26972 68.7837 9.29786 68.7837 9.37971V10.3146C68.7837 10.484 68.7572 10.6348 68.7051 10.7625C68.6538 10.8876 68.5804 10.9957 68.4868 11.0839C68.3908 11.174 68.2742 11.2473 68.1407 11.301C68.0051 11.3557 67.8525 11.3904 67.6867 11.4047H64.3078C64.2066 11.4047 64.1246 11.4859 64.1246 11.5861V13.0688C64.1246 13.1689 64.2066 13.2501 64.3078 13.2501H65.3166L68.3866 15.8801C68.4198 15.9089 68.4626 15.9243 68.5066 15.9243H70.8218C70.8985 15.9243 70.9671 15.8772 70.9939 15.8061C71.0205 15.7349 71 15.655 70.9419 15.6054L68.1458 13.2147Z" fill="#CE3023"/>
<path d="M79.6561 7.38477H72.9118C72.7806 7.38477 72.6561 7.40879 72.5418 7.45588C72.4268 7.50329 72.3259 7.57061 72.2417 7.65658C72.1584 7.74128 72.0923 7.84084 72.0454 7.95272C71.9978 8.06588 71.9739 8.18724 71.9739 8.31335V13.6617C71.9739 14.0738 72.0514 14.429 72.205 14.7182C72.3564 15.0033 72.5488 15.2397 72.7771 15.4199C73.0041 15.5994 73.2547 15.7299 73.5218 15.8087C73.7833 15.8854 74.0295 15.9243 74.2537 15.9243H79.6561C79.7572 15.9243 79.8396 15.8431 79.8396 15.7429V14.2602C79.8396 14.16 79.7572 14.0789 79.6561 14.0789H74.2651C74.117 14.0789 74.0075 14.0447 73.9401 13.978C73.8715 13.91 73.8383 13.8068 73.8383 13.6617V9.23054H79.6561C79.7572 9.23054 79.8396 9.14932 79.8396 9.04881V7.56651C79.8396 7.466 79.7572 7.38477 79.6561 7.38477Z" fill="#CE3023"/>
<path d="M87.8868 12.3215C87.8868 12.5902 87.8438 12.8355 87.7582 13.0507C87.6739 13.2638 87.5532 13.4477 87.4 13.5978C87.2458 13.7488 87.0584 13.8677 86.8425 13.9514C86.6255 14.0359 86.3797 14.0785 86.1122 14.0785H82.9953V9.23022H86.1122C86.3794 9.23022 86.6255 9.2732 86.8425 9.35759C87.0584 9.44134 87.2458 9.56018 87.4 9.71093C87.5532 9.86107 87.6739 10.0463 87.7582 10.2606C87.8435 10.478 87.8868 10.7223 87.8868 10.9875V12.3215ZM88.7125 8.40405C88.389 8.08609 88.0009 7.83419 87.558 7.65468C87.1155 7.47547 86.6291 7.38477 86.1122 7.38477H82.0688C81.9379 7.38477 81.8131 7.40846 81.6988 7.45555C81.5835 7.50328 81.4827 7.57092 81.3991 7.65625C81.3156 7.74096 81.2496 7.84052 81.2027 7.9524C81.1551 8.06523 81.1309 8.1866 81.1309 8.31334V14.9957C81.1309 15.1259 81.1551 15.2492 81.2027 15.362C81.2499 15.4749 81.317 15.5745 81.4006 15.6573C81.4843 15.7404 81.5848 15.8064 81.6988 15.8532C81.8131 15.9003 81.9376 15.9243 82.0688 15.9243H86.1122C86.6291 15.9243 87.1155 15.8333 87.558 15.6541C88.0009 15.4749 88.389 15.223 88.7125 14.905C89.0352 14.587 89.2919 14.2037 89.4752 13.765C89.6584 13.3269 89.7513 12.8412 89.7513 12.3215V10.9875C89.7513 10.4717 89.6584 9.98686 89.4752 9.5469C89.2919 9.10633 89.0352 8.72168 88.7125 8.40405Z" fill="#CE3023"/>
<path d="M92.7695 7.38477H91.2721C91.1707 7.38477 91.0886 7.466 91.0886 7.56651V15.7429C91.0886 15.8431 91.1707 15.9243 91.2721 15.9243H92.7695C92.8707 15.9243 92.953 15.8431 92.953 15.7429V7.56651C92.953 7.466 92.8707 7.38477 92.7695 7.38477Z" fill="#CE3023"/>
<path d="M102.209 7.38477H94.1052C94.0039 7.38477 93.9219 7.466 93.9219 7.56651V9.04881C93.9219 9.14932 94.0039 9.23054 94.1052 9.23054H97.2278V15.7429C97.2278 15.8431 97.3098 15.9243 97.411 15.9243H98.9087C99.0098 15.9243 99.0922 15.8431 99.0922 15.7429V9.23054H102.209C102.31 9.23054 102.392 9.14932 102.392 9.04881V7.56651C102.392 7.466 102.31 7.38477 102.209 7.38477Z" fill="#CE3023"/>
<path d="M76.169 12.9384L78.1986 11.7784C78.3077 11.7158 78.3077 11.5598 78.1986 11.4972L76.169 10.3372C76.0596 10.2747 75.923 10.3527 75.923 10.4779V10.8135H74.6804V12.4621H75.923V12.7977C75.923 12.9229 76.0596 13.001 76.169 12.9384Z" fill="#CE3023"/>
<path d="M0.246094 29.7425H2.46138V18.1306H0.246094V29.7425Z" fill="#204D84"/>
<path d="M14.3228 26.1538L6.71684 18.2991C6.55849 18.1367 6.3663 18.033 6.14538 17.991C5.9251 17.9492 5.70768 17.9704 5.49666 18.0551C5.29968 18.1442 5.13558 18.2814 5.00851 18.4626C4.88146 18.6446 4.81665 18.8506 4.81665 19.0747V29.7426H7.03194V21.7192L14.6375 29.5814C14.7454 29.6939 14.8708 29.7767 15.0104 29.8276C15.1483 29.8775 15.2869 29.9028 15.4222 29.9028C15.5745 29.9028 15.7205 29.8747 15.8564 29.8184C15.9921 29.7624 16.1112 29.6845 16.2102 29.5865C16.3092 29.4885 16.3893 29.3709 16.4486 29.2369C16.508 29.1026 16.538 28.9549 16.538 28.7982V18.1303H14.3228V26.1538Z" fill="#204D84"/>
<path d="M25.666 27.5492H21.0764V20.3235H25.666C26.0676 20.3235 26.4385 20.3883 26.7687 20.5163C27.0978 20.6443 27.3845 20.8264 27.6214 21.058C27.8579 21.2897 28.0431 21.5739 28.1724 21.9019C28.3017 22.2313 28.3672 22.5998 28.3672 22.9977V24.8751C28.3672 25.2783 28.3017 25.6481 28.1724 25.9746C28.0431 26.3005 27.8579 26.5831 27.6214 26.8148C27.3845 27.0464 27.0978 27.2288 26.7687 27.3564C26.4389 27.4844 26.0678 27.5492 25.666 27.5492ZM29.1806 19.5059C28.7452 19.0777 28.2213 18.7376 27.6233 18.4954C27.0253 18.2531 26.3667 18.1304 25.666 18.1304H19.9769C19.8191 18.1304 19.6706 18.1589 19.5347 18.2149C19.3984 18.2707 19.2793 18.3507 19.1803 18.4515C19.0814 18.5524 19.0025 18.6712 18.9463 18.8052C18.8898 18.9396 18.8611 19.084 18.8611 19.2351V28.6378C18.8611 28.7942 18.8898 28.9415 18.9463 29.0754C19.0028 29.2098 19.0817 29.3277 19.1809 29.426C19.2799 29.524 19.3991 29.6024 19.5347 29.658C19.6704 29.7139 19.8191 29.7424 19.9769 29.7424H25.666C26.3667 29.7424 27.0251 29.6197 27.6233 29.3773C28.2213 29.1352 28.7454 28.7951 29.1806 28.3669C29.6161 27.9386 29.9621 27.4213 30.2095 26.8289C30.457 26.2367 30.5825 25.5792 30.5825 24.8751V22.9977C30.5825 22.2989 30.457 21.6431 30.2095 21.0479C29.9621 20.4528 29.6157 19.9342 29.1806 19.5059Z" fill="#204D84"/>
<path d="M37.0926 20.1631H39.945C40.3416 20.1631 40.7097 20.2278 41.0398 20.3559C41.3686 20.4836 41.6543 20.6659 41.8883 20.8976C42.122 21.1293 42.3062 21.4118 42.4353 21.7377C42.5645 22.0641 42.6302 22.4342 42.6302 22.8373V25.0354C42.6302 25.4387 42.5645 25.8088 42.4353 26.1349C42.3062 26.4611 42.1208 26.7437 41.8845 26.975C41.6476 27.2067 41.3606 27.3891 41.0314 27.5168C40.7019 27.6448 40.331 27.7095 39.9288 27.7095H37.0926C36.6902 27.7095 36.3193 27.6448 35.9898 27.5168C35.6607 27.3891 35.3737 27.2067 35.1371 26.975C34.9005 26.7433 34.715 26.4609 34.5861 26.1349C34.4567 25.8091 34.3914 25.439 34.3914 25.0354V22.8373C34.3914 22.4339 34.4567 22.0638 34.5861 21.7377C34.715 21.4118 34.9005 21.1293 35.1371 20.8976C35.3737 20.6659 35.6607 20.4836 35.9898 20.3559C36.3196 20.2278 36.6905 20.1631 37.0926 20.1631ZM43.4517 19.3455C43.0166 18.9172 42.4939 18.5771 41.8985 18.335C41.3031 18.0926 40.6461 17.97 39.945 17.97H37.0926C36.3915 17.97 35.7331 18.0926 35.1352 18.335C34.5369 18.5771 34.013 18.9172 33.5776 19.3455C33.1424 19.7737 32.7961 20.2923 32.5489 20.8875C32.3014 21.482 32.176 22.1378 32.176 22.8373V25.0354C32.176 25.7402 32.3014 26.3976 32.5489 26.9896C32.7961 27.5815 33.1421 28.1005 33.5776 28.5313C34.013 28.9624 34.5369 29.3024 35.1355 29.5418C35.7334 29.7813 36.3921 29.903 37.0926 29.903H39.945C40.6455 29.903 41.3028 29.7813 41.8982 29.5418C42.4936 29.3024 43.0166 28.9624 43.4521 28.5313C43.8872 28.1002 44.232 27.5815 44.4768 26.9893C44.7214 26.3969 44.8456 25.7396 44.8456 25.0354V22.8373C44.8456 22.1384 44.7214 21.4823 44.4768 20.8875C44.232 20.2923 43.8872 19.7737 43.4517 19.3455Z" fill="#204D84"/>
<path d="M56.3259 26.1538L48.72 18.2991C48.5616 18.1367 48.3695 18.033 48.1485 17.991C47.9282 17.9492 47.7109 17.9704 47.4998 18.0551C47.3029 18.1442 47.1387 18.2814 47.0116 18.4626C46.8846 18.6446 46.8198 18.8506 46.8198 19.0747V29.7426H49.0352V21.7192L56.6406 29.5814C56.7486 29.6939 56.8741 29.7767 57.0136 29.8276C57.1515 29.8775 57.29 29.9028 57.4254 29.9028C57.5776 29.9028 57.7236 29.8747 57.8596 29.8184C57.9953 29.7624 58.1144 29.6845 58.2133 29.5865C58.3123 29.4885 58.3924 29.3709 58.4518 29.2369C58.5111 29.1026 58.5412 28.9549 58.5412 28.7982V18.1303H56.3259V26.1538Z" fill="#204D84"/>
<path d="M70.5435 22.832H63.7817V25.0414H70.5435V22.832Z" fill="#204D84"/>
<path d="M61.5053 18.2148C61.3692 18.271 61.2498 18.3507 61.1508 18.4515C61.0518 18.5523 60.9733 18.6715 60.9169 18.8052C60.8604 18.9395 60.8315 19.084 60.8315 19.235V26.7604C60.8315 27.3071 60.9331 27.7758 61.1336 28.1532C61.3332 28.5299 61.5863 28.8406 61.8855 29.0767C62.184 29.3128 62.5131 29.4848 62.8639 29.5878C63.2129 29.6905 63.5398 29.7423 63.8358 29.7423H71.4914V27.5492H63.8518C63.5871 27.5492 63.3846 27.4816 63.2499 27.3485C63.1152 27.2151 63.0469 27.0173 63.0469 26.7604V20.3235H71.4914V18.1304H61.9474C61.7897 18.1304 61.6409 18.1588 61.5053 18.2148Z" fill="#204D84"/>
<path d="M84.0716 24.2989C83.8937 24.0444 83.6868 23.8232 83.457 23.6418C83.2277 23.4607 82.9831 23.3087 82.7294 23.1898C82.4752 23.071 82.2167 22.9818 81.9603 22.9253C81.7043 22.8687 81.4581 22.8371 81.227 22.8317H76.3647C75.9819 22.8317 75.6802 22.7198 75.468 22.4992C75.2548 22.278 75.1465 21.9705 75.1465 21.5855C75.1465 21.2057 75.2548 20.8966 75.4682 20.6671C75.6809 20.4392 75.9823 20.3235 76.3647 20.3235H83.591V18.1304H76.3647C76.0203 18.1304 75.6442 18.1917 75.2464 18.3131C74.8473 18.4351 74.4719 18.6351 74.1304 18.9086C73.7884 19.1823 73.5001 19.5416 73.2735 19.9764C73.0465 20.4126 72.9312 20.9541 72.9312 21.5855C72.9312 22.217 73.0465 22.7597 73.2735 23.1987C73.5001 23.6364 73.7884 23.9961 74.1306 24.267C74.4716 24.5372 74.8471 24.736 75.2464 24.858C75.6442 24.9794 76.0203 25.0409 76.3647 25.0409H81.2107C81.3975 25.0409 81.5692 25.0719 81.7212 25.1333C81.8725 25.1943 82.0024 25.2815 82.1072 25.3927C82.2125 25.505 82.2946 25.6392 82.3514 25.7919C82.4082 25.9459 82.4372 26.1178 82.4372 26.303C82.4372 26.6828 82.3291 26.9888 82.1155 27.213C81.9031 27.4361 81.5986 27.5492 81.2107 27.5492H73.0285V29.7423H81.2107C81.4405 29.7423 81.6883 29.7149 81.9473 29.661C82.2065 29.607 82.4654 29.5221 82.7166 29.4086C82.9676 29.2948 83.2136 29.1472 83.4484 28.9689C83.684 28.7897 83.8925 28.5698 84.0677 28.3148C84.2429 28.0603 84.3857 27.7625 84.492 27.4304C84.5986 27.0979 84.6525 26.7186 84.6525 26.303C84.6525 25.888 84.5999 25.51 84.4962 25.18C84.3924 24.85 84.2493 24.5536 84.0716 24.2989Z" fill="#204D84"/>
<path d="M86.311 29.7425H88.5262V18.1306H86.311V29.7425Z" fill="#204D84"/>
<path d="M94.1233 20.9434C93.9555 20.9434 93.8191 21.0786 93.8191 21.2449C93.8191 21.4111 93.9555 21.5464 94.1233 21.5464C94.2909 21.5464 94.4274 21.4111 94.4274 21.2449C94.4274 21.0786 94.2909 20.9434 94.1233 20.9434Z" fill="#204D84"/>
<path d="M96.7628 19.8376C96.5952 19.8376 96.4587 19.9729 96.4587 20.1392C96.4587 20.3054 96.5952 20.4407 96.7628 20.4407C96.9305 20.4407 97.067 20.3054 97.067 20.1392C97.067 19.9729 96.9305 19.8376 96.7628 19.8376Z" fill="#204D84"/>
<path d="M93.2098 22.6519C93.0422 22.6519 92.9058 22.787 92.9058 22.9533C92.9058 23.1196 93.0422 23.2549 93.2098 23.2549C93.3776 23.2549 93.5137 23.1196 93.5137 22.9533C93.5137 22.787 93.3776 22.6519 93.2098 22.6519Z" fill="#204D84"/>
<path d="M94.9354 24.4607C94.7677 24.4607 94.6316 24.596 94.6316 24.7623C94.6316 24.9284 94.7677 25.0637 94.9354 25.0637C95.1032 25.0637 95.2395 24.9284 95.2395 24.7623C95.2395 24.596 95.1032 24.4607 94.9354 24.4607Z" fill="#204D84"/>
<path d="M100.352 23.1788H98.0495V24.7622C98.0495 24.8732 97.9585 24.9632 97.8464 24.9632H95.6165C95.529 25.2534 95.2569 25.4654 94.9358 25.4654C94.544 25.4654 94.2251 25.15 94.2251 24.7622C94.2251 24.3741 94.544 24.0587 94.9358 24.0587C95.2572 24.0587 95.529 24.271 95.6165 24.5612H97.6434V23.1788H93.8826C93.7871 23.4563 93.5221 23.6567 93.2102 23.6567C92.8182 23.6567 92.4995 23.3409 92.4995 22.9531C92.4995 22.5653 92.8182 22.2496 93.2102 22.2496C93.5403 22.2496 93.8178 22.474 93.8972 22.7768H96.0893V21.4133H94.8129C94.7363 21.7198 94.4569 21.948 94.1237 21.948C93.7319 21.948 93.4133 21.6326 93.4133 21.2445C93.4133 20.8567 93.7319 20.5413 94.1237 20.5413C94.4329 20.5413 94.6957 20.7379 94.7934 21.0113H96.2923C96.4044 21.0113 96.4954 21.101 96.4954 21.2123V22.7768H99.0305V20.3403H97.4439C97.3564 20.6304 97.0843 20.8428 96.7632 20.8428C96.3711 20.8428 96.0525 20.5271 96.0525 20.1392C96.0525 19.7515 96.3711 19.4358 96.7632 19.4358C97.0843 19.4358 97.3564 19.6481 97.4439 19.9382H99.2336C99.3456 19.9382 99.4366 20.0283 99.4366 20.1392V22.7768H100.352C100.464 22.7768 100.555 22.8668 100.555 22.9778C100.555 23.0887 100.464 23.1788 100.352 23.1788ZM102.307 18.8052C102.251 18.6708 102.17 18.5514 102.068 18.4509C101.966 18.35 101.846 18.2707 101.71 18.2148C101.575 18.1588 101.429 18.1304 101.277 18.1304H96.5273C95.6869 18.1304 94.9003 18.2745 94.1894 18.5592C93.4784 18.8444 92.8533 19.2477 92.332 19.7585C91.8103 20.2695 91.3975 20.888 91.1044 21.5972C90.8114 22.3064 90.6626 23.0934 90.6626 23.9363V29.7423H92.8781V26.9183H100.177V29.7423H102.392V19.235C102.392 19.0843 102.364 18.9395 102.307 18.8052Z" fill="#204D84"/>
</g>
<defs>
<clipPath id="clip0_11946_544">
<rect width="102.146" height="30" fill="white" transform="translate(0.246094)"/>
</clipPath>
</defs>
</svg>
