<svg width="33" height="29" viewBox="0 0 33 29" fill="none" xmlns="http://www.w3.org/2000/svg">
<g clip-path="url(#clip0_11946_575)">
<path fill-rule="evenodd" clip-rule="evenodd" d="M10.9249 1.82867C10.6685 0.925984 11.4318 0.0338699 12.2867 0.00280943C13.4451 -0.0770839 13.7649 1.56757 12.5798 2.31341C11.8935 2.63763 11.1719 2.56892 10.9249 1.82867ZM14.2017 4.59355C14.374 3.6593 14.4934 3.51352 14.7437 3.34421C15.0527 3.13532 17.3347 2.91756 18.1226 3.02187C18.2326 3.03809 18.3374 3.05858 18.4371 3.08305C20.7149 3.64158 20.3954 6.27648 20.2424 7.53857L20.2364 7.5882C20.0782 8.77391 19.923 9.85391 19.8914 9.98818C19.8363 10.2218 19.7872 10.2322 18.7418 10.2322C18.3906 10.2322 18.2072 10.2197 18.0073 10.2004C17.6845 10.1786 17.6546 10.1038 17.6867 9.86126C17.7511 9.31933 17.8278 8.8182 17.9033 8.32394C17.966 7.9147 18.0278 7.51016 18.0814 7.09106C18.2406 5.82822 18.1981 4.58142 16.6801 4.84951C16.42 4.91767 16.3489 4.93914 16.313 5.20701C16.1921 6.00318 16.0806 6.81617 15.9706 7.61741C15.9084 8.07141 15.8466 8.52173 15.7839 8.96299C15.7458 9.25416 15.6926 9.55856 15.6382 9.82829C15.6323 9.85691 15.6276 9.88426 15.6231 9.90978C15.6169 9.94545 15.6114 9.97735 15.6043 10.0038C15.5889 10.0577 15.553 10.1137 15.5185 10.0583C15.2747 9.59975 14.127 9.67624 13.6481 10.0126C13.6218 10.0316 13.5977 10.0496 13.5759 10.0658C13.3987 10.1979 13.3691 10.2201 13.4565 9.75222C13.4737 9.64078 13.4906 9.52944 13.5069 9.41832C13.5929 8.83588 13.6687 8.25691 13.7447 7.67785C13.8784 6.65672 14.0123 5.63458 14.2017 4.59355ZM10.4604 4.6828C10.2173 6.43168 9.99673 8.01829 9.76762 10.0021C9.77486 10.1747 9.82206 10.1991 10.0298 10.237C10.2747 10.244 10.6815 10.2397 11.0388 10.2359C11.1994 10.2342 11.3499 10.2326 11.4714 10.2322L11.4996 10.2323C11.8124 10.2326 11.8921 10.2326 11.9576 9.87962C12.0333 9.43016 12.1081 8.9922 12.1819 8.56125C12.4601 6.93465 12.7211 5.40797 12.9411 3.73941C13.0062 3.30556 12.8411 3.21875 12.2128 3.21653C11.9575 3.20778 11.6887 3.20879 11.4196 3.20982C11.3469 3.21009 11.2742 3.21037 11.2017 3.21044C10.9023 3.21073 10.646 3.24195 10.6228 3.51103C10.5674 3.91317 10.5134 4.30184 10.4604 4.6828ZM21.194 10.2593C21.1713 10.2146 21.2341 9.59218 21.3334 8.87617C21.4327 8.16013 21.6402 6.62238 21.7944 5.45892C22.2321 2.15583 22.3761 1.16057 22.437 0.779929C22.498 0.358848 22.5015 0.35886 22.8607 0.360012L22.9235 0.360142H23.5922C23.6717 0.360142 23.7459 0.359819 23.8149 0.359519C23.973 0.35883 24.1048 0.358255 24.2143 0.361914L24.3001 0.364545C24.4999 0.370338 24.6091 0.373505 24.6592 0.431021C24.7197 0.500387 24.6944 0.648802 24.6386 0.976208C24.6233 1.06615 24.6056 1.16974 24.5868 1.28874C24.555 1.49033 24.482 2.07275 24.3933 2.78082L24.3931 2.78227L24.3929 2.78334C24.322 3.34928 24.2411 3.99522 24.163 4.59106C23.7202 7.97171 23.4298 10.0447 23.3764 10.2051C23.3265 10.3554 21.2687 10.4066 21.194 10.2593ZM2.85903 8.61823C2.91696 9.2783 3.23497 9.71616 3.90761 10.0621C4.4547 10.3436 4.4666 10.3447 6.71396 10.3157L8.46646 10.2905C8.52764 10.2866 8.58433 10.2869 8.6363 10.2872C8.83778 10.2883 8.96853 10.289 9.01607 10.0455C9.06553 9.76633 9.10238 9.50469 9.14103 9.23015C9.17033 9.02213 9.20068 8.80655 9.23834 8.57045C9.27363 8.23952 9.19972 8.149 8.84272 8.16954L7.34359 8.1464C5.66763 8.12048 5.41468 8.09352 5.31513 7.93047C5.22996 7.79095 5.32049 6.88543 5.67631 4.31915L5.76032 3.71434C5.92061 2.56137 6.04389 1.67471 6.08781 1.23094C6.09005 1.20813 6.0926 1.18569 6.09508 1.16377C6.11791 0.962455 6.13586 0.804298 5.86689 0.800303C5.70622 0.790847 5.47581 0.791923 5.21333 0.793149C5.11927 0.793589 5.02109 0.794047 4.92053 0.794047H4.19489C3.82609 0.794047 3.79675 0.816802 3.72885 1.21383C3.45122 2.90478 2.82427 8.22263 2.85903 8.61823ZM26.2784 10.8561C26.1159 10.4831 25.5944 9.30659 25.1195 8.24163C24.6446 7.1766 24.2812 6.23771 24.3119 6.15521C24.3427 6.07266 24.8718 5.39403 25.488 4.6472L26.4909 3.43142L26.5011 3.41866C26.5643 3.33959 26.6365 3.24935 26.7227 3.2481C26.9918 3.2495 27.2653 3.25767 27.5367 3.26577C27.8751 3.27587 28.2103 3.28587 28.5303 3.28259L28.6204 3.28152C28.9885 3.27656 29.1531 3.27435 28.8575 3.584C28.6534 3.84478 28.2513 4.32214 27.7912 4.84597C27.1266 5.60293 26.5828 6.24252 26.5828 6.26732C26.5828 6.29213 27.0812 7.42259 27.6904 8.77951C28.169 9.8456 28.5644 10.7992 28.6977 11.1975C28.7546 11.3326 28.7046 11.4485 28.583 11.48C28.4217 11.5187 28.1315 11.5341 27.6325 11.5341H26.885C26.7024 11.5537 26.5681 11.5206 26.4978 11.3594L26.2784 10.8561ZM13.9209 10.8732C13.3774 11.0966 12.9433 11.6272 12.9433 12.3235C12.9555 13.1885 14.0428 13.5009 14.7872 12.9724C15.368 12.513 15.6944 11.6312 15.1972 11.0345C14.9169 10.704 14.3905 10.7033 13.9209 10.8732ZM23.6769 18.1787C23.7121 17.8952 23.789 17.1264 23.8479 16.4701C23.9068 15.8138 24.0012 14.7885 24.0575 14.1919C24.1003 13.7391 24.138 13.2995 24.1542 13.0683C24.1872 12.861 24.4301 12.8366 24.5896 12.835C24.7665 12.8369 24.9399 12.8346 25.1103 12.8323C25.4521 12.8278 25.7815 12.8234 26.1007 12.8538C26.327 12.8776 26.4214 12.9292 26.4223 13.068C26.2066 14.2104 25.4314 18.1515 25.3717 18.3957C25.3203 18.606 25.2994 18.6681 24.9882 18.6864C24.7824 18.683 24.595 18.6873 24.4051 18.6919C24.2436 18.6956 24.0801 18.6995 23.9023 18.6985C23.6805 18.6957 23.6211 18.6284 23.6769 18.1787ZM7.64503 14.2177C7.70601 14.5379 7.96582 16.705 8.00433 17.1251C7.99935 17.1862 7.99162 17.2144 7.91369 17.2205C7.80999 17.2246 7.6164 17.2297 7.40395 17.2352H7.40279L7.40169 17.2353H7.40073C7.05313 17.2443 6.65609 17.2546 6.51974 17.2642C6.45517 17.27 6.4108 17.2442 6.42867 17.1737C6.57649 16.6629 7.44448 14.4635 7.60496 14.2148L7.60647 14.2129C7.62186 14.1939 7.62949 14.1844 7.64503 14.2177ZM2.72274 20.4236C3.35554 18.8281 5.89697 13.1148 6.50698 11.9315C6.62224 11.6364 6.92592 11.5783 7.13372 11.5577C7.67616 11.5319 8.1519 11.5359 8.62753 11.5398L8.77315 11.5409C9.29062 11.5456 9.32027 11.7251 9.38291 12.1042L9.39163 12.1567C9.4767 12.5702 10.5318 19.0739 10.7707 20.635C10.7747 20.6693 10.7793 20.7004 10.7835 20.7286C10.8108 20.9142 10.8197 20.975 10.5359 20.9755C10.3693 20.976 10.1166 20.9845 9.84526 20.9937C9.37855 21.0094 8.85651 21.027 8.62265 21.0089C8.50444 20.993 8.42737 20.913 8.40896 20.8229C8.37517 20.6554 8.33699 20.3681 8.31108 20.0683L8.24371 19.2907H6.88575H5.5278L5.23092 20.0384C5.12531 20.3044 5.00989 20.5668 4.92391 20.7409C4.86367 20.9005 4.77389 20.9742 4.63953 21.0043C4.53771 21.0034 4.35654 21.007 4.14145 21.0114C3.65438 21.021 2.99329 21.0342 2.6861 21.0063C2.49994 20.9179 2.61506 20.6639 2.68919 20.5004C2.70228 20.4716 2.7141 20.4455 2.72274 20.4236ZM20.0366 16.9221C19.9252 17.6055 19.8205 18.2474 19.6408 18.9378C19.5599 19.1891 19.3157 19.2078 19.0597 19.2273C19.0229 19.2301 18.9859 19.2329 18.9491 19.2364C18.0215 19.2364 17.6847 18.4966 18.0073 17.1686C18.2426 16.2005 18.6865 15.765 19.438 15.765H19.4392C19.5852 15.7658 20.1499 15.769 20.1719 16.1151C20.1228 16.3935 20.0791 16.6609 20.0366 16.9221ZM17.6215 21.1925C15.3067 20.7844 15.322 17.9354 15.8406 16.3074C16.49 14.4229 18.0724 13.8753 19.3731 13.8276C20.4707 13.7888 21.9923 13.9996 22.3743 14.2432C22.4798 14.3104 22.4301 14.9637 22.1355 17.3855C21.931 19.0671 21.7072 20.5131 21.6382 20.5987C21.2718 21.0546 18.8161 21.4176 17.6215 21.1925ZM23.6482 19.8345C22.8223 20.3543 22.7852 21.6214 23.5725 21.9494C24.8451 22.4795 26.2125 20.9107 25.2828 19.9509C24.9053 19.5614 24.1709 19.5055 23.6482 19.8345ZM10.0046 22.4884C9.92904 22.2728 10.1984 22.1619 10.3711 22.0908C10.3946 22.0812 10.4164 22.0722 10.4353 22.0639C11.1397 21.7521 11.6355 21.2439 11.8014 20.6636C11.8807 20.3858 12.1225 18.816 12.3386 17.1752C12.5548 15.5344 12.7489 14.2653 12.7701 14.1908L12.7726 14.1819C12.7904 14.1173 12.8393 13.9388 13.0564 13.9187C13.4199 13.9152 13.7249 13.9168 14.048 13.9186C14.2422 13.9196 14.4432 13.9207 14.6671 13.9207C14.9757 13.89 14.9385 14.2146 14.9113 14.4518L14.906 14.4985C14.8847 14.7449 14.8284 15.1787 14.7585 15.7166L14.71 16.0904L14.3397 18.9639C14.1324 20.5713 14.0176 21.0663 13.6592 21.8943C13.2329 22.8795 12.5812 23.452 11.3997 23.8594L11.35 23.8756C11.0778 23.9648 10.4721 24.1635 10.4023 23.9633C10.2704 23.5267 10.1712 23.1389 10.0618 22.7113L10.0046 22.4884ZM0.990347 27.8267C0.968946 27.8488 1.4256 28.1219 2.00509 28.4334C2.58462 28.745 3.17274 29 3.31198 29C3.45128 29 4.33413 28.8029 5.27394 28.562C9.87569 27.3822 16.2369 26.2902 21.9585 25.6979C24.9815 25.3851 28.8396 25.1064 30.522 25.0794L31.4696 25.0642L30.6289 24.9649C29.3466 24.8138 21.9529 24.8188 19.9091 24.9725C14.9466 25.3454 9.96446 25.9801 5.77404 26.773C3.83751 27.1394 1.06442 27.7503 0.990347 27.8267Z" fill="#EA232A"/>
</g>
<defs>
<clipPath id="clip0_11946_575">
<rect width="31.0444" height="29" fill="white" transform="translate(0.989624)"/>
</clipPath>
</defs>
</svg>
