<svg width="89" height="49" viewBox="0 0 89 49" fill="none" xmlns="http://www.w3.org/2000/svg">
<g clip-path="url(#clip0_11763_415)">
<mask id="mask0_11763_415" style="mask-type:luminance" maskUnits="userSpaceOnUse" x="0" y="0" width="89" height="49">
<path d="M88.9469 0H0.327271V48.9369H88.9469V0Z" fill="white"/>
</mask>
<g mask="url(#mask0_11763_415)">
<path d="M0.819705 44.021C0.819401 43.9583 0.843651 43.8983 0.887239 43.8535C0.930826 43.8087 0.990262 43.7828 1.05276 43.7817H2.38874C3.33409 43.7817 3.95778 44.2842 3.95778 45.1093V45.121C3.95778 46.0239 3.20279 46.4904 2.30996 46.4904H1.29238V47.759C1.29238 47.8217 1.26748 47.8817 1.22316 47.9258C1.17884 47.9702 1.11873 47.9949 1.05604 47.9949C0.993362 47.9949 0.933248 47.9702 0.888927 47.9258C0.844602 47.8817 0.819705 47.8217 0.819705 47.759V44.021ZM2.32856 46.06C3.02335 46.06 3.47852 45.6893 3.47852 45.1389V45.1298C3.47852 44.5323 3.02882 44.2208 2.35263 44.2208H1.29238V46.063L2.32856 46.06Z" fill="#182958"/>
<path d="M4.44897 47.0708V47.0586C4.44897 46.403 4.98727 46.06 5.7718 46.06C6.09392 46.0566 6.41473 46.101 6.72372 46.1922V46.0828C6.72372 45.5267 6.38343 45.2392 5.80246 45.2392C5.52538 45.2392 5.2515 45.2984 4.99933 45.4131C4.97297 45.4241 4.94479 45.4306 4.91619 45.4314C4.864 45.4314 4.81384 45.4112 4.77588 45.3755C4.73788 45.3398 4.71491 45.2912 4.71156 45.2392C4.71202 45.1985 4.72411 45.159 4.74644 45.1252C4.76873 45.0914 4.8003 45.0644 4.83738 45.0481C5.15584 44.9064 5.50096 44.835 5.84951 44.838C6.28717 44.838 6.62198 44.9474 6.84954 45.1791C7.05964 45.3888 7.16796 45.6874 7.16796 46.0828V47.7754C7.16914 47.805 7.16435 47.8343 7.15389 47.8616C7.14343 47.8893 7.12749 47.9144 7.10703 47.9357C7.08661 47.957 7.06208 47.9737 7.03496 47.9854C7.0078 47.9968 6.97863 48.0029 6.94911 48.0029C6.89107 48.0029 6.83543 47.9797 6.79439 47.9387C6.75335 47.8977 6.7303 47.8422 6.7303 47.7841V47.5011C6.59966 47.6724 6.42991 47.8103 6.23521 47.9026C6.04052 47.9953 5.8265 48.0401 5.61096 48.0333C5.03215 48.0333 4.44897 47.7044 4.44897 47.0708ZM6.7303 46.8315V46.5329C6.43482 46.4452 6.12818 46.4007 5.81996 46.4007C5.23894 46.4007 4.91619 46.6522 4.91619 47.0411V47.0533C4.91619 47.4423 5.27504 47.6694 5.69414 47.6694C6.26309 47.6694 6.7303 47.3219 6.7303 46.8315Z" fill="#182958"/>
<path d="M7.98647 47.6432C7.96038 47.6238 7.93915 47.5988 7.92455 47.5695C7.9099 47.5406 7.90226 47.5087 7.90222 47.4761C7.9031 47.4229 7.92497 47.3724 7.96311 47.3351C8.00126 47.2983 8.05253 47.2778 8.10574 47.2782C8.14515 47.2782 8.18356 47.2907 8.21517 47.3143C8.50267 47.5205 8.846 47.6348 9.19991 47.6421C9.57082 47.6421 9.84109 47.451 9.84109 47.1517V47.1395C9.84109 46.8292 9.47562 46.7088 9.06862 46.5933C8.58281 46.4554 8.04447 46.2883 8.04447 45.7189V45.7068C8.04447 45.1746 8.48213 44.8217 9.09813 44.8217C9.44276 44.8297 9.78046 44.9201 10.0829 45.0853C10.1165 45.1043 10.1443 45.1324 10.1635 45.1659C10.1827 45.1997 10.1926 45.2376 10.1923 45.2764C10.192 45.3026 10.1865 45.3288 10.1761 45.3531C10.1658 45.3771 10.1507 45.3991 10.1317 45.4177C10.1128 45.4359 10.0904 45.4504 10.0659 45.4602C10.0414 45.4697 10.0152 45.4747 9.98882 45.4743C9.95348 45.4739 9.91868 45.4659 9.88704 45.45C9.64301 45.303 9.36547 45.2206 9.08064 45.2107C8.7152 45.2107 8.48213 45.4021 8.48213 45.66V45.671C8.48213 45.9647 8.8651 46.0786 9.27868 46.204C9.75791 46.3472 10.2722 46.5318 10.2722 47.0894V47.097C10.2722 47.6827 9.78746 48.0234 9.17036 48.0234C8.74677 48.0162 8.33482 47.884 7.98647 47.6432Z" fill="#182958"/>
<path d="M10.8992 47.0708V47.0586C10.8992 46.403 11.4375 46.06 12.222 46.06C12.5441 46.0566 12.865 46.101 13.174 46.1922V46.0828C13.174 45.5267 12.8326 45.2392 12.2527 45.2392C11.9756 45.2392 11.7017 45.2984 11.4495 45.4131C11.4232 45.4241 11.395 45.4306 11.3664 45.4314C11.3138 45.4321 11.2631 45.4124 11.2247 45.3763C11.1862 45.3406 11.1629 45.2916 11.1596 45.2392C11.16 45.1985 11.1721 45.159 11.1944 45.1252C11.2168 45.0914 11.2483 45.0644 11.2854 45.0481C11.6038 44.9064 11.949 44.835 12.2975 44.838C12.7352 44.838 13.07 44.9474 13.2976 45.1791C13.5077 45.3888 13.6149 45.6874 13.6149 46.0828V47.7754C13.6161 47.805 13.6113 47.8343 13.6008 47.8616C13.5904 47.8893 13.5744 47.9144 13.554 47.9357C13.5335 47.957 13.509 47.9737 13.4819 47.9854C13.4547 47.9968 13.4256 48.0029 13.396 48.0029C13.338 48.0029 13.2824 47.9797 13.2413 47.9387C13.2003 47.8977 13.1772 47.8422 13.1772 47.7841V47.5011C13.0466 47.6724 12.8768 47.8103 12.6821 47.9026C12.4874 47.9953 12.2734 48.0401 12.0579 48.0333C11.4791 48.0333 10.8992 47.7044 10.8992 47.0708ZM13.1805 46.8315V46.5329C12.885 46.4452 12.5784 46.4007 12.2702 46.4007C11.6891 46.4007 11.3664 46.6522 11.3664 47.0411V47.0533C11.3664 47.4423 11.7253 47.6694 12.1443 47.6694C12.7133 47.6694 13.1805 47.3219 13.1805 46.8315Z" fill="#182958"/>
<path d="M14.5996 45.0796C14.5993 45.0188 14.6229 44.96 14.6655 44.9163C14.7081 44.8726 14.7661 44.8472 14.8272 44.846C14.858 44.8453 14.8887 44.851 14.9173 44.8627C14.9459 44.8745 14.9719 44.8916 14.9937 44.9132C15.0156 44.9353 15.0328 44.9611 15.0444 44.9896C15.056 45.0181 15.0618 45.0489 15.0613 45.0796V45.66C15.2889 45.1453 15.7375 44.8339 16.127 44.8339C16.1578 44.8323 16.1886 44.8377 16.2172 44.8491C16.2459 44.8604 16.2718 44.8779 16.2933 44.9C16.3147 44.922 16.3313 44.9482 16.3419 44.9771C16.3525 45.0063 16.3568 45.0371 16.3546 45.0678C16.3561 45.1248 16.336 45.1807 16.2983 45.2236C16.2606 45.2669 16.2081 45.2942 16.1511 45.3003C15.5515 45.3725 15.057 45.8207 15.057 46.7122V47.7644C15.057 47.8255 15.0326 47.8844 14.9893 47.9277C14.946 47.971 14.8873 47.9949 14.8261 47.9949C14.7648 47.9949 14.7061 47.971 14.6628 47.9277C14.6195 47.8844 14.5952 47.8255 14.5952 47.7644L14.5996 45.0796Z" fill="#182958"/>
<path d="M18.8997 44.021C18.8996 43.9583 18.9241 43.8983 18.9679 43.8535C19.0116 43.8087 19.0712 43.7828 19.1338 43.7817H20.3505C21.6635 43.7817 22.5782 44.6842 22.5782 45.8575V45.8697C22.5826 47.0533 21.6723 47.971 20.3505 47.971H19.1338C19.0712 47.9695 19.0116 47.9437 18.9679 47.8992C18.9241 47.8544 18.8996 47.7944 18.8997 47.7317V44.021ZM20.3505 47.5338C21.4108 47.5338 22.087 46.8159 22.087 45.8883V45.8773C22.087 44.9497 21.4108 44.2197 20.3505 44.2197H19.3658V47.5338H20.3505Z" fill="#182958"/>
<path d="M23.505 43.907C23.505 43.8349 23.5338 43.7654 23.5851 43.7141C23.6364 43.6628 23.706 43.6339 23.7785 43.6339C23.8511 43.6339 23.9206 43.6628 23.972 43.7141C24.0233 43.7654 24.0521 43.8349 24.0521 43.907V43.9849C24.0521 44.0571 24.0233 44.1266 23.972 44.1779C23.9206 44.2291 23.8511 44.258 23.7785 44.258C23.706 44.258 23.6364 44.2291 23.5851 44.1779C23.5338 44.1266 23.505 44.0571 23.505 43.9849V43.907ZM23.5477 45.0796C23.5474 45.0188 23.571 44.96 23.6136 44.9163C23.6562 44.8726 23.7142 44.8472 23.7752 44.846C23.8061 44.8453 23.8367 44.8513 23.8652 44.8627C23.8938 44.8745 23.9197 44.8916 23.9414 44.9132C23.9632 44.9353 23.9803 44.9611 23.9918 44.9896C24.0033 45.0185 24.0089 45.0488 24.0083 45.0796V47.7644C24.0095 47.7951 24.0045 47.8255 23.9936 47.854C23.9826 47.8825 23.966 47.9083 23.9447 47.9304C23.9234 47.952 23.8979 47.9695 23.8697 47.9813C23.8415 47.9926 23.8113 47.9987 23.7807 47.9983C23.7499 47.9987 23.7193 47.993 23.6908 47.9816C23.6622 47.9699 23.6363 47.9528 23.6145 47.9307C23.5928 47.9091 23.5757 47.8829 23.5642 47.8544C23.5527 47.8259 23.5471 47.7951 23.5477 47.7644V45.0796Z" fill="#182958"/>
<path d="M25.1584 48.5719C25.1225 48.5544 25.0923 48.5275 25.0712 48.4937C25.0501 48.4599 25.039 48.4207 25.0391 48.3808C25.0428 48.3273 25.0662 48.2768 25.1047 48.2395C25.1433 48.2019 25.1943 48.1799 25.2481 48.1776C25.2841 48.1776 25.3194 48.1879 25.3499 48.2073C25.673 48.4253 26.054 48.5423 26.444 48.5427C27.1268 48.5427 27.5699 48.1655 27.5699 47.4423V47.0772C27.2996 47.4358 26.9233 47.7328 26.3543 47.7328C26.1628 47.7363 25.9727 47.7009 25.7951 47.6295C25.6175 47.5581 25.4561 47.4517 25.3204 47.3165C25.1847 47.1817 25.0775 47.021 25.0051 46.844C24.9328 46.667 24.8967 46.4774 24.899 46.286V46.2742C24.8998 45.9631 24.9996 45.6608 25.1839 45.4105C25.3683 45.1601 25.6277 44.9752 25.9245 44.8817C26.2213 44.7887 26.5401 44.7921 26.8348 44.892C27.1294 44.9919 27.3846 45.1826 27.5633 45.4371V45.0842C27.5622 45.0534 27.5672 45.0226 27.578 44.9942C27.5889 44.9653 27.6055 44.9391 27.6267 44.917C27.6479 44.8946 27.6734 44.8768 27.7016 44.8646C27.7298 44.8525 27.7602 44.846 27.7909 44.846C27.853 44.846 27.9126 44.8703 27.9565 44.9144C28.0004 44.9581 28.0251 45.0177 28.0251 45.0796V47.4301C28.0251 47.9076 27.8806 48.2726 27.629 48.5229C27.3544 48.7983 26.9407 48.9358 26.4495 48.9358C25.9934 48.9385 25.5459 48.8124 25.1584 48.5719ZM27.5841 46.2773V46.2651C27.5841 45.6315 27.0371 45.2194 26.4462 45.2194C25.8554 45.2194 25.3739 45.6262 25.3739 46.2598V46.2719C25.3732 46.4117 25.4005 46.5504 25.4543 46.6799C25.5082 46.809 25.5875 46.926 25.6874 47.0244C25.7874 47.1224 25.9061 47.1995 26.0364 47.2508C26.1667 47.3025 26.3061 47.3275 26.4462 47.3241C27.0327 47.3218 27.5841 46.8968 27.5841 46.275V46.2773Z" fill="#182958"/>
<path d="M29.0569 43.907C29.0569 43.8349 29.0857 43.7654 29.137 43.7141C29.1883 43.6628 29.2579 43.6339 29.3304 43.6339C29.403 43.6339 29.4726 43.6628 29.5238 43.7141C29.5751 43.7654 29.604 43.8349 29.604 43.907V43.9849C29.604 44.0571 29.5751 44.1266 29.5238 44.1779C29.4726 44.2291 29.403 44.258 29.3304 44.258C29.2579 44.258 29.1883 44.2291 29.137 44.1779C29.0857 44.1266 29.0569 44.0571 29.0569 43.9849V43.907ZM29.0996 45.0796C29.0992 45.0196 29.1223 44.9615 29.1639 44.9178C29.2056 44.8741 29.2625 44.8483 29.3227 44.846C29.3536 44.8453 29.3842 44.8513 29.4127 44.8627C29.4413 44.8745 29.4672 44.8916 29.489 44.9132C29.5107 44.9353 29.5278 44.9611 29.5393 44.9896C29.5508 45.0185 29.5564 45.0488 29.5558 45.0796V47.7644C29.557 47.7951 29.552 47.8255 29.5411 47.854C29.5301 47.8825 29.5135 47.9083 29.4922 47.9304C29.4709 47.952 29.4454 47.9695 29.4172 47.9813C29.389 47.9926 29.3588 47.9987 29.3282 47.9983C29.2974 47.9987 29.2668 47.993 29.2383 47.9816C29.2097 47.9699 29.1838 47.9528 29.162 47.9307C29.1403 47.9091 29.1232 47.8829 29.1117 47.8544C29.1002 47.8259 29.0946 47.7951 29.0952 47.7644L29.0996 45.0796Z" fill="#182958"/>
<path d="M30.7944 47.1483V45.2828H30.5427C30.4893 45.2813 30.4385 45.2593 30.4007 45.2217C30.3629 45.1837 30.3409 45.1332 30.3392 45.0796C30.3398 45.0261 30.3614 44.9744 30.3994 44.9364C30.4375 44.8984 30.4889 44.8772 30.5427 44.8764H30.7944V44.1463C30.7937 44.1163 30.799 44.0859 30.81 44.0578C30.821 44.0297 30.8376 44.0039 30.8586 43.9822C30.8797 43.9606 30.9049 43.9431 30.9328 43.9313C30.9606 43.9192 30.9906 43.9127 31.0209 43.9127C31.0827 43.9139 31.1415 43.9389 31.1852 43.9822C31.2289 44.0259 31.2539 44.0848 31.255 44.1463V44.8764H32.0582C32.1127 44.8768 32.165 44.8981 32.2041 44.936C32.2433 44.9736 32.2663 45.0253 32.2683 45.0796C32.2671 45.1343 32.2444 45.1864 32.205 45.2243C32.1657 45.2623 32.1129 45.2836 32.0582 45.2828H31.2561V47.0894C31.2561 47.465 31.4662 47.6029 31.777 47.6029C31.8719 47.5991 31.9662 47.5855 32.0582 47.5611C32.1106 47.5615 32.1608 47.5824 32.1979 47.6196C32.2349 47.6565 32.2559 47.7066 32.2562 47.759C32.2554 47.7989 32.2424 47.8373 32.2189 47.8692C32.1954 47.9015 32.1626 47.9254 32.1249 47.9383C31.9802 47.9957 31.8255 48.0242 31.6697 48.0215C31.1708 48.0215 30.7944 47.7765 30.7944 47.1483Z" fill="#182958"/>
<path d="M32.8241 47.0708V47.0586C32.8241 46.403 33.3624 46.06 34.1469 46.06C34.469 46.0566 34.7899 46.101 35.0988 46.1922V46.0828C35.0988 45.5267 34.7575 45.2392 34.1776 45.2392C33.8993 45.2388 33.6243 45.2984 33.3712 45.4139C33.3445 45.4253 33.3159 45.4317 33.2869 45.4325C33.234 45.4321 33.1834 45.4112 33.1455 45.3744C33.1076 45.3375 33.0854 45.2878 33.0834 45.235C33.0839 45.1943 33.096 45.1548 33.1183 45.1206C33.1406 45.0868 33.1721 45.0602 33.2092 45.0435C33.5277 44.9022 33.8728 44.8304 34.2213 44.8339C34.659 44.8339 34.9938 44.9433 35.2214 45.1746C35.4315 45.3846 35.5387 45.6828 35.5387 46.0786V47.7712C35.5399 47.8004 35.5351 47.8297 35.5246 47.8574C35.5142 47.8848 35.4982 47.9102 35.4778 47.9315C35.4574 47.9524 35.4328 47.9695 35.4057 47.9809C35.3785 47.9926 35.3494 47.9983 35.3199 47.9983C35.2618 47.9983 35.2062 47.9752 35.1651 47.9345C35.1241 47.8935 35.1011 47.8377 35.1011 47.7799V47.5011C34.9704 47.6724 34.8007 47.8103 34.606 47.9026C34.4113 47.9953 34.1972 48.0401 33.9817 48.0333C33.3985 48.0333 32.8241 47.7043 32.8241 47.0708ZM35.1054 46.8315V46.5329C34.8099 46.4452 34.5033 46.4007 34.1951 46.4007C33.6141 46.4007 33.2902 46.6522 33.2902 47.0411V47.0533C33.2902 47.4423 33.6502 47.6694 34.0693 47.6694C34.6327 47.6694 35.0999 47.3218 35.0999 46.8315H35.1054Z" fill="#182958"/>
<path d="M36.5617 43.8056C36.5595 43.7741 36.5639 43.7422 36.5744 43.7126C36.585 43.6829 36.6016 43.6556 36.6232 43.6324C36.6448 43.6093 36.671 43.591 36.7 43.5781C36.729 43.5656 36.7604 43.5591 36.792 43.5591C36.8237 43.5591 36.855 43.5656 36.884 43.5781C36.9131 43.591 36.9392 43.6093 36.9608 43.6324C36.9824 43.6556 36.999 43.6829 37.0096 43.7126C37.0202 43.7422 37.0245 43.7741 37.0223 43.8056V47.7644C37.0235 47.7951 37.0185 47.8255 37.0076 47.854C36.9966 47.8825 36.98 47.9083 36.9587 47.9304C36.9374 47.952 36.912 47.9695 36.8838 47.9813C36.8556 47.9927 36.8253 47.9987 36.7947 47.9984C36.7639 47.9987 36.7333 47.993 36.7048 47.9816C36.6762 47.9699 36.6503 47.9528 36.6286 47.9307C36.6068 47.9091 36.5897 47.8829 36.5782 47.8544C36.5667 47.8259 36.5611 47.7951 36.5617 47.7644V43.8056Z" fill="#182958"/>
<path d="M39.9032 46.2161V43.9902C39.9032 43.9276 39.9283 43.8675 39.9724 43.8235C40.0169 43.779 40.077 43.7544 40.1394 43.7544C40.2021 43.7544 40.2622 43.779 40.3067 43.8235C40.3509 43.8675 40.376 43.9276 40.376 43.9902V46.1854C40.376 47.0894 40.8605 47.5972 41.6573 47.5972C42.4298 47.5972 42.9208 47.1308 42.9208 46.2161V43.9902C42.9185 43.9579 42.9231 43.9253 42.9341 43.8945C42.9452 43.8641 42.9623 43.836 42.9843 43.8121C43.0064 43.7885 43.0334 43.7695 43.0631 43.7566C43.0931 43.7437 43.1255 43.7369 43.1578 43.7369C43.1905 43.7369 43.2224 43.7437 43.2525 43.7566C43.2822 43.7695 43.3092 43.7885 43.3312 43.8121C43.3537 43.836 43.3708 43.8641 43.3814 43.8945C43.3925 43.9253 43.397 43.9579 43.3947 43.9902V46.1759C43.3947 47.3952 42.6934 48.0333 41.644 48.0333C40.5947 48.0333 39.9032 47.3997 39.9032 46.2161Z" fill="#182958"/>
<path d="M44.5141 43.9967C44.5153 43.9351 44.5404 43.8763 44.5837 43.8326C44.6275 43.7889 44.6864 43.7642 44.748 43.7631H44.8017C44.8462 43.7635 44.8891 43.7752 44.9276 43.7973C44.966 43.8193 44.9979 43.8508 45.0207 43.8884L46.5185 46.1375L48.0156 43.8884C48.0376 43.8504 48.0699 43.8189 48.108 43.7969C48.1464 43.7749 48.1901 43.7631 48.2343 43.7631H48.2879C48.3495 43.7642 48.4084 43.7893 48.4518 43.8326C48.4952 43.8763 48.5199 43.9351 48.521 43.9967V47.759C48.521 47.8213 48.4971 47.8817 48.4533 47.9262C48.4096 47.971 48.3503 47.9968 48.2879 47.9983C48.2247 47.9972 48.1643 47.9718 48.1198 47.9269C48.0749 47.8825 48.0494 47.8221 48.0483 47.759V44.6371L46.7068 46.6039C46.687 46.6396 46.6585 46.6693 46.6239 46.6905C46.5889 46.7114 46.5493 46.7232 46.5086 46.7244C46.4672 46.7232 46.4269 46.7114 46.3915 46.6905C46.3557 46.6697 46.3261 46.6396 46.3052 46.6039L44.9702 44.6424V47.7644C44.9702 47.8255 44.9462 47.8844 44.9028 47.9277C44.8595 47.9706 44.8005 47.9949 44.7393 47.9949C44.6781 47.9949 44.6195 47.9706 44.5761 47.9277C44.5328 47.8844 44.5084 47.8255 44.5084 47.7644L44.5141 43.9967Z" fill="#182958"/>
<path d="M49.7127 43.9902C49.7104 43.9579 49.7149 43.9253 49.7256 43.8945C49.7366 43.8641 49.7537 43.836 49.7758 43.8121C49.7982 43.7885 49.8249 43.7695 49.8549 43.7566C49.8846 43.7437 49.9169 43.7369 49.9492 43.7369C49.9819 43.7369 50.0143 43.7437 50.0439 43.7566C50.0736 43.7695 50.1006 43.7885 50.1227 43.8121C50.1451 43.836 50.1622 43.8641 50.1729 43.8945C50.1839 43.9253 50.1885 43.9579 50.1862 43.9902V46.2849L52.5759 43.8383C52.5998 43.8132 52.6284 43.7927 52.6599 43.7783C52.6919 43.7642 52.7261 43.7563 52.7607 43.7555C52.8216 43.7574 52.8786 43.7828 52.9212 43.8261C52.9634 43.8694 52.9874 43.9276 52.9885 43.988C52.9874 44.0199 52.9802 44.051 52.9669 44.0799C52.9535 44.1084 52.9345 44.1342 52.9106 44.1551L51.425 45.6239L53.0178 47.5908C53.0604 47.6386 53.0836 47.7006 53.0836 47.7644C53.0821 47.8274 53.0566 47.8878 53.0117 47.9323C52.9672 47.9767 52.9071 48.0025 52.844 48.0037C52.8052 48.0033 52.7676 47.993 52.7341 47.9741C52.7006 47.9551 52.6725 47.9277 52.6523 47.8947L51.0891 45.9506L50.185 46.8543V47.7636C50.1873 47.7959 50.1828 47.8286 50.1721 47.859C50.1611 47.8897 50.144 47.9178 50.1219 47.9414C50.0995 47.9653 50.0728 47.9839 50.0428 47.9972C50.0131 48.0101 49.9808 48.0166 49.9481 48.0166C49.9158 48.0166 49.8834 48.0101 49.8538 47.9972C49.8237 47.9839 49.7971 47.9653 49.7746 47.9414C49.7526 47.9178 49.7355 47.8897 49.7244 47.859C49.7138 47.8286 49.7092 47.7959 49.7115 47.7636L49.7127 43.9902Z" fill="#182958"/>
<path d="M53.9884 43.9967C53.9895 43.9351 54.0146 43.8763 54.0584 43.8326C54.1017 43.7889 54.1607 43.7642 54.2227 43.7631H54.2763C54.3204 43.7638 54.3634 43.776 54.4018 43.7976C54.4399 43.8197 54.4722 43.8508 54.495 43.8884L55.9917 46.1375L57.4887 43.8884C57.5111 43.8504 57.5431 43.8189 57.5815 43.7969C57.6199 43.7749 57.6633 43.7631 57.7074 43.7631H57.7709C57.8325 43.7642 57.8915 43.7889 57.9352 43.8326C57.979 43.8763 58.004 43.9351 58.0052 43.9967V47.759C58.0052 47.8217 57.9805 47.8817 57.9367 47.9266C57.893 47.971 57.8337 47.9968 57.7709 47.9983C57.7078 47.9968 57.6477 47.9714 57.6032 47.9266C57.5583 47.8821 57.5328 47.8221 57.5313 47.759V44.6371L56.1898 46.6039C56.1704 46.6396 56.1419 46.6693 56.1073 46.6905C56.0731 46.7114 56.0335 46.7232 55.9928 46.7244C55.9513 46.7232 55.9106 46.7118 55.8749 46.6905C55.8391 46.6697 55.8095 46.6396 55.7882 46.6039L54.4536 44.6424V47.7644C54.4536 47.8255 54.4292 47.8844 54.3859 47.9277C54.3425 47.9706 54.2839 47.9949 54.2227 47.9949C54.1615 47.9949 54.1025 47.9706 54.0591 47.9277C54.0162 47.8844 53.9918 47.8255 53.9918 47.7644L53.9884 43.9967Z" fill="#182958"/>
<path d="M61.0259 43.9902C61.0259 43.9276 61.051 43.8675 61.0951 43.8235C61.1396 43.779 61.1997 43.7543 61.2625 43.7543C61.3252 43.7543 61.3853 43.779 61.4294 43.8235C61.4739 43.8675 61.4986 43.9276 61.4986 43.9902V47.7591C61.4986 47.8217 61.4739 47.8817 61.4294 47.9258C61.3853 47.9702 61.3252 47.9949 61.2625 47.9949C61.1997 47.9949 61.1396 47.9702 61.0951 47.9258C61.051 47.8817 61.0259 47.8217 61.0259 47.7591V43.9902Z" fill="#182958"/>
<path d="M62.6488 45.0796C62.6484 45.0188 62.672 44.96 62.7146 44.9163C62.7572 44.8726 62.8154 44.8472 62.8763 44.846C62.9071 44.8453 62.9379 44.8513 62.9664 44.8627C62.9949 44.8745 63.0208 44.8916 63.0425 44.9132C63.0642 44.9353 63.0813 44.9611 63.0931 44.9896C63.1045 45.0185 63.1102 45.0489 63.1094 45.0796V45.4139C63.2136 45.2259 63.3677 45.0701 63.5548 44.9638C63.7419 44.857 63.9545 44.8039 64.1698 44.8099C64.9179 44.8099 65.3557 45.3125 65.3557 46.0478V47.7644C65.358 47.7959 65.3534 47.8278 65.3428 47.8574C65.3325 47.8874 65.3158 47.9148 65.2941 47.9376C65.2724 47.9607 65.2466 47.9794 65.2173 47.9919C65.1884 48.0044 65.1572 48.0109 65.1252 48.0109C65.0937 48.0109 65.0625 48.0044 65.0336 47.9919C65.0043 47.9794 64.9784 47.9607 64.9567 47.9376C64.9351 47.9148 64.9183 47.8874 64.9077 47.8574C64.8974 47.8278 64.8928 47.7959 64.8951 47.7644V46.1614C64.8951 45.5879 64.5832 45.2281 64.0382 45.2281C63.4936 45.2281 63.1094 45.6175 63.1094 46.1975V47.7644C63.1106 47.7951 63.106 47.8255 63.095 47.8536C63.0843 47.8821 63.0676 47.9083 63.0467 47.93C63.0254 47.952 62.9999 47.9695 62.9717 47.9813C62.9436 47.9927 62.9135 47.9987 62.8827 47.9983C62.8519 47.9987 62.8215 47.993 62.793 47.9816C62.7641 47.9699 62.7382 47.9528 62.7165 47.9307C62.6945 47.9091 62.6773 47.8833 62.6656 47.8544C62.6541 47.8259 62.6484 47.7955 62.6488 47.7644V45.0796Z" fill="#182958"/>
<path d="M69.285 47.7644C69.285 47.8255 69.2606 47.8844 69.2173 47.9277C69.1739 47.9706 69.1153 47.9949 69.0541 47.9949C68.9929 47.9949 68.9339 47.9706 68.8906 47.9277C68.8472 47.8844 68.8232 47.8255 68.8232 47.7644V47.3462C68.5714 47.7165 68.2059 48.0333 67.6369 48.0333C66.8953 48.0333 66.1589 47.4476 66.1589 46.4315V46.4193C66.1589 45.4086 66.8953 44.8099 67.6369 44.8099C68.2124 44.8099 68.5836 45.121 68.8232 45.4655V43.8056C68.8217 43.7752 68.827 43.7449 68.8377 43.7164C68.8487 43.6879 68.8654 43.6617 68.8867 43.64C68.908 43.618 68.9335 43.6009 68.9617 43.5891C68.9898 43.5773 69.0202 43.5713 69.0507 43.5716C69.0815 43.5713 69.1123 43.577 69.1408 43.5887C69.1693 43.6001 69.1952 43.6176 69.2173 43.6393C69.2389 43.6609 69.2564 43.6871 69.2678 43.7156C69.2796 43.7441 69.2853 43.7749 69.285 43.8056V47.7644ZM66.6336 46.4129V46.425C66.6336 47.1547 67.1425 47.6216 67.7278 47.6216C68.3132 47.6216 68.8483 47.1361 68.8483 46.425V46.4129C68.8537 46.2609 68.8289 46.1098 68.7753 45.9677C68.7217 45.8253 68.6407 45.6954 68.5365 45.5844C68.4322 45.4739 68.3071 45.385 68.1683 45.3227C68.0295 45.2608 67.88 45.2266 67.7278 45.2228C67.1227 45.2228 66.6336 45.6653 66.6336 46.4129Z" fill="#182958"/>
<path d="M70.1229 46.4414V46.4292C70.1214 46.0019 70.2899 45.5913 70.5915 45.2878C70.8931 44.9843 71.3027 44.813 71.731 44.8115C72.1589 44.8099 72.57 44.9782 72.8739 45.2794C73.1774 45.5803 73.3493 45.9897 73.3509 46.4171V46.4292C73.352 46.6423 73.3109 46.8531 73.2299 47.0503C73.1485 47.247 73.0291 47.4259 72.8781 47.576C72.7271 47.7264 72.5476 47.8453 72.3502 47.9254C72.1528 48.006 71.9413 48.0462 71.7279 48.0443C71.5165 48.0466 71.3069 48.0071 71.111 47.9273C70.9152 47.8476 70.7371 47.7298 70.5877 47.5801C70.4378 47.4309 70.3199 47.2531 70.24 47.0575C70.1602 46.8619 70.1206 46.6526 70.1229 46.4414ZM72.8781 46.4414V46.4292C72.8781 45.766 72.3802 45.2217 71.7279 45.2217C71.0574 45.2217 70.5957 45.7683 70.5957 46.4171V46.4292C70.5957 47.0936 71.0871 47.631 71.7401 47.631C72.411 47.6269 72.8781 47.0894 72.8781 46.4414Z" fill="#182958"/>
<path d="M74.1835 45.0796C74.1831 45.0188 74.2067 44.96 74.2493 44.9163C74.2919 44.8726 74.3501 44.8472 74.4109 44.846C74.4421 44.8453 74.4725 44.8513 74.5011 44.8627C74.53 44.8745 74.5558 44.8916 74.5775 44.9132C74.5996 44.9353 74.6167 44.9611 74.6285 44.9896C74.6399 45.0181 74.6456 45.0489 74.6452 45.0796V45.4139C74.7491 45.2259 74.9031 45.0701 75.0898 44.9634C75.2766 44.857 75.4892 44.8039 75.7045 44.8099C76.4526 44.8099 76.8904 45.3125 76.8904 46.0478V47.7644C76.8927 47.7959 76.8881 47.8278 76.8778 47.8574C76.8672 47.8874 76.8504 47.9148 76.8288 47.9376C76.8075 47.9607 76.7812 47.9794 76.7523 47.9919C76.723 48.0044 76.6918 48.0109 76.6603 48.0109C76.6283 48.0109 76.5971 48.0044 76.5682 47.9919C76.5389 47.9794 76.5131 47.9607 76.4914 47.9376C76.4697 47.9148 76.453 47.8874 76.4427 47.8574C76.4321 47.8278 76.4275 47.7959 76.4298 47.7644V46.1614C76.4298 45.5879 76.1179 45.2281 75.5733 45.2281C75.0282 45.2281 74.6452 45.6175 74.6452 46.1975V47.7644C74.6464 47.7951 74.6414 47.8255 74.6304 47.854C74.6194 47.8825 74.603 47.9083 74.5817 47.9304C74.5604 47.952 74.5349 47.9695 74.5068 47.9813C74.4786 47.9927 74.4482 47.9987 74.4178 47.9983C74.3866 47.9987 74.3562 47.993 74.3276 47.9816C74.2987 47.9699 74.2729 47.9528 74.2512 47.9307C74.2291 47.9091 74.212 47.8833 74.2006 47.8544C74.1888 47.8259 74.1831 47.7955 74.1835 47.7644V45.0796Z" fill="#182958"/>
<path d="M79.2263 48.0398C78.3763 48.0398 77.6814 47.3841 77.6814 46.4315V46.4193C77.6814 45.5278 78.3093 44.8099 79.1663 44.8099C80.0821 44.8099 80.6039 45.5571 80.6039 46.3768C80.6039 46.4349 80.5807 46.4904 80.5397 46.5314C80.4986 46.5724 80.4431 46.5952 80.3853 46.5952H78.1485C78.2143 47.2653 78.687 47.6421 79.2427 47.6421C79.5755 47.6443 79.8957 47.5156 80.1346 47.2839C80.1734 47.2489 80.2247 47.2307 80.2769 47.2333C80.329 47.2364 80.378 47.2596 80.413 47.2983C80.448 47.3374 80.4659 47.3883 80.4632 47.4407C80.4606 47.4928 80.437 47.5418 80.3982 47.5767C80.2453 47.7302 80.0623 47.8506 79.8608 47.9304C79.6592 48.0101 79.4431 48.0474 79.2263 48.0398ZM80.1422 46.2511C80.0939 45.6893 79.7714 45.1989 79.1575 45.1989C78.6189 45.1989 78.2108 45.6479 78.1519 46.2511H80.1422Z" fill="#182958"/>
<path d="M81.2506 47.6432C81.2243 47.6238 81.2034 47.5988 81.1886 47.5695C81.1741 47.5406 81.1665 47.5087 81.1665 47.4761C81.1665 47.4499 81.1722 47.4237 81.1825 47.3993C81.1927 47.375 81.208 47.3534 81.227 47.3348C81.246 47.3165 81.268 47.3021 81.2928 47.2922C81.3171 47.2827 81.3434 47.2778 81.37 47.2782C81.4092 47.2782 81.4476 47.2907 81.4791 47.3143C81.7663 47.5213 82.1101 47.6356 82.4638 47.6421C82.8351 47.6421 83.1051 47.451 83.1051 47.1517V47.1395C83.1051 46.8292 82.7396 46.7088 82.3326 46.5933C81.8469 46.4554 81.3087 46.2883 81.3087 45.7189V45.7068C81.3087 45.1746 81.7518 44.8217 82.3623 44.8217C82.7069 44.8297 83.0446 44.9201 83.347 45.0853C83.3805 45.1043 83.4082 45.1324 83.4276 45.1659C83.4467 45.1997 83.4569 45.2376 83.4565 45.2764C83.4562 45.3026 83.4505 45.3288 83.4402 45.3531C83.4299 45.3771 83.4147 45.3991 83.3957 45.4177C83.377 45.4359 83.3546 45.4504 83.3299 45.4602C83.3055 45.4697 83.2793 45.4747 83.2531 45.4743C83.2177 45.4739 83.1827 45.4659 83.1511 45.45C82.9066 45.3026 82.6282 45.2206 82.3425 45.2107C81.977 45.2107 81.7442 45.4021 81.7442 45.66V45.671C81.7442 45.9647 82.1269 46.0786 82.5407 46.204C83.0188 46.3472 83.5341 46.5318 83.5341 47.0894V47.097C83.5341 47.6827 83.0496 48.0234 82.4323 48.0234C82.0093 48.0162 81.5982 47.8836 81.2506 47.6432Z" fill="#182958"/>
<path d="M84.4005 43.907C84.4005 43.8349 84.4294 43.7654 84.4808 43.7141C84.5321 43.6628 84.6017 43.6339 84.6744 43.6339C84.7466 43.6339 84.8162 43.6628 84.8676 43.7141C84.9189 43.7654 84.9478 43.8349 84.9478 43.907V43.9849C84.9478 44.0571 84.9189 44.1266 84.8676 44.1779C84.8162 44.2291 84.7466 44.258 84.6744 44.258C84.6017 44.258 84.5321 44.2291 84.4808 44.1779C84.4294 44.1266 84.4005 44.0571 84.4005 43.9849V43.907ZM84.4424 45.0796C84.442 45.0188 84.4656 44.96 84.5082 44.9163C84.5507 44.8726 84.6089 44.8472 84.6698 44.846C84.7006 44.8453 84.7314 44.8513 84.7599 44.8627C84.7885 44.8745 84.8147 44.8916 84.8364 44.9132C84.8581 44.9353 84.8756 44.9611 84.887 44.9896C84.8988 45.0181 84.9045 45.0488 84.9041 45.0796V47.7644C84.9052 47.7951 84.9003 47.8255 84.8893 47.854C84.8782 47.8825 84.8619 47.9083 84.8406 47.9304C84.8193 47.952 84.7938 47.9695 84.7653 47.9813C84.7371 47.9926 84.7071 47.9987 84.6763 47.9983C84.6455 47.9987 84.615 47.993 84.5861 47.9816C84.5576 47.9699 84.5317 47.9528 84.5101 47.9307C84.488 47.9091 84.4709 47.8833 84.4591 47.8544C84.4477 47.8259 84.442 47.7955 84.4424 47.7644V45.0796Z" fill="#182958"/>
<path d="M85.7421 47.0708V47.0586C85.7421 46.403 86.2818 46.06 87.066 46.06C87.3882 46.0566 87.7092 46.1014 88.018 46.1922V46.0828C88.018 45.5267 87.6769 45.2392 87.0957 45.2392C86.8188 45.2392 86.5453 45.2984 86.2936 45.4131C86.2669 45.4241 86.2384 45.4306 86.2095 45.4317C86.1563 45.4314 86.1057 45.4105 86.0676 45.3736C86.0296 45.3368 86.0075 45.2866 86.006 45.2338C86.006 45.1932 86.0182 45.1533 86.0403 45.1195C86.0627 45.0857 86.0946 45.0587 86.1315 45.0424C86.4503 44.9007 86.7952 44.8293 87.144 44.8327C87.5814 44.8327 87.9165 44.9421 88.1439 45.1738C88.3527 45.3835 88.4611 45.6817 88.4611 46.0775V47.7701C88.4623 47.7993 88.4577 47.8289 88.4471 47.8563C88.4368 47.884 88.4208 47.9091 88.4003 47.9304C88.3797 47.9516 88.3554 47.9683 88.328 47.9797C88.301 47.9915 88.2717 47.9972 88.2424 47.9972C88.2135 47.9984 88.1846 47.993 88.1576 47.9824C88.1306 47.9718 88.1063 47.9558 88.0857 47.9353C88.0652 47.9148 88.0488 47.8905 88.0382 47.8635C88.0275 47.8365 88.0226 47.8077 88.0234 47.7788V47.5011C87.8925 47.6724 87.7229 47.8103 87.5278 47.9026C87.333 47.9953 87.1189 48.0401 86.9032 48.0333C86.3286 48.0333 85.7421 47.7044 85.7421 47.0708ZM88.0234 46.8315V46.5329C87.7282 46.4452 87.4213 46.4007 87.1132 46.4007C86.532 46.4007 86.2095 46.6522 86.2095 47.0411V47.0533C86.2095 47.4423 86.5682 47.6694 86.9873 47.6694C87.5563 47.6694 88.0234 47.3219 88.0234 46.8315Z" fill="#182958"/>
<path d="M79.8444 11.0672C79.3196 11.0672 78.8164 10.859 78.4452 10.4882C78.0739 10.1175 77.8651 9.61471 77.8651 9.09045C77.8651 7.72836 77.3235 6.42204 76.359 5.45887C75.3944 4.49569 74.0864 3.95461 72.7225 3.95461C71.3586 3.95461 70.0506 4.49569 69.0865 5.45887C68.1219 6.42204 67.5799 7.72836 67.5799 9.09045C67.5864 9.35387 67.5396 9.61589 67.443 9.86108C67.3464 10.1063 67.2015 10.3297 67.0174 10.5182C66.8329 10.7067 66.6127 10.8565 66.3697 10.9588C66.1263 11.061 65.865 11.1137 65.6014 11.1137C65.3374 11.1137 65.0761 11.061 64.8331 10.9588C64.5901 10.8565 64.3699 10.7067 64.1854 10.5182C64.0009 10.3297 63.8564 10.1063 63.7594 9.86108C63.6628 9.61589 63.6164 9.35387 63.6225 9.09045C63.6487 6.69663 64.6194 4.40977 66.3237 2.72629C68.028 1.04281 70.3283 0.0985794 72.7256 0.0985794C75.1225 0.0985794 77.4228 1.04281 79.1271 2.72629C80.8314 4.40977 81.8021 6.69663 81.8283 9.09045C81.8283 9.35042 81.777 9.60784 81.6773 9.84794C81.5777 10.0881 81.4312 10.3062 81.2471 10.4898C81.0627 10.6734 80.844 10.8189 80.6036 10.918C80.3628 11.0171 80.105 11.0678 79.8444 11.0672Z" fill="#182958"/>
<path d="M58.4723 9.91V38.3693H86.9686V9.91L72.7207 24.1396L58.4723 9.91Z" fill="#009EA9"/>
<path d="M86.9687 40.3449H58.4723C58.2125 40.3449 57.955 40.294 57.715 40.1948C57.475 40.0957 57.2571 39.9502 57.073 39.7663C56.8893 39.5829 56.7436 39.3652 56.6444 39.1255C56.5451 38.8855 56.4941 38.6287 56.4941 38.3693V9.91C56.4938 9.5191 56.6098 9.13687 56.8269 8.81176C57.0445 8.48665 57.3533 8.23321 57.715 8.08359C58.0767 7.93397 58.4746 7.89485 58.8587 7.97116C59.2425 8.04751 59.5951 8.23587 59.872 8.5124L72.7207 21.3444L85.5694 8.5124C85.8459 8.23587 86.1985 8.04751 86.5826 7.97116C86.9664 7.89485 87.3642 7.93397 87.7259 8.08359C88.0876 8.23321 88.3968 8.48665 88.614 8.81176C88.8312 9.13687 88.9472 9.5191 88.9472 9.91V38.3693C88.9472 38.8931 88.7388 39.3956 88.3676 39.7663C87.9967 40.1367 87.4935 40.3449 86.9687 40.3449ZM60.4505 36.3881H84.9894V14.6809L74.1199 25.5372C73.9362 25.7209 73.7183 25.8665 73.4779 25.9659C73.2379 26.0653 72.9804 26.1165 72.7207 26.1165C72.4605 26.1165 72.2034 26.0653 71.963 25.9659C71.723 25.8665 71.5047 25.7209 71.321 25.5372L60.4505 14.6809V36.3881Z" fill="#182958"/>
<path d="M0.327314 32.134V23.449C0.325567 23.1816 0.377024 22.9166 0.478695 22.6693C0.580364 22.422 0.730227 22.1973 0.919569 22.0083C1.10891 21.8193 1.33397 21.6698 1.58166 21.5684C1.82936 21.467 2.09476 21.4157 2.36246 21.4176C2.63043 21.4156 2.89613 21.4668 3.1441 21.5682C3.39207 21.6697 3.61735 21.8194 3.80685 22.0087C3.99633 22.1979 4.14626 22.4229 4.24785 22.6705C4.34948 22.9182 4.40075 23.1836 4.3987 23.4512V32.0313C4.3987 35.0407 5.90538 36.5979 8.39019 36.5979C10.875 36.5979 12.3817 35.0932 12.3817 32.1625V23.449C12.3754 23.1781 12.4235 22.9086 12.5229 22.6564C12.6224 22.4043 12.7713 22.1745 12.961 21.9807C13.1506 21.7868 13.3772 21.6328 13.6273 21.5276C13.8774 21.4225 14.1461 21.3683 14.4174 21.3683C14.6888 21.3683 14.9574 21.4225 15.2076 21.5276C15.4577 21.6328 15.6842 21.7868 15.8738 21.9807C16.0635 22.1745 16.2125 22.4043 16.3119 22.6564C16.4114 22.9086 16.4594 23.1781 16.4531 23.449V32.0029C16.4531 37.5999 13.3074 40.3448 8.3366 40.3448C3.36581 40.3448 0.327314 37.5726 0.327314 32.134Z" fill="#182958"/>
<path d="M39.0147 23.5714C39.0147 23.0324 39.2292 22.5154 39.6107 22.1342C39.9926 21.753 40.5102 21.5389 41.0499 21.5389C41.5896 21.5389 42.1073 21.753 42.4888 22.1342C42.8706 22.5154 43.0852 23.0324 43.0852 23.5714L43.0772 29.7759L50.5942 22.3453C51.0974 21.8449 51.5999 21.5553 52.313 21.5564C53.4498 21.5564 54.1896 22.4306 54.1885 23.4326C54.1885 24.0664 53.8964 24.5407 53.4457 24.9624L48.2319 29.8142L53.9074 36.9497C54.2235 37.3453 54.4612 37.7682 54.46 38.3757C54.46 39.5111 53.5845 40.3547 52.3963 40.3536C51.6029 40.3536 51.1271 39.9559 50.6787 39.3702L45.4003 32.4542L43.0718 34.6157L43.0665 38.3123C43.0661 38.5793 43.0129 38.8433 42.9106 39.0899C42.8079 39.3364 42.6576 39.5601 42.4682 39.7489C42.2792 39.9373 42.0544 40.0866 41.8076 40.1884C41.5604 40.2902 41.2956 40.3426 41.0286 40.3422C40.7613 40.3418 40.4965 40.289 40.2501 40.1865C40.0032 40.0839 39.7788 39.9339 39.5902 39.7451C39.4015 39.5559 39.2521 39.3318 39.1501 39.0849C39.0482 38.838 38.9957 38.5736 38.9961 38.307L39.0147 23.5714Z" fill="#182958"/>
<path d="M18.4774 23.6337C18.4752 23.3662 18.5263 23.1009 18.6278 22.8533C18.7293 22.6057 18.8792 22.3808 19.0686 22.1916C19.258 22.0024 19.4832 21.8528 19.7311 21.7514C19.979 21.6501 20.2447 21.599 20.5125 21.6012H20.9622C21.3371 21.5952 21.7067 21.6901 22.0322 21.8758C22.3577 22.0615 22.6272 22.3312 22.8125 22.6568L27.7296 30.6556L32.672 22.6306C33.0954 21.9443 33.6764 21.6012 34.496 21.6012H34.9457C35.2135 21.599 35.4791 21.6501 35.727 21.7514C35.975 21.8528 36.2002 22.0024 36.3896 22.1916C36.579 22.3808 36.7288 22.6057 36.8303 22.8533C36.9319 23.1009 36.983 23.3662 36.9808 23.6337V38.3123C36.9808 38.8486 36.7675 39.3626 36.3879 39.7417C36.0083 40.1211 35.4934 40.3338 34.9566 40.3338C34.4197 40.3338 33.9049 40.1211 33.5253 39.7417C33.1457 39.3626 32.9324 38.8486 32.9324 38.3123V29.0984L29.3632 34.5894C28.9409 35.2232 28.4124 35.6188 27.6716 35.6188C26.9309 35.6188 26.4024 35.2232 25.9801 34.5894L22.4689 29.176V38.3636C22.4686 38.626 22.4163 38.8855 22.3149 39.1274C22.2136 39.3694 22.0652 39.5886 21.8783 39.7728C21.6915 39.957 21.47 40.1025 21.2265 40.2009C20.9831 40.2989 20.7226 40.3479 20.46 40.3448C20.199 40.3475 19.9401 40.2977 19.6985 40.199C19.4569 40.1006 19.2374 39.9547 19.0529 39.7705C18.8684 39.5859 18.7226 39.3667 18.6239 39.1255C18.5253 38.884 18.4758 38.6257 18.4785 38.3647L18.4774 23.6337Z" fill="#182958"/>
<path d="M25.0292 10.8957C25.028 10.7608 25.0537 10.6271 25.1049 10.5023C25.1559 10.3775 25.2314 10.2641 25.3268 10.1687C25.4223 10.0733 25.5357 9.99778 25.6607 9.94666C25.7856 9.89549 25.9194 9.86966 26.0544 9.87069H28.838C31.0613 9.87069 32.4061 11.182 32.4061 13.0899V13.1128C32.4061 15.2677 30.7287 16.3845 28.6377 16.3845H27.0797V18.2334C27.0797 18.5049 26.9717 18.7654 26.7794 18.9574C26.5871 19.1494 26.3263 19.2573 26.0544 19.2573C25.7825 19.2573 25.5218 19.1494 25.3295 18.9574C25.1372 18.7654 25.0292 18.5049 25.0292 18.2334V10.8957ZM28.7045 14.5661C29.7297 14.5661 30.3294 13.9542 30.3294 13.1565V13.1292C30.3294 12.2113 29.6903 11.7196 28.664 11.7196H27.0797V14.5661H28.7045Z" fill="#009EA9"/>
<path d="M33.8361 17.0795V17.0532C33.8361 15.4972 35.021 14.7781 36.7126 14.7781C37.307 14.7731 37.8977 14.8723 38.4579 15.071V14.9519C38.4579 14.1138 37.938 13.6483 36.926 13.6483C36.4524 13.6433 35.9809 13.7104 35.5276 13.8471C35.4338 13.8821 35.3345 13.9002 35.2344 13.9007C35.1248 13.9026 35.0158 13.8826 34.9141 13.842C34.8122 13.8014 34.7196 13.7409 34.6414 13.6641C34.5633 13.5872 34.5013 13.4957 34.459 13.3946C34.4167 13.2936 34.395 13.1852 34.3952 13.0757C34.3955 12.9048 34.4481 12.7382 34.5459 12.598C34.6436 12.4578 34.7819 12.3507 34.9422 12.2911C35.5823 12.0518 36.2749 11.9195 37.2203 11.9195C38.3255 11.9195 39.1243 12.2113 39.6275 12.7173C40.1592 13.2494 40.3988 14.034 40.3988 14.9912V18.2367C40.3992 18.3652 40.3737 18.4926 40.3239 18.6112C40.2744 18.7299 40.2018 18.8375 40.1101 18.9278C40.0184 19.0181 39.9097 19.0893 39.7902 19.1372C39.6708 19.1852 39.543 19.2089 39.4141 19.207C38.8276 19.207 38.4415 18.795 38.4415 18.3689V18.358C37.949 18.9043 37.2695 19.2627 36.2848 19.2627C34.9411 19.2605 33.8361 18.4891 33.8361 17.0795ZM38.4841 16.6096V16.2501C38.0772 16.0712 37.6366 15.9807 37.1919 15.9845C36.3263 15.9845 35.7935 16.3298 35.7935 16.968V16.9942C35.7935 17.5406 36.2465 17.8586 36.8997 17.8586C37.8451 17.864 38.4841 17.345 38.4841 16.6096Z" fill="#009EA9"/>
<path d="M41.8312 10.9754C41.8301 10.8406 41.8559 10.7069 41.9069 10.5821C41.9579 10.4572 42.0336 10.3439 42.129 10.2484C42.2241 10.1531 42.3378 10.0776 42.4626 10.0264C42.5877 9.97526 42.7216 9.94943 42.8566 9.95045H45.4673C48.3963 9.95045 50.4205 11.9589 50.4205 14.5793V14.6055C50.4205 17.2281 48.3963 19.2605 45.4673 19.2605H42.8566C42.7216 19.2616 42.5877 19.2358 42.463 19.1847C42.3382 19.1336 42.2245 19.0582 42.1294 18.9629C42.0339 18.8677 41.9582 18.7543 41.9073 18.6297C41.8559 18.505 41.8301 18.3714 41.8312 18.2367V10.9754ZM45.4673 17.4116C47.1446 17.4116 48.2769 16.2817 48.2769 14.6317V14.6055C48.2769 12.9565 47.1446 11.7993 45.4673 11.7993H43.8828V17.4116H45.4673Z" fill="#009EA9"/>
<path d="M51.8506 10.3504C51.8506 9.76467 52.3427 9.40515 52.9829 9.40515C53.623 9.40515 54.1144 9.76467 54.1144 10.3504V10.381C54.1144 10.9656 53.6218 11.3382 52.9829 11.3382C52.3439 11.3382 51.8506 10.9656 51.8506 10.381V10.3504ZM51.9708 12.9828C51.9708 12.7147 52.0773 12.4576 52.2674 12.268C52.4572 12.0785 52.7143 11.972 52.9829 11.972C53.2514 11.972 53.5089 12.0785 53.6987 12.268C53.8885 12.4576 53.995 12.7147 53.995 12.9828V18.2487C53.995 18.5168 53.8885 18.7738 53.6987 18.9634C53.5089 19.153 53.2514 19.2594 52.9829 19.2594C52.7143 19.2594 52.4572 19.153 52.2674 18.9634C52.0773 18.7738 51.9708 18.5168 51.9708 18.2487V12.9828Z" fill="#009EA9"/>
</g>
</g>
<defs>
<clipPath id="clip0_11763_415">
<rect width="89" height="49" fill="white"/>
</clipPath>
</defs>
</svg>
