<svg width="139" height="42" viewBox="0 0 139 42" fill="none" xmlns="http://www.w3.org/2000/svg">
<g clip-path="url(#clip0_11946_2637)">
<path fill-rule="evenodd" clip-rule="evenodd" d="M0.920756 28.4351C0.920756 26.4344 0.886207 24.7544 0.78009 23.2551H4.50526L4.68171 25.8299H4.78536C5.62689 24.4719 7.17421 22.8606 10.0554 22.8606C12.3048 22.8606 14.0607 24.1499 14.7973 26.0768H14.8701C15.4661 25.1121 16.1669 24.398 16.9752 23.9004C17.924 23.2208 19.0148 22.8606 20.4178 22.8606C23.2644 22.8606 26.1431 24.8257 26.1431 30.4028V40.6533H21.9293V31.0417C21.9293 28.15 20.9459 26.4344 18.8729 26.4344C17.3971 26.4344 16.3064 27.506 15.8511 28.7571C15.7462 29.1822 15.6413 29.7206 15.6413 30.2182V40.6521H11.425V30.5746C11.425 28.1501 10.4774 26.4331 8.47352 26.4331C6.85956 26.4331 5.77125 27.7186 5.38134 28.934C5.20612 29.3617 5.13579 29.8631 5.13579 30.3608V40.6521H0.920756V28.4351Z" fill="#003D79"/>
<path d="M42.8453 36.2728C42.8453 37.8434 42.9144 39.3783 43.0871 40.4512H39.225L38.9474 38.523H38.8425C37.7986 39.8823 36.0242 40.8432 33.8365 40.8432C30.4248 40.8432 28.5122 38.3104 28.5122 35.6632C28.5122 31.2672 32.3003 29.0564 38.5661 29.0908V28.8057C38.5661 27.6615 38.112 25.769 35.121 25.769C33.4503 25.769 31.7117 26.3048 30.563 27.0544L29.7288 24.1959C30.9813 23.4094 33.1727 22.6584 35.849 22.6584C41.2782 22.6584 42.8453 26.1992 42.8453 29.983V36.2728ZM38.6697 31.9519C35.6417 31.8781 32.7556 32.5564 32.7556 35.1999C32.7556 36.9155 33.8365 37.7021 35.1914 37.7021C36.8942 37.7021 38.1478 36.5554 38.5303 35.3055C38.634 34.9835 38.6697 34.6284 38.6697 34.3434V31.9519Z" fill="#003D79"/>
<path fill-rule="evenodd" clip-rule="evenodd" d="M45.6746 28.4351C45.6746 26.4344 45.6376 24.7544 45.5377 23.2551H49.3258L49.5355 25.8668H49.6441C50.3795 24.5075 52.2415 22.8606 55.0856 22.8606C58.0717 22.8606 61.1602 24.8257 61.1602 30.3302V40.6521H56.8415V30.8317C56.8415 28.3282 55.9272 26.4344 53.5753 26.4344C51.8565 26.4344 50.6609 27.6842 50.2055 29.0079C50.0661 29.3999 50.0291 29.9357 50.0291 30.4333V40.6533H45.6746V28.4351Z" fill="#003D79"/>
<path d="M80.6153 16.3672V36.2892C80.6153 38.113 80.6893 40.087 80.7609 41.291H76.7827L76.6014 38.4808H76.5273C75.4785 40.4536 73.3438 41.6919 70.7761 41.6919C66.5771 41.6919 63.2505 38.0774 63.2505 32.6046C63.2134 26.6508 66.9028 23.1076 71.1364 23.1076C73.5598 23.1076 75.2971 24.1296 76.093 25.4494H76.167V16.3672H80.6153ZM76.167 30.9208C76.167 30.5581 76.13 30.119 76.056 29.7525C75.6599 28.0037 74.2508 26.5783 72.2234 26.5783C69.3645 26.5783 67.7703 29.1339 67.7703 32.4557C67.7703 35.7025 69.3645 38.0774 72.1877 38.0774C73.9929 38.0774 75.5871 36.8365 76.0202 34.8994C76.1312 34.4997 76.167 34.0594 76.167 33.5859V30.9208Z" fill="#003D79"/>
<path fill-rule="evenodd" clip-rule="evenodd" d="M83.0399 23.5454H88.0126V40.9742H83.0399V23.5454ZM91.412 28.672C91.412 26.2182 91.3774 24.4707 91.2763 22.8365H94.9792L95.115 26.2894H95.2556C96.086 23.7287 98.0566 22.8365 99.8606 22.8365C100.274 22.8365 100.516 22.7627 100.86 22.8365V26.8507C100.452 26.754 100.036 26.7045 99.6175 26.7031C97.5729 26.7031 96.1872 28.1132 95.8084 30.1534C95.7243 30.6208 95.6785 31.0947 95.6714 31.57V40.9309H91.412V28.672ZM102.929 23.5454H107.902V40.9742H102.929V23.5454Z" fill="#003D79"/>
<path fill-rule="evenodd" clip-rule="evenodd" d="M102.256 1.70291C98.5136 3.9314 94.7679 6.15316 91.0184 8.36818C87.7905 9.74527 85.3177 8.06782 84.5157 6.83836C84.4803 6.79204 84.4489 6.74264 84.4219 6.69073L84.3158 6.50363L83.7704 5.58345C83.5384 5.20163 83.2793 4.81091 82.9819 4.40872C82.7166 4.05745 82.4229 3.70873 82.1021 3.37273C80.0292 1.20654 76.7136 -0.315638 71.1882 2.40291C67.8455 4.37564 60.0756 8.974 60.0756 8.974L60.0744 8.97654L54.3848 12.3391L57.3277 16.0784C58.5665 17.2989 60.8949 19.3009 64.4955 17.612C64.4955 17.612 74.4346 11.6582 74.4741 11.6404C82.9708 6.81672 87.1649 11.4265 89.017 14.4989C89.0811 14.5944 89.1354 14.6987 89.1922 14.7916L89.1959 14.7967C89.2181 14.8336 89.2341 14.868 89.2526 14.9036L89.4636 15.26C90.3656 16.6753 91.7908 17.5878 93.4874 17.5471C94.4252 17.528 95.0606 17.2111 95.9848 16.6791L105.602 10.9098C105.608 10.9073 105.613 10.9035 105.623 10.9009C114.224 6.01745 118.489 10.9289 120.31 14.0013C120.451 14.2685 120.614 14.5205 120.777 14.7585C121.677 16.0224 122.924 16.8522 124.502 16.8115C125.543 16.7898 126.715 16.142 126.887 16.0224L138.418 9.13945C138.418 9.13945 137.238 7.29909 134.812 4.42782C132.643 1.86836 130.337 3.02782 128.503 3.96964C127.733 4.36291 122.167 7.62745 122.167 7.62745C119.118 8.92945 116.743 7.50909 115.81 6.314C115.714 6.18673 115.631 6.06963 115.568 5.95509L115.354 5.56563C115.019 4.98145 114.621 4.32473 114.129 3.67436C113.867 3.32182 113.574 2.96927 113.251 2.63709C111.969 1.29691 110.216 0.204906 107.761 0.203634C106.22 0.203634 104.405 0.633818 102.256 1.70291Z" fill="url(#paint0_linear_11946_2637)"/>
</g>
<defs>
<linearGradient id="paint0_linear_11946_2637" x1="-14.2701" y1="-881.79" x2="7523.71" y2="-4269.16" gradientUnits="userSpaceOnUse">
<stop stop-color="#FDB913"/>
<stop offset="0.22472" stop-color="#FFCB05"/>
<stop offset="0.39326" stop-color="#FAA61A"/>
<stop offset="0.52809" stop-color="#FFCB05"/>
<stop offset="0.64607" stop-color="#FAA61A"/>
<stop offset="0.76404" stop-color="#FFCB05"/>
<stop offset="1" stop-color="#FFCB05"/>
</linearGradient>
<clipPath id="clip0_11946_2637">
<rect width="138.198" height="42" fill="white" transform="translate(0.5)"/>
</clipPath>
</defs>
</svg>
