<svg width="48" height="16" viewBox="0 0 48 16" fill="none" xmlns="http://www.w3.org/2000/svg">
<g clip-path="url(#clip0_11946_573)">
<path d="M11.7945 0.713338C10.759 0.211691 10.3262 0.11569 8.87631 0.0578081C6.99362 -7.42301e-05 5.90184 0.231455 4.62179 1.00228C3.45434 1.71569 2.07923 3.2771 1.47704 4.58816C1.02529 5.59051 0.968994 5.89828 0.968994 7.90298C0.987452 9.88887 1.04421 10.2357 1.47751 11.2187C2.41885 13.2813 4.33893 14.9778 6.37251 15.5369C9.25285 16.3275 12.1147 15.5176 14.0916 13.3392C15.522 11.7778 16.1247 10.1778 16.1247 7.90298C16.1247 4.6644 14.5807 2.10063 11.7945 0.712396V0.713338ZM6.61708 3.06487C7.61472 2.60228 9.38483 2.60228 10.3825 3.06487C12.7358 4.1444 13.8844 7.49875 12.83 10.1204C12.4156 11.0842 11.2675 12.3369 10.3825 12.742C9.44112 13.1853 7.70886 13.2046 6.74905 12.8192C5.78879 12.3952 4.67809 11.2578 4.20741 10.2169C3.71782 9.11804 3.67998 6.8051 4.11328 5.76369C4.54612 4.76134 5.73203 3.46957 6.61708 3.06487ZM42.4446 0.269573C41.2402 -0.0579566 39.3008 -0.0579566 38.1333 0.269573C36.42 0.732632 34.6314 2.15898 33.6901 3.79757C32.4857 5.91804 32.3537 9.23381 33.4076 11.4315C34.6314 13.9566 36.9285 15.5566 39.6205 15.7491C43.0283 15.9999 45.7965 14.3999 47.2455 11.3929C47.8103 10.1783 47.8481 10.0046 47.8481 7.90345C47.8481 5.78298 47.8103 5.60934 47.2455 4.41451C46.2478 2.33263 44.4971 0.828632 42.4446 0.269573ZM38.4346 3.06487C39.4323 2.60228 41.2024 2.58298 42.2 3.06487C43.0851 3.46957 44.2331 4.72275 44.6475 5.68651C45.7393 8.38534 44.5155 11.759 42.068 12.8192C41.1082 13.2239 39.376 13.1853 38.4346 12.742C36.6272 11.894 35.629 10.1397 35.629 7.90345C35.629 5.66722 36.6272 3.91287 38.4346 3.06487ZM22.8646 1.67663L22.8083 2.98769L22.1872 3.04557C21.6786 3.10346 21.5845 3.18063 21.6786 3.43145C22.3939 5.45498 24.8981 11.142 24.9918 11.0456C25.0864 10.9303 27.2889 5.51334 28.1176 3.33498C28.1739 3.19993 27.9668 3.08416 27.5713 3.04557L26.9502 2.98769L26.8939 1.6771L26.8371 0.385338H31.7511V1.11804C31.7511 1.61922 31.0358 3.58534 29.3792 7.53687C28.0798 10.6602 26.7998 13.8023 26.5174 14.5157L26.0088 15.8456L25.1053 15.7491C24.4086 15.6917 24.0509 15.5373 23.6555 15.1133C23.2979 14.7467 22.2813 12.5877 20.7184 8.86722C19.9113 6.95131 19.1018 5.03648 18.2898 3.12275C18.252 3.08416 17.9133 3.04557 17.5178 3.02628L16.7836 2.9684L16.7273 1.6771L16.6701 0.385338H22.9209L22.8641 1.6771L22.8646 1.67663Z" fill="#4C3494"/>
</g>
<defs>
<clipPath id="clip0_11946_573">
<rect width="47.0674" height="16" fill="white" transform="translate(0.875)"/>
</clipPath>
</defs>
</svg>
