<svg width="41" height="40" viewBox="0 0 41 40" fill="none" xmlns="http://www.w3.org/2000/svg">
<path d="M28 15.6666L13 7.0166" stroke="#0092AC" stroke-width="2.5" stroke-linecap="round" stroke-linejoin="round"/>
<path d="M35.5 26.6668V13.3335C35.4994 12.749 35.3451 12.1748 35.0526 11.6688C34.76 11.1627 34.3396 10.7424 33.8333 10.4502L22.1667 3.7835C21.6599 3.49093 21.0851 3.33691 20.5 3.33691C19.9149 3.33691 19.3401 3.49093 18.8333 3.7835L7.16667 10.4502C6.66044 10.7424 6.23997 11.1627 5.94744 11.6688C5.6549 12.1748 5.5006 12.749 5.5 13.3335V26.6668C5.5006 27.2514 5.6549 27.8255 5.94744 28.3316C6.23997 28.8376 6.66044 29.2579 7.16667 29.5502L18.8333 36.2168C19.3401 36.5094 19.9149 36.6634 20.5 36.6634C21.0851 36.6634 21.6599 36.5094 22.1667 36.2168L33.8333 29.5502C34.3396 29.2579 34.76 28.8376 35.0526 28.3316C35.3451 27.8255 35.4994 27.2514 35.5 26.6668Z" stroke="#0092AC" stroke-width="2.5" stroke-linecap="round" stroke-linejoin="round"/>
<path d="M5.94998 11.6001L20.5 20.0168L35.05 11.6001" stroke="#0092AC" stroke-width="2.5" stroke-linecap="round" stroke-linejoin="round"/>
<path d="M20.5 36.8V20" stroke="#0092AC" stroke-width="2.5" stroke-linecap="round" stroke-linejoin="round"/>
</svg>
