<svg width="29" height="25" viewBox="0 0 29 25" fill="none" xmlns="http://www.w3.org/2000/svg">
<path d="M20.5215 1.5C20.5215 1.5 20.9585 4.306 21.0215 5.25C21.1405 7.041 19.5665 8.5 17.7715 8.5C15.9765 8.5 14.5215 7.045 14.5215 5.25C14.5215 7.045 13.0665 8.5 11.2715 8.5C9.47651 8.5 7.90251 7.041 8.02151 5.25C8.08451 4.306 8.52151 1.5 8.52151 1.5" stroke="#0092AC" stroke-width="2" stroke-miterlimit="10" stroke-linecap="round" stroke-linejoin="round"/>
<path d="M14.5215 1.5V5.5" stroke="#0092AC" stroke-width="2" stroke-miterlimit="10" stroke-linecap="round" stroke-linejoin="round"/>
<path d="M21.0216 5.25C21.0216 7.045 22.4766 8.5 24.2716 8.5C26.0666 8.5 27.7546 7.03 27.5216 5.25C27.3956 4.288 25.5216 1.5 25.5216 1.5H3.52162C3.52162 1.5 1.64762 4.288 1.52162 5.25C1.28862 7.03 2.97662 8.5 4.77162 8.5C6.56662 8.5 8.02162 7.045 8.02162 5.25" stroke="#0092AC" stroke-width="2" stroke-miterlimit="10" stroke-linecap="round" stroke-linejoin="round"/>
<path d="M1.52151 23.5H27.5215" stroke="#0092AC" stroke-width="2" stroke-miterlimit="10" stroke-linecap="round" stroke-linejoin="round"/>
<path d="M21.5215 11.5H7.52151V19.5H21.5215V11.5Z" stroke="#0092AC" stroke-width="2" stroke-miterlimit="10" stroke-linecap="round" stroke-linejoin="round"/>
<path d="M25.5215 23.5V8.5" stroke="#0092AC" stroke-width="2" stroke-miterlimit="10" stroke-linecap="round" stroke-linejoin="round"/>
<path d="M3.52151 8.5V23.5" stroke="#0092AC" stroke-width="2" stroke-miterlimit="10" stroke-linecap="round" stroke-linejoin="round"/>
</svg>
