<svg width="41" height="40" viewBox="0 0 41 40" fill="none" xmlns="http://www.w3.org/2000/svg">
<path d="M10.5 3.3335L5.5 10.0002V33.3335C5.5 34.2176 5.85119 35.0654 6.47631 35.6905C7.10143 36.3156 7.94928 36.6668 8.83333 36.6668H32.1667C33.0507 36.6668 33.8986 36.3156 34.5237 35.6905C35.1488 35.0654 35.5 34.2176 35.5 33.3335V10.0002L30.5 3.3335H10.5Z" stroke="#0092AC" stroke-width="2.5" stroke-linecap="round" stroke-linejoin="round"/>
<path d="M5.5 10H35.5" stroke="#0092AC" stroke-width="2.5" stroke-linecap="round" stroke-linejoin="round"/>
<path d="M27.1666 16.6665C27.1666 18.4346 26.4643 20.1303 25.214 21.3805C23.9638 22.6308 22.2681 23.3332 20.5 23.3332C18.7319 23.3332 17.0362 22.6308 15.7859 21.3805C14.5357 20.1303 13.8333 18.4346 13.8333 16.6665" stroke="#0092AC" stroke-width="2.5" stroke-linecap="round" stroke-linejoin="round"/>
</svg>
