<svg width="33" height="41" viewBox="0 0 33 41" fill="none" xmlns="http://www.w3.org/2000/svg">
<path d="M1.97803 9.81055V38.2698H30.4744V9.81055L16.2264 24.0401L1.97803 9.81055Z" fill="#009EA9"/>
<path d="M23.3504 10.9686C22.8256 10.9686 22.3224 10.7604 21.9511 10.3897C21.5799 10.0189 21.3711 9.51613 21.3711 8.99187C21.3711 7.62979 20.8295 6.32346 19.865 5.36029C18.9004 4.39712 17.5924 3.85603 16.2285 3.85603C14.8646 3.85603 13.5566 4.39712 12.5925 5.36029C11.6279 6.32346 11.0859 7.62979 11.0859 8.99187C11.0924 9.25529 11.0456 9.51731 10.949 9.7625C10.8524 10.0077 10.7075 10.2311 10.5234 10.4196C10.3389 10.6081 10.1187 10.7579 9.87567 10.8602C9.63225 10.9624 9.37096 11.0151 9.10738 11.0151C8.84342 11.0151 8.58213 10.9624 8.33909 10.8602C8.09605 10.7579 7.87584 10.6081 7.69137 10.4196C7.5069 10.2311 7.36237 10.0077 7.26538 9.7625C7.16878 9.51731 7.12237 9.25529 7.12846 8.99187C7.1547 6.59805 8.12534 4.31119 9.82965 2.62771C11.534 0.944226 13.8343 0 16.2316 0C18.6285 0 20.9288 0.944226 22.6331 2.62771C24.3374 4.31119 25.308 6.59805 25.3343 8.99187C25.3343 9.25184 25.2829 9.50926 25.1833 9.74936C25.0836 9.9895 24.9372 10.2076 24.7531 10.3912C24.5687 10.5748 24.35 10.7204 24.1096 10.8194C23.8688 10.9185 23.611 10.9692 23.3504 10.9686Z" fill="#182958"/>
<path d="M30.4745 40.2457H1.97815C1.71838 40.2457 1.46089 40.1948 1.2209 40.0957C0.980899 39.9965 0.762968 39.851 0.578883 39.6672C0.395177 39.4837 0.249501 39.2661 0.150232 39.0264C0.0509626 38.7863 9.32277e-07 38.5296 9.32277e-07 38.2701V9.81084C-0.00037941 9.41994 0.115625 9.03771 0.3328 8.7126C0.550356 8.38749 0.85919 8.13405 1.2209 7.98443C1.5826 7.83481 1.98044 7.79569 2.36458 7.872C2.74835 7.94835 3.10093 8.13671 3.37782 8.41324L16.2265 21.2452L29.0752 8.41324C29.3517 8.13671 29.7043 7.94835 30.0885 7.872C30.4722 7.79569 30.8701 7.83481 31.2318 7.98443C31.5935 8.13405 31.9027 8.38749 32.1199 8.7126C32.337 9.03771 32.453 9.41994 32.453 9.81084V38.2701C32.453 38.7939 32.2446 39.2965 31.8734 39.6672C31.5026 40.0375 30.9994 40.2457 30.4745 40.2457ZM3.95631 36.2889H28.4952V14.5817L17.6258 25.438C17.4421 25.6217 17.2242 25.7674 16.9838 25.8668C16.7438 25.9661 16.4863 26.0173 16.2265 26.0173C15.9664 26.0173 15.7093 25.9661 15.4689 25.8668C15.2289 25.7674 15.0106 25.6217 14.8269 25.438L3.95631 14.5817V36.2889Z" fill="#182958"/>
</svg>
