<svg width="29" height="28" viewBox="0 0 29 28" fill="none" xmlns="http://www.w3.org/2000/svg">
<g clip-path="url(#clip0_11953_450)">
<path d="M14.5 28C22.232 28 28.5 21.732 28.5 14C28.5 6.26801 22.232 0 14.5 0C6.76801 0 0.5 6.26801 0.5 14C0.5 21.732 6.76801 28 14.5 28Z" fill="#0E0F11"/>
<path d="M5.87616 5.88867L12.568 14.8361L5.83398 22.1108H7.34966L13.2454 15.7416L18.0088 22.1108H23.1664L16.0979 12.6602L22.3659 5.88867H20.8503L15.4208 11.7545L11.0337 5.88867H5.87616ZM8.10503 7.005H10.4744L20.9372 20.9945H18.5679L8.10503 7.005Z" fill="white"/>
</g>
<defs>
<clipPath id="clip0_11953_450">
<rect width="28" height="28" fill="white" transform="translate(0.5)"/>
</clipPath>
</defs>
</svg>
