<svg width="1439" height="141" viewBox="0 0 1439 141" fill="none" xmlns="http://www.w3.org/2000/svg">
<g clip-path="url(#clip0_12404_43717)">
<mask id="mask0_12404_43717" style="mask-type:luminance" maskUnits="userSpaceOnUse" x="-1" y="-39" width="1440" height="180">
<path d="M-1 140.742H1439V-38.6908H-1V140.742Z" fill="white"/>
</mask>
<g mask="url(#mask0_12404_43717)">
<path d="M-1 110.742C27.1649 120.742 97.6966 140.742 154.506 140.742C225.517 140.742 338.775 42.2422 420.573 36.242C502.371 30.242 655.18 63.7422 754.056 59.7422C833.157 56.5422 968.587 19.076 1026.42 0.742004" stroke="#99D3DE"/>
<path d="M-1 102.742C27.1649 112.742 97.6966 132.742 154.506 132.742C225.517 132.742 338.775 34.242 420.573 28.242C502.371 22.242 655.18 55.7422 754.056 51.7422C833.157 48.5422 968.587 11.076 1026.42 -7.258" stroke="#99D3DE"/>
<path d="M-1 94.7422C27.1649 104.742 97.6966 124.742 154.506 124.742C225.517 124.742 338.775 26.242 420.573 20.242C502.371 14.242 655.18 47.7422 754.056 43.7422C833.157 40.542 968.587 3.07599 1026.42 -15.258" stroke="#99D3DE"/>
<path d="M-1 86.7422C27.1649 96.7422 97.6966 116.742 154.506 116.742C225.517 116.742 338.775 18.242 420.573 12.242C502.371 6.24199 655.18 39.742 754.056 35.742C833.157 32.542 968.587 -4.92401 1026.42 -23.258" stroke="#99D3DE"/>
<path d="M-1 78.7422C27.1649 88.7422 97.6966 108.742 154.506 108.742C225.517 108.742 338.775 10.242 420.573 4.24199C502.371 -1.75801 655.18 31.742 754.056 27.742C833.157 24.542 968.587 -12.924 1026.42 -31.258" stroke="#99D3DE"/>
<path d="M-1 70.7422C27.1649 80.7422 97.6966 100.742 154.506 100.742C225.517 100.742 338.775 2.24199 420.573 -3.75801C502.371 -9.75801 655.18 23.742 754.056 19.742C833.157 16.542 968.587 -20.924 1026.42 -39.258" stroke="#99D3DE"/>
<path d="M-1 62.7422C27.1649 72.7422 97.6966 92.7422 154.506 92.7422C225.517 92.7422 338.775 -5.75801 420.573 -11.758C502.371 -17.758 655.18 15.742 754.056 11.742C833.157 8.54199 968.587 -28.924 1026.42 -47.258" stroke="#99D3DE"/>
<path d="M-1 54.7422C27.1649 64.7422 97.6966 84.7422 154.506 84.7422C225.517 84.7422 338.775 -13.758 420.573 -19.758C502.371 -25.758 655.18 7.74199 754.056 3.74199C833.157 0.541989 968.587 -36.924 1026.42 -55.258" stroke="#99D3DE"/>
<path d="M-1 46.7422C27.1649 56.7422 97.6966 76.7422 154.506 76.7422C225.517 76.7422 338.775 -21.758 420.573 -27.758C502.371 -33.758 655.18 -0.258011 754.056 -4.25801C833.157 -7.45801 968.587 -44.924 1026.42 -63.258" stroke="#99D3DE"/>
<path d="M-1 38.742C27.1649 48.7422 97.6966 68.7422 154.506 68.7422C225.517 68.7422 338.775 -29.758 420.573 -35.758C502.371 -41.758 655.18 -8.25801 754.056 -12.258C833.157 -15.458 968.587 -52.924 1026.42 -71.258" stroke="#99D3DE"/>
<path d="M-1 30.742C27.1649 40.742 97.6966 60.7422 154.506 60.7422C225.517 60.7422 338.775 -37.758 420.573 -43.758C502.371 -49.758 655.18 -16.258 754.056 -20.258C833.157 -23.458 968.587 -60.924 1026.42 -79.258" stroke="#99D3DE"/>
<path d="M-1 22.742C27.1649 32.742 97.6966 52.7422 154.506 52.7422C225.517 52.7422 338.775 -45.758 420.573 -51.758C502.371 -57.758 655.18 -24.258 754.056 -28.258C833.157 -31.458 968.587 -68.924 1026.42 -87.258" stroke="#99D3DE"/>
<path d="M-1 14.742C27.1649 24.742 97.6966 44.7422 154.506 44.7422C225.517 44.7422 338.775 -53.758 420.573 -59.758C502.371 -65.758 655.18 -32.258 754.056 -36.258C833.157 -39.458 968.587 -76.924 1026.42 -95.258" stroke="#99D3DE"/>
<path d="M-1 6.7422C27.1649 16.7422 97.6966 36.7422 154.506 36.7422C225.517 36.7422 338.775 -61.7578 420.573 -67.7578C502.371 -73.7578 655.18 -40.2578 754.056 -44.2578C833.157 -47.4578 968.587 -84.9238 1026.42 -103.258" stroke="#99D3DE"/>
<path d="M-1 -1.2578C27.1649 8.7422 97.6966 28.7422 154.506 28.7422C225.517 28.7422 338.775 -69.7578 420.573 -75.7578C502.371 -81.7578 655.18 -48.2578 754.056 -52.2578C833.157 -55.4578 968.587 -92.9238 1026.42 -111.258" stroke="#99D3DE"/>
<path d="M-1 -9.2578C27.1649 0.742195 97.6966 20.7422 154.506 20.7422C225.517 20.7422 338.775 -77.7578 420.573 -83.7578C502.371 -89.7578 655.18 -56.2578 754.056 -60.2578C833.157 -63.4578 968.587 -100.924 1026.42 -119.258" stroke="#99D3DE"/>
<path d="M-1 -17.2578C27.1649 -7.25781 97.6966 12.7422 154.506 12.7422C225.517 12.7422 338.775 -85.7578 420.573 -91.7578C502.371 -97.7578 655.18 -64.2578 754.056 -68.2578C833.157 -71.4578 968.587 -108.924 1026.42 -127.258" stroke="#99D3DE"/>
<path d="M-1 -25.2578C27.1649 -15.2578 97.6966 4.74219 154.506 4.74219C225.517 4.74219 338.775 -93.7578 420.573 -99.7578C502.371 -105.758 655.18 -72.2578 754.056 -76.2578C833.157 -79.4578 968.587 -116.924 1026.42 -135.258" stroke="#99D3DE"/>
</g>
</g>
<defs>
<clipPath id="clip0_12404_43717">
<rect width="1440" height="141" fill="white" transform="matrix(1 0 0 -1 -1 141)"/>
</clipPath>
</defs>
</svg>
