<svg width="1027" height="265" viewBox="0 0 1027 265" fill="none" xmlns="http://www.w3.org/2000/svg">
<path d="M1028 56.8673C999.835 38.073 929.303 0.484375 872.494 0.484375C801.483 0.484375 688.225 185.608 606.427 196.885C524.629 208.162 371.82 145.201 272.944 152.718C193.843 158.733 58.4126 229.148 0.584242 263.605" stroke="#99D3DE"/>
<path d="M1028 71.9025C999.835 53.1082 929.303 15.5195 872.494 15.5195C801.483 15.5195 688.225 200.644 606.427 211.921C524.629 223.197 371.82 160.236 272.944 167.754C193.843 173.768 58.4126 244.183 0.584242 278.64" stroke="#99D3DE"/>
<path d="M1028 86.9377C999.835 68.1433 929.303 30.5547 872.494 30.5547C801.483 30.5547 688.225 215.679 606.427 226.956C524.629 238.232 371.82 175.271 272.944 182.789C193.843 188.803 58.4126 259.218 0.584242 293.676" stroke="#99D3DE"/>
<path d="M1028 101.973C999.835 83.1785 929.303 45.5898 872.494 45.5898C801.483 45.5898 688.225 230.714 606.427 241.991C524.629 253.268 371.82 190.307 272.944 197.824C193.843 203.838 58.4126 274.253 0.584242 308.711" stroke="#99D3DE"/>
<path d="M1028 117.01C999.835 98.2156 929.303 60.627 872.494 60.627C801.483 60.627 688.225 245.751 606.427 257.028C524.629 268.305 371.82 205.344 272.944 212.861C193.843 218.876 58.4126 289.29 0.584242 323.748" stroke="#99D3DE"/>
<path d="M1028 132.045C999.835 113.251 929.303 75.6621 872.494 75.6621C801.483 75.6621 688.225 260.787 606.427 272.063C524.629 283.34 371.82 220.379 272.944 227.897C193.843 233.911 58.4126 304.326 0.584242 338.783" stroke="#99D3DE"/>
<path d="M1028 147.08C999.835 128.286 929.303 90.6973 872.494 90.6973C801.483 90.6973 688.225 275.822 606.427 287.098C524.629 298.375 371.82 235.414 272.944 242.932C193.843 248.946 58.4126 319.361 0.584242 353.818" stroke="#99D3DE"/>
<path d="M1028 162.115C999.835 143.321 929.303 105.732 872.494 105.732C801.483 105.732 688.225 290.857 606.427 302.134C524.629 313.41 371.82 250.449 272.944 257.967C193.843 263.981 58.4126 334.396 0.584242 368.853" stroke="#99D3DE"/>
<path d="M1028 177.151C999.835 158.356 929.303 120.768 872.494 120.768C801.483 120.768 688.225 305.892 606.427 317.169C524.629 328.445 371.82 265.484 272.944 273.002C193.843 279.016 58.4126 349.431 0.584242 383.889" stroke="#99D3DE"/>
<path d="M1028 192.186C999.835 173.391 929.303 135.803 872.494 135.803C801.483 135.803 688.225 320.927 606.427 332.204C524.629 343.48 371.82 280.519 272.944 288.037C193.843 294.051 58.4126 364.466 0.584242 398.924" stroke="#99D3DE"/>
<path d="M1028 207.223C999.835 188.429 929.303 150.84 872.494 150.84C801.483 150.84 688.225 335.964 606.427 347.241C524.629 358.518 371.82 295.557 272.944 303.074C193.843 309.088 58.4126 379.503 0.584242 413.961" stroke="#99D3DE"/>
<path d="M1028 222.258C999.835 203.464 929.303 165.875 872.494 165.875C801.483 165.875 688.225 350.999 606.427 362.276C524.629 373.553 371.82 310.592 272.944 318.109C193.843 324.124 58.4126 394.538 0.584242 428.996" stroke="#99D3DE"/>
<path d="M1028 237.294C999.835 218.499 929.303 180.91 872.494 180.91C801.483 180.91 688.225 366.035 606.427 377.311C524.629 388.588 371.82 325.627 272.944 333.145C193.843 339.159 58.4126 409.574 0.584242 444.031" stroke="#99D3DE"/>
<path d="M1028 252.328C999.835 233.534 929.303 195.945 872.494 195.945C801.483 195.945 688.225 381.069 606.427 392.346C524.629 403.623 371.82 340.662 272.944 348.179C193.843 354.194 58.4126 424.608 0.584242 459.066" stroke="#99D3DE"/>
<path d="M1028 267.363C999.835 248.569 929.303 210.98 872.494 210.98C801.483 210.98 688.225 396.105 606.427 407.381C524.629 418.658 371.82 355.697 272.944 363.215C193.843 369.229 58.4126 439.644 0.584242 474.101" stroke="#99D3DE"/>
<path d="M1028 282.401C999.835 263.606 929.303 226.018 872.494 226.018C801.483 226.018 688.225 411.142 606.427 422.418C524.629 433.695 371.82 370.734 272.944 378.252C193.843 384.266 58.4126 454.681 0.584242 489.138" stroke="#99D3DE"/>
<path d="M1028 297.436C999.835 278.641 929.303 241.053 872.494 241.053C801.483 241.053 688.225 426.177 606.427 437.453C524.629 448.73 371.82 385.769 272.944 393.287C193.843 399.301 58.4126 469.716 0.584242 504.173" stroke="#99D3DE"/>
<path d="M1028 312.471C999.835 293.677 929.303 256.088 872.494 256.088C801.483 256.088 688.225 441.212 606.427 452.489C524.629 463.765 371.82 400.804 272.944 408.322C193.843 414.336 58.4126 484.751 0.584242 519.208" stroke="#99D3DE"/>
</svg>
