<svg width="1028" height="141" viewBox="0 0 1028 141" fill="none" xmlns="http://www.w3.org/2000/svg">
<path d="M1028 110.742C999.835 120.742 929.303 140.742 872.494 140.742C801.483 140.742 688.225 42.2422 606.427 36.242C524.629 30.242 371.82 63.7422 272.944 59.7422C193.843 56.5422 58.4126 19.076 0.584242 0.742004" stroke="#99D3DE"/>
<path d="M1028 102.742C999.835 112.742 929.303 132.742 872.494 132.742C801.483 132.742 688.225 34.242 606.427 28.242C524.629 22.242 371.82 55.7422 272.944 51.7422C193.843 48.5422 58.4126 11.076 0.584242 -7.258" stroke="#99D3DE"/>
<path d="M1028 94.7422C999.835 104.742 929.303 124.742 872.494 124.742C801.483 124.742 688.225 26.242 606.427 20.242C524.629 14.242 371.82 47.7422 272.944 43.7422C193.843 40.542 58.4126 3.07599 0.584242 -15.258" stroke="#99D3DE"/>
<path d="M1028 86.7422C999.835 96.7422 929.303 116.742 872.494 116.742C801.483 116.742 688.225 18.242 606.427 12.242C524.629 6.24199 371.82 39.742 272.944 35.742C193.843 32.542 58.4126 -4.92401 0.584242 -23.258" stroke="#99D3DE"/>
<path d="M1028 78.7422C999.835 88.7422 929.303 108.742 872.494 108.742C801.483 108.742 688.225 10.242 606.427 4.24199C524.629 -1.75801 371.82 31.742 272.944 27.742C193.843 24.542 58.4126 -12.924 0.584242 -31.258" stroke="#99D3DE"/>
<path d="M1028 70.7422C999.835 80.7422 929.303 100.742 872.494 100.742C801.483 100.742 688.225 2.24199 606.427 -3.75801C524.629 -9.75801 371.82 23.742 272.944 19.742C193.843 16.542 58.4126 -20.924 0.584242 -39.258" stroke="#99D3DE"/>
<path d="M1028 62.7422C999.835 72.7422 929.303 92.7422 872.494 92.7422C801.483 92.7422 688.225 -5.75801 606.427 -11.758C524.629 -17.758 371.82 15.742 272.944 11.742C193.843 8.54199 58.4126 -28.924 0.584242 -47.258" stroke="#99D3DE"/>
<path d="M1028 54.7422C999.835 64.7422 929.303 84.7422 872.494 84.7422C801.483 84.7422 688.225 -13.758 606.427 -19.758C524.629 -25.758 371.82 7.74199 272.944 3.74199C193.843 0.541989 58.4126 -36.924 0.584242 -55.258" stroke="#99D3DE"/>
<path d="M1028 46.7422C999.835 56.7422 929.303 76.7422 872.494 76.7422C801.483 76.7422 688.225 -21.758 606.427 -27.758C524.629 -33.758 371.82 -0.258011 272.944 -4.25801C193.843 -7.45801 58.4126 -44.924 0.584242 -63.258" stroke="#99D3DE"/>
<path d="M1028 38.742C999.835 48.7422 929.303 68.7422 872.494 68.7422C801.483 68.7422 688.225 -29.758 606.427 -35.758C524.629 -41.758 371.82 -8.25801 272.944 -12.258C193.843 -15.458 58.4126 -52.924 0.584242 -71.258" stroke="#99D3DE"/>
<path d="M1028 30.742C999.835 40.742 929.303 60.7422 872.494 60.7422C801.483 60.7422 688.225 -37.758 606.427 -43.758C524.629 -49.758 371.82 -16.258 272.944 -20.258C193.843 -23.458 58.4126 -60.924 0.584242 -79.258" stroke="#99D3DE"/>
<path d="M1028 22.742C999.835 32.742 929.303 52.7422 872.494 52.7422C801.483 52.7422 688.225 -45.758 606.427 -51.758C524.629 -57.758 371.82 -24.258 272.944 -28.258C193.843 -31.458 58.4126 -68.924 0.584242 -87.258" stroke="#99D3DE"/>
<path d="M1028 14.742C999.835 24.742 929.303 44.7422 872.494 44.7422C801.483 44.7422 688.225 -53.758 606.427 -59.758C524.629 -65.758 371.82 -32.258 272.944 -36.258C193.843 -39.458 58.4126 -76.924 0.584242 -95.258" stroke="#99D3DE"/>
<path d="M1028 6.7422C999.835 16.7422 929.303 36.7422 872.494 36.7422C801.483 36.7422 688.225 -61.7578 606.427 -67.7578C524.629 -73.7578 371.82 -40.2578 272.944 -44.2578C193.843 -47.4578 58.4126 -84.9238 0.584242 -103.258" stroke="#99D3DE"/>
<path d="M1028 -1.2578C999.835 8.7422 929.303 28.7422 872.494 28.7422C801.483 28.7422 688.225 -69.7578 606.427 -75.7578C524.629 -81.7578 371.82 -48.2578 272.944 -52.2578C193.843 -55.4578 58.4126 -92.9238 0.584242 -111.258" stroke="#99D3DE"/>
<path d="M1028 -9.2578C999.835 0.742195 929.303 20.7422 872.494 20.7422C801.483 20.7422 688.225 -77.7578 606.427 -83.7578C524.629 -89.7578 371.82 -56.2578 272.944 -60.2578C193.843 -63.4578 58.4126 -100.924 0.584242 -119.258" stroke="#99D3DE"/>
<path d="M1028 -17.2578C999.835 -7.25781 929.303 12.7422 872.494 12.7422C801.483 12.7422 688.225 -85.7578 606.427 -91.7578C524.629 -97.7578 371.82 -64.2578 272.944 -68.2578C193.843 -71.4578 58.4126 -108.924 0.584242 -127.258" stroke="#99D3DE"/>
<path d="M1028 -25.2578C999.835 -15.2578 929.303 4.74219 872.494 4.74219C801.483 4.74219 688.225 -93.7578 606.427 -99.7578C524.629 -105.758 371.82 -72.2578 272.944 -76.2578C193.843 -79.4578 58.4126 -116.924 0.584242 -135.258" stroke="#99D3DE"/>
</svg>
